<svg xmlns="http://www.w3.org/2000/svg" width="680" height="100" viewBox="0 0 680 100"><path clip-rule="evenodd" fill="none" d="M49.012 3.49c21.08 0 38.176 17.094 38.176 38.173 0 21.08-17.096 38.175-38.176 38.175S10.838 62.743 10.838 41.663 27.932 3.49 49.012 3.49z"/><g fill="#FFF"><path d="M320.983 40.918l-1.314-.118c-.322-.046-.546-.164-.653-.35-.09-.157-.214-.495-.295-1.212l-.117-2.617-.016-3.65V21.327c0-1.145.527-1.374.924-1.447l.75-.087c.336.002.465-.23.465-.426 0-.182-.096-.487-.727-.487l-2.92.09-3.34-.09c-.638 0-.732.306-.732.487 0 .197.13.428.493.428l1.166.113c.3.066.53.208.686.422.16.22.24.557.24.997v7.04l-12.522-.07.07-.554v-6.416c0-1.145.528-1.374.926-1.447l.75-.087c.335.002.464-.23.464-.426 0-.182-.095-.487-.726-.487l-2.918.09-3.342-.09c-.638 0-.73.306-.73.487 0 .197.127.428.49.428l1.166.113c.3.066.53.208.687.422.16.22.24.556.24.997V32.97l-.028 3.946-.117 2.468-.262 1.055c-.097.207-.227.324-.408.366l-.868.114c-.135-.002-.284.096-.413.287l-.04.063v.075c0 .183.093.487.724.487l2.918-.09c0 .002 1.454.06 1.454.06l2.192.03c.63 0 .725-.305.725-.487v-.075l-.042-.063c-.128-.19-.277-.29-.445-.29l-1.314-.117c-.325-.047-.543-.162-.653-.352-.13-.225-.23-.633-.294-1.21l-.118-2.617-.015-3.65v-3.118l12.522.07-.072 3.048-.03 3.946-.117 2.47-.26 1.053c-.097.207-.227.324-.408.366l-.87.114c-.133-.002-.282.096-.41.287l-.042.063v.075c0 .183.094.487.725.487l2.918-.09c0 .002 1.454.06 1.454.06l2.192.03c.63 0 .724-.305.724-.487v-.075l-.042-.063c-.132-.19-.28-.29-.45-.29zM218.72 37.325c-.383 0-.48.486-.512.646-.183 1.042-.583 1.698-1.19 1.96l-1.092.262-1.66.044c-1.725 0-2.397-.232-2.66-.426-.355-.266-.536-.858-.536-1.76v-7.692c.002.04 2.355.085 2.355.085l1.942.117c.402.044.717.16.934.344l.28.49.108.923c0 .382.246.517.457.517.304 0 .458-.273.458-.813l.103-1.622.25-1.9c.004-.2-.078-.346-.238-.474l-.068-.055h-.088c-.146 0-.3.078-.66.484-.186.207-.594.316-1.182.316l-.794.06h-3.93l.073-8.245 3.366.07c.757 0 1.37.113 1.83.333.303.15.514.356.64.623.133.287.198.583.198.905 0 .55.38.576.457.576.116 0 .394-.047.483-.497l.153-1.99c0 .008.143-.913.143-.913l.094-.5c0-.536-.327-.578-.427-.578h-.06l-.47.24-1.222.118-6.685-.002-3.35-.09c-.64 0-.732.307-.732.488 0 .197.128.428.487.428l1.135.112c.3.067.514.192.656.382.052.07.15.26.22.747.005.025.087 1.36.087 1.36V32.97l-.06 4.418c-.04 1.248-.098 2.063-.173 2.422l-.238.74s-.368.262-.37.262l-.432.115-.38-.01c-.167 0-.316.1-.445.29l-.04.063v.075c0 .183.093.487.724.487l2.918-.09 7.32.18c.904 0 1.178-.07 1.306-.123.25-.105.425-.38.534-.843l.272-1.568.135-1.37c.003-.574-.23-.695-.425-.695zm-46.78-7.13l-2.918.09-3.342-.09c-.638 0-.73.307-.73.488 0 .197.126.428.486.428l.948.083c.53.137.854.333.96.583.086.2.188.753.188 2.234v5.05c0 .387-.15.653-.47.838-.366.21-.832.36-1.383.444l-1.88.13c-2.832 0-5.293-.946-7.314-2.814-2.233-2.06-3.365-4.865-3.365-8.34 0-3.218.9-5.643 2.68-7.21 1.528-1.357 3.672-2.046 6.368-2.046 1.763 0 3.3.254 4.57.755 1.057.415 1.797.933 2.202 1.54l.457.968.125.854c.025.213.09.694.457.694.25 0 .546-.15.546-.873l.06-2.76.117-1.428c.002-.28-.157-.546-.604-.546.032.002-3.78-.532-3.78-.532-1.227-.18-2.293-.27-3.17-.27-3.584 0-6.57.865-8.882 2.573-2.807 2.06-4.23 5.194-4.23 9.32 0 4.186 1.536 7.362 4.564 9.442 2.37 1.624 5.395 2.448 8.993 2.448 1 0 2.11-.11 3.298-.33 1.2-.223 2.247-.57 3.117-1.036.004-.002.45-.546.45-.546l.067-1.278v-3.326l.03-2.03.086-1.57.23-.612c.1-.15.307-.26.614-.325l.72-.085c.33 0 .46-.23.46-.427 0-.182-.095-.487-.726-.487zm165.557-11.732c-3.822 0-6.896 1.38-9.133 4.1-1.87 2.274-2.82 4.886-2.82 7.764 0 3.095.93 5.787 2.76 8 2.16 2.604 5.192 3.923 9.016 3.923 3.56 0 6.52-1.235 8.796-3.673 2.192-2.334 3.305-5.27 3.305-8.725 0-3.463-1.13-6.26-3.362-8.308-2.227-2.044-5.106-3.08-8.56-3.08zm7.064 18.594c-.782 1.298-1.873 2.264-3.244 2.873-1.014.46-2.09.69-3.195.69-2.643 0-4.867-1.024-6.61-3.046-1.755-2.032-2.644-4.75-2.644-8.08 0-3.087.806-5.497 2.396-7.164 1.49-1.564 3.518-2.358 6.027-2.358 2.41 0 4.466.922 6.11 2.74 1.77 1.962 2.668 4.645 2.668 7.97 0 2.596-.507 4.74-1.507 6.375zm-212.42 3.86l-1.314-.117c-.32-.046-.545-.164-.652-.35-.13-.228-.23-.635-.295-1.212l-.118-2.617-.015-3.65V21.327c0-1.145.527-1.374.925-1.447l.75-.087c.335.002.464-.23.464-.426 0-.182-.094-.487-.725-.487l-2.918.09-3.342-.09c-.638 0-.73.306-.73.487 0 .197.128.428.49.428l1.166.113c.3.066.532.208.687.422.16.22.24.557.24.997v7.04l-12.522-.07.072-.554v-6.416c0-1.145.527-1.374.925-1.447l.75-.087c.335.002.464-.23.464-.426 0-.182-.093-.487-.724-.487l-2.92.09-3.34-.09c-.64 0-.732.306-.732.487 0 .197.127.428.487.428l1.136.112c.298.067.513.192.655.382.053.068.15.258.22.746.006.025.088 1.36.088 1.36V32.97l-.06 4.418c-.04 1.248-.097 2.063-.173 2.422l-.238.74-.368.262c-.004 0-.434.115-.434.115l-.38-.01c-.167 0-.317.1-.445.29l-.04.063v.075c0 .183.094.487.725.487l2.918-.09c0 .002 1.454.06 1.454.06l2.19.03c.632 0 .726-.305.726-.487v-.075l-.04-.063c-.13-.19-.28-.29-.446-.29l-1.317-.117c-.325-.047-.543-.162-.652-.352-.09-.155-.214-.492-.294-1.21l-.118-2.617-.015-3.65v-3.118l12.523.07-.07 3.048-.03 3.946-.117 2.47-.262 1.053c-.097.208-.226.324-.408.366l-.868.114c-.135-.002-.284.096-.412.287l-.042.063v.075c0 .183.094.487.725.487l2.917-.09c0 .002 1.454.06 1.454.06l2.193.03c.63 0 .725-.305.725-.487v-.075l-.04-.063c-.13-.19-.28-.29-.448-.29zm13.336 0l-1.314-.117c-.32-.046-.545-.164-.652-.35-.13-.228-.23-.635-.295-1.212l-.117-2.617-.015-3.65V21.327c0-1.145.527-1.374.925-1.447l.75-.087c.335.002.464-.23.464-.426 0-.182-.094-.487-.725-.487l-2.92.09-2.984-.09c-.638 0-.73.306-.73.487 0 .197.128.428.49.428l.45.028.418.078c.386.09.87.327.87 1.427V32.97l-.03 3.946-.117 2.468-.262 1.055c-.096.207-.225.324-.407.366l-.868.114c-.135-.002-.284.096-.412.287l-.042.063v.075c0 .183.095.487.726.487l2.918-.09c0 .002 1.454.06 1.454.06l2.192.03c.63 0 .725-.305.725-.487v-.075l-.04-.063c-.132-.19-.28-.29-.45-.29zm100.838 0l-.62-.028-.49-.056c-.497-.076-.972-.23-1.422-.454-.684-.342-1.374-.884-2.053-1.61l-1.85-2.07-2.044-2.577-2.155-2.77c1.23-1.167 2.16-2.323 2.718-3.44.53-1.058.8-2.215.8-3.437 0-.953-.263-1.866-.78-2.714-.392-.64-.854-1.154-1.373-1.528-.78-.554-1.622-.922-2.504-1.097-.86-.17-1.896-.257-3.077-.257l-3.512.09-3.342-.09c-.638 0-.73.306-.73.487 0 .197.128.428.49.428l1.166.113c.3.066.532.208.687.422.16.22.24.556.24.997V32.97l-.028 3.946-.117 2.468-.26 1.055c-.098.207-.228.324-.41.366l-.868.114c-.134-.002-.284.096-.412.287l-.042.063v.075c0 .183.095.487.726.487l2.798-.09c0 .002 1.454.06 1.454.06l2.19.03c.632 0 .727-.305.727-.487v-.075l-.043-.063c-.128-.19-.278-.29-.445-.29l-1.315-.117c-.32-.046-.544-.164-.65-.35-.132-.228-.23-.635-.296-1.212l-.117-2.617-.015-3.65v-.713l3.612.012.21.104 3.212 4.396 2.18 2.793c.704.812 1.33 1.357 1.913 1.67l1.336.477 1.962.123h2.108c.264 0 .963 0 .963-.487v-.17l-.102-.094-.416-.164zM234.5 30.388c-.31.22-.62.36-.92.423l-1.168.1-1.86-.147c-.76-.122-1.008-.22-1.088-.266-.13-.076-.13-.14-.13-.17v-9.713c0-.088.023-.095.054-.104l.75-.123 1.176-.06c1.52 0 2.727.502 3.584 1.49.865.997 1.305 2.41 1.305 4.202 0 1.09-.158 2.016-.47 2.753-.307.725-.722 1.268-1.233 1.615zm30.354-.998l-1.752-1.397c-1.42-1.146-2.38-2.05-2.852-2.686-.45-.607-.68-1.317-.68-2.108 0-1.005.314-1.77.957-2.34.643-.568 1.466-.857 2.448-.857.892 0 1.647.133 2.246.396.58.252 1 .605 1.25 1.05l.242.682.112.682c.077.532.307.636.486.636.458 0 .458-.677.458-.933l.044-2.005.074-1.123c0-.242-.144-.48-.546-.48l-.988-.144c-.842-.2-1.79-.302-2.814-.302-1.914 0-3.474.516-4.634 1.532-1.17 1.025-1.764 2.393-1.764 4.064 0 1.166.26 2.226.774 3.15.586 1.07 1.655 2.245 3.18 3.488l1.335 1.098c1.28 1.067 2.168 1.97 2.638 2.678.455.688.686 1.52.686 2.477 0 .993-.327 1.82-1 2.53-.75.788-1.73 1.17-2.998 1.17-1.058 0-1.953-.217-2.662-.645-.796-.5-1.284-1.215-1.49-2.185l-.083-1.047c0-.535-.35-.577-.456-.577-.202 0-.45.123-.487.71l-.104 1.483-.045 1.68.074.9c0 .002.518.455.518.455.607.283 1.262.494 1.94.627l2.143.197c2.254 0 4.07-.644 5.4-1.91 1.233-1.173 1.86-2.693 1.86-4.52 0-1.305-.292-2.48-.865-3.493-.565-1.002-1.456-1.992-2.644-2.938zm27.942 6.568c-.276 0-.46.233-.543.694l-.373 1.218c-.185.48-.406.85-.657 1.102-.54.56-1.195.937-1.947 1.12-.778.194-1.803.292-3.044.292-3.022 0-5.57-1.083-7.57-3.22-1.926-2.06-2.902-4.55-2.902-7.402 0-2.938.622-5.226 1.848-6.797 1.488-1.906 3.98-2.874 7.407-2.874 2.007 0 3.645.35 4.867 1.04 1.394.79 2.07 1.913 2.07 3.435 0 .58.165.873.488.873.18 0 .408-.106.484-.613l.063-1.508.06-1.78.146-1.668c0-.307-.166-.604-.635-.604.035.002-3.69-.532-3.69-.532-1.226-.18-2.452-.27-3.646-.27-4.333 0-7.675 1.327-9.932 3.947-1.794 2.077-2.704 4.63-2.704 7.59 0 3.657 1.135 6.605 3.373 8.764 2.393 2.313 5.85 3.485 10.27 3.485l3.047-.195c1.07-.133 1.853-.3 2.39-.506.016-.007.607-.37.607-.37l.36-.82.393-2.004.226-1.702c0-.605-.286-.696-.457-.696zm-92.67 4.96l-1.313-.118c-.325-.047-.543-.162-.653-.352-.09-.155-.213-.493-.294-1.21l-.117-2.617-.016-3.65V21.327c0-1.145.527-1.374.924-1.447l.75-.087c.336.002.465-.23.465-.426 0-.182-.095-.487-.726-.487l-2.918.09-3.343-.09c-.638 0-.73.306-.73.487 0 .197.127.428.49.428l1.166.113c.3.066.532.208.687.422.16.22.24.556.24.997v7.04l-12.522-.07.07-.554v-6.416c0-1.145.528-1.374.926-1.447l.75-.087c.335.002.464-.23.464-.426 0-.182-.095-.487-.726-.487l-2.918.09-3.342-.09c-.638 0-.73.306-.73.487 0 .197.128.428.49.428l1.166.113c.3.066.532.208.687.422.16.22.24.556.24.997V32.97l-.03 3.946-.116 2.468-.263 1.055c-.097.207-.226.324-.408.366l-.87.114c-.134-.002-.283.096-.412.287l-.04.063v.075c0 .183.093.487.724.487l2.918-.09c0 .002 1.454.06 1.454.06l2.192.03c.63 0 .725-.305.725-.487v-.075l-.04-.063c-.13-.19-.278-.29-.446-.29l-1.314-.117c-.32-.046-.545-.164-.652-.35-.13-.227-.23-.634-.295-1.212l-.117-2.617-.015-3.65v-3.118l12.523.07-.07 3.048-.03 3.946-.118 2.47-.26 1.053c-.098.207-.228.324-.41.366l-.867.114c-.134-.002-.283.096-.412.287l-.042.063v.076c0 .183.094.487.725.487l2.917-.09c0 .002 1.454.06 1.454.06l2.193.03c.63 0 .725-.305.725-.487v-.075l-.042-.062c-.13-.192-.28-.29-.45-.29zm417.873 0l-.883-.043-.974-.213c-.5-.155-.856-.542-1.09-1.184l-.342-1.757-1.99-18.232c-.03-.28-.11-1.025-.603-1.025-.402 0-.607.47-.675.625l-8.508 18.174-8.86-18.213c-.066-.143-.273-.587-.67-.587-.298 0-.49.25-.573.744l-2.14 19.38c-.096.982-.19 1.38-.252 1.54-.15.415-.354.64-.63.69l-.95.1-.59.262.044.137c0 .155.074.517.755.517l2.504-.09 2.747.09c.69 0 .792-.324.792-.517v-.114l-.197-.17-.29-.114-.454-.03-.847-.144c-.105-.022-.352-.076-.352-.646l.03-1.51 1.125-13.042 1.042 2.265 2.587 5.552 3.477 6.878.526.93c.23.407.408.573.617.573.324 0 .536-.354.686-.66l.517-1.046 6.98-14.61c.147 1.598 1.34 14.426 1.34 14.426.004.018.03.453.03.453l-.046.4c-.182.068-.31.2-.31.4 0 .47.718.52 1.063.546l2.65.09 2.327.09c.722 0 .874-.282.874-.518.002-.068-.022-.4-.485-.4zm-44.762-22.455c-3.822 0-6.896 1.38-9.134 4.1-1.87 2.274-2.82 4.886-2.82 7.764 0 3.095.93 5.786 2.762 8 2.16 2.604 5.19 3.923 9.014 3.923 3.56 0 6.52-1.235 8.797-3.673 2.192-2.334 3.305-5.27 3.305-8.725 0-3.463-1.132-6.26-3.363-8.308-2.228-2.044-5.108-3.08-8.562-3.08zm7.063 18.594c-.78 1.298-1.872 2.264-3.243 2.873-1.014.46-2.09.69-3.195.69-2.644 0-4.868-1.024-6.612-3.046-1.754-2.032-2.643-4.75-2.643-8.08 0-3.087.806-5.497 2.396-7.164 1.49-1.564 3.517-2.358 6.027-2.358 2.41 0 4.466.922 6.11 2.74 1.772 1.962 2.67 4.645 2.67 7.97 0 2.597-.508 4.74-1.51 6.375zM556.517 18.88l-2.524.088-1.298-.06-1.792-.03c-.21 0-.844 0-.844.46 0 .276.19.456.487.456l.687.044.725.1c.38.097.63.29.748.59.137.345.205 1.014.205 1.987l.313 14.433-6.68-7.265-9.446-10.19-.61-.625-.613-.404c-.124 0-.423.05-.512.498l-.064 1.237v17.02c0 1.32-.058 2.252-.173 2.767-.096.436-.252.688-.464.75l-.62.155-.602.027c-.36 0-.487.23-.487.427 0 .183.096.487.727.487l2.836-.09 1.173.06 1.96.03c.65 0 .786-.265.786-.487 0-.197-.128-.428-.488-.428l-.677-.03-.86-.17c-.274-.076-.477-.31-.617-.717-.16-.458-.24-1.285-.24-2.458l-.367-13.557 3.587 3.982 3.714 4.04c0 .002 4.98 5.248 4.98 5.248l2.786 2.815 1.607 1.55c.43.368.605.418.73.418.092 0 .396-.033.47-.476l.047-1.882V22.278c0-.938.06-1.57.182-1.887.104-.268.284-.42.567-.482l.863-.113c.543 0 .586-.35.586-.457-.002-.304-.265-.46-.786-.46zm97.213 17.078c-.277 0-.46.233-.544.694l-.374 1.218c-.183.48-.404.85-.656 1.102-.54.56-1.194.936-1.946 1.12-.778.194-1.803.292-3.045.292-3.022 0-5.57-1.083-7.57-3.22-1.926-2.06-2.902-4.55-2.902-7.402 0-2.938.622-5.226 1.85-6.797 1.486-1.906 3.978-2.874 7.405-2.874 2.006 0 3.644.35 4.868 1.04 1.393.79 2.07 1.913 2.07 3.435 0 .58.164.873.487.873.18 0 .41-.106.484-.614l.063-1.507.06-1.78.146-1.668c.002-.307-.165-.604-.634-.604.035.002-3.69-.532-3.69-.532-1.226-.18-2.452-.27-3.647-.27-4.333 0-7.675 1.327-9.932 3.947-1.794 2.078-2.704 4.63-2.704 7.59 0 3.657 1.134 6.606 3.373 8.764 2.393 2.313 5.85 3.485 10.27 3.485l3.047-.195c1.07-.134 1.854-.3 2.39-.506.017-.007.607-.37.607-.37l.36-.82.394-2.004.227-1.702c0-.605-.287-.696-.458-.696zM517.4 18.463c-3.823 0-6.897 1.38-9.135 4.1-1.87 2.274-2.82 4.886-2.82 7.764 0 3.095.93 5.786 2.762 8 2.16 2.604 5.19 3.923 9.015 3.923 3.56 0 6.52-1.235 8.796-3.673 2.192-2.334 3.305-5.27 3.305-8.725 0-3.463-1.132-6.26-3.363-8.308-2.227-2.044-5.107-3.08-8.56-3.08zm7.063 18.594c-.783 1.298-1.874 2.264-3.245 2.873-1.014.46-2.09.69-3.195.69-2.644 0-4.868-1.024-6.612-3.046-1.753-2.032-2.642-4.75-2.642-8.08 0-3.087.806-5.497 2.396-7.164 1.49-1.564 3.517-2.358 6.027-2.358 2.41 0 4.467.922 6.112 2.74 1.77 1.963 2.668 4.646 2.668 7.97 0 2.596-.507 4.74-1.507 6.375zm104.495 3.86l-1.313-.117c-.32-.046-.545-.164-.653-.35-.09-.157-.214-.494-.295-1.212l-.116-2.617-.015-3.65V21.327c0-1.145.527-1.374.924-1.447l.75-.087c.335.002.464-.23.464-.426 0-.182-.095-.487-.725-.487l-2.92.09-2.984-.09c-.64 0-.733.306-.733.487 0 .197.13.428.493.428l.45.028.417.078c.385.09.867.327.867 1.427V32.97l-.03 3.946-.116 2.468-.26 1.055c-.097.208-.227.324-.41.366l-.867.114c-.134-.002-.284.096-.412.287l-.042.063v.075c0 .183.095.487.725.487l2.92-.09c0 .002 1.452.06 1.452.06l2.192.03c.63 0 .726-.305.726-.487v-.075l-.042-.063c-.13-.19-.28-.29-.448-.29zm-233.543-3.71c-.193 0-.44.108-.515.63l-.25.843-.467.785c-.283.354-.662.567-1.16.655l-2.242.146c-1.085 0-1.887-.053-2.383-.158-.464-.098-.802-.25-1.003-.452-.217-.217-.58-1.366-.58-6.625V21.328c0-1.143.56-1.373.98-1.446l.984-.086c.34 0 .47-.23.47-.427 0-.182-.095-.487-.725-.487l-3.215.09-3.343-.09c-.638 0-.732.306-.732.487 0 .197.13.428.493.428l1.165.113c.302.066.533.208.687.422.16.22.24.556.24.997V32.97l-.03 3.946-.116 2.468-.26 1.055c-.096.208-.226.324-.407.366l-.87.114c-.133-.002-.283.096-.41.287l-.043.063v.075c0 .183.095.487.725.487l1.702-.06 1.215-.03 3.55.12 4.404.06c1.06 0 1.38-.09 1.528-.156.27-.12.47-.42.613-.916l.305-1.597.12-1.354c0-.573-.232-.694-.427-.694zm24.474-18.744c-3.824 0-6.897 1.38-9.135 4.1-1.87 2.274-2.82 4.886-2.82 7.764 0 3.095.93 5.786 2.762 8 2.158 2.604 5.19 3.923 9.014 3.923 3.562 0 6.52-1.235 8.797-3.673 2.193-2.334 3.306-5.27 3.306-8.725 0-3.463-1.132-6.258-3.363-8.308-2.228-2.044-5.108-3.08-8.56-3.08zm7.063 18.594c-.78 1.297-1.873 2.264-3.245 2.873-1.013.46-2.088.69-3.195.69-2.644 0-4.868-1.024-6.612-3.046-1.753-2.033-2.642-4.75-2.642-8.08 0-3.086.806-5.496 2.396-7.164 1.488-1.564 3.516-2.358 6.027-2.358 2.41 0 4.467.922 6.112 2.74 1.77 1.963 2.668 4.646 2.668 7.97 0 2.597-.506 4.74-1.507 6.375zM364.94 18.463c-3.82 0-6.895 1.38-9.133 4.1-1.87 2.274-2.82 4.886-2.82 7.764 0 3.095.93 5.786 2.762 8 2.158 2.604 5.19 3.923 9.013 3.923 3.562 0 6.52-1.235 8.797-3.673 2.192-2.334 3.305-5.27 3.305-8.725 0-3.463-1.132-6.26-3.363-8.308-2.227-2.044-5.107-3.08-8.56-3.08zm7.064 18.594c-.782 1.298-1.873 2.264-3.244 2.873-1.014.46-2.09.69-3.195.69-2.644 0-4.868-1.024-6.612-3.046-1.754-2.032-2.643-4.75-2.643-8.08 0-3.087.806-5.497 2.396-7.164 1.49-1.564 3.517-2.358 6.027-2.358 2.41 0 4.466.922 6.11 2.74 1.772 1.962 2.67 4.645 2.67 7.97 0 2.597-.508 4.74-1.51 6.375zm104.912.268c-.383 0-.48.486-.513.646-.182 1.042-.58 1.7-1.19 1.96l-1.092.263-1.66.044c-1.723 0-2.395-.232-2.656-.426-.357-.265-.538-.857-.538-1.76v-7.69c0 .04 2.354.084 2.354.084l1.943.117c.402.045.717.16.935.345 0 .003.278.49.278.49l.107.923c0 .382.247.517.458.517.305 0 .46-.273.46-.813l.102-1.623.25-1.9c.004-.2-.078-.346-.238-.475l-.068-.055h-.088c-.146 0-.3.08-.662.485-.185.207-.592.316-1.18.316l-.794.062h-3.93l.073-8.246 3.367.07c.758 0 1.37.113 1.83.333.303.15.513.355.638.622.135.286.2.582.2.904 0 .55.38.576.457.576.115 0 .394-.048.482-.498l.15-1.99c0 .008.145-.913.145-.913l.096-.5c0-.535-.327-.577-.428-.577h-.06l-.467.24-1.224.118h-6.685l-3.35-.09c-.637 0-.73.306-.73.487 0 .197.127.428.486.428l1.136.112c.298.067.513.192.656.383.052.068.15.258.22.746.005.025.086 1.36.086 1.36V32.97l-.06 4.418c-.038 1.245-.096 2.06-.172 2.422l-.24.74c-.066.116-.187.2-.367.262l-.433.115-.38-.01c-.168 0-.318.1-.446.29l-.04.063v.075c0 .183.094.487.725.487l2.918-.09 7.322.18c.903 0 1.178-.07 1.306-.123.25-.105.425-.38.534-.843l.27-1.568.138-1.37c.002-.574-.23-.695-.426-.695zm-27.623-18.713h-.06l-.468.24-1.223.118-7.16-.002-3.47-.09c-.637 0-.73.307-.73.488 0 .197.127.428.487.428l1.133.112c.3.067.514.192.655.382.053.07.15.26.22.747.006.025.087 1.36.087 1.36V32.97l-.06 4.418c-.038 1.245-.096 2.06-.172 2.422l-.24.74c-.066.116-.187.2-.367.262l-.432.115-.38-.01c-.168 0-.318.1-.446.29l-.042.063v.075c0 .183.095.487.726.487l2.92-.09 1.452.06 2.192.03c.63 0 .725-.305.725-.487v-.075l-.04-.063c-.13-.19-.28-.29-.446-.29l-1.314-.117c-.513-.064-.793-.342-.874-.873l-.175-2.64-.03-4.317v-2.554c.002.013 2.535.056 2.535.056l2.06.118c.404.044.72.16.935.343 0 .003.28.49.28.49l.107.924c0 .38.247.517.458.517.303 0 .457-.27.457-.805l.103-1.6.25-1.874c.005-.2-.076-.345-.236-.474l-.07-.056h-.088c-.146 0-.303.08-.662.485-.185.208-.592.318-1.18.318h-4.948v-8.216c.018-.077 3.216.012 3.217.012h.75c.75 0 1.364.112 1.822.332.304.15.514.356.64.623.134.285.2.58.2.903 0 .55.38.576.457.576.142 0 .394-.065.48-.498l.153-1.99c0 .007.143-.914.143-.914l.096-.5c0-.534-.328-.576-.43-.576zm52.186 17.346c-.277 0-.46.233-.544.694l-.374 1.218c-.183.48-.404.85-.656 1.102-.54.56-1.194.936-1.946 1.12-.778.194-1.803.292-3.045.292-3.022 0-5.57-1.083-7.57-3.22-1.925-2.06-2.9-4.55-2.9-7.402 0-2.94.62-5.227 1.847-6.797 1.487-1.906 3.98-2.874 7.406-2.874 2.006 0 3.644.35 4.868 1.04 1.393.79 2.07 1.913 2.07 3.435 0 .58.164.873.487.873.18 0 .41-.106.484-.614l.063-1.507.06-1.78.146-1.668c.002-.307-.165-.604-.634-.604.035.002-3.69-.532-3.69-.532-1.226-.18-2.452-.27-3.647-.27-4.333 0-7.675 1.327-9.932 3.947-1.794 2.078-2.704 4.63-2.704 7.59 0 3.657 1.134 6.606 3.373 8.764 2.393 2.313 5.85 3.485 10.27 3.485l3.047-.195c1.07-.134 1.854-.3 2.39-.506.016-.007.607-.37.607-.37l.36-.82.394-2.004.227-1.702c0-.605-.287-.696-.458-.696zm168.294-3.62c-.665-1.11-1.854-2.352-3.534-3.692l-.833-.654c-1.44-1.167-2.403-2.08-2.862-2.713-.44-.607-.665-1.307-.665-2.08 0-1.005.313-1.77.955-2.34s1.467-.857 2.448-.857c.892 0 1.647.133 2.246.396.58.252 1 .605 1.248 1.05l.242.682.11.682c.08.532.31.636.49.636.456 0 .456-.677.456-.933l.044-2.006.074-1.12c0-.242-.143-.48-.546-.48l-.99-.144c-.84-.2-1.787-.302-2.812-.302-1.915 0-3.475.516-4.635 1.532-1.17 1.025-1.763 2.394-1.763 4.064 0 1.167.26 2.227.773 3.15.586 1.07 1.656 2.244 3.18 3.488l1.336 1.098c1.28 1.066 2.168 1.968 2.64 2.68.454.686.685 1.52.685 2.475 0 .993-.326 1.82-1 2.53-.738.777-1.746 1.17-2.996 1.17-1.06 0-1.954-.217-2.663-.645-.795-.5-1.283-1.216-1.488-2.185l-.083-1.047c0-.55-.383-.577-.46-.577-.2 0-.45.123-.485.71l-.104 1.483-.044 1.68.075.902c.002 0 .518.453.518.453.607.283 1.26.494 1.94.627l2.144.197c.85 0 1.686-.108 2.485-.32.807-.216 1.527-.543 2.143-.974.967-.7 1.685-1.595 2.137-2.66.328-.804.495-1.635.495-2.475 0-1.306-.302-2.478-.898-3.482zM108.723 70.01V58.675h1.538l5.955 8.9v-8.9h1.44V70.01h-1.54l-5.954-8.906v8.906h-1.437M130.225 70.01l4.354-11.335h1.614l4.64 11.335h-1.71l-1.322-3.434h-4.74l-1.242 3.434h-1.595zm3.27-4.655h3.846l-1.184-3.138c-.36-.953-.628-1.736-.803-2.352-.146.73-.35 1.45-.612 2.167l-1.244 3.323zM155.04 70.01v-9.997h-3.734v-1.338h8.984v1.338h-3.75v9.997h-1.5M173.38 70.01V58.675h1.5V70.01h-1.5M188.365 64.49c0-1.882.504-3.354 1.515-4.418s2.314-1.597 3.914-1.597c1.045 0 1.99.25 2.83.75.84.5 1.48 1.197 1.92 2.092.44.893.66 1.908.66 3.04 0 1.15-.23 2.18-.693 3.086-.464.907-1.12 1.594-1.97 2.06-.854.47-1.77.7-2.754.7-1.068 0-2.02-.255-2.86-.772-.843-.514-1.48-1.22-1.91-2.11-.434-.89-.65-1.835-.65-2.83zm1.547.023c0 1.367.366 2.44 1.1 3.228.737.788 1.658 1.18 2.767 1.18 1.13 0 2.058-.395 2.786-1.19.73-.793 1.095-1.92 1.095-3.38 0-.92-.157-1.726-.47-2.414-.31-.69-.767-1.222-1.366-1.603-.602-.377-1.274-.567-2.02-.567-1.064 0-1.978.364-2.743 1.096-.766.727-1.148 1.946-1.148 3.65zM212.42 70.01V58.675h1.538l5.954 8.9v-8.9h1.438V70.01h-1.538l-5.954-8.906v8.906h-1.44M233.922 70.01l4.354-11.335h1.615l4.64 11.335h-1.71l-1.32-3.434h-4.74l-1.244 3.434h-1.594zm3.27-4.655h3.846l-1.185-3.138c-.36-.953-.63-1.736-.803-2.352-.146.73-.35 1.45-.612 2.167l-1.246 3.323zM256.963 70.01V58.675h1.502v9.997h5.58v1.338h-7.082M285.365 70.01V58.675h5.024c1.01 0 1.778.103 2.304.307.524.203.944.562 1.262 1.076.313.518.47 1.088.47 1.71 0 .806-.26 1.48-.78 2.032-.522.552-1.326.903-2.414 1.054.398.19.7.377.905.564.438.4.853.905 1.246 1.507l1.972 3.085h-1.888l-1.498-2.36c-.44-.677-.8-1.2-1.086-1.56-.282-.36-.536-.613-.76-.756-.225-.146-.452-.246-.684-.304-.172-.034-.45-.053-.837-.053h-1.74v5.032h-1.498zm1.5-6.33h3.224c.683 0 1.222-.072 1.606-.215.388-.143.68-.37.882-.68.2-.313.3-.65.3-1.018 0-.535-.192-.977-.583-1.322-.388-.345-1.002-.517-1.845-.517h-3.586v3.75zM308.105 70.01V58.675h8.195v1.338h-6.696v3.47h6.27v1.33h-6.27v3.86h6.96v1.337h-8.46M329.423 66.37l1.414-.125c.066.567.222 1.03.468 1.396.245.365.625.658 1.14.883s1.096.335 1.74.335c.57 0 1.076-.084 1.514-.253.437-.172.765-.404.978-.7.214-.298.322-.62.322-.97 0-.357-.104-.666-.312-.933-.206-.267-.547-.488-1.02-.667-.306-.12-.976-.304-2.02-.555-1.04-.25-1.77-.485-2.187-.707-.54-.282-.944-.637-1.21-1.056-.265-.42-.397-.89-.397-1.412 0-.57.16-1.105.485-1.603.325-.498.8-.876 1.423-1.135.626-.256 1.317-.385 2.08-.385.843 0 1.58.135 2.226.406.64.27 1.135.668 1.48 1.193.343.525.53 1.122.557 1.787l-1.438.108c-.08-.715-.34-1.26-.786-1.623-.447-.367-1.105-.55-1.976-.55-.908 0-1.567.167-1.984.5-.414.332-.623.733-.623 1.2 0 .41.148.744.44 1.006.29.264 1.043.533 2.262.808 1.22.277 2.056.518 2.51.723.66.306 1.147.69 1.462 1.155.313.467.47 1.006.47 1.612 0 .604-.172 1.172-.518 1.705s-.842.947-1.488 1.246c-.646.295-1.375.443-2.183.443-1.026 0-1.887-.147-2.578-.448-.694-.298-1.238-.747-1.634-1.35-.39-.595-.598-1.276-.617-2.033zM351.823 70.01V58.675h8.194v1.338h-6.695v3.47h6.27v1.33h-6.27v3.86h6.96v1.337h-8.46M372.405 70.01l4.354-11.335h1.614l4.64 11.335h-1.71l-1.323-3.434h-4.738L374 70.01h-1.595zm3.27-4.655h3.845l-1.186-3.138c-.358-.953-.628-1.736-.802-2.352-.146.73-.35 1.45-.613 2.167l-1.246 3.323zM395.533 70.01V58.675h5.024c1.01 0 1.78.103 2.305.307.524.203.944.562 1.262 1.076.313.518.47 1.088.47 1.71 0 .806-.26 1.48-.78 2.032-.522.552-1.326.903-2.413 1.054.4.19.7.377.906.564.438.4.853.905 1.245 1.507l1.973 3.085h-1.888l-1.498-2.36c-.438-.677-.8-1.2-1.085-1.56-.282-.36-.536-.613-.76-.756-.225-.146-.452-.246-.684-.304-.172-.034-.45-.053-.837-.053h-1.738v5.032h-1.5zm1.5-6.33h3.224c.684 0 1.223-.072 1.607-.215.39-.143.68-.37.882-.68.2-.313.3-.65.3-1.018 0-.535-.192-.977-.582-1.322-.39-.345-1.003-.517-1.845-.517h-3.588v3.75zM426.328 66.036l1.502.38c-.314 1.23-.882 2.17-1.697 2.82-.818.645-1.815.968-2.998.968-1.222 0-2.214-.25-2.98-.745-.764-.5-1.348-1.22-1.746-2.162-.4-.944-.6-1.958-.6-3.04 0-1.18.224-2.21.675-3.088.452-.88 1.093-1.547 1.927-2.003.832-.457 1.747-.684 2.748-.684 1.135 0 2.087.287 2.86.865s1.312 1.39 1.615 2.437l-1.475.35c-.265-.827-.645-1.427-1.146-1.804-.498-.377-1.127-.564-1.887-.564-.87 0-1.597.21-2.183.626-.586.42-.997.98-1.232 1.684-.237.702-.356 1.428-.356 2.175 0 .967.14 1.806.42 2.526.282.718.718 1.256 1.312 1.612s1.235.533 1.927.533c.84 0 1.55-.24 2.133-.725.58-.486.974-1.206 1.18-2.16zM441.02 70.01V58.675h1.5v4.656h5.892v-4.655h1.5V70.01h-1.5v-5.342h-5.89v5.342h-1.503M479.942 58.675h1.502v6.55c0 1.138-.13 2.044-.388 2.714s-.724 1.213-1.396 1.633c-.673.422-1.555.63-2.646.63-1.062 0-1.932-.182-2.605-.55-.677-.363-1.16-.894-1.447-1.588-.29-.693-.433-1.64-.433-2.84v-6.55h1.5v6.542c0 .985.092 1.71.273 2.175.183.468.5.826.942 1.08.446.253.992.38 1.636.38 1.105 0 1.89-.25 2.36-.752.468-.5.702-1.46.702-2.883v-6.542zM495.222 70.01V58.675h1.54l5.952 8.9v-8.9h1.44V70.01h-1.54l-5.953-8.906v8.906h-1.438M518.226 70.01V58.675h1.5V70.01h-1.5M536.905 70.01l-4.392-11.335h1.626l2.944 8.234c.237.658.436 1.28.594 1.854.177-.618.38-1.235.612-1.855l3.062-8.235h1.53l-4.438 11.335h-1.54zM555.557 70.01V58.675h8.195v1.338h-6.696v3.47h6.27v1.33h-6.27v3.86h6.96v1.337h-8.46M577.41 70.01V58.675h5.023c1.01 0 1.78.103 2.305.307.525.203.944.562 1.262 1.076.313.518.47 1.088.47 1.71 0 .806-.26 1.48-.78 2.032-.522.552-1.326.903-2.414 1.054.4.19.7.377.906.564.438.4.852.905 1.245 1.507l1.972 3.085h-1.888l-1.5-2.36c-.437-.677-.8-1.2-1.084-1.56-.282-.36-.536-.613-.76-.756-.225-.146-.452-.246-.684-.304-.172-.034-.45-.053-.837-.053h-1.74v5.032h-1.498zm1.498-6.33h3.225c.684 0 1.223-.072 1.607-.215.39-.143.68-.37.882-.68.2-.313.3-.65.3-1.018 0-.535-.19-.977-.582-1.322-.39-.345-1.004-.517-1.846-.517h-3.586v3.75zM599.608 66.37l1.415-.125c.065.567.22 1.03.467 1.396.245.365.625.658 1.14.883s1.096.335 1.74.335c.572 0 1.076-.084 1.515-.253.438-.172.765-.404.98-.7.213-.298.32-.62.32-.97 0-.357-.102-.666-.31-.933-.207-.267-.547-.488-1.02-.667-.307-.12-.977-.304-2.02-.555-1.04-.25-1.77-.485-2.188-.707-.54-.282-.944-.637-1.21-1.056-.266-.42-.397-.89-.397-1.412 0-.57.16-1.105.486-1.603.324-.498.8-.876 1.422-1.135.626-.256 1.317-.385 2.08-.385.842 0 1.58.135 2.225.406.642.27 1.135.668 1.48 1.193.343.525.53 1.122.557 1.787l-1.438.108c-.08-.715-.34-1.26-.787-1.623-.446-.367-1.104-.55-1.974-.55-.907 0-1.567.167-1.984.5-.414.332-.623.733-.623 1.2 0 .41.148.744.44 1.006.29.264 1.043.533 2.263.808 1.22.277 2.056.518 2.51.723.66.306 1.147.69 1.462 1.155.314.467.47 1.006.47 1.612 0 .604-.172 1.172-.517 1.705-.346.533-.842.947-1.488 1.246-.646.295-1.375.443-2.183.443-1.027 0-1.888-.147-2.58-.448-.693-.298-1.237-.747-1.633-1.35-.393-.595-.6-1.276-.62-2.033zM622.232 70.01V58.675h1.5V70.01h-1.5M640.557 70.01v-9.997h-3.734v-1.338h8.983v1.338h-3.75v9.997h-1.5M661.835 70.01v-4.8l-4.367-6.535h1.823l2.236 3.418c.412.64.794 1.277 1.15 1.92.34-.595.753-1.263 1.238-2.005l2.195-3.333h1.746l-4.523 6.535v4.8h-1.498z"/><g><path d="M108.723 94.587l2.25-.22c.135.76.41 1.315.824 1.67s.973.534 1.676.534c.744 0 1.306-.157 1.684-.474.377-.315.566-.686.566-1.108 0-.27-.08-.503-.237-.693s-.435-.356-.83-.498c-.27-.094-.884-.26-1.844-.5-1.235-.31-2.103-.688-2.6-1.136-.7-.63-1.052-1.4-1.052-2.31 0-.584.165-1.13.494-1.64.33-.51.806-.895 1.426-1.162.62-.267 1.37-.4 2.248-.4 1.434 0 2.513.317 3.237.95.725.634 1.105 1.48 1.142 2.535l-2.313.094c-.1-.588-.31-1.012-.632-1.27s-.808-.387-1.454-.387c-.666 0-1.188.14-1.565.414-.243.178-.364.414-.364.71 0 .272.113.505.34.697.29.246.996.5 2.116.768 1.12.266 1.947.54 2.484.826.536.284.956.673 1.26 1.166.303.493.455 1.102.455 1.827 0 .657-.183 1.273-.547 1.848-.365.574-.88 1-1.547 1.28-.666.278-1.497.418-2.49.418-1.45 0-2.562-.335-3.337-1.006-.776-.668-1.24-1.645-1.39-2.93zM133.533 98.306h-2.517l-1.003-2.61h-4.573l-.954 2.61h-2.453l4.47-11.453h2.45l4.58 11.453zm-4.252-4.547l-1.583-4.235-1.55 4.234h3.134zM137.88 98.306V86.853h2.313v11.453h-2.313zM145.604 98.306V86.853h2.243l4.726 7.69v-7.69h2.14v11.453H152.4l-4.655-7.514v7.514h-2.14zM162.953 98.306V88.79h-3.406v-1.938h9.094v1.938h-3.374v9.516h-2.313zM180.978 98.306V86.853h3.707c1.405 0 2.32.058 2.748.172.655.172 1.204.545 1.646 1.12.44.574.663 1.317.663 2.228 0 .702-.128 1.293-.383 1.77s-.578.855-.97 1.13c-.395.27-.793.453-1.2.54-.55.11-1.35.165-2.395.165h-1.506v4.328h-2.312zm2.313-9.515v3.25h1.262c.908 0 1.515-.06 1.82-.18.307-.118.547-.306.72-.562.175-.255.262-.552.262-.89 0-.417-.122-.76-.366-1.032-.243-.27-.553-.44-.926-.508-.275-.052-.828-.078-1.658-.078h-1.113zM194.85 98.306V86.853h8.483v1.938h-6.172v2.532h5.735v1.938h-5.734v3.11h6.392v1.937h-8.703zM211.315 98.306V88.79h-3.406v-1.938h9.093v1.938h-3.375v9.516h-2.313zM221.695 98.306V86.853h8.484v1.938h-6.173v2.532h5.734v1.938h-5.733v3.11h6.39v1.937h-8.702zM235.567 98.306V86.853h4.87c1.226 0 2.116.104 2.67.31.557.205 1 .57 1.334 1.097.335.526.502 1.128.502 1.805 0 .86-.253 1.57-.757 2.13-.505.56-1.26.912-2.264 1.058.502.292.915.612 1.24.96.326.35.765.97 1.317 1.86l1.4 2.234h-2.767l-1.675-2.495c-.596-.89-1.003-1.45-1.223-1.682s-.452-.39-.697-.476c-.246-.086-.635-.13-1.168-.13h-.47v4.782h-2.31zm2.312-6.61h1.71c1.11 0 1.802-.046 2.078-.14.275-.094.492-.255.648-.484.156-.23.234-.516.234-.86 0-.384-.104-.695-.31-.933-.205-.237-.495-.388-.87-.45-.188-.025-.75-.04-1.688-.04h-1.805v2.907zM249.712 94.587l2.25-.22c.135.76.41 1.315.824 1.67s.973.534 1.676.534c.744 0 1.306-.157 1.684-.474.377-.315.566-.686.566-1.108 0-.27-.08-.503-.237-.693s-.435-.356-.83-.498c-.27-.094-.884-.26-1.844-.5-1.234-.31-2.102-.688-2.6-1.136-.7-.63-1.05-1.4-1.05-2.31 0-.584.164-1.13.493-1.64.33-.51.806-.895 1.426-1.162.62-.267 1.37-.4 2.247-.4 1.434 0 2.513.317 3.237.95.725.634 1.105 1.48 1.142 2.535l-2.313.094c-.1-.588-.31-1.012-.632-1.27s-.807-.387-1.453-.387c-.666 0-1.188.14-1.565.414-.243.178-.364.414-.364.71 0 .272.114.505.342.697.29.246.995.5 2.115.768 1.12.266 1.947.54 2.484.826.535.284.955.673 1.26 1.166.302.493.454 1.102.454 1.827 0 .657-.183 1.273-.547 1.848-.365.574-.88 1-1.547 1.28-.667.278-1.498.418-2.492.418-1.448 0-2.56-.335-3.336-1.006-.775-.668-1.24-1.645-1.39-2.93zM264.193 86.853h4.578c.907 0 1.583.038 2.028.113s.844.232 1.195.472.645.558.88.956c.233.397.35.844.35 1.338 0 .535-.144 1.027-.433 1.475s-.68.782-1.176 1.006c.698.203 1.234.55 1.61 1.04s.562 1.067.562 1.73c0 .52-.12 1.028-.363 1.52-.242.493-.572.888-.992 1.182-.418.295-.935.476-1.55.544-.385.04-1.314.067-2.79.077h-3.897V86.853zm2.312 1.906v2.64h1.516c.902 0 1.462-.013 1.68-.04.397-.046.708-.182.935-.407.227-.227.34-.523.34-.893 0-.354-.098-.64-.293-.86s-.485-.354-.87-.4c-.23-.026-.89-.04-1.978-.04h-1.33zm0 4.546v3.063h2.14c.835 0 1.363-.024 1.587-.07.344-.064.624-.216.84-.458.217-.242.324-.566.324-.973 0-.345-.083-.636-.25-.876-.166-.24-.407-.414-.723-.523-.314-.108-.998-.163-2.05-.163h-1.868zM278.932 86.853h2.313v6.203c0 .984.03 1.623.086 1.914.1.47.335.846.707 1.13.37.283.88.425 1.524.425.656 0 1.15-.134 1.483-.402.332-.268.532-.598.6-.988.068-.39.102-1.04.102-1.945v-6.336h2.313v6.02c0 1.376-.063 2.348-.188 2.916s-.354 1.048-.69 1.438c-.336.392-.784.702-1.347.935-.562.23-1.296.348-2.2.348-1.094 0-1.923-.126-2.487-.378-.564-.253-1.01-.58-1.338-.985-.328-.403-.544-.827-.648-1.27-.15-.657-.227-1.627-.227-2.91v-6.114zM293.703 98.306V86.853h4.87c1.226 0 2.116.104 2.67.31.557.205 1 .57 1.334 1.097.334.526.5 1.128.5 1.805 0 .86-.252 1.57-.756 2.13-.504.56-1.26.912-2.263 1.058.5.292.914.612 1.24.96.325.35.764.97 1.316 1.86l1.4 2.234h-2.767l-1.675-2.495c-.595-.89-1.002-1.45-1.222-1.682s-.452-.39-.697-.476c-.245-.086-.634-.13-1.167-.13h-.47v4.782h-2.31zm2.312-6.61h1.71c1.11 0 1.803-.046 2.08-.14.274-.094.49-.255.647-.484.156-.23.234-.516.234-.86 0-.384-.104-.695-.31-.933-.205-.237-.495-.388-.87-.45-.188-.025-.75-.04-1.688-.04h-1.805v2.907zM313.786 94.103v-1.938h4.984v4.563c-.485.47-1.188.885-2.107 1.243-.92.358-1.852.538-2.795.538-1.198 0-2.244-.252-3.135-.755-.892-.503-1.562-1.223-2.01-2.16-.448-.935-.672-1.953-.672-3.054 0-1.195.25-2.257.75-3.185.5-.93 1.232-1.64 2.196-2.136.734-.382 1.648-.572 2.742-.572 1.422 0 2.532.3 3.332.896.8.598 1.313 1.424 1.543 2.48l-2.297.437c-.16-.563-.465-1.01-.91-1.337-.443-.326-1-.49-1.665-.49-1.008 0-1.81.32-2.405.96-.596.642-.894 1.593-.894 2.853 0 1.36.303 2.38.906 3.06.603.68 1.394 1.02 2.37 1.02.485 0 .97-.096 1.457-.285s.903-.418 1.252-.688v-1.448h-2.64z"/></g><g fill-rule="evenodd" clip-rule="evenodd"><path d="M55.903 40.13l-2.67.98c4.583 2.927 4.794 8.592 4.794 12.664v6.72h-4.91V45.748h-5.668v14.765h-4.343v-37.8h-6.14v37.84l-1.393 2.708h30.01l-1.39-2.706v-5.94c0-7.065-2.766-12.43-8.29-14.484zm-8.338-19.308c1.67 0 4.2.37 5.99 2.592.93 1.127 1.505 2.273 1.704 3.773h-7.812v2.222h7.88c-.06 1.432-.354 3.037-1.756 4.74-1.235 1.544-3.265 2.978-6.13 2.978-.946 0-1.643-.063-2.115-.127v2.26c1.06.115 3.188.245 6.065-.103 4.21-.503 6.357-2.654 7.593-4.135 1.666-1.913 2.347-4.26 2.347-6.482 0-1.793-.497-5.373-3.643-7.84-2.163-1.668-4.076-2.473-8.643-2.473h-2.313c-.072-.002-.14-.004-.23-.004h-11.52l1.328 2.595 11.253.004z"/><path d="M49.014 1.475C70.93 1.475 88.7 19.245 88.7 41.16c0 21.914-17.77 39.686-39.686 39.686-21.913 0-39.686-17.77-39.686-39.686 0-21.913 17.773-39.685 39.686-39.685zm0 1.51c21.08 0 38.175 17.095 38.175 38.175S70.093 79.333 49.013 79.333c-21.082 0-38.176-17.092-38.176-38.173 0-21.08 17.094-38.175 38.176-38.175z"/><path d="M49.014 7.527c18.57 0 33.63 15.06 33.63 33.633 0 18.57-15.06 33.632-33.63 33.632S15.384 59.73 15.384 41.16c0-18.573 15.06-33.633 33.63-33.633zm0 1.49c17.747 0 32.14 14.394 32.14 32.143 0 17.748-14.393 32.143-32.14 32.143-17.748 0-32.14-14.395-32.14-32.143 0-17.75 14.392-32.143 32.14-32.143z"/></g></g></svg>