<?xml version="1.0" encoding="utf-8"?>
<!-- Generator: Adobe Illustrator 15.0.0, SVG Export Plug-In . SVG Version: 6.00 Build 0)  -->
<!DOCTYPE svg PUBLIC "-//W3C//DTD SVG 1.1//EN" "http://www.w3.org/Graphics/SVG/1.1/DTD/svg11.dtd">
<svg version="1.1"  fill = "white" id="Layer_1" xmlns="http://www.w3.org/2000/svg" xmlns:xlink="http://www.w3.org/1999/xlink" x="0px" y="0px"
	 width="408.801px" height="312.801px" viewBox="0 0 408.801 312.801" enable-background="new 0 0 408.801 312.801"
	 xml:space="preserve">
<g>
	<path d="M402.801,300.801h-82.965c5.703-7.207,7.992-16.461,6.27-25.512l-17-89.262c-2.141-11.23-10.207-20.453-21.051-24.066
		l-43.355-14.453c-0.766-0.254-1.543-0.344-2.301-0.293v-11.519c8.273-9.297,12.801-21.118,12.801-33.696V87.813
		C262.633,85.301,268,78.27,268,70V38c0-20.953-17.047-38-38-38h-51.199c-8.469,0-15.645,5.625-17.992,13.336
		C149.395,15.738,140.801,25.883,140.801,38v32c0,8.27,5.367,15.301,12.801,17.813v12.308c0,13.223,4.847,25.438,12.796,34.77
		v12.324c-0.753-0.051-1.531,0.039-2.296,0.293l-43.356,14.453c-10.844,3.613-18.91,12.836-21.051,24.066l-17,89.262
		c-1.726,9.051,0.567,18.305,6.27,25.512H6c-3.312,0-6,2.687-6,6c0,3.313,2.688,6,6,6h396.801c3.313,0,6-2.688,6-6
		C408.801,303.487,406.113,300.801,402.801,300.801L402.801,300.801z M172.398,159.199c3.317,0,6-2.688,6-6v-7.933
		c7.211,4.519,15.551,7.242,24.442,7.512c0.527,0.015,1.055,0.023,1.578,0.023c9.293,0,18.195-2.48,25.98-7.141v7.539
		c0,3.313,2.688,6,6,6c0.086,0,0.168-0.008,0.25-0.012c-1.563,14.797-15.426,26.414-32.25,26.414
		c-16.82,0-30.683-11.617-32.246-26.414C172.234,159.191,172.316,159.199,172.398,159.199L172.398,159.199z M152.801,70V38
		c0-7.277,5.922-13.199,13.199-13.199c3.312,0,6-2.688,6-6c0-3.75,3.051-6.801,6.801-6.801H230c14.336,0,26,11.664,26,26v32
		c0,1.153-0.293,2.238-0.801,3.196v-9.594c0-10.367-8.434-18.801-18.801-18.801h-64c-10.363,0-18.796,8.434-18.796,18.801v9.594
		C153.09,72.238,152.801,71.153,152.801,70L152.801,70z M165.602,63.602c0-3.75,3.05-6.801,6.796-6.801h64
		c3.75,0,6.801,3.051,6.801,6.801V102c0,10.586-4.184,20.473-11.781,27.848c-7.594,7.371-17.629,11.25-28.215,10.933
		c-20.734-0.621-37.601-18.863-37.601-40.66V63.602z M127.602,300.801c-0.223,0-0.403-0.18-0.403-0.402v-83.199
		c0-0.219,0.18-0.398,0.403-0.398h153.597c0.223,0,0.402,0.18,0.402,0.398v83.199c0,0.223-0.18,0.402-0.402,0.402H127.602z
		 M294,300.801h-0.422c0.008-0.133,0.023-0.266,0.023-0.402v-83.199c0-6.837-5.563-12.398-12.402-12.398H127.602
		c-6.84,0-12.403,5.562-12.403,12.398v83.199c0,0.137,0.016,0.27,0.02,0.402h-1.485c-5.859,0-11.363-2.59-15.097-7.105
		c-3.739-4.516-5.25-10.406-4.153-16.164l17-89.262c1.328-6.965,6.328-12.684,13.055-14.926l35.801-11.934
		c2.676,20.363,21.406,36.191,44.058,36.191c22.657,0,41.387-15.828,44.063-36.191l35.801,11.934
		c6.727,2.242,11.727,7.961,13.055,14.926l17,89.262c1.098,5.758-0.414,11.648-4.152,16.164c-3.734,4.516-9.238,7.105-15.098,7.105
		H294z M294,300.801"/>
	<path d="M204.398,243.199c-10.363,0-18.796,8.434-18.796,18.801s8.433,18.801,18.796,18.801c10.368,0,18.801-8.434,18.801-18.801
		S214.766,243.199,204.398,243.199L204.398,243.199z M204.398,268.801c-3.746,0-6.796-3.051-6.796-6.801s3.05-6.801,6.796-6.801
		c3.75,0,6.801,3.051,6.801,6.801S208.148,268.801,204.398,268.801L204.398,268.801z M204.398,268.801"/>
</g>
</svg>
