<?xml version="1.0" encoding="utf-8"?>
<!-- Generator: Adobe Illustrator 15.0.0, SVG Export Plug-In . SVG Version: 6.00 Build 0)  -->
<!DOCTYPE svg PUBLIC "-//W3C//DTD SVG 1.1//EN" "http://www.w3.org/Graphics/SVG/1.1/DTD/svg11.dtd">
<svg version="1.1" id="Layer_1" fill = "white"  xmlns="http://www.w3.org/2000/svg" xmlns:xlink="http://www.w3.org/1999/xlink" x="0px" y="0px"
	 width="408.801px" height="312.801px" viewBox="0 0 408.801 312.801" enable-background="new 0 0 408.801 312.801"
	 xml:space="preserve">
<g>
	<g>
		<defs>
			<rect id="SVGID_1_" x="14.801" y="0.995" width="379.01" height="310.925"/>
		</defs>
		<clipPath id="SVGID_2_">
			<use xlink:href="#SVGID_1_"  overflow="visible"/>
		</clipPath>
		<path clip-path="url(#SVGID_2_)" d="M379.498,71.616L225.651,5.68c-13.527-5.796-29.049-5.792-42.59,0.011L29.247,71.612
			c-8.91,3.819-14.446,12.212-14.446,21.904c0,9.689,5.534,18.078,14.44,21.897l18.181,7.791c-0.018,0.188-0.029,0.38-0.029,0.572
			v86.037c-7.03,2.376-12.105,9.028-12.105,16.849c0,4.532,1.71,8.674,4.511,11.816c-3.1,3.036-5.158,7.159-5.583,11.828
			l-4.354,47.917c-0.3,3.271,0.801,6.542,3.018,8.969c2.216,2.427,5.371,3.819,8.658,3.819h23.057c3.288,0,6.443-1.393,8.659-3.819
			c2.216-2.427,3.317-5.697,3.018-8.969l-4.355-47.917c-0.424-4.669-2.482-8.787-5.584-11.828c2.804-3.143,4.514-7.284,4.514-11.816
			c0-7.82-5.079-14.473-12.105-16.849v-81.756l31.043,13.306c-0.019,0.184-0.025,0.376-0.025,0.568v43.318
			c0,18.081,12.377,34.807,34.859,47.097c21.395,11.699,49.716,18.145,79.751,18.145c30.031,0,58.355-6.445,79.751-18.145
			c22.477-12.29,34.859-29.016,34.859-47.097v-43.318c0-0.192-0.012-0.384-0.03-0.568l60.539-25.946
			c8.91-3.819,14.447-12.216,14.447-21.909C393.934,83.82,388.403,75.432,379.498,71.616L379.498,71.616z M64.875,299.539
			c-0.114,0.126-0.236,0.126-0.281,0.126H41.537c-0.047,0-0.166,0-0.28-0.126c-0.112-0.121-0.1-0.243-0.097-0.289l4.355-47.915
			c0.358-3.932,3.605-6.896,7.551-6.896s7.191,2.965,7.55,6.896l4.355,47.915C64.975,299.296,64.985,299.418,64.875,299.539
			L64.875,299.539z M53.066,233.091c-3.546,0-6.431-2.886-6.431-6.428c0-3.546,2.885-6.432,6.431-6.432
			c3.546,0,6.431,2.886,6.431,6.432C59.497,230.205,56.612,233.091,53.066,233.091L53.066,233.091z M307.63,161.045
			c0,14.672-12.075,28.997-33.131,39.299c-2.815,1.378-3.979,4.776-2.601,7.591c0.986,2.014,3.004,3.181,5.102,3.181
			c0.839,0,1.688-0.185,2.489-0.58c11.681-5.714,21.036-12.677,27.704-20.42c-2.124,11.965-12.061,23.279-28.517,32.277
			c-19.755,10.801-46.147,16.752-74.31,16.752c-28.162,0-54.552-5.951-74.306-16.752c-16.397-8.965-26.323-20.23-28.499-32.147
			c5.732,6.611,13.472,12.658,23.054,17.896c21.395,11.698,49.72,18.141,79.751,18.141c8.4,0,16.781-0.51,24.908-1.518
			c3.109-0.389,5.315-3.221,4.932-6.327c-0.389-3.111-3.215-5.319-6.328-4.936c-7.664,0.953-15.574,1.433-23.512,1.433
			c-28.162,0-54.552-5.947-74.306-16.751c-18.673-10.21-28.957-23.398-28.957-37.139v-14.831l81.982,35.135
			c6.755,2.896,14.014,4.345,21.273,4.345c7.27,0,14.539-1.452,21.314-4.355l81.956-35.125V161.045z M375.018,104.986
			l-153.813,65.921c-10.701,4.584-22.966,4.591-33.647,0.012L70.002,120.538l107.709-18.731c4.847,5.732,14.717,9.486,26.656,9.486
			c17.036,0,29.883-7.643,29.883-17.775c0-10.136-12.847-17.778-29.883-17.778c-15.473,0-27.487,6.305-29.562,15.052l-122.71,21.343
			c-0.362,0.063-0.707,0.159-1.035,0.284l-17.35-7.436c-4.736-2.028-7.562-6.317-7.562-11.466c0-5.153,2.83-9.444,7.569-11.477
			L187.53,16.119c5.356-2.293,11.1-3.438,16.845-3.438c5.736,0,11.47,1.142,16.807,3.428l153.847,65.935
			c4.731,2.032,7.558,6.317,7.558,11.466C382.586,98.666,379.757,102.954,375.018,104.986L375.018,104.986z M185.831,93.517
			c0-1.655,6.376-6.431,18.537-6.431c12.16,0,18.535,4.776,18.535,6.431c0,1.651-6.375,6.431-18.535,6.431
			C192.207,99.948,185.831,95.168,185.831,93.517L185.831,93.517z M185.831,93.517"/>
	</g>
	<path d="M246.725,221.613c0.425,0,0.854-0.048,1.281-0.147c4.286-0.99,8.504-2.139,12.542-3.418
		c2.984-0.941,4.643-4.133,3.697-7.117c-0.945-2.988-4.134-4.647-7.122-3.701c-3.753,1.189-7.68,2.257-11.669,3.18
		c-3.051,0.706-4.957,3.75-4.252,6.805C241.809,219.837,244.143,221.613,246.725,221.613L246.725,221.613z M246.725,221.613"/>
</g>
</svg>
