<?xml version="1.0" encoding="utf-8"?>
<!-- Generator: Adobe Illustrator 15.0.0, SVG Export Plug-In . SVG Version: 6.00 Build 0)  -->
<!DOCTYPE svg PUBLIC "-//W3C//DTD SVG 1.1//EN" "http://www.w3.org/Graphics/SVG/1.1/DTD/svg11.dtd">
<svg version="1.1" id="Layer_1" fill = "white" xmlns="http://www.w3.org/2000/svg" xmlns:xlink="http://www.w3.org/1999/xlink" x="0px" y="0px"
	 width="408.801px" height="312.801px" viewBox="0 0 408.801 312.801" enable-background="new 0 0 408.801 312.801"
	 xml:space="preserve">
<g>
	<path d="M301.752,0.153H86.909c-5.215,0-9.458,4.244-9.458,9.459v10.073H67.377c-5.216,0-9.459,4.244-9.459,9.459v273.432
		c0,5.218,4.243,9.463,9.459,9.463h214.842c5.216,0,9.459-4.245,9.459-9.463v-10.069h10.074c5.215,0,9.458-4.244,9.458-9.459V9.612
		C311.21,4.397,306.967,0.153,301.752,0.153L301.752,0.153z M282.522,287.882c0,0.018,0,0.032,0,0.047c0,0.019,0,0.033,0,0.048v14.6
		c0,0.171-0.133,0.308-0.304,0.308H67.377c-0.167,0-0.304-0.137-0.304-0.308V29.144c0-0.17,0.137-0.304,0.304-0.304H82.01
		c0.006,0,0.012,0,0.019,0c0.005,0,0.008,0,0.017,0h200.173c0.171,0,0.304,0.134,0.304,0.304V287.882z M302.055,283.048
		c0,0.167-0.137,0.304-0.303,0.304h-10.074V29.144c0-5.215-4.243-9.459-9.459-9.459H86.605V9.612c0-0.167,0.134-0.304,0.304-0.304
		h214.843c0.166,0,0.303,0.137,0.303,0.304V283.048z M302.055,283.048"/>
	<path d="M252.617,63.627H96.368c-2.527,0-4.578,2.051-4.578,4.578c0,2.528,2.051,4.578,4.578,4.578h156.249
		c2.527,0,4.577-2.05,4.577-4.578C257.194,65.678,255.145,63.627,252.617,63.627L252.617,63.627z M252.617,63.627"/>
	<path d="M252.617,122.222H96.368c-2.527,0-4.578,2.051-4.578,4.578c0,2.527,2.051,4.578,4.578,4.578h156.249
		c2.527,0,4.577-2.05,4.577-4.578C257.194,124.272,255.145,122.222,252.617,122.222L252.617,122.222z M252.617,122.222"/>
	<path d="M252.617,258.938H96.368c-2.527,0-4.578,2.051-4.578,4.578s2.051,4.577,4.578,4.577h156.249
		c2.527,0,4.577-2.05,4.577-4.577S255.145,258.938,252.617,258.938L252.617,258.938z M252.617,258.938"/>
	<path d="M252.617,180.815H96.368c-2.527,0-4.578,2.05-4.578,4.577s2.051,4.578,4.578,4.578h156.249
		c2.527,0,4.577-2.051,4.577-4.578S255.145,180.815,252.617,180.815L252.617,180.815z M252.617,180.815"/>
	<path d="M96.368,92.315h39.065c2.527,0,4.578-2.051,4.578-4.578c0-2.527-2.051-4.578-4.578-4.578H96.368
		c-2.527,0-4.578,2.05-4.578,4.578C91.791,90.265,93.841,92.315,96.368,92.315L96.368,92.315z M96.368,92.315"/>
	<path d="M252.617,83.16h-97.655c-2.527,0-4.578,2.05-4.578,4.578c0,2.527,2.051,4.578,4.578,4.578h97.655
		c2.527,0,4.577-2.051,4.577-4.578C257.194,85.21,255.145,83.16,252.617,83.16L252.617,83.16z M252.617,83.16"/>
	<path d="M96.368,111.844h117.188c2.526,0,4.577-2.047,4.577-4.578c0-2.527-2.051-4.578-4.577-4.578H96.368
		c-2.527,0-4.578,2.051-4.578,4.578C91.791,109.797,93.841,111.844,96.368,111.844L96.368,111.844z M96.368,111.844"/>
	<path d="M252.617,102.689h-19.529c-2.53,0-4.577,2.051-4.577,4.578c0,2.531,2.047,4.578,4.577,4.578h19.529
		c2.527,0,4.577-2.047,4.577-4.578C257.194,104.74,255.145,102.689,252.617,102.689L252.617,102.689z M252.617,102.689"/>
	<path d="M252.617,239.408H96.368c-2.527,0-4.578,2.048-4.578,4.578c0,2.527,2.051,4.577,4.578,4.577h156.249
		c2.527,0,4.577-2.05,4.577-4.577C257.194,241.456,255.145,239.408,252.617,239.408L252.617,239.408z M252.617,239.408"/>
	<path d="M96.368,209.499h39.065c2.527,0,4.578-2.047,4.578-4.577c0-2.527-2.051-4.578-4.578-4.578H96.368
		c-2.527,0-4.578,2.051-4.578,4.578C91.791,207.452,93.841,209.499,96.368,209.499L96.368,209.499z M96.368,209.499"/>
	<path d="M252.617,200.344h-97.655c-2.527,0-4.578,2.051-4.578,4.578c0,2.53,2.051,4.577,4.578,4.577h97.655
		c2.527,0,4.577-2.047,4.577-4.577C257.194,202.395,255.145,200.344,252.617,200.344L252.617,200.344z M252.617,200.344"/>
	<path d="M96.368,229.031h117.188c2.526,0,4.577-2.05,4.577-4.577s-2.051-4.578-4.577-4.578H96.368
		c-2.527,0-4.578,2.051-4.578,4.578S93.841,229.031,96.368,229.031L96.368,229.031z M96.368,229.031"/>
	<path d="M252.617,219.876h-19.529c-2.53,0-4.577,2.051-4.577,4.578s2.047,4.577,4.577,4.577h19.529c2.527,0,4.577-2.05,4.577-4.577
		S255.145,219.876,252.617,219.876L252.617,219.876z M252.617,219.876"/>
	<path d="M96.368,150.909h63.479c2.527,0,4.578-2.051,4.578-4.577c0-2.531-2.051-4.578-4.578-4.578H96.368
		c-2.527,0-4.578,2.047-4.578,4.578C91.791,148.858,93.841,150.909,96.368,150.909L96.368,150.909z M96.368,150.909"/>
	<path d="M252.617,141.754h-73.242c-2.527,0-4.578,2.047-4.578,4.578c0,2.526,2.051,4.577,4.578,4.577h73.242
		c2.527,0,4.577-2.051,4.577-4.577C257.194,143.801,255.145,141.754,252.617,141.754L252.617,141.754z M252.617,141.754"/>
	<path d="M96.368,170.438h102.54c2.527,0,4.578-2.05,4.578-4.577s-2.051-4.578-4.578-4.578H96.368c-2.527,0-4.578,2.051-4.578,4.578
		S93.841,170.438,96.368,170.438L96.368,170.438z M96.368,170.438"/>
	<path d="M252.617,161.282h-34.181c-2.526,0-4.577,2.051-4.577,4.578s2.051,4.577,4.577,4.577h34.181
		c2.527,0,4.577-2.05,4.577-4.577S255.145,161.282,252.617,161.282L252.617,161.282z M252.617,161.282"/>
	<path d="M335.928,88.042c-7.906,0-14.34,6.435-14.34,14.344v170.896c0,0.492,0.077,0.98,0.231,1.448l9.53,28.593v4.139
		c0,2.526,2.051,4.578,4.578,4.578c2.53,0,4.577-2.052,4.577-4.578v-4.139l9.531-28.593c0.158-0.468,0.235-0.956,0.235-1.448
		V102.385C350.271,94.476,343.838,88.042,335.928,88.042L335.928,88.042z M335.928,288.102l-5.039-15.124h10.082L335.928,288.102z
		 M341.116,263.822h-10.373V116.729h10.373V263.822z M341.116,107.574h-10.373v-5.188c0-2.861,2.326-5.188,5.185-5.188
		c2.861,0,5.188,2.328,5.188,5.188V107.574z M341.116,107.574"/>
</g>
</svg>
