<?xml version="1.0" encoding="utf-8"?>
<!-- Generator: Adobe Illustrator 15.0.0, SVG Export Plug-In . SVG Version: 6.00 Build 0)  -->
<!DOCTYPE svg PUBLIC "-//W3C//DTD SVG 1.1//EN" "http://www.w3.org/Graphics/SVG/1.1/DTD/svg11.dtd">
<svg version="1.1" id="Layer_1" fill = "white" xmlns="http://www.w3.org/2000/svg" xmlns:xlink="http://www.w3.org/1999/xlink" x="0px" y="0px"
	 width="408.801px" height="312.801px" viewBox="0 0 408.801 312.801" enable-background="new 0 0 408.801 312.801"
	 xml:space="preserve">
<g>
	<path d="M338.114,15.329h-10.22V5.11c0-2.564-2.081-4.646-4.646-4.646s-4.646,2.081-4.646,4.646v10.219H90.043V5.11
		c0-2.564-2.082-4.646-4.646-4.646c-2.565,0-4.646,2.081-4.646,4.646v10.219H70.533c-13.493,0-24.468,10.976-24.468,24.468V287.56
		c0,13.489,10.976,24.464,24.468,24.464h267.581c13.492,0,24.468-10.975,24.468-24.464V39.797
		C362.582,26.305,351.606,15.329,338.114,15.329L338.114,15.329z M70.533,24.62h10.219v11.094
		c-8.523,2.091-14.865,9.791-14.865,18.948c0,10.759,8.752,19.511,19.51,19.511c10.757,0,19.511-8.752,19.511-19.511
		c0-9.158-6.342-16.857-14.865-18.948V24.62h228.56v11.094c-8.522,2.091-14.865,9.791-14.865,18.948
		c0,10.759,8.752,19.511,19.511,19.511s19.511-8.752,19.511-19.511c0-9.158-6.342-16.857-14.865-18.948V24.62h10.22
		c8.368,0,15.177,6.808,15.177,15.177v44.907H55.356V39.797C55.356,31.428,62.164,24.62,70.533,24.62L70.533,24.62z M85.398,59.308
		c2.564,0,4.646-2.081,4.646-4.646v-9.091c3.302,1.693,5.574,5.129,5.574,9.091c0,5.634-4.585,10.219-10.219,10.219
		c-5.635,0-10.219-4.585-10.219-10.219c0-3.962,2.268-7.398,5.574-9.091v9.091C80.752,57.228,82.833,59.308,85.398,59.308
		L85.398,59.308z M323.249,59.308c2.564,0,4.646-2.081,4.646-4.646v-9.091c3.303,1.693,5.574,5.129,5.574,9.091
		c0,5.634-4.586,10.219-10.22,10.219s-10.22-4.585-10.22-10.219c0-3.962,2.271-7.398,5.574-9.091v9.091
		C318.604,57.228,320.685,59.308,323.249,59.308L323.249,59.308z M338.114,302.732H70.533c-8.369,0-15.177-6.808-15.177-15.173
		V93.995h297.935V287.56C353.291,295.925,346.482,302.732,338.114,302.732L338.114,302.732z M338.114,302.732"/>
	<path d="M204.321,129.299c-10.757,0-19.51,8.752-19.51,19.514c0,10.758,8.753,19.511,19.51,19.511
		c10.762,0,19.515-8.753,19.515-19.511C223.836,138.052,215.083,129.299,204.321,129.299L204.321,129.299z M204.321,159.033
		c-5.634,0-10.219-4.585-10.219-10.22c0-5.638,4.585-10.223,10.219-10.223c5.639,0,10.224,4.585,10.224,10.223
		C214.545,154.448,209.96,159.033,204.321,159.033L204.321,159.033z M204.321,159.033"/>
	<path d="M154.769,129.299c-10.757,0-19.51,8.752-19.51,19.514c0,10.758,8.753,19.511,19.51,19.511
		c10.761,0,19.515-8.753,19.515-19.511C174.284,138.052,165.53,129.299,154.769,129.299L154.769,129.299z M154.769,159.033
		c-5.634,0-10.219-4.585-10.219-10.22c0-5.638,4.585-10.223,10.219-10.223c5.638,0,10.223,4.585,10.223,10.223
		C164.992,154.448,160.407,159.033,154.769,159.033L154.769,159.033z M154.769,159.033"/>
	<path d="M105.217,129.299c-10.758,0-19.511,8.752-19.511,19.514c0,10.758,8.753,19.511,19.511,19.511
		c10.761,0,19.514-8.753,19.514-19.511C124.731,138.052,115.978,129.299,105.217,129.299L105.217,129.299z M105.217,138.59
		c3.962,0,7.398,2.271,9.095,5.578H96.125C97.823,140.862,101.254,138.59,105.217,138.59L105.217,138.59z M105.217,159.033
		c-3.962,0-7.394-2.272-9.092-5.574h18.184C112.615,156.761,109.179,159.033,105.217,159.033L105.217,159.033z M105.217,159.033"/>
	<path d="M253.874,129.299c-10.758,0-19.511,8.752-19.511,19.514c0,10.758,8.753,19.511,19.511,19.511
		c10.762,0,19.515-8.753,19.515-19.511C273.389,138.052,264.636,129.299,253.874,129.299L253.874,129.299z M253.874,159.033
		c-5.634,0-10.22-4.585-10.22-10.22c0-5.638,4.586-10.223,10.22-10.223c5.639,0,10.224,4.585,10.224,10.223
		C264.098,154.448,259.513,159.033,253.874,159.033L253.874,159.033z M253.874,159.033"/>
	<path d="M303.427,129.299c-10.758,0-19.511,8.752-19.511,19.514c0,10.758,8.753,19.511,19.511,19.511
		c10.761,0,19.515-8.753,19.515-19.511C322.941,138.052,314.188,129.299,303.427,129.299L303.427,129.299z M303.427,159.033
		c-5.635,0-10.22-4.585-10.22-10.22c0-5.638,4.585-10.223,10.22-10.223c5.638,0,10.223,4.585,10.223,10.223
		C313.649,154.448,309.064,159.033,303.427,159.033L303.427,159.033z M303.427,159.033"/>
	<path d="M204.321,178.852c-10.757,0-19.51,8.753-19.51,19.515c0,10.758,8.753,19.51,19.51,19.51
		c10.762,0,19.515-8.752,19.515-19.51C223.836,187.604,215.083,178.852,204.321,178.852L204.321,178.852z M204.321,208.585
		c-5.634,0-10.219-4.585-10.219-10.219c0-5.639,4.585-10.224,10.219-10.224c5.639,0,10.224,4.585,10.224,10.224
		C214.545,204,209.96,208.585,204.321,208.585L204.321,208.585z M204.321,208.585"/>
	<path d="M154.769,178.852c-10.757,0-19.51,8.753-19.51,19.515c0,10.758,8.753,19.51,19.51,19.51
		c10.761,0,19.515-8.752,19.515-19.51C174.284,187.604,165.53,178.852,154.769,178.852L154.769,178.852z M154.769,208.585
		c-5.634,0-10.219-4.585-10.219-10.219c0-5.639,4.585-10.224,10.219-10.224c5.638,0,10.223,4.585,10.223,10.224
		C164.992,204,160.407,208.585,154.769,208.585L154.769,208.585z M154.769,208.585"/>
	<path d="M105.217,178.852c-10.758,0-19.511,8.753-19.511,19.515c0,10.758,8.753,19.51,19.511,19.51
		c10.761,0,19.514-8.752,19.514-19.51C124.731,187.604,115.978,178.852,105.217,178.852L105.217,178.852z M105.217,208.585
		c-5.634,0-10.219-4.585-10.219-10.219c0-5.639,4.585-10.224,10.219-10.224c5.638,0,10.223,4.585,10.223,10.224
		C115.44,204,110.855,208.585,105.217,208.585L105.217,208.585z M105.217,208.585"/>
	<path d="M253.874,178.852c-10.758,0-19.511,8.753-19.511,19.515c0,10.758,8.753,19.51,19.511,19.51
		c10.762,0,19.515-8.752,19.515-19.51C273.389,187.604,264.636,178.852,253.874,178.852L253.874,178.852z M253.874,188.143
		c3.963,0,7.398,2.271,9.095,5.578h-18.186C246.48,190.414,249.912,188.143,253.874,188.143L253.874,188.143z M253.874,208.585
		c-3.962,0-7.394-2.271-9.091-5.573h18.183C261.272,206.313,257.837,208.585,253.874,208.585L253.874,208.585z M253.874,208.585"/>
	<path d="M303.427,178.852c-10.758,0-19.511,8.753-19.511,19.515c0,10.758,8.753,19.51,19.511,19.51
		c10.761,0,19.515-8.752,19.515-19.51C322.941,187.604,314.188,178.852,303.427,178.852L303.427,178.852z M303.427,208.585
		c-5.635,0-10.22-4.585-10.22-10.219c0-5.639,4.585-10.224,10.22-10.224c5.638,0,10.223,4.585,10.223,10.224
		C313.649,204,309.064,208.585,303.427,208.585L303.427,208.585z M303.427,208.585"/>
	<path d="M204.321,228.404c-10.757,0-19.51,8.753-19.51,19.515c0,10.757,8.753,19.511,19.51,19.511
		c10.762,0,19.515-8.754,19.515-19.511C223.836,237.157,215.083,228.404,204.321,228.404L204.321,228.404z M204.321,237.695
		c3.963,0,7.398,2.271,9.096,5.578H195.23C196.928,239.967,200.359,237.695,204.321,237.695L204.321,237.695z M204.321,258.138
		c-3.962,0-7.394-2.271-9.091-5.573h18.184C211.72,255.866,208.284,258.138,204.321,258.138L204.321,258.138z M204.321,258.138"/>
	<path d="M154.769,228.404c-10.757,0-19.51,8.753-19.51,19.515c0,10.757,8.753,19.511,19.51,19.511
		c10.761,0,19.515-8.754,19.515-19.511C174.284,237.157,165.53,228.404,154.769,228.404L154.769,228.404z M154.769,258.138
		c-5.634,0-10.219-4.585-10.219-10.219c0-5.639,4.585-10.224,10.219-10.224c5.638,0,10.223,4.585,10.223,10.224
		C164.992,253.553,160.407,258.138,154.769,258.138L154.769,258.138z M154.769,258.138"/>
	<path d="M105.217,228.404c-10.758,0-19.511,8.753-19.511,19.515c0,10.757,8.753,19.511,19.511,19.511
		c10.761,0,19.514-8.754,19.514-19.511C124.731,237.157,115.978,228.404,105.217,228.404L105.217,228.404z M105.217,258.138
		c-5.634,0-10.219-4.585-10.219-10.219c0-5.639,4.585-10.224,10.219-10.224c5.638,0,10.223,4.585,10.223,10.224
		C115.44,253.553,110.855,258.138,105.217,258.138L105.217,258.138z M105.217,258.138"/>
	<path d="M253.874,228.404c-10.758,0-19.511,8.753-19.511,19.515c0,10.757,8.753,19.511,19.511,19.511
		c10.762,0,19.515-8.754,19.515-19.511C273.389,237.157,264.636,228.404,253.874,228.404L253.874,228.404z M253.874,258.138
		c-5.634,0-10.22-4.585-10.22-10.219c0-5.639,4.586-10.224,10.22-10.224c5.639,0,10.224,4.585,10.224,10.224
		C264.098,253.553,259.513,258.138,253.874,258.138L253.874,258.138z M253.874,258.138"/>
	<path d="M303.427,228.404c-10.758,0-19.511,8.753-19.511,19.515c0,10.757,8.753,19.511,19.511,19.511
		c10.761,0,19.515-8.754,19.515-19.511C322.941,237.157,314.188,228.404,303.427,228.404L303.427,228.404z M303.427,258.138
		c-5.635,0-10.22-4.585-10.22-10.219c0-5.639,4.585-10.224,10.22-10.224c5.638,0,10.223,4.585,10.223,10.224
		C313.649,253.553,309.064,258.138,303.427,258.138L303.427,258.138z M303.427,258.138"/>
</g>
</svg>
