<?xml version="1.0" encoding="utf-8"?>
<!-- Generator: Adobe Illustrator 15.0.0, SVG Export Plug-In . SVG Version: 6.00 Build 0)  -->
<!DOCTYPE svg PUBLIC "-//W3C//DTD SVG 1.1//EN" "http://www.w3.org/Graphics/SVG/1.1/DTD/svg11.dtd">
<svg version="1.1" fill="#EC0B43" id="Layer_1" xmlns="http://www.w3.org/2000/svg" xmlns:xlink="http://www.w3.org/1999/xlink" x="0px" y="0px"
	 width="374.88px" height="325px" viewBox="0 0 374.88 325" enable-background="new 0 0 374.88 325" xml:space="preserve">
<g>
	<g>
		<defs>
			<rect id="SVGID_1_" width="374.88" height="325"/>
		</defs>
		<clipPath id="SVGID_2_">
			<use xlink:href="#SVGID_1_"  overflow="visible"/>
		</clipPath>
		<path clip-path="url(#SVGID_2_)" d="M370.152,28H216.551c-2.43,0-4.398,1.969-4.398,4.399v71.793h-32.5
			c2.305-3.11,3.672-6.957,3.672-11.117c0-2.465-0.484-4.817-1.355-6.973c2.66-5.891,4.015-12.168,4.015-18.711
			c0-2.43-1.968-4.398-4.398-4.398h-51.922c-3.926-9.329-10.406-16.727-18.312-20.879V8.801h1.203c2.429,0,4.398-1.969,4.398-4.402
			c0-2.43-1.969-4.399-4.398-4.399h-32c-2.43,0-4.403,1.969-4.403,4.399c0,2.433,1.973,4.402,4.403,4.402h1.199V15.2h-2.047
			c-17.398,0-31.555,14.156-31.555,31.554c0,8.426,3.282,16.352,9.243,22.309l3.156,3.156c-0.785,3.66-1.199,7.477-1.199,11.383
			c0,7.273,1.398,14.266,4.066,20.59H26.984c-2.156,0-3.992,1.562-4.343,3.691L0.059,245.875c-0.239,1.451,0.265,2.922,1.339,3.926
			c0.821,0.77,1.899,1.184,3,1.184c0.336,0,0.676-0.039,1.008-0.115l31.969-7.5l-2.883,15.615c-0.289,1.563,0.285,3.156,1.508,4.178
			c0.801,0.67,1.805,1.018,2.816,1.018c0.528,0,1.055-0.09,1.563-0.285l12.598-4.775c0.593-0.229,1.195-0.443,1.793-0.658v42.063
			c0,2.432,1.968,4.398,4.398,4.398s4.398-1.967,4.398-4.398v-44.895c9.289-2.609,18.817-4.125,28.485-4.531l-1.457,7.887
			c-0.289,1.563,0.289,3.156,1.508,4.178c0.804,0.67,1.804,1.018,2.82,1.018c0.523,0,1.055-0.09,1.558-0.285l24.84-9.422
			c6.11-2.314,12.52-3.492,19.051-3.492c6.535,0,12.945,1.178,19.055,3.492l24.836,9.422c1.484,0.563,3.16,0.281,4.382-0.732
			c1.219-1.021,1.797-2.619,1.508-4.182l-1.457-7.875c9.637,0.406,19.176,1.934,28.473,4.539v44.879
			c0,2.432,1.973,4.398,4.398,4.398c2.43,0,4.402-1.967,4.402-4.398v-42.072c0.59,0.213,1.188,0.432,1.797,0.662l12.602,4.785
			c0.508,0.191,1.035,0.285,1.559,0.285c1.016,0,2.016-0.352,2.82-1.021c1.219-1.018,1.797-2.615,1.508-4.178l-2.883-15.615
			l7.762,1.818l-5.895,74.867c-0.191,2.422,1.617,4.539,4.039,4.732c0.117,0.01,0.234,0.014,0.352,0.014
			c2.273,0,4.199-1.75,4.383-4.055l5.789-73.523l15.539,3.646c0.332,0.076,0.672,0.115,1.004,0.115c1.105,0,2.18-0.414,3.004-1.184
			c1.074-1.004,1.578-2.475,1.34-3.926l-3.707-22.674h48.035l7.68,97.545c0.184,2.305,2.109,4.055,4.383,4.055
			c0.113,0,0.23-0.004,0.348-0.012c2.426-0.191,4.234-2.309,4.043-4.734l-7.625-96.85h36.309c2.43,0,4.402-1.975,4.402-4.404V32.403
			C374.551,29.969,372.582,28,370.152,28L370.152,28z M174.523,93.075c0,5.468-4.449,9.914-9.914,9.914
			c-5.468,0-9.914-4.446-9.914-9.914c0-5.465,4.446-9.911,9.914-9.911C170.074,83.164,174.523,87.61,174.523,93.075L174.523,93.075z
			 M175.645,77.977c-3.098-2.27-6.915-3.613-11.036-3.613c-10.32,0-18.714,8.394-18.714,18.715c0,3.726,1.101,7.199,2.988,10.121
			c-2.766,0.652-5.606,0.992-8.5,0.992c-4.988,0-9.817-0.977-14.36-2.906c-12.265-5.207-20.625-16.5-22.179-29.493h73.082
			C176.68,73.895,176.25,75.961,175.645,77.977L175.645,77.977z M56.953,46.754C56.953,34.207,67.16,24,79.707,24h2.047v18.114
			c-7.977,4.187-14.34,11.57-18.215,20.644C59.293,58.469,56.953,52.793,56.953,46.754L56.953,46.754z M68.152,83.602
			c0-15.816,7.914-29.734,19.692-34.637c1.64-0.679,2.707-2.285,2.707-4.062V8.801h12v36.102c0,1.777,1.07,3.383,2.715,4.066
			c5.988,2.488,11.125,7.465,14.66,14.024H99.184c-2.43,0-4.399,1.968-4.399,4.398c0,14.77,7.082,28.332,18.66,36.801H73.168
			C69.883,98.121,68.152,91.055,68.152,83.602L68.152,83.602z M230.883,250.887c-2.793-1.057-5.418-1.961-8.02-2.754
			c-11.625-3.586-23.656-5.563-35.804-5.895l-11.309-61.25c-0.441-2.391-2.73-3.973-5.125-3.527
			c-2.387,0.441-3.969,2.734-3.527,5.125l12.98,70.313l-17.531-6.652c-7.109-2.695-14.57-4.063-22.172-4.063
			c-7.605,0-15.066,1.367-22.176,4.063l-17.531,6.652l12.98-70.313c0.442-2.391-1.14-4.684-3.527-5.125
			c-2.391-0.441-4.687,1.137-5.125,3.527l-11.308,61.25c-15.02,0.406-29.747,3.309-43.833,8.652l-5.293,2.008l12.981-70.313
			c0.441-2.391-1.137-4.684-3.527-5.125c-2.387-0.441-4.684,1.137-5.125,3.527l-9.77,52.93l-29.312,6.879l20.914-127.804h181.429
			v105.808c0,2.43,1.973,4.4,4.402,4.4h14.145l5.484,29.697L230.883,250.887z M241.625,233.918l-1.977-10.717h13.215l-1.031,13.111
			L241.625,233.918z M270.938,240.797l-10.438-2.449l1.191-15.146h6.371L270.938,240.797z M365.754,214.398H220.953V36.801h144.801
			V214.398z M365.754,214.398"/>
	</g>
	<path d="M227.609,169.602h130.055c2.43,0,4.402-1.973,4.402-4.4c0-2.432-1.973-4.4-4.402-4.4h-14.961
		c1.434-2.394,2.27-5.183,2.27-8.172c0-2.429-1.969-4.398-4.398-4.398s-4.402,1.969-4.402,4.398c0,3.969-3.227,7.196-7.195,7.196
		s-7.195-3.227-7.195-7.196c0-3.968,3.227-7.195,7.195-7.195c2.43,0,4.402-1.969,4.402-4.398c0-2.434-1.973-4.403-4.402-4.403
		c-8.82,0-15.996,7.176-15.996,15.996c0,2.989,0.84,5.778,2.27,8.172h-87.641c-2.43,0-4.398,1.968-4.398,4.4
		C223.211,167.629,225.18,169.602,227.609,169.602L227.609,169.602z M227.609,169.602"/>
	<path d="M243.777,136.02c-0.586,2.879-0.906,5.871-0.906,8.934c0,3.328,0.359,6.632,1.07,9.82c0.457,2.047,2.277,3.441,4.289,3.441
		c0.32,0,0.641-0.035,0.965-0.109c2.371-0.527,3.863-2.879,3.336-5.25c-0.57-2.559-0.859-5.219-0.859-7.902
		c0-12.481,6.203-23.446,15.438-27.286c1.641-0.683,2.707-2.285,2.707-4.062V85.192h8.051v28.414c0,1.777,1.07,3.379,2.711,4.062
		c2.934,1.219,5.602,3.188,7.93,5.852c1.602,1.828,4.383,2.016,6.211,0.418c1.828-1.602,2.016-4.379,0.414-6.211
		c-2.512-2.875-5.352-5.184-8.465-6.887V80.789c0-2.429-1.969-4.398-4.398-4.398h-16.852c-2.43,0-4.398,1.969-4.398,4.398v30.055
		c-6.074,3.332-10.98,8.902-14.156,15.723c-2.75-3.192-4.266-7.207-4.266-11.465c0-7.898,5.313-14.879,12.918-16.969
		c2.344-0.644,3.719-3.066,3.074-5.41c-0.641-2.344-3.066-3.719-5.406-3.074c-11.414,3.137-19.387,13.605-19.387,25.453
		c0,7.051,2.746,13.68,7.73,18.668L243.777,136.02z M243.777,136.02"/>
	<path d="M271.574,131.825c0,9.863,3.781,19.199,10.645,26.281c0.863,0.89,2.012,1.34,3.16,1.34c1.102,0,2.207-0.414,3.063-1.242
		c1.746-1.692,1.789-4.477,0.098-6.219c-4.23-4.367-6.934-9.848-7.832-15.762h62.023c2.43,0,4.398-1.969,4.398-4.398
		c0-2.43-1.969-4.403-4.398-4.403h-66.754C273.547,127.422,271.574,129.395,271.574,131.825L271.574,131.825z M271.574,131.825"/>
</g>
</svg>
