<?xml version="1.0" encoding="utf-8"?>
<!-- Generator: Adobe Illustrator 15.0.0, SVG Export Plug-In . SVG Version: 6.00 Build 0)  -->
<!DOCTYPE svg PUBLIC "-//W3C//DTD SVG 1.1//EN" "http://www.w3.org/Graphics/SVG/1.1/DTD/svg11.dtd">
<svg version="1.1" id="Layer_1" fill="#EC0B43" xmlns="http://www.w3.org/2000/svg" xmlns:xlink="http://www.w3.org/1999/xlink" x="0px" y="0px"
	 width="374.88px" height="325px" viewBox="0 0 374.88 325" enable-background="new 0 0 374.88 325" xml:space="preserve">
<g>
	<g>
		<defs>
			<rect id="SVGID_1_" x="65.88" y="-0.746" width="243.082" height="325.649"/>
		</defs>
		<clipPath id="SVGID_2_">
			<use xlink:href="#SVGID_1_"  overflow="visible"/>
		</clipPath>
		<path clip-path="url(#SVGID_2_)" d="M307.742,184.886l-12.995-12.994c-0.791-0.792-1.869-1.239-2.991-1.239
			c-1.118,0-2.196,0.447-2.989,1.239l-1.703,1.703l-12-12V138.13c0-1.851-1.201-3.483-2.962-4.035l-74.178-23.255
			c-1.501-0.473-3.142-0.071-4.253,1.044c-1.114,1.111-1.517,2.752-1.044,4.256l23.255,74.174c0.552,1.765,2.185,2.966,4.031,2.966
			h23.469l12,11.996l-1.703,1.704c-0.796,0.796-1.239,1.87-1.239,2.992s0.443,2.196,1.239,2.987l12.994,12.995
			c0.823,0.827,1.907,1.24,2.988,1.24s2.162-0.413,2.988-1.24l35.093-35.089C309.395,189.214,309.395,186.538,307.742,184.886
			L307.742,184.886z M245.131,184.823h-22.11l-17.177-54.786l24.482,24.486c-1.018,1.959-1.562,4.147-1.562,6.418
			c0,3.731,1.453,7.237,4.088,9.873c2.725,2.721,6.298,4.084,9.876,4.084c3.573,0,7.151-1.363,9.872-4.084
			c5.443-5.443,5.443-14.302,0-19.745c-4.402-4.403-11.036-5.244-16.292-2.526l-24.484-24.486l54.785,17.177v22.109
			c0,1.122,0.443,2.199,1.235,2.991l13.239,13.236l-19.723,19.726l-13.239-13.239C247.33,185.266,246.253,184.823,245.131,184.823
			L245.131,184.823z M242.729,155.439c1.407,0,2.819,0.536,3.893,1.61c2.146,2.147,2.146,5.639,0,7.785
			c-2.146,2.147-5.638,2.147-7.79,0c-2.146-2.146-2.146-5.638,0-7.785C239.906,155.975,241.316,155.439,242.729,155.439
			L242.729,155.439z M269.661,216.988l-7.016-7.016l29.11-29.113l7.015,7.016L269.661,216.988z M269.661,216.988"/>
		<path clip-path="url(#SVGID_2_)" d="M230.825,289.588c-7.979,0-14.737,5.319-16.918,12.599
			c-31.603-3.363-61.321-17.433-84.049-39.884c-22.717-22.439-37.15-51.959-40.912-83.482c7.099-2.289,12.249-8.956,12.249-16.806
			c0-7.849-5.15-14.515-12.249-16.809c3.761-31.522,18.195-61.042,40.912-83.482c22.726-22.45,52.443-36.52,84.045-39.883
			c2.178,7.286,8.938,12.616,16.922,12.616c9.733,0,17.657-7.92,17.657-17.658c0-9.737-7.924-17.657-17.657-17.657
			c-8.281,0-15.244,5.728-17.143,13.431h-84.181V9.134c0-2.335-1.892-4.227-4.226-4.227h-15.331c-2.334,0-4.227,1.892-4.227,4.227
			v15.33c0,2.334,1.892,4.226,4.227,4.226h15.331c2.334,0,4.226-1.892,4.226-4.226V21.03h49.898
			c-20.668,7.266-39.672,19.057-55.487,34.676c-16.652,16.453-29.104,36.498-36.52,58.355V81.979h3.434
			c2.335,0,4.226-1.892,4.226-4.227v-15.33c0-2.335-1.891-4.227-4.226-4.227h-15.33c-2.335,0-4.231,1.892-4.231,4.227v15.33
			c0,2.335,1.896,4.227,4.231,4.227h3.438v62.991c-7.51,2.027-13.055,8.9-13.055,17.042c0,8.146,5.545,15.016,13.055,17.047v62.99
			h-3.438c-2.335,0-4.231,1.892-4.231,4.227v15.33c0,2.335,1.896,4.228,4.231,4.228h15.33c2.335,0,4.226-1.893,4.226-4.228v-15.33
			c0-2.335-1.891-4.227-4.226-4.227h-3.434v-32.083c7.416,21.854,19.867,41.902,36.52,58.352
			c15.829,15.638,34.856,27.432,55.546,34.704h-49.958v-3.442c0-2.336-1.892-4.228-4.226-4.228h-15.331
			c-2.334,0-4.227,1.892-4.227,4.228v15.329c0,2.336,1.892,4.23,4.227,4.23h15.331c2.334,0,4.226-1.895,4.226-4.23v-3.434h84.181
			c1.898,7.697,8.861,13.426,17.143,13.426c9.733,0,17.657-7.92,17.657-17.657S240.559,289.588,230.825,289.588L230.825,289.588z
			 M230.825,7.599c5.071,0,9.201,4.125,9.201,9.2c0,5.075-4.13,9.2-9.201,9.2c-5.075,0-9.204-4.125-9.204-9.2
			C221.621,11.725,225.75,7.599,230.825,7.599L230.825,7.599z M74.337,162.015c0-5.075,4.126-9.204,9.2-9.204
			c5.075,0,9.2,4.129,9.2,9.204c0,5.072-4.125,9.201-9.2,9.201C78.463,171.216,74.337,167.087,74.337,162.015L74.337,162.015z
			 M230.825,316.446c-5.075,0-9.204-4.128-9.204-9.2c0-5.075,4.129-9.204,9.204-9.204c5.071,0,9.201,4.129,9.201,9.204
			C240.026,312.318,235.896,316.446,230.825,316.446L230.825,316.446z M230.825,316.446"/>
	</g>
</g>
</svg>
