<?xml version="1.0" encoding="utf-8"?>
<!-- Generator: Adobe Illustrator 15.0.0, SVG Export Plug-In . SVG Version: 6.00 Build 0)  -->
<!DOCTYPE svg PUBLIC "-//W3C//DTD SVG 1.1//EN" "http://www.w3.org/Graphics/SVG/1.1/DTD/svg11.dtd">
<svg version="1.1" id="Layer_1" fill="#EC0B43" xmlns="http://www.w3.org/2000/svg" xmlns:xlink="http://www.w3.org/1999/xlink" x="0px" y="0px"
	 width="374.88px" height="325px" viewBox="0 0 374.88 325" enable-background="new 0 0 374.88 325" xml:space="preserve">
<g>
	<path d="M274.378,103.166c-11.705,0-21.23,9.521-21.23,21.229c0,11.705,9.525,21.226,21.23,21.226
		c11.704,0,21.225-9.521,21.225-21.226C295.603,112.688,286.082,103.166,274.378,103.166L274.378,103.166z M274.378,137.354
		c-7.148,0-12.964-5.815-12.964-12.959c0-7.147,5.815-12.962,12.964-12.962c7.146,0,12.959,5.815,12.959,12.962
		C287.337,131.54,281.524,137.354,274.378,137.354L274.378,137.354z M274.378,137.354"/>
	<path d="M280.098,124.395c0,3.16-2.562,5.717-5.72,5.717c-3.16,0-5.721-2.557-5.721-5.717c0-3.159,2.561-5.72,5.721-5.72
		C277.536,118.675,280.098,121.236,280.098,124.395L280.098,124.395z M280.098,124.395"/>
	<path d="M71.374,240.389c-11.705,0-21.227,9.521-21.227,21.226c0,11.705,9.522,21.23,21.227,21.23s21.225-9.525,21.225-21.23
		C92.599,249.91,83.078,240.389,71.374,240.389L71.374,240.389z M71.374,274.578c-7.148,0-12.963-5.815-12.963-12.964
		c0-7.146,5.815-12.959,12.963-12.959c7.147,0,12.962,5.813,12.962,12.959C84.336,268.763,78.521,274.578,71.374,274.578
		L71.374,274.578z M71.374,274.578"/>
	<path d="M77.093,261.614c0,3.16-2.561,5.721-5.719,5.721c-3.16,0-5.721-2.561-5.721-5.721c0-3.158,2.561-5.719,5.721-5.719
		C74.532,255.896,77.093,258.456,77.093,261.614L77.093,261.614z M77.093,261.614"/>
	<path d="M130.215,20.914c-11.708,0-21.229,9.521-21.229,21.226c0,11.709,9.521,21.23,21.229,21.23
		c11.705,0,21.226-9.521,21.226-21.23C151.441,30.435,141.92,20.914,130.215,20.914L130.215,20.914z M130.215,55.104
		c-7.147,0-12.963-5.816-12.963-12.964c0-7.143,5.816-12.959,12.963-12.959c7.148,0,12.959,5.816,12.959,12.959
		C143.175,49.287,137.363,55.104,130.215,55.104L130.215,55.104z M130.215,55.104"/>
	<path d="M135.932,42.14c0,3.159-2.558,5.721-5.717,5.721s-5.721-2.562-5.721-5.721c0-3.155,2.562-5.716,5.721-5.716
		S135.932,38.985,135.932,42.14L135.932,42.14z M135.932,42.14"/>
	<path d="M224.146,237.508H181.35c-2.283,0-4.132,1.854-4.132,4.136s1.849,4.132,4.132,4.132h42.797c2.286,0,4.135-1.85,4.135-4.132
		S226.429,237.508,224.146,237.508L224.146,237.508z M224.146,237.508"/>
	<path d="M224.146,258.015H181.35c-2.283,0-4.132,1.854-4.132,4.136s1.849,4.132,4.132,4.132h42.797c2.286,0,4.135-1.85,4.135-4.132
		S226.429,258.015,224.146,258.015L224.146,258.015z M224.146,258.015"/>
	<path d="M224.146,278.526H181.35c-2.283,0-4.132,1.849-4.132,4.131s1.849,4.132,4.132,4.132h42.797c2.286,0,4.135-1.85,4.135-4.132
		S226.429,278.526,224.146,278.526L224.146,278.526z M224.146,278.526"/>
	<path d="M342.025,90.393h-36.175V63.549c0-1.097-0.436-2.146-1.211-2.92L245.552,1.548c-0.773-0.774-1.823-1.211-2.92-1.211H93.972
		c-2.283,0-4.135,1.85-4.135,4.132V199.17H25.313c-2.281,0-4.131,1.849-4.131,4.131v116.627c0,2.283,1.85,4.133,4.131,4.133h230.935
		c2.282,0,4.131-1.85,4.131-4.133v-27.79h41.341c2.282,0,4.131-1.849,4.131-4.13v-129.61h36.175c6.109,0,11.081-4.972,11.081-11.085
		v-45.839C353.106,95.365,348.139,90.393,342.025,90.393L342.025,90.393z M246.763,14.449l44.977,44.969h-44.977V14.449z
		 M252.113,315.794H29.449V207.437h222.664V315.794z M297.585,283.876h-37.206v-80.575c0-2.282-1.849-4.131-4.131-4.131H98.104
		V8.604h140.396v54.945c0,2.283,1.851,4.132,4.133,4.132h54.953v22.711h-45.982c-6.108,0-11.08,4.972-11.08,11.081v45.839
		c0,6.113,4.972,11.085,11.08,11.085h45.982V283.876z M344.844,147.313c0,1.556-1.266,2.818-2.818,2.818h-90.423
		c-1.553,0-2.814-1.262-2.814-2.818v-45.839c0-1.551,1.262-2.813,2.814-2.813h90.423c1.553,0,2.818,1.262,2.818,2.813V147.313z
		 M344.844,147.313"/>
	<path d="M331.143,113.127h-26.748c-2.286,0-4.136,1.85-4.136,4.136c0,2.282,1.85,4.131,4.136,4.131h26.748
		c2.282,0,4.132-1.849,4.132-4.131C335.274,114.977,333.425,113.127,331.143,113.127L331.143,113.127z M331.143,113.127"/>
	<path d="M331.143,127.393h-26.748c-2.286,0-4.136,1.85-4.136,4.135c0,2.283,1.85,4.132,4.136,4.132h26.748
		c2.282,0,4.132-1.849,4.132-4.132C335.274,129.243,333.425,127.393,331.143,127.393L331.143,127.393z M331.143,127.393"/>
	<path d="M62.56,191.952c0.503,1.779,2.128,3.009,3.978,3.009c1.853,0,3.478-1.229,3.978-3.009l7.514-26.653
		c0.103-0.362,0.158-0.741,0.158-1.122V24.007c0-2.282-1.85-4.131-4.135-4.131H59.023c-2.283,0-4.131,1.85-4.131,4.131v140.174
		c0,0.377,0.051,0.756,0.154,1.118L62.56,191.952z M64.483,168.312h4.109l-2.055,7.287L64.483,168.312z M69.92,28.143v131.903
		h-6.762V28.143H69.92z M69.92,28.143"/>
	<path d="M25.313,194.961h15.029c2.286,0,4.135-1.85,4.135-4.132V50.66c0-0.382-0.051-0.755-0.158-1.123l-7.514-26.648
		c-0.499-1.783-2.125-3.013-3.978-3.013c-1.848,0-3.474,1.229-3.977,3.013l-7.514,26.648c-0.103,0.368-0.154,0.741-0.154,1.123
		v140.169C21.183,193.111,23.032,194.961,25.313,194.961L25.313,194.961z M29.449,186.698V54.792h6.762v131.907H29.449z
		 M34.887,46.525h-4.113l2.054-7.288L34.887,46.525z M34.887,46.525"/>
</g>
</svg>
