<?xml version="1.0" encoding="utf-8"?>
<!-- Generator: Adobe Illustrator 15.0.0, SVG Export Plug-In . SVG Version: 6.00 Build 0)  -->
<!DOCTYPE svg PUBLIC "-//W3C//DTD SVG 1.1//EN" "http://www.w3.org/Graphics/SVG/1.1/DTD/svg11.dtd">
<svg version="1.1" id="Layer_1" fill="#EC0B43" xmlns="http://www.w3.org/2000/svg" xmlns:xlink="http://www.w3.org/1999/xlink" x="0px" y="0px"
	 width="374.88px" height="325px" viewBox="0 0 374.88 325" enable-background="new 0 0 374.88 325" xml:space="preserve">
<g>
	<g>
		<defs>
			<rect id="SVGID_1_" x="0" y="1.221" width="374.648" height="322.56"/>
		</defs>
		<clipPath id="SVGID_2_">
			<use xlink:href="#SVGID_1_"  overflow="visible"/>
		</clipPath>
		<path clip-path="url(#SVGID_2_)" d="M364.815,10.773c-6.139-6.138-14.3-9.516-22.982-9.516c-8.681,0-16.841,3.382-22.979,9.516
			L162.596,167.036c-1.184,1.183-2.026,2.661-2.435,4.279l-11.162,43.991c-0.126,0.502-0.199,1.011-0.24,1.518h-16.457v26.459
			h26.463v-16.457c0.507-0.041,1.016-0.108,1.52-0.236l43.985-11.162c1.623-0.411,3.102-1.251,4.284-2.434L364.815,56.732
			C377.482,44.061,377.482,23.445,364.815,10.773L364.815,10.773z M341.833,19.828c3.723,0,7.219,1.446,9.849,4.076
			c5.43,5.431,5.43,14.268,0,19.698l-0.658,0.658L331.33,24.561l0.656-0.657C334.617,21.273,338.111,19.828,341.833,19.828
			L341.833,19.828z M182.289,173.601L318.2,37.695l19.694,19.693L201.988,193.295L182.289,173.601z M174.143,191.713l9.729,9.733
			l-13.04,3.305L174.143,191.713z M174.143,191.713"/>
	</g>
	<rect x="105.842" y="243.283" width="26.463" height="26.463"/>
	<rect x="79.384" y="269.746" width="26.458" height="26.459"/>
	<rect x="52.922" y="296.205" width="26.463" height="26.463"/>
	<rect x="26.462" y="269.746" width="26.459" height="26.459"/>
	<rect x="0" y="243.283" width="26.463" height="26.463"/>
</g>
</svg>
