<?xml version="1.0" encoding="utf-8"?>
<!-- Generator: Adobe Illustrator 15.0.0, SVG Export Plug-In . SVG Version: 6.00 Build 0)  -->
<!DOCTYPE svg PUBLIC "-//W3C//DTD SVG 1.1//EN" "http://www.w3.org/Graphics/SVG/1.1/DTD/svg11.dtd">
<svg version="1.1" id="Layer_1" fill="#EC0B43" xmlns="http://www.w3.org/2000/svg" xmlns:xlink="http://www.w3.org/1999/xlink" x="0px" y="0px"
	 width="374.88px" height="325px" viewBox="0 0 374.88 325" enable-background="new 0 0 374.88 325" xml:space="preserve">
<g>
	<path d="M355.981,153.543h-50.328V68.665h-0.021c0-2.233-0.851-4.429-2.493-6.071L243.857,3.319
		c-1.644-1.642-3.838-2.493-6.068-2.493V0.805H77.401c-4.739,0-8.581,3.842-8.581,8.581v144.157H18.504
		c-4.739,0-8.581,3.842-8.581,8.581V283.03c0,22.55,18.347,40.897,40.897,40.897h272.844c22.55,0,40.897-18.348,40.897-40.897
		V162.124C364.563,157.385,360.721,153.543,355.981,153.543L355.981,153.543z M246.37,30.101l29.983,29.982H246.37V30.101z
		 M85.982,17.966h143.226v50.698c0,4.739,3.842,8.581,8.581,8.581h50.702v76.298H85.982V17.966z M347.4,170.705v12.016H27.085
		v-12.016H347.4z M323.665,306.766H50.821c-13.089,0-23.736-10.645-23.736-23.735v-83.147H347.4v83.147
		C347.4,296.121,336.75,306.766,323.665,306.766L323.665,306.766z M323.665,306.766"/>
	<path d="M312.834,239.284H61.652c-4.739,0-8.581,3.842-8.581,8.581v30.96c0,4.738,3.842,8.58,8.581,8.58h251.182
		c4.739,0,8.581-3.842,8.581-8.58v-30.96C321.415,243.126,317.573,239.284,312.834,239.284L312.834,239.284z M304.253,270.244
		H70.233v-13.799h234.02V270.244z M304.253,270.244"/>
	<path d="M59.69,215.326c0-2.258-0.909-4.471-2.513-6.066c-1.597-1.597-3.813-2.515-6.068-2.515c-2.258,0-4.471,0.918-6.066,2.515
		c-1.597,1.596-2.515,3.809-2.515,6.066c0,2.259,0.918,4.471,2.515,6.068c1.596,1.596,3.809,2.513,6.066,2.513
		c2.254,0,4.471-0.917,6.068-2.513C58.781,219.797,59.69,217.585,59.69,215.326L59.69,215.326z M59.69,215.326"/>
</g>
</svg>
