<?xml version="1.0" encoding="utf-8"?>
<!-- Generator: Adobe Illustrator 15.0.0, SVG Export Plug-In . SVG Version: 6.00 Build 0)  -->
<!DOCTYPE svg PUBLIC "-//W3C//DTD SVG 1.1//EN" "http://www.w3.org/Graphics/SVG/1.1/DTD/svg11.dtd">
<svg version="1.1" fill="white" id="Layer_1" xmlns="http://www.w3.org/2000/svg" xmlns:xlink="http://www.w3.org/1999/xlink" x="0px" y="0px"
	 width="408.801px" height="242.398px" viewBox="0 0 408.801 242.398" enable-background="new 0 0 408.801 242.398"
	 xml:space="preserve">
<g>
	<path d="M229.602,121.199V31.602C229.602,14.176,215.426,0,198,0H31.602C14.176,0,0,14.176,0,31.602v89.597
		c0,17.426,14.176,31.602,31.602,31.602h90v26c0,2.426,1.46,4.613,3.703,5.543c0.742,0.309,1.519,0.457,2.293,0.457
		c1.562,0,3.097-0.609,4.246-1.758l30.242-30.242H198C215.426,152.801,229.602,138.625,229.602,121.199L229.602,121.199z
		 M159.602,140.801c-1.594,0-3.122,0.633-4.243,1.758l-21.757,21.758v-17.516c0-3.313-2.688-6-6-6h-96
		c-10.809,0-19.602-8.793-19.602-19.602V31.602C12,20.793,20.793,12,31.602,12H198c10.809,0,19.602,8.793,19.602,19.602v89.597
		c0,10.809-8.793,19.602-19.602,19.602H159.602z M159.602,140.801"/>
	<path d="M38,44h19.199c3.313,0,6-2.687,6-6c0-3.312-2.687-6-6-6H38c-3.312,0-6,2.688-6,6C32,41.313,34.688,44,38,44L38,44z M38,44"
		/>
	<path d="M191.602,32H82.801c-3.313,0-6,2.688-6,6c0,3.313,2.687,6,6,6h108.801c3.312,0,6-2.687,6-6
		C197.602,34.688,194.914,32,191.602,32L191.602,32z M191.602,32"/>
	<path d="M191.602,57.602H38c-3.312,0-6,2.683-6,6c0,3.312,2.688,6,6,6h153.602c3.312,0,6-2.688,6-6
		C197.602,60.285,194.914,57.602,191.602,57.602L191.602,57.602z M191.602,57.602"/>
	<path d="M191.602,83.199h-19.204c-3.312,0-6,2.688-6,6c0,3.313,2.688,6,6,6h19.204c3.312,0,6-2.687,6-6
		C197.602,85.887,194.914,83.199,191.602,83.199L191.602,83.199z M191.602,83.199"/>
	<path d="M38,95.199h108.801c3.312,0,6-2.687,6-6c0-3.312-2.688-6-6-6H38c-3.312,0-6,2.688-6,6C32,92.512,34.688,95.199,38,95.199
		L38,95.199z M38,95.199"/>
	<path d="M191.602,108.801H38c-3.312,0-6,2.687-6,6c0,3.312,2.688,6,6,6h153.602c3.312,0,6-2.688,6-6
		C197.602,111.488,194.914,108.801,191.602,108.801L191.602,108.801z M191.602,108.801"/>
	<path d="M249.199,101.602h19.199c3.316,0,6-2.688,6-6c0-3.317-2.684-6-6-6h-19.199c-3.313,0-6,2.683-6,6
		C243.199,98.914,245.887,101.602,249.199,101.602L249.199,101.602z M249.199,101.602"/>
	<path d="M370.801,101.602c3.313,0,6-2.688,6-6c0-3.317-2.688-6-6-6H294c-3.313,0-6,2.683-6,6c0,3.312,2.688,6,6,6H370.801z
		 M370.801,101.602"/>
	<path d="M249.199,127.199h121.602c3.313,0,6-2.688,6-6s-2.688-6-6-6H249.199c-3.313,0-6,2.688-6,6S245.887,127.199,249.199,127.199
		L249.199,127.199z M249.199,127.199"/>
	<path d="M370.801,140.801h-19.199c-3.316,0-6,2.688-6,6s2.684,6,6,6h19.199c3.313,0,6-2.688,6-6S374.113,140.801,370.801,140.801
		L370.801,140.801z M370.801,140.801"/>
	<path d="M249.199,152.801H326c3.312,0,6-2.688,6-6s-2.688-6-6-6h-76.801c-3.313,0-6,2.688-6,6S245.887,152.801,249.199,152.801
		L249.199,152.801z M249.199,152.801"/>
	<path d="M370.801,166.398h-160c-3.313,0-6,2.688-6,6c0,3.316,2.688,6,6,6h160c3.313,0,6-2.684,6-6
		C376.801,169.086,374.113,166.398,370.801,166.398L370.801,166.398z M370.801,166.398"/>
	<path d="M377.199,57.602h-128c-3.313,0-6,2.683-6,6c0,3.312,2.688,6,6,6h128c10.809,0,19.602,8.793,19.602,19.597v89.602
		c0,10.805-8.793,19.598-19.602,19.598h-96c-3.313,0-6,2.688-6,6v17.516l-21.758-21.758c-1.125-1.125-2.648-1.758-4.242-1.758
		h-38.398c-10.809,0-19.602-8.793-19.602-19.598v-6.402c0-3.313-2.687-6-6-6c-3.313,0-6,2.688-6,6v6.402
		c0,17.422,14.176,31.598,31.602,31.598h35.914l30.242,30.242c1.148,1.148,2.684,1.758,4.246,1.758c0.77,0,1.551-0.148,2.293-0.457
		c2.242-0.926,3.703-3.113,3.703-5.543v-26h90c17.426,0,31.602-14.176,31.602-31.598V89.199
		C408.801,71.777,394.625,57.602,377.199,57.602L377.199,57.602z M377.199,57.602"/>
</g>
</svg>
