<?xml version="1.0" encoding="utf-8"?>
<!-- Generator: Adobe Illustrator 15.0.0, SVG Export Plug-In . SVG Version: 6.00 Build 0)  -->
<!DOCTYPE svg PUBLIC "-//W3C//DTD SVG 1.1//EN" "http://www.w3.org/Graphics/SVG/1.1/DTD/svg11.dtd">
<svg version="1.1" fill="white" id="Layer_1" xmlns="http://www.w3.org/2000/svg" xmlns:xlink="http://www.w3.org/1999/xlink" x="0px" y="0px"
	 width="408.801px" height="242.398px" viewBox="0 0 408.801 242.398" enable-background="new 0 0 408.801 242.398"
	 xml:space="preserve">
<g>
	<path d="M339.814,0H70.185c-2.453,0-4.444,1.991-4.444,4.444v231.111c0,2.453,1.991,4.444,4.444,4.444h269.629
		c2.454,0,4.444-1.991,4.444-4.444V4.444C344.259,1.991,342.269,0,339.814,0L339.814,0z M335.37,8.889v26.667H74.629V8.889H335.37z
		 M74.629,231.111V44.444H335.37v186.667H74.629z M74.629,231.111"/>
	<path d="M304.259,22.222c0,2.454-1.99,4.444-4.444,4.444c-2.453,0-4.444-1.991-4.444-4.444c0-2.453,1.991-4.444,4.444-4.444
		C302.269,17.778,304.259,19.769,304.259,22.222L304.259,22.222z M304.259,22.222"/>
	<path d="M325,22.222c0,2.454-1.991,4.444-4.444,4.444s-4.444-1.991-4.444-4.444c0-2.453,1.991-4.444,4.444-4.444
		S325,19.769,325,22.222L325,22.222z M325,22.222"/>
	<path d="M283.519,22.222c0,2.454-1.991,4.444-4.444,4.444s-4.444-1.991-4.444-4.444c0-2.453,1.991-4.444,4.444-4.444
		S283.519,19.769,283.519,22.222L283.519,22.222z M283.519,22.222"/>
	<path d="M262.777,102.222h35.556c2.454,0,4.444-1.991,4.444-4.444c0-2.454-1.99-4.444-4.444-4.444h-35.556
		c-2.453,0-4.444,1.991-4.444,4.444C258.333,100.231,260.324,102.222,262.777,102.222L262.777,102.222z M262.777,102.222"/>
	<path d="M262.777,128.889h35.556c2.454,0,4.444-1.991,4.444-4.444s-1.99-4.444-4.444-4.444h-35.556
		c-2.453,0-4.444,1.991-4.444,4.444S260.324,128.889,262.777,128.889L262.777,128.889z M262.777,128.889"/>
	<path d="M262.777,155.556h35.556c2.454,0,4.444-1.991,4.444-4.444s-1.99-4.444-4.444-4.444h-35.556
		c-2.453,0-4.444,1.991-4.444,4.444S260.324,155.556,262.777,155.556L262.777,155.556z M262.777,155.556"/>
	<path d="M262.777,182.223h35.556c2.454,0,4.444-1.992,4.444-4.445s-1.99-4.444-4.444-4.444h-35.556
		c-2.453,0-4.444,1.991-4.444,4.444S260.324,182.223,262.777,182.223L262.777,182.223z M262.777,182.223"/>
	<path d="M143.403,104.367c-1.308,0.81-2.106,2.242-2.106,3.781v59.259c0,1.539,0.798,2.972,2.106,3.781
		c0.715,0.44,1.524,0.663,2.338,0.663c0.68,0,1.36-0.156,1.988-0.469l59.259-29.629c1.504-0.755,2.456-2.292,2.456-3.977
		c0-1.684-0.952-3.224-2.456-3.976l-59.259-29.629C146.351,103.484,144.713,103.556,143.403,104.367L143.403,104.367z
		 M150.185,115.338l44.875,22.439l-44.875,22.439V115.338z M150.185,115.338"/>
	<path d="M187.222,82.963h-75.556c-2.453,0-4.444,1.991-4.444,4.444v100.741c0,2.453,1.991,4.444,4.444,4.444h127.408
		c2.453,0,4.444-1.991,4.444-4.444V87.407c0-2.453-1.991-4.444-4.444-4.444H205c-2.453,0-4.444,1.991-4.444,4.444
		c0,2.454,1.991,4.445,4.444,4.445h29.63v91.852H116.111V91.852h71.111c2.454,0,4.444-1.991,4.444-4.445
		C191.667,84.954,189.676,82.963,187.222,82.963L187.222,82.963z M187.222,82.963"/>
	<path d="M322.037,53.333H87.963c-2.453,0-4.444,1.991-4.444,4.444v160c0,2.453,1.991,4.445,4.444,4.445h192.593
		c2.453,0,4.444-1.992,4.444-4.445s-1.991-4.444-4.444-4.444H92.407V62.222h225.186v151.111h-19.26
		c-2.453,0-4.444,1.991-4.444,4.444s1.991,4.445,4.444,4.445h23.704c2.453,0,4.444-1.992,4.444-4.445v-160
		C326.481,55.324,324.49,53.333,322.037,53.333L322.037,53.333z M322.037,53.333"/>
</g>
</svg>
