<svg xmlns="http://www.w3.org/2000/svg" viewBox="0 0 285.938 285.938">
    <path d="M180.47 220.313c0-22.134-19.178-39.787-41.818-37.256-16.945 1.894-30.816 15.605-32.892 32.53-1.683 13.73 4.083 26.2 13.772 33.976v32.27c0 2.268 1.838 4.105 4.106 4.105H162.3c2.27 0 4.106-1.837 4.106-4.106v-32.27c8.564-6.876 14.063-17.414 14.063-29.25zM283.594 70.313c0-22.134-19.177-39.787-41.817-37.256-16.945 1.894-30.816 15.605-32.892 32.53-1.683 13.73 4.083 26.2 13.772 33.976v32.27c0 2.268 1.837 4.105 4.106 4.105h38.662c2.27 0 4.106-1.837 4.106-4.106v-32.27c8.565-6.876 14.064-17.414 14.064-29.25zM77.344 70.313c0-22.134-19.177-39.787-41.817-37.256C18.58 34.95 4.71 48.66 2.634 65.587c-1.683 13.73 4.083 26.2 13.772 33.976v32.27c0 2.268 1.838 4.105 4.106 4.105h38.663c2.27 0 4.106-1.837 4.106-4.106v-32.27c8.565-6.876 14.064-17.414 14.064-29.25z"
          fill="#ff6900"/>
    <path fill="#fff"
          d="M110.156 267.188h65.625v9.375h-65.624zM147.656 233.513c5.442-1.94 9.375-7.097 9.375-13.2 0-7.753-6.308-14.063-14.062-14.063s-14.063 6.31-14.063 14.063c0 6.103 3.933 11.26 9.375 13.2v19.612h-28.125v9.375h65.625v-9.375h-28.125v-19.612zm-4.687-17.888c2.582 0 4.687 2.105 4.687 4.688S145.55 225 142.97 225s-4.69-2.105-4.69-4.688 2.106-4.687 4.69-4.687zM250.78 103.125V83.512c5.443-1.94 9.376-7.097 9.376-13.2 0-7.753-6.31-14.063-14.063-14.063S232.03 62.557 232.03 70.31c0 6.103 3.933 11.26 9.375 13.2v19.613H213.28v9.375h65.625v-9.375H250.78zm-4.686-37.5c2.583 0 4.688 2.105 4.688 4.688S248.676 75 246.094 75s-4.688-2.105-4.688-4.688 2.105-4.687 4.688-4.687zM213.28 117.188h65.626v9.375H213.28zM72.656 103.125H44.53V83.512c5.443-1.94 9.376-7.097 9.376-13.2 0-7.753-6.31-14.063-14.063-14.063S25.78 62.557 25.78 70.31c0 6.103 3.933 11.26 9.375 13.2v19.613H7.03v9.375h65.626v-9.375zm-32.812-37.5c2.583 0 4.688 2.105 4.688 4.688S42.426 75 39.844 75s-4.688-2.105-4.688-4.688 2.105-4.687 4.688-4.687zM7.03 117.188h65.626v9.375H7.03zM41.316 153.127l-8.84 3.127c9.327 26.38 27.88 48.614 52.236 62.602l4.67-8.128c-22.416-12.878-39.484-33.33-48.066-57.6zM142.97 9.375c23.465 0 45.772 7.406 64.508 21.422l5.616-7.51C192.722 8.054 168.474 0 142.97 0c-25.487 0-49.717 8.04-70.08 23.25l5.612 7.514c18.73-13.992 41.024-21.39 64.467-21.39zM196.598 210.698l4.673 8.128c24.334-13.988 42.868-36.21 52.187-62.578l-8.84-3.127c-8.57 24.26-25.622 44.707-48.02 57.578zM114.844 140.625V93.75H86.72v46.875h28.124zm-18.75-37.5h9.375v28.125h-9.376v-28.125zM128.906 140.625h28.125V70.313h-28.124v70.312zm9.375-60.937h9.376v51.563h-9.375V79.69zM199.22 140.625V56.25h-28.126v84.375h28.125zm-18.75-75h9.374v65.625h-9.375V65.625z"/>
</svg>