<svg xmlns="http://www.w3.org/2000/svg" viewBox="0 0 290.625 290.625">
    <path d="M145.313 154.688c-5.18 0-9.375-4.195-9.375-9.375s4.195-9.375 9.375-9.375c1.716 0 3.305.497 4.688 1.298V4.806c-1.56-.053-3.116-.118-4.687-.118-77.668 0-140.625 62.957-140.625 140.625s62.958 140.625 140.625 140.625c1.57 0 3.127-.066 4.688-.117V153.39c-1.383.8-2.972 1.298-4.687 1.298z" fill="#005baa"/>
    <path d="M280.955 154.383l9.356.614c.207-3.197.315-6.46.315-9.684h-9.375c0 3.046-.098 6.07-.295 9.07zM43.26 235.125l-7.03 6.206c4.19 4.745 8.71 9.25 13.44 13.388l6.172-7.06c-4.425-3.866-8.658-8.09-12.58-12.533zM64.744 266.264c5.26 3.506 10.79 6.703 16.448 9.487l4.144-8.413c-5.292-2.606-10.467-5.587-15.39-8.878l-5.202 7.804zM98.752 283.003c5.972 2.02 12.15 3.666 18.36 4.89l1.81-9.203c-5.808-1.14-11.583-2.677-17.17-4.57l-3 8.883zM258.295 220.93l7.786 5.218c3.517-5.245 6.723-10.777 9.52-16.434l-8.4-4.158c-2.62 5.288-5.614 10.463-8.905 15.375zM12.033 172.21l-9.192 1.84c1.243 6.184 2.907 12.353 4.95 18.33l8.874-3.03c-1.912-5.595-3.473-11.36-4.63-17.14zM15.103 209.888c2.803 5.644 6.014 11.166 9.54 16.402l7.776-5.227c-3.296-4.903-6.296-10.064-8.92-15.347l-8.397 4.172zM136.538 280.97l-.6 9.36c3.098.197 6.225.295 9.375.295 3.21 0 6.445-.103 9.6-.31l-.614-9.355c-5.87.384-11.89.388-17.762.01zM274.022 189.16l8.878 3.022c2.034-5.967 3.694-12.145 4.927-18.352l-9.197-1.833c-1.153 5.805-2.705 11.575-4.608 17.162zM171.91 278.648l1.827 9.192c6.192-1.228 12.36-2.878 18.342-4.908l-3.02-8.883c-5.587 1.903-11.357 3.445-17.15 4.598zM234.9 247.56l6.178 7.05c4.734-4.147 9.253-8.662 13.425-13.41l-7.04-6.188c-3.905 4.44-8.133 8.663-12.563 12.55zM205.444 267.267l4.153 8.405c5.644-2.79 11.17-5.986 16.425-9.502l-5.212-7.79c-4.918 3.286-10.088 6.276-15.366 8.887zM9.375 145.313c0-74.958 60.98-135.938 135.938-135.938 24.117 0 47.48 6.338 68.123 18.323l-13.617 5.447 3.482 8.705 26.386-10.552V4.688h-9.375v16.247C197.71 7.27 171.947 0 145.313 0 65.19 0 0 65.19 0 145.313c0 3.225.108 6.487.314 9.68l9.356-.614c-.197-2.997-.295-6.02-.295-9.067z" fill="#333"/>
    <path d="M248.438 112.5c0-2.7-.802-5.203-2.128-7.345L271.992 64.8c1.44.497 2.962.825 4.57.825 7.753 0 14.063-6.31 14.063-14.063S284.315 37.5 276.563 37.5 262.5 43.81 262.5 51.563c0 2.7.802 5.203 2.128 7.345l-25.683 40.355c-1.44-.497-2.963-.825-4.57-.825-3.698 0-7.04 1.463-9.553 3.802l-18.77-11.26c.09-.633.198-1.26.198-1.917 0-7.753-6.31-14.063-14.063-14.063s-14.063 6.31-14.063 14.063c0 2.433.68 4.692 1.772 6.69l-29.25 36.562c-.206-.084-.436-.127-.647-.202V28.125h-4.69c-64.616 0-117.187 52.57-117.187 117.188S80.695 262.5 145.313 262.5H150V158.513c5.442-1.94 9.375-7.097 9.375-13.2 0-2.433-.68-4.692-1.772-6.69l29.25-36.562c1.65.68 3.445 1.065 5.334 1.065 3.698 0 7.04-1.463 9.553-3.802l18.77 11.26c-.09.632-.198 1.26-.198 1.916 0 7.752 6.31 14.062 14.063 14.062s14.063-6.31 14.063-14.062zm28.125-65.625c2.583 0 4.688 2.105 4.688 4.688s-2.104 4.688-4.687 4.688-4.688-2.104-4.688-4.687 2.105-4.688 4.688-4.688zM140.625 93.548c-14.12-.713-26.897-4.472-37.622-9.216 11.873-23.227 28.41-36.895 37.622-43.172v52.388zm-45.83-13.21c-10.162-5.404-17.79-11.146-22.03-14.67 15.21-13.867 34.382-23.443 55.602-26.81-10.097 8.25-23.414 21.78-33.572 41.48zm-4.026 8.598c-6.114 14.32-10.388 31.458-10.974 51.69h-42.18c1.13-26.288 11.73-50.153 28.45-68.298 4.55 3.89 13.092 10.486 24.703 16.608zM79.794 150c.58 20.236 4.86 37.373 10.973 51.69-11.61 6.12-20.152 12.716-24.703 16.602C49.34 200.152 38.747 176.288 37.617 150h42.178zm15 60.286c10.158 19.702 23.475 33.23 33.572 41.48-21.225-3.366-40.397-12.942-55.603-26.808 4.242-3.525 11.87-9.272 22.03-14.672zm8.39-4.07c10.69-4.71 23.4-8.427 37.44-9.135v52.29c-9.13-6.356-25.56-20.128-37.44-43.153zm37.44-18.52c-15.684.71-29.738 4.763-41.442 9.924-5.55-13.195-9.44-28.978-10.008-47.616h42.942c1.416 3.97 4.542 7.097 8.513 8.513v29.18h-.005zm-8.512-47.07H89.166c.558-18.714 4.388-34.51 9.863-47.682 11.736 5.19 25.846 9.277 41.596 9.984v29.184c-3.97 1.416-7.098 4.543-8.513 8.513zm13.2 9.374c-2.583 0-4.688-2.105-4.688-4.688s2.105-4.688 4.688-4.688c2.583 0 4.688 2.105 4.688 4.688 0 2.583-2.105 4.688-4.687 4.688zm46.875-56.25c-2.583 0-4.688-2.105-4.688-4.688s2.105-4.688 4.688-4.688 4.688 2.105 4.688 4.688-2.106 4.688-4.688 4.688zm42.187 23.438c-2.583 0-4.688-2.105-4.688-4.688s2.105-4.688 4.688-4.688 4.688 2.105 4.688 4.688-2.105 4.688-4.688 4.688z" fill="#333"/>
</svg>