<svg xmlns="http://www.w3.org/2000/svg" viewBox="0 0 290.628 290.628">
    <path d="M234.375 253.126v-75H225v75h-51.563v14.063c0 7.752-6.31 14.062-14.063 14.062s-14.063-6.31-14.063-14.063V126.563c0-5.297-1.832-10.134-4.808-14.063h70.434c7.753 0 14.063 6.31 14.063 14.064v32.813h9.374v-32.813c0-12.923-10.514-23.438-23.438-23.438h-63.74c-5.462-8.72-12.512-16.29-20.776-22.294 2.934-2.578 4.828-6.314 4.828-10.52 0-7.044-5.222-12.843-11.99-13.85 7.715-9.17 11.99-20.72 11.99-33.024v-9.375C131.25 6.31 124.94 0 117.188 0s-14.063 6.31-14.063 14.064c0 2.583-2.1 4.688-4.688 4.688s-4.688-2.105-4.688-4.688C93.75 6.31 87.44 0 79.687 0S65.625 6.31 65.625 14.065c0 2.583-2.1 4.688-4.688 4.688s-4.688-2.105-4.688-4.688C56.25 6.31 49.94 0 42.187 0S28.125 6.31 28.125 14.065v9.375c0 12.304 4.275 23.854 11.99 33.022-6.763 1.008-11.99 6.806-11.99 13.852 0 4.205 1.894 7.936 4.823 10.52C12.428 95.713 0 119.625 0 145.313c0 36.895 25.416 68.77 60.938 77.34v16.41c0 12.923 10.514 23.438 23.438 23.438h51.563v4.688c0 12.923 10.513 23.438 23.437 23.438H267.19c12.923 0 23.438-10.514 23.438-23.438v-14.063h-56.253zM37.5 14.064c0-2.583 2.1-4.688 4.688-4.688s4.688 2.105 4.688 4.688c0 7.753 6.31 14.063 14.063 14.063S75 21.817 75 14.064c0-2.583 2.1-4.688 4.688-4.688s4.688 2.105 4.688 4.688c0 7.753 6.31 14.063 14.063 14.063s14.06-6.31 14.06-14.063c0-2.583 2.1-4.688 4.688-4.688s4.688 2.105 4.688 4.688v9.375c0 12.87-5.723 24.744-15.755 32.812H53.256C43.223 48.184 37.5 36.31 37.5 23.44v-9.376zm4.688 51.562H117.188c2.588 0 4.688 2.105 4.688 4.688S119.775 75 117.188 75H42.187C39.6 75 37.5 72.897 37.5 70.315s2.1-4.688 4.688-4.688zM9.375 145.314c0-25.148 13.48-48.384 35.26-60.938h70.1c8.237 4.748 15.385 11.156 21.095 18.75h-13.955c-12.923 0-23.438 10.514-23.438 23.438v4.688H46.875v9.375c7.753 0 14.063 6.31 14.063 14.063v58.34c-30.193-8.316-51.563-35.926-51.563-67.716zm60.938 93.75V154.69c0-5.298-1.833-10.135-4.81-14.064H98.44v98.438c0 7.753-6.31 14.063-14.063 14.063s-14.062-6.31-14.062-14.063zm32.69 14.062c2.977-3.928 4.81-8.766 4.81-14.063v-112.5c0-7.753 6.308-14.063 14.062-14.063s14.063 6.31 14.063 14.063v126.563h-32.935zm178.247 14.062c0 7.753-6.31 14.063-14.063 14.063h-89.072c2.948-3.918 4.697-8.788 4.697-14.062V262.5h98.438v4.688z"
          fill="#fff"/>
    <path fill="#fff" d="M154.688 210.94h60.938v9.374h-60.938zM164.063 229.69h51.563v9.374h-51.563z"/>
    <path d="M276.563 93.75c-7.753 0-14.063 6.31-14.063 14.064 0 2.7.802 5.203 2.128 7.345l-25.683 40.354c-1.44-.497-2.963-.825-4.57-.825-2.766 0-5.33.83-7.51 2.216l-12.008-7.205c.46-1.39.77-2.844.77-4.386 0-7.753-6.31-14.063-14.064-14.063s-14.063 6.31-14.063 14.064c0 2.386.652 4.598 1.702 6.567l-14.98 17.978c-1.684-.712-3.53-1.106-5.47-1.106-7.754 0-14.064 6.31-14.064 14.063s6.31 14.063 14.063 14.063 14.064-6.31 14.064-14.063c0-2.386-.652-4.598-1.702-6.567l14.98-17.977c1.684.713 3.53 1.107 5.47 1.107 2.767 0 5.33-.83 7.51-2.217l12.01 7.205c-.46 1.392-.77 2.845-.77 4.387 0 7.753 6.31 14.063 14.063 14.063s14.063-6.31 14.063-14.063c0-2.7-.802-5.203-2.128-7.345l25.683-40.355c1.44.497 2.962.825 4.57.825 7.753 0 14.063-6.31 14.063-14.063s-6.31-14.063-14.063-14.063zM168.75 187.5c-2.587 0-4.688-2.1-4.688-4.687s2.1-4.688 4.688-4.688 4.688 2.1 4.688 4.688-2.1 4.688-4.688 4.688zm28.125-42.186c0-2.587 2.1-4.688 4.688-4.688s4.688 2.1 4.688 4.688-2.1 4.688-4.687 4.688-4.688-2.102-4.688-4.688zm37.5 28.125c-2.587 0-4.688-2.1-4.688-4.69s2.1-4.687 4.688-4.687 4.688 2.1 4.688 4.688-2.1 4.69-4.688 4.69zm42.188-60.94c-2.587 0-4.688-2.1-4.688-4.687s2.1-4.688 4.688-4.688 4.688 2.1 4.688 4.688-2.1 4.688-4.687 4.688z"
          fill="#ff6900"/>
</svg>