<?xml version="1.0" standalone="no"?>
<!DOCTYPE svg PUBLIC "-//W3C//DTD SVG 1.1//EN" "http://www.w3.org/Graphics/SVG/1.1/DTD/svg11.dtd" >
<svg xmlns="http://www.w3.org/2000/svg">
<metadata></metadata>
<defs>
<font id="alsschlangesansuploaded_file" horiz-adv-x="1085" >
<font-face units-per-em="2048" ascent="1575" descent="-473" />
<missing-glyph horiz-adv-x="512" />
<glyph unicode="ff" horiz-adv-x="1044" d="M250 1083v-79h325v24q0 166 39 252q-64 47 -170 47q-194 0 -194 -244zM885 1327q-195 0 -195 -244v-79h262q24 0 40 -16t16 -38q0 -53 -56 -53h-262v-1241q0 -66 -57 -66q-58 0 -58 66v1241h-325v-1241q0 -66 -57 -66q-58 0 -58 66v1372q0 214 74 309q79 97 244 97 q134 0 219 -70q81 70 221 70q125 0 201 -45q45 -29 24 -72q-18 -40 -74 -19q-87 29 -159 29z" />
<glyph unicode="fi" horiz-adv-x="825" d="M678 1317q-18 -40 -74 -19q-87 29 -160 29q-194 0 -194 -244v-79h379q61 0 61 -70v-868q0 -66 -57 -66q-58 0 -58 66v831h-325v-1241q0 -66 -57 -66q-58 0 -58 66v1372q0 214 74 309q79 97 244 97q123 0 200 -45q46 -29 25 -72z" />
<glyph unicode="fl" horiz-adv-x="825" d="M575 66v1234q-50 27 -131 27q-194 0 -194 -244v-79h209q24 0 40 -16q15 -15 15 -38q0 -53 -55 -53h-209v-1241q0 -66 -57 -66q-58 0 -58 66v1372q0 217 72 307q79 99 246 99q110 0 178 -37q59 -29 59 -92v-1239q0 -66 -57 -66q-58 0 -58 66z" />
<glyph unicode="&#xd;" horiz-adv-x="681" />
<glyph unicode=" "  horiz-adv-x="512" />
<glyph unicode="&#x09;" horiz-adv-x="512" />
<glyph unicode="&#xa0;" horiz-adv-x="512" />
<glyph unicode="!" horiz-adv-x="411" d="M147 434v934q0 66 58 66q57 0 57 -66v-934q0 -65 -57 -65q-58 0 -58 65zM115 90q0 40 23 66t67 26t67 -26q25 -28 25 -66q0 -37 -25 -64q-24 -26 -67 -26t-67 26q-23 24 -23 64z" />
<glyph unicode="&#x22;" horiz-adv-x="565" d="M125 1049v319q0 66 55 66q56 0 56 -66v-319q0 -66 -56 -66q-55 0 -55 66zM330 1049v319q0 66 55 66t55 -66v-319q0 -66 -55 -66t-55 66z" />
<glyph unicode="#" horiz-adv-x="1257" d="M463 977l143 397q24 74 78 56q45 -15 16 -93l-131 -360h295l144 397q24 74 77 56q45 -15 17 -93l-131 -360h147q56 0 56 -47t-56 -47h-180l-125 -348h182q56 0 56 -48q0 -47 -56 -47h-217l-141 -397q-28 -76 -78 -59q-42 15 -14 98l127 358h-295l-141 -397 q-28 -76 -78 -59q-43 15 -15 98l127 358h-131q-55 0 -55 47q0 48 55 48h166l125 348h-168q-55 0 -55 47t55 47h201zM537 883l-125 -348h295l124 348h-294z" />
<glyph unicode="$" horiz-adv-x="1130" d="M614 1323q-284 0 -284 -233q0 -72 40 -127q41 -56 104 -90q62 -33 142 -64q65 -25 156 -67q79 -36 142 -79q64 -43 105 -118q40 -73 40 -170q0 -165 -98 -269t-285 -122v-166q0 -66 -55 -66q-56 0 -56 66v162q-209 8 -342 90q-89 52 -45 108q30 39 109 -6 q145 -82 317 -82q157 0 243 71q85 70 85 195q0 82 -40 141t-105 97q-66 38 -142 69l-156 65q-81 36 -142 77q-62 42 -104 113q-40 68 -40 163q0 149 88 244q89 97 274 107v163q0 66 56 66q55 0 55 -66v-165q143 -12 262 -82q96 -60 59 -115q-12 -19 -32 -20q-19 -1 -37 7 q-22 10 -47 25q-135 78 -267 78z" />
<glyph unicode="%" horiz-adv-x="1583" d="M63 1053q0 172 79 276q79 105 235 105q155 0 233 -105t78 -276t-78 -274t-233 -103q-156 0 -235 103t-79 274zM174 1053q0 -283 203 -283q201 0 201 283q0 130 -50 209q-49 77 -151 77q-203 0 -203 -286zM895 356q0 173 79 277t234 104q157 0 234 -104q78 -105 78 -277 q0 -170 -78 -273t-234 -103q-155 0 -234 103t-79 273zM1006 356q0 -282 202 -282q201 0 201 282q0 132 -49 209q-50 78 -152 78q-202 0 -202 -287zM492 18l516 1438q24 74 75 57q47 -17 19 -92l-518 -1441q-28 -76 -78 -60q-44 15 -14 98z" />
<glyph unicode="&#x26;" horiz-adv-x="1390" d="M911 1188q0 -98 -65 -190q-66 -93 -246 -216q31 -34 139 -142l119 -118q17 -17 148 -145q115 170 153 368q7 38 21 55q12 15 37 15q49 0 43 -65q-17 -213 -179 -445l207 -190q62 -58 27 -99q-37 -43 -107 19q-96 81 -200 180q-211 -235 -498 -235q-174 0 -290 90 t-116 270q0 142 86 245q84 101 250 210q-151 175 -151 338q0 135 87 218q88 83 234 83q149 0 226 -71q75 -69 75 -175zM793 430q-269 273 -285 291q-169 -114 -227 -196t-58 -185q0 -97 74 -176q73 -78 213 -78q244 0 424 201zM399 1135q0 -119 136 -279q140 94 202 168 t62 160q0 66 -51 110q-50 43 -142 43q-90 0 -148 -55q-59 -56 -59 -147z" />
<glyph unicode="'" horiz-adv-x="360" d="M125 1049v319q0 66 55 66q56 0 56 -66v-319q0 -66 -56 -66q-55 0 -55 66z" />
<glyph unicode="(" horiz-adv-x="571" d="M104 707q0 243 83 472q82 227 212 351q80 78 119 31q27 -34 -33 -103q-270 -323 -262 -751q-8 -433 262 -752q60 -72 33 -102q-41 -48 -119 30q-129 130 -212 356q-83 228 -83 468z" />
<glyph unicode=")" horiz-adv-x="571" d="M489 707q0 -243 -82 -468q-83 -226 -212 -356q-78 -78 -119 -30q-27 30 33 102q270 319 262 752q8 428 -262 751q-60 69 -33 103q39 47 119 -31q130 -124 212 -351t82 -472z" />
<glyph unicode="*" horiz-adv-x="708" d="M420 1223l121 92q55 39 82 -4t-31 -76l-125 -70l125 -69q55 -30 31 -74q-27 -45 -82 -6l-121 92l8 -143q0 -66 -47 -66t-47 66l8 143l-121 -92q-55 -39 -82 6q-24 44 31 74l125 69l-125 70q-58 33 -31 76t82 4l121 -92l-8 147q0 64 47 64q52 0 47 -64z" />
<glyph unicode="+" horiz-adv-x="1017" d="M455 313v312h-316q-55 0 -55 53q0 23 15 38t40 15h316v311q0 66 55 66t55 -66v-311h314q25 0 40 -15t15 -38q0 -53 -55 -53h-314v-312q0 -65 -55 -65t-55 65z" />
<glyph unicode="," horiz-adv-x="432" d="M342 86l-184 -342q-35 -69 -92 -39q-48 28 -11 96l185 342q15 27 40 36q26 9 48 -5q47 -29 14 -88z" />
<glyph unicode="-" horiz-adv-x="692" d="M614 500h-536q-55 0 -55 53q0 23 15 38t40 15h536q25 0 40 -15q16 -16 16 -38q0 -53 -56 -53z" />
<glyph unicode="." horiz-adv-x="413" d="M115 90q0 40 23 66t67 26t67 -26q25 -28 25 -66q0 -37 -25 -64q-24 -26 -67 -26t-67 26q-23 24 -23 64z" />
<glyph unicode="/" horiz-adv-x="655" d="M6 -113l598 1682q30 83 88 65q53 -17 23 -104l-600 -1688q-27 -82 -84 -65q-58 17 -25 110z" />
<glyph unicode="0" horiz-adv-x="1130" d="M59 707q0 331 126 529t380 198t380 -198t126 -529q0 -332 -126 -530q-125 -197 -380 -197t-380 197q-126 198 -126 530zM178 707q0 -289 103 -456q102 -165 284 -165q183 0 285 165t102 456q0 290 -102 455t-285 165q-195 0 -291 -162t-96 -458z" />
<glyph unicode="1" horiz-adv-x="1130" d="M621 66v1185l-269 -268q-53 -53 -90 -20q-37 37 12 88l344 346q37 37 66 37q51 0 51 -66v-1302q0 -66 -57 -66t-57 66z" />
<glyph unicode="2" horiz-adv-x="1130" d="M295 1235q-2 -3 -10 -7l-12 -7l-11 -8q-8 -5 -12 -6q-6 -2 -11 -4q-7 -3 -12 -3q-6 0 -10 -1q-5 -1 -11 1q-5 2 -10 5q-9 6 -10 7q-40 43 37 103q160 119 361 119q198 0 296 -89q97 -88 97 -239q0 -93 -38 -175q-37 -81 -99 -141t-135 -117l-149 -115q-75 -58 -136 -121 q-63 -64 -99 -147q-38 -87 -38 -184h688q26 0 41 -14q16 -15 16 -39q0 -23 -16 -38t-41 -15h-735q-70 0 -70 74q0 118 38 221t99 173q60 69 135 133q61 52 148 118q80 61 135 110q61 55 99 126t38 151q0 90 -67 156q-66 65 -211 65q-143 0 -285 -92z" />
<glyph unicode="3" horiz-adv-x="1130" d="M432 739q-55 0 -68 37q-14 38 23 78l404 453h-521q-26 0 -41 14q-16 15 -16 39q0 23 16 38q17 15 41 15h602q60 0 69 -40q9 -39 -26 -77l-405 -450q227 -4 354 -115t127 -317q0 -198 -129 -317q-127 -117 -336 -117q-208 0 -354 102q-60 40 -29 88q27 41 99 -2 q133 -82 288 -82q174 0 258 93t84 239q0 153 -108 237t-332 84z" />
<glyph unicode="4" horiz-adv-x="1130" d="M952 481h-96v-415q0 -66 -57 -66q-58 0 -58 66v415h-598q-49 0 -59 34q-11 35 16 63l641 817q29 39 62 39q53 0 53 -66v-780h96q64 0 64 -53q0 -54 -64 -54zM233 588h508v645z" />
<glyph unicode="5" horiz-adv-x="1130" d="M551 -20q-215 0 -352 102q-64 48 -27 94q27 35 100 -10q130 -80 283 -80q183 0 266 104q84 105 84 261q0 138 -80 229q-79 90 -243 90q-66 0 -156 -27q-87 -26 -107 -26q-57 0 -53 63l41 568q0 65 55 65h545q25 0 40 -15q16 -16 16 -38q0 -53 -56 -53h-495l-33 -471 q109 41 215 41q120 0 209 -39q87 -38 134 -105q46 -66 67 -134q20 -66 20 -144q0 -227 -133 -351t-340 -124z" />
<glyph unicode="6" horiz-adv-x="1130" d="M236 481q0 -44 8 -95q8 -49 31 -103q25 -58 61 -98q37 -42 100 -70q64 -29 146 -29q163 0 244 114t81 271q0 147 -88 241q-89 95 -235 95q-136 0 -242 -85t-106 -241zM860 1298q-92 29 -182 29q-196 0 -307 -137q-130 -158 -146 -473q124 196 379 196q195 0 308 -122 q114 -123 114 -318q0 -202 -116 -348q-115 -145 -337 -145q-221 0 -341 151q-119 150 -119 459q0 443 163 655q146 189 400 189q160 0 237 -43q51 -27 33 -74q-17 -42 -86 -19z" />
<glyph unicode="7" horiz-adv-x="1130" d="M989 1305l-563 -1250q-33 -73 -88 -51q-25 11 -28 40q-3 30 12 54q3 5 544 1209h-698q-26 0 -41 14q-16 15 -16 39q0 23 16 38q17 15 41 15h772q50 0 62 -31q12 -29 -13 -77z" />
<glyph unicode="8" horiz-adv-x="1130" d="M154 1108q0 150 119 238t292 88q177 0 295 -86q117 -86 117 -246q0 -116 -62 -205q-61 -89 -180 -168q163 -78 233 -160q72 -84 72 -217q0 -160 -136 -266t-339 -106q-132 0 -233 34q-102 35 -172 121q-70 87 -70 215q0 248 307 414q-132 73 -188 150q-55 76 -55 194z M209 350q0 -131 102 -197q104 -67 254 -67q155 0 256 74t101 188q0 66 -34 122q-35 58 -96 100q-63 44 -133 77q-70 34 -163 66q-168 -79 -228 -170q-59 -89 -59 -193zM268 1098q0 -106 103 -183q99 -75 276 -137q215 134 215 318q0 231 -297 231q-131 0 -214 -60t-83 -169z " />
<glyph unicode="9" horiz-adv-x="1130" d="M893 932q0 44 -8 95q-7 45 -32 103q-26 60 -60 98q-36 41 -101 70q-64 29 -145 29q-164 0 -245 -114t-81 -271q0 -147 88 -241q89 -95 236 -95q135 0 241 85q107 86 107 241zM268 115q92 -29 183 -29q196 0 307 137q128 157 145 473q-124 -196 -379 -196q-194 0 -308 123 t-114 317q0 202 116 348t337 146t341 -152t120 -459q0 -441 -164 -655q-145 -188 -399 -188q-159 0 -238 43q-51 27 -33 73q17 42 86 19z" />
<glyph unicode=":" horiz-adv-x="413" d="M115 932q0 39 23 65q24 27 67 27t67 -27q25 -28 25 -65q0 -38 -25 -65q-24 -25 -67 -25t-67 25q-23 24 -23 65zM115 90q0 40 23 66t67 26t67 -26q25 -28 25 -66q0 -37 -25 -64q-24 -26 -67 -26t-67 26q-23 24 -23 64z" />
<glyph unicode=";" horiz-adv-x="434" d="M342 86l-184 -342q-35 -69 -92 -39q-48 28 -11 96l185 342q15 27 40 36q26 9 48 -5q47 -29 14 -88zM174 932q0 38 24 65t66 27q44 0 68 -27t24 -65q0 -40 -24 -65t-68 -25q-42 0 -66 25t-24 65z" />
<glyph unicode="&#x3c;" horiz-adv-x="1017" d="M256 772l444 346q66 47 95 6t-37 -90l-416 -323l418 -330q66 -53 31 -94q-33 -40 -86 4l-453 350q-40 29 -38 65t42 66z" />
<glyph unicode="=" horiz-adv-x="1017" d="M879 707h-740q-55 0 -55 53q0 23 15 38t40 15h740q25 0 40 -15t15 -38q0 -53 -55 -53zM879 420h-740q-55 0 -55 53q0 23 15 38t40 15h740q25 0 40 -15t15 -38q0 -53 -55 -53z" />
<glyph unicode="&#x3e;" horiz-adv-x="1017" d="M788 641l-444 -346q-66 -46 -94 -6q-29 41 37 90l415 323l-417 330q-66 53 -31 94q33 40 86 -4l453 -350q38 -28 37 -64q-2 -37 -42 -67z" />
<glyph unicode="?" horiz-adv-x="825" d="M424 1434q187 0 277 -93t90 -231q0 -70 -15 -125q-15 -57 -54 -107q-43 -56 -58 -72q-9 -10 -76 -75q-55 -50 -83 -82q-24 -27 -52 -86q-27 -57 -27 -121q0 -73 -57 -73q-58 0 -58 73q0 79 32 151q31 69 66 109q41 46 95 99q55 51 85 85q28 33 56 94q27 60 27 128 q0 93 -65 156q-64 63 -185 63q-100 0 -227 -57q-73 -35 -95 2q-28 50 45 90q125 72 279 72zM279 90q0 40 23 66t67 26t67 -26q25 -28 25 -66q0 -37 -25 -64q-24 -26 -67 -26t-67 26q-23 24 -23 64z" />
<glyph unicode="@" horiz-adv-x="1959" d="M1233 -412q-67 -18 -225 -18q-413 0 -658 236q-246 237 -246 655q0 434 240 677q239 242 668 242q403 0 623 -223t220 -598q0 -113 -23 -204q-24 -93 -74 -177q-49 -82 -141 -130q-91 -48 -212 -48h-70q-29 0 -44 19t-15 47v170q-106 -256 -373 -256q-190 0 -292 134 q-101 132 -101 357q0 241 121 396q122 157 360 157q163 0 285 -63q16 43 57 43q58 0 58 -66v-832h43q153 0 228 124t75 319q0 330 -187 528q-186 197 -538 197q-372 0 -580 -208q-209 -209 -209 -605q0 -368 221 -577q220 -208 564 -208q73 0 147 8q64 7 74 7q49 0 55 -41 q6 -47 -51 -62zM920 86q356 0 356 559v201q-123 72 -287 72q-190 0 -275 -124t-85 -323q0 -177 71 -281t220 -104z" />
<glyph unicode="A" horiz-adv-x="1230" d="M707 1384l514 -1288q24 -66 -23 -90q-61 -28 -90 41l-158 404h-620l-146 -390q-27 -78 -86 -57q-54 20 -24 94l499 1278q23 58 70 58q43 0 64 -50zM637 1249l-264 -688h536z" />
<glyph unicode="B" horiz-adv-x="1224" d="M551 1423q234 0 364 -80q129 -79 129 -274q0 -109 -54 -195t-156 -126q138 -27 212 -118q74 -90 74 -231q0 -409 -547 -409q-226 0 -346 22q-61 12 -61 74v1233q0 70 61 82q128 22 324 22zM575 678h-286v-563q141 -15 284 -15q203 0 313 67q107 65 107 228 q0 154 -103 218q-104 65 -315 65zM516 1313q-110 0 -227 -10v-523h256q373 0 373 287q0 137 -104 191q-105 55 -298 55z" />
<glyph unicode="C" horiz-adv-x="1298" d="M768 1323q-252 0 -394 -175q-143 -176 -143 -446q0 -284 146 -448t383 -164q182 0 346 107q66 43 96 4q33 -43 -37 -99q-69 -51 -182 -87q-109 -35 -233 -35q-327 0 -486 195q-160 196 -160 530q0 325 181 527t487 202q224 0 377 -105q66 -45 35 -92q-29 -45 -101 0 q-140 86 -315 86z" />
<glyph unicode="D" horiz-adv-x="1411" d="M166 82v1233q0 68 61 80q141 28 355 28q725 0 725 -710q0 -344 -185 -534q-184 -189 -538 -189q-225 0 -357 22q-61 7 -61 70zM573 1313q-129 0 -284 -19v-1177q150 -17 282 -17q308 0 458 158q151 159 151 455q0 600 -607 600z" />
<glyph unicode="E" horiz-adv-x="1110" d="M1001 0h-763q-34 0 -53 20t-19 50v1276q0 30 17 48q18 19 48 19h748q25 0 40 -16q15 -17 15 -39q0 -25 -15 -40t-40 -15h-690v-510h567q25 0 40 -17q15 -16 15 -39q0 -25 -15 -40t-40 -15h-567v-571h712q25 0 40 -17q16 -18 16 -39q0 -24 -16 -40q-15 -15 -40 -15z" />
<glyph unicode="F" horiz-adv-x="1050" d="M825 686h-536v-620q0 -29 -17 -48q-16 -18 -45 -18t-45 18q-16 17 -16 48v1282q0 30 16 47q16 18 45 18h715q25 0 40 -16q15 -17 15 -39q0 -25 -15 -40t-40 -15h-653v-506h536q25 0 40 -17q16 -18 16 -39q0 -24 -16 -40q-15 -15 -40 -15z" />
<glyph unicode="G" horiz-adv-x="1366" d="M768 1323q-252 0 -394 -175q-143 -176 -143 -446q0 -285 140 -449q139 -163 405 -163q226 0 373 105v395h-334q-25 0 -40 15t-15 40q0 23 15 39t40 16h385q62 0 62 -65v-445q0 -42 -33 -69q-72 -57 -197 -99q-124 -42 -262 -42q-339 0 -502 193q-164 194 -164 532 q0 325 181 527t487 202q236 -6 381 -107q64 -46 31 -92q-28 -39 -101 2q-157 86 -315 86z" />
<glyph unicode="H" horiz-adv-x="1427" d="M1139 778v570q0 30 16 47q17 18 45 18t45 -18q17 -19 17 -47v-1282q0 -29 -17 -48q-17 -18 -45 -18t-45 18q-16 17 -16 48v602h-850v-602q0 -29 -17 -48q-16 -18 -45 -18t-45 18q-16 17 -16 48v1282q0 30 16 47q16 18 45 18t45 -18q17 -19 17 -47v-570h850z" />
<glyph unicode="I" horiz-adv-x="454" d="M166 66v1282q0 30 16 47q16 18 45 18t45 -18q17 -19 17 -47v-1282q0 -29 -17 -48q-16 -18 -45 -18t-45 18q-16 17 -16 48z" />
<glyph unicode="J" horiz-adv-x="704" d="M-4 113q21 39 90 12q87 -35 164 -35q192 0 192 240v1018q0 26 17 46q16 19 45 19t45 -19t16 -46v-1029q0 -339 -305 -339q-146 0 -231 49q-60 35 -33 84z" />
<glyph unicode="K" horiz-adv-x="1087" d="M166 66v1282q0 30 16 47q16 18 45 18t45 -18q17 -19 17 -47v-598l626 628q62 58 103 17q40 -44 -17 -101l-583 -571l614 -600q56 -56 19 -100q-41 -47 -109 16l-653 633v-606q0 -29 -17 -48q-16 -18 -45 -18t-45 18q-16 17 -16 48z" />
<glyph unicode="L" horiz-adv-x="1048" d="M971 0h-746q-59 0 -59 66v1282q0 30 16 47q16 18 45 18t45 -18q17 -19 17 -47v-1237h682q25 0 40 -17q15 -16 15 -39q0 -25 -15 -40t-40 -15z" />
<glyph unicode="M" horiz-adv-x="1591" d="M801 573l497 793q30 47 70 47q57 0 57 -65v-1282q0 -31 -16 -48q-17 -18 -45 -18t-45 18q-16 17 -16 48v1105l-447 -710q-24 -39 -62 -39t-65 39l-448 706v-1101q0 -66 -58 -66q-57 0 -57 66v1282q0 65 57 65q41 0 74 -51z" />
<glyph unicode="N" horiz-adv-x="1427" d="M1147 223v1125q0 65 57 65q58 0 58 -65v-1282q0 -29 -17 -48q-17 -18 -43 -18q-32 0 -61 33l-860 1155v-1122q0 -66 -58 -66q-57 0 -57 66v1277q0 29 15 50q14 20 46 20q39 0 68 -39z" />
<glyph unicode="O" horiz-adv-x="1531" d="M104 707q0 317 174 523q173 204 488 204q316 0 488 -204q173 -205 173 -523q0 -319 -173 -524q-172 -203 -488 -203t-488 203q-174 206 -174 524zM231 707q0 -271 143 -444t392 -173t392 173q142 172 142 444q0 271 -142 443q-143 173 -392 173t-392 -173t-143 -443z" />
<glyph unicode="P" horiz-adv-x="1128" d="M1055 1004q0 -229 -155 -342t-396 -113q-124 0 -215 18v-501q0 -29 -17 -48q-16 -18 -45 -18t-45 18q-16 17 -16 48v1259q0 71 61 78q134 20 308 20q520 0 520 -419zM535 1313q-123 0 -246 -15v-620q112 -19 223 -19q181 0 299 80q117 79 117 265q0 309 -393 309z" />
<glyph unicode="Q" horiz-adv-x="1531" d="M104 707q0 317 174 523q173 204 488 204q316 0 488 -204q173 -205 173 -523q0 -194 -65 -348q-66 -157 -191 -253q30 -30 77 -70l60 -49q28 -22 62 -45l49 -34q66 -45 45 -86q-23 -41 -102 -2q-131 69 -289 225q-129 -65 -307 -65q-316 0 -488 203q-174 206 -174 524z M231 707q0 -271 143 -444t392 -173q131 0 227 45q-108 128 -151 225q-31 69 12 93q44 23 84 -43q82 -135 149 -215q213 169 213 512q0 271 -142 443q-143 173 -392 173t-392 -173t-143 -443z" />
<glyph unicode="R" horiz-adv-x="1204" d="M166 66v1265q0 65 59 72q119 20 291 20q510 0 510 -395q0 -154 -78 -254t-213 -147l328 -518q41 -64 -6 -97q-30 -19 -57 -8q-29 11 -46 43l-348 549q-54 -8 -125 -8q-108 0 -192 12v-534q0 -29 -17 -48q-16 -18 -45 -18t-45 18q-16 17 -16 48zM504 1313q-59 0 -215 -13 v-593q107 -13 184 -13q221 0 324 80q102 80 102 252q0 158 -103 222q-104 65 -292 65z" />
<glyph unicode="S" horiz-adv-x="1105" d="M590 1323q-151 0 -229 -67q-76 -66 -76 -171q0 -106 80 -172q77 -64 193 -102q117 -39 227 -79q115 -43 194 -130q80 -89 80 -227q0 -180 -127 -288q-126 -107 -359 -107q-213 0 -366 81q-123 68 -86 127q7 12 10 14q6 5 13 6q2 0 7 0.5t7 1.5q4 1 15 -1q8 -1 15 -5 l17 -8q4 -2 9.5 -5t7.5 -4q5 -2 19 -9q11 -5 17 -10q144 -78 322 -78q164 0 258 69t94 197q0 93 -58 159q-57 64 -143 96l-186 71q-112 43 -187 79q-87 41 -143 122q-57 83 -57 198q0 154 111 253q112 100 325 100q197 0 344 -91q95 -59 61 -110q-24 -37 -120 14q-7 2 -9 4 q-136 72 -280 72z" />
<glyph unicode="T" horiz-adv-x="1200" d="M1122 1303h-460v-1237q0 -29 -17 -48q-17 -18 -45 -18t-45 18q-16 17 -16 48v1237h-461q-25 0 -40 15t-15 40q0 22 15 39q15 16 40 16h1044q25 0 40 -16q16 -18 16 -39q0 -24 -16 -40q-15 -15 -40 -15z" />
<glyph unicode="U" horiz-adv-x="1374" d="M688 90q397 0 397 481v777q0 28 17 47q16 18 45 18t45 -18q16 -17 16 -47v-783q0 -126 -26 -224q-27 -102 -85 -185t-164 -130q-104 -46 -249 -46q-276 0 -397 161t-121 424v783q0 30 16 47q16 18 45 18t45 -18q17 -19 17 -47v-777q0 -481 399 -481z" />
<glyph unicode="V" horiz-adv-x="1232" d="M596 27l-516 1276q-34 82 26 106q61 24 91 -55l469 -1174l442 1166q32 81 90 63t25 -100l-500 -1274q-21 -55 -66 -55q-43 0 -61 47z" />
<glyph unicode="W" horiz-adv-x="1714" d="M1192 41l-315 958l-332 -964q-21 -55 -66 -55t-61 57l-363 1284q-18 72 39 88q59 16 80 -55l318 -1149l321 940q23 63 70 63q49 0 67 -59l316 -942l313 1139q22 77 82 65q58 -12 31 -96l-371 -1272q-18 -63 -64 -63q-44 0 -65 61z" />
<glyph unicode="X" horiz-adv-x="1226" d="M260 1370l397 -543l398 543q51 66 96 31q40 -33 -4 -92l-418 -568l465 -626q45 -66 -2 -101q-23 -16 -51 -10q-27 6 -45 33l-449 612l-434 -604q-50 -70 -100 -33q-41 31 2 92l463 631l-422 563q-47 64 0 103q51 43 104 -31z" />
<glyph unicode="Y" horiz-adv-x="1136" d="M553 66v555l-463 686q-39 61 6 94q52 35 99 -33l423 -625l412 631q16 27 41 36t51 -7q43 -30 2 -90l-448 -682v-565q0 -29 -17 -48q-17 -18 -45 -18t-45 18q-16 17 -16 48z" />
<glyph unicode="Z" horiz-adv-x="1169" d="M1061 0h-926q-46 0 -58 36q-12 35 13 66l854 1201h-776q-25 0 -40 15t-15 40q0 22 15 39q15 16 40 16h874q47 0 59 -37q11 -36 -16 -71l-849 -1194h825q25 0 40 -17q15 -16 15 -39q0 -25 -15 -40t-40 -15z" />
<glyph unicode="[" horiz-adv-x="571" d="M453 -143h-267q-61 0 -61 65v1569q0 65 57 65h271q25 0 40 -15t15 -38q0 -53 -55 -53h-213v-1487h213q25 0 40 -15t15 -38q0 -53 -55 -53z" />
<glyph unicode="\" horiz-adv-x="655" d="M604 -156l-598 1682q-33 93 25 110q57 17 84 -65l600 -1688q30 -87 -23 -104q-58 -18 -88 65z" />
<glyph unicode="]" horiz-adv-x="571" d="M381 -143h-266q-56 0 -56 53q0 22 16 38q15 15 40 15h213v1487h-213q-56 0 -56 53q0 22 16 38q15 15 40 15h270q57 0 57 -65v-1569q0 -65 -61 -65z" />
<glyph unicode="^" horiz-adv-x="1148" d="M684 1384l389 -575q44 -62 -2 -92q-47 -34 -88 28l-377 566l-368 -563q-44 -66 -91 -31q-37 27 0 82l388 585q35 50 73 50t76 -50z" />
<glyph unicode="_" horiz-adv-x="1191" d="M1114 -166h-1036q-55 0 -55 53q0 23 15 38q16 16 40 16h1036q24 0 40 -16q15 -15 15 -38q0 -53 -55 -53z" />
<glyph unicode="`" d="M694 1145l-307 215q-52 38 -25 78q27 41 84 4l308 -215q57 -39 22 -84q-19 -19 -41 -16q-23 3 -41 18z" />
<glyph unicode="a" horiz-adv-x="1015" d="M233 860q-74 -30 -92 12q-21 49 35 78q145 74 326 74q379 0 379 -362v-596q0 -66 -58 -66q-57 0 -57 66v153q-44 -103 -141 -170q-99 -69 -250 -69q-153 0 -242 76q-90 76 -90 223q0 94 40 162q41 69 107 106q65 36 144 53q74 16 164 16q128 0 268 -20v57q0 265 -274 265 q-109 0 -259 -58zM389 86q177 0 277 117q100 116 100 252v39q-133 20 -252 20q-352 0 -352 -231q0 -92 59 -144q61 -53 168 -53z" />
<glyph unicode="b" horiz-adv-x="1099" d="M623 1024q191 0 292 -134t101 -358q0 -241 -121 -396q-121 -156 -360 -156q-171 0 -285 63q-16 -43 -57 -43q-58 0 -58 66v1282q0 65 58 65q57 0 57 -65v-576q100 252 373 252zM606 918q-356 0 -356 -560v-200q123 -72 287 -72q190 0 275 124t85 322q0 176 -72 281 t-219 105z" />
<glyph unicode="c" horiz-adv-x="952" d="M870 74q-133 -94 -319 -94q-227 0 -347 134t-120 382q0 239 140 383q141 145 360 145q150 0 258 -63q61 -34 32 -84q-24 -39 -83 -13q-125 54 -220 54q-158 0 -263 -117t-105 -307q0 -195 91 -301q92 -107 257 -107q133 0 252 70q71 43 98 6q30 -45 -31 -88z" />
<glyph unicode="d" horiz-adv-x="1099" d="M477 -20q-192 0 -293 134q-100 133 -100 357q0 241 121 396q122 157 360 157q171 0 285 -63v387q0 65 57 65q58 0 58 -65v-1282q0 -66 -58 -66q-57 0 -57 66v165q-100 -251 -373 -251zM494 86q356 0 356 559v201q-123 72 -287 72q-190 0 -275 -124t-85 -323 q0 -177 71 -281t220 -104z" />
<glyph unicode="e" horiz-adv-x="1026" d="M557 86q128 0 254 61q60 28 82 -10q24 -44 -25 -78q-121 -79 -311 -79q-235 0 -354 135q-119 136 -119 381q0 231 125 380q124 148 342 148q191 0 291 -114q100 -113 100 -275q0 -49 -6 -88q-15 -101 -109 -101h-626q12 -173 104 -267q91 -93 252 -93zM543 918 q-149 0 -240 -97q-90 -96 -102 -272h628q5 30 5 78q-4 132 -77 212q-72 79 -214 79z" />
<glyph unicode="f" horiz-adv-x="604" d="M678 1317q-18 -40 -74 -19q-87 29 -160 29q-194 0 -194 -244v-79h262q24 0 40 -16q15 -15 15 -38q0 -53 -55 -53h-262v-1241q0 -66 -57 -66q-58 0 -58 66v1372q0 214 74 309q79 97 244 97q123 0 200 -45q46 -29 25 -72z" />
<glyph unicode="g" horiz-adv-x="1050" d="M983 913h-162q86 -92 86 -229q0 -149 -101 -243q-103 -95 -290 -95q-132 0 -223 47q-82 -55 -82 -123q0 -123 346 -133q114 -5 175 -14q67 -10 136 -35q66 -24 98 -73q31 -47 31 -121q0 -146 -131 -235t-379 -89q-444 0 -444 283q0 147 164 237q-107 60 -107 162 q0 113 115 199q-90 88 -90 233q0 152 101 246t290 94q79 0 152 -20h315q55 0 55 -43q0 -48 -55 -48zM522 29q-112 1 -211 24q-157 -67 -157 -198q0 -79 76 -131q79 -54 255 -54q200 0 301 62t101 147q0 76 -81 109q-82 34 -284 41zM240 684q0 -106 69 -172t207 -66t207 66 q70 67 70 172q0 106 -70 173t-207 67t-207 -67q-69 -66 -69 -173z" />
<glyph unicode="h" horiz-adv-x="1107" d="M858 66v520q0 160 -58 245q-60 87 -200 87q-186 0 -268 -156q-82 -155 -82 -404v-292q0 -66 -57 -66q-58 0 -58 66v1282q0 65 58 65q57 0 57 -65v-576q49 127 148 190q97 62 212 62q198 0 280 -111q83 -112 83 -323v-524q0 -66 -58 -66q-57 0 -57 66z" />
<glyph unicode="i" horiz-adv-x="385" d="M135 66v872q0 66 58 66q57 0 57 -66v-872q0 -66 -57 -66q-58 0 -58 66zM106 1266q0 40 24 64t63 24q40 0 64 -24t24 -64q0 -39 -24 -63q-23 -23 -64 -23q-42 0 -64 22q-23 23 -23 64z" />
<glyph unicode="j" horiz-adv-x="385" d="M-205 -393q-49 22 -33 71q15 43 76 25q91 -27 139 -27q109 0 142 62q33 61 33 205v995q0 66 57 66t57 -66v-1010q0 -179 -64 -268q-64 -90 -218 -90q-112 0 -189 37zM123 1266q0 41 23 64q24 24 63 24q40 0 64 -24t24 -64q0 -39 -24 -63q-23 -23 -64 -23q-42 0 -64 22 t-22 64z" />
<glyph unicode="k" horiz-adv-x="868" d="M135 66v1282q0 65 58 65q57 0 57 -65v-807l444 436q49 49 88 10q37 -37 -10 -84l-412 -389l459 -408q23 -18 26 -45q3 -26 -14 -43q-38 -38 -94 9l-487 438v-399q0 -66 -57 -66q-58 0 -58 66z" />
<glyph unicode="l" horiz-adv-x="620" d="M135 311v1037q0 65 58 65q57 0 57 -65v-1006q0 -140 37 -198t137 -58q42 0 111 27q70 27 88 -11q20 -40 -35 -77q-69 -45 -185 -45q-143 0 -205 77q-63 78 -63 254z" />
<glyph unicode="m" horiz-adv-x="1748" d="M817 66v520q0 166 -47 249t-180 83q-94 0 -167 -54q-71 -53 -107 -140t-51 -176q-15 -88 -15 -183v-299q0 -66 -57 -66q-58 0 -58 66v872q0 66 58 66q57 0 57 -66v-174q50 131 142 195q94 65 212 65q277 0 307 -279q51 137 152 208t223 71q180 0 254 -109t74 -315v-534 q0 -66 -58 -66q-57 0 -57 66v520q0 166 -48 249t-179 83q-78 0 -138 -33q-61 -34 -98 -85q-37 -52 -61 -124q-26 -77 -34 -141q-9 -69 -9 -144v-325q0 -66 -58 -66q-57 0 -57 66z" />
<glyph unicode="n" horiz-adv-x="1107" d="M858 66v520q0 160 -58 245q-60 87 -200 87q-186 0 -268 -156q-82 -155 -82 -404v-292q0 -66 -57 -66q-58 0 -58 66v872q0 66 58 66q57 0 57 -66v-166q49 127 148 190q97 62 212 62q198 0 280 -111q83 -112 83 -323v-524q0 -66 -58 -66q-57 0 -57 66z" />
<glyph unicode="o" horiz-adv-x="1142" d="M84 502q0 226 129 374t358 148q230 0 359 -148t129 -374t-129 -374t-359 -148q-229 0 -358 148t-129 374zM203 502q0 -192 98 -303q99 -113 270 -113q172 0 271 113q98 111 98 303t-98 303q-99 113 -271 113q-171 0 -270 -113q-98 -111 -98 -303z" />
<glyph unicode="p" horiz-adv-x="1099" d="M623 1024q191 0 292 -134t101 -358q0 -241 -121 -396q-121 -156 -360 -156q-171 0 -285 63v-387q0 -66 -57 -66q-58 0 -58 66v1282q0 66 58 66q57 0 57 -66v-166q100 252 373 252zM606 918q-356 0 -356 -560v-200q123 -72 287 -72q190 0 275 124t85 322q0 176 -72 281 t-219 105z" />
<glyph unicode="q" horiz-adv-x="1099" d="M477 -20q-192 0 -293 134q-100 133 -100 357q0 241 121 396q122 157 360 157q171 0 285 -63q16 43 57 43q58 0 58 -66v-1282q0 -66 -58 -66q-57 0 -57 66v575q-100 -251 -373 -251zM494 86q356 0 356 559v201q-123 72 -287 72q-190 0 -275 -124t-85 -323q0 -177 71 -281 t220 -104z" />
<glyph unicode="r" horiz-adv-x="690" d="M250 385v-319q0 -66 -57 -66q-58 0 -58 66v874q0 64 58 64q57 0 57 -64v-127q30 98 105 155q74 56 169 56q76 0 129 -33q51 -33 33 -78q-18 -43 -84 -14q-47 19 -92 19q-101 0 -170 -93q-90 -119 -90 -440z" />
<glyph unicode="s" horiz-adv-x="868" d="M467 1024q165 0 283 -68q65 -37 41 -86q-18 -41 -80 -14q-141 62 -246 62q-110 0 -163 -40q-54 -40 -54 -112t60 -115q59 -43 146 -64q71 -17 171 -49q84 -27 146 -93q60 -65 60 -169q0 -133 -103 -215q-102 -81 -288 -81q-198 0 -311 77q-58 39 -31 84q22 39 88 9 q136 -64 271 -64q113 0 184 49q72 49 72 131q0 74 -61 118q-62 45 -145 67q-95 25 -171 49q-89 28 -147 89q-60 63 -60 165q0 129 91 199q92 71 247 71z" />
<glyph unicode="t" horiz-adv-x="618" d="M512 897h-262v-555q0 -140 37 -198t137 -58q38 0 104 25q75 31 93 -2q27 -47 -33 -84q-76 -45 -189 -45q-145 0 -204 77q-60 78 -60 258v869q0 65 58 65q57 0 57 -65v-180h262q24 0 40 -16q15 -15 15 -38q0 -53 -55 -53z" />
<glyph unicode="u" horiz-adv-x="1107" d="M250 938v-520q0 -161 58 -246q59 -86 200 -86q186 0 268 156q82 155 82 403v293q0 66 57 66q58 0 58 -66v-872q0 -66 -58 -66q-57 0 -57 66v165q-49 -126 -148 -189q-97 -62 -212 -62q-198 0 -280 110q-83 112 -83 324v524q0 66 58 66q57 0 57 -66z" />
<glyph unicode="v" horiz-adv-x="927" d="M881 911l-346 -878q-23 -53 -66 -53q-41 0 -59 45l-353 874q-12 25 -8 56q5 31 33 42q55 21 82 -47l311 -788l301 786q29 70 82 49q50 -18 23 -86z" />
<glyph unicode="w" horiz-adv-x="1359" d="M354 25l-282 872q-21 86 28 102q59 22 86 -65l238 -770l223 647q18 49 58 49q39 0 57 -49l239 -655l224 790q18 67 73 55q57 -12 33 -86l-268 -884q-17 -51 -66 -51q-46 0 -61 45l-238 637l-219 -631q-17 -51 -63 -51q-47 0 -62 45z" />
<glyph unicode="x" horiz-adv-x="931" d="M223 969l279 -369l284 373q41 56 88 18q19 -19 16 -45t-22 -45l-295 -375l334 -426q17 -22 17 -45q0 -24 -19 -43q-45 -39 -92 19l-315 403l-310 -401q-51 -60 -92 -21q-37 33 8 90l324 414l-293 379q-45 59 -2 96q45 39 90 -22z" />
<glyph unicode="y" horiz-adv-x="903" d="M12 -393q-65 37 -47 86q18 47 103 8q53 -25 106 -25q38 0 71 19q31 18 54 42q24 26 47 76q30 66 38 86l40 105l-371 897q-30 74 25 96q56 23 86 -51l321 -805l297 803q29 74 86 53q48 -18 19 -92l-355 -917q-92 -242 -165 -330t-201 -88q-87 0 -154 37z" />
<glyph unicode="z" horiz-adv-x="886" d="M797 0h-691q-43 0 -52 35q-9 34 18 67l614 795h-543q-55 0 -55 53q0 23 15 38q16 16 40 16h641q47 0 58 -35q10 -34 -17 -68l-618 -795h590q25 0 40 -15t15 -38q0 -53 -55 -53z" />
<glyph unicode="{" horiz-adv-x="614" d="M307 532v-401q0 -91 28 -142q27 -50 103 -50q7 0 78 16q49 12 64 -25q18 -43 -39 -71q-46 -23 -109 -23q-133 0 -186 77t-53 214v385q0 94 -58 125q-51 27 -51 70q0 42 51 69q58 31 58 125v385q0 137 53 214t186 77q63 0 109 -23q57 -27 39 -71q-15 -37 -64 -25 q-76 17 -78 17q-75 0 -103 -51t-28 -142v-401q0 -134 -94 -174q94 -40 94 -175z" />
<glyph unicode="|" horiz-adv-x="385" d="M137 -160v1733q0 65 56 65q55 0 55 -65v-1733q0 -65 -55 -65q-56 0 -56 65z" />
<glyph unicode="}" horiz-adv-x="614" d="M322 131v401q0 135 94 175q-94 40 -94 174v401q0 91 -28 142t-104 51q-1 0 -77 -17q-49 -12 -64 25q-18 44 39 71q46 23 109 23q133 0 186 -77t53 -214v-385q0 -94 58 -125q51 -27 51 -69q0 -43 -51 -70q-58 -31 -58 -125v-385q0 -137 -53 -214t-186 -77q-63 0 -109 23 q-57 28 -39 71q15 37 64 25q71 -16 77 -16q77 0 104 50q28 51 28 142z" />
<glyph unicode="~" horiz-adv-x="1017" d="M719 535q-67 0 -189 48t-170 48q-61 0 -133 -51q-64 -47 -92 -21q-37 37 19 88q96 90 217 90q76 0 201 -48q124 -48 157 -48q65 0 133 51q67 49 96 19q15 -21 8 -43t-30 -43q-96 -90 -217 -90z" />
<glyph unicode="&#xa1;" horiz-adv-x="411" d="M147 45v934q0 65 58 65q57 0 57 -65v-934q0 -65 -57 -65q-58 0 -58 65zM115 1323q0 41 23 65q24 25 67 25t67 -25q25 -27 25 -65t-25 -66q-23 -26 -67 -26t-67 26t-23 66z" />
<glyph unicode="&#xa2;" horiz-adv-x="1130" d="M942 74q-105 -74 -258 -90v-166q0 -66 -53 -66t-53 66v164q-207 12 -315 145q-107 132 -107 369q0 216 116 356q118 142 306 166v168q0 65 53 65t53 -65v-162q128 -6 229 -63q61 -35 33 -84q-24 -40 -84 -13q-125 54 -219 54q-158 0 -263 -117q-106 -118 -106 -307 q0 -194 92 -301t257 -107q132 0 251 70q72 44 99 6q30 -45 -31 -88z" />
<glyph unicode="&#xa3;" horiz-adv-x="1130" d="M610 1327q-127 0 -207 -77q-79 -76 -79 -195q0 -45 12 -98q14 -59 23 -84q23 -60 38 -97l37 -90h311q26 0 40 -14q16 -16 16 -37q0 -51 -56 -51h-274q29 -107 29 -193q0 -179 -117 -285h600q25 0 40 -15t15 -38q0 -53 -55 -53h-813q-55 0 -55 53q0 23 15 38t40 15 q98 0 155 84q56 83 56 199q0 97 -29 195h-155q-56 0 -56 51q0 21 16 37q14 14 40 14h114q-5 12 -24 52q-20 42 -26 56q-4 10 -20 54t-20 63q-7 31 -11 65q-5 42 -5 79q0 169 109 274q110 105 298 105q214 -6 359 -107q66 -46 35 -92q-31 -42 -101 2q-147 90 -295 90z" />
<glyph unicode="&#xa4;" horiz-adv-x="1370" d="M246 719q0 177 90 295l-154 166q-22 22 -28 50t14 50q45 39 102 -23l146 -165q122 92 295 92q176 0 295 -92l147 168q51 61 98 20q44 -39 -8 -94l-160 -172q93 -123 93 -295q0 -174 -93 -297l162 -172q20 -22 25 -48q4 -25 -13 -44q-42 -42 -108 26l-143 160 q-122 -90 -295 -90t-295 90l-140 -158q-63 -69 -108 -28q-41 35 14 98l154 166q-90 118 -90 297zM352 719q0 -174 98 -272q97 -97 261 -97t261 97t97 272q0 174 -97 271t-261 97q-160 0 -259 -102q-100 -103 -100 -266z" />
<glyph unicode="&#xa5;" horiz-adv-x="1130" d="M928 340h-295v-274q0 -29 -17 -48q-16 -18 -45 -18t-45 18q-16 17 -16 48v274h-293q-55 0 -55 51q0 22 15 37q14 14 40 14h293v154h-293q-55 0 -55 51q0 22 15 37q14 14 40 14h252l-395 605q-19 24 -19 52q0 29 27 46q50 32 94 -37l397 -635l396 641q37 60 82 33 q20 -11 20 -37t-16 -49l-391 -619h264q26 0 40 -14q15 -15 15 -37q0 -51 -55 -51h-295v-154h295q26 0 40 -14q15 -15 15 -37q0 -51 -55 -51z" />
<glyph unicode="&#xa6;" horiz-adv-x="385" d="M137 -160v688q0 66 56 66q55 0 55 -66v-688q0 -65 -55 -65q-56 0 -56 65zM137 885v688q0 65 56 65q55 0 55 -65v-688q0 -66 -55 -66q-56 0 -56 66z" />
<glyph unicode="&#xa7;" horiz-adv-x="1120" d="M190 1087q0 159 109 253t313 94q152 0 265 -52q104 -46 77 -102q-7 -14 -19 -20q-13 -6 -34 -2q-9 2 -19 5t-11 3q-4 1 -37 14q-120 47 -226 47q-150 0 -224 -65q-75 -66 -75 -175q0 -34 6 -64q6 -28 22 -54l28 -43q12 -18 41 -38l44 -30q16 -11 55 -27q45 -18 54 -21 l62 -22l59 -20q148 -51 233 -127q82 -73 82 -221q0 -194 -174 -307q109 -100 109 -273q0 -152 -111 -254t-311 -102q-151 0 -264 49q-106 45 -78 105q18 42 110 4q2 -1 6 -2.5t5 -1.5q122 -48 227 -48q150 0 223 66q74 66 74 174q0 66 -23 117q-22 49 -69 84t-90 54 q-47 21 -113 44q-194 68 -246 102q-145 90 -145 267q0 195 180 309q-115 100 -115 280zM244 514q0 -62 22 -106q23 -45 77 -77q57 -33 93 -47q35 -14 119 -42q114 -38 182 -72q140 90 140 233q0 105 -60 160q-59 55 -172 94q-214 72 -256 95q-145 -90 -145 -238z" />
<glyph unicode="&#xa8;" d="M289 1262q0 35 22 60q23 26 62 26q38 0 62 -26t24 -60q0 -36 -24 -60t-62 -24q-39 0 -62 24q-22 23 -22 60zM627 1262q0 35 22 60q23 26 62 26q38 0 62 -26t24 -60q0 -36 -24 -60t-62 -24q-39 0 -62 24q-22 23 -22 60z" />
<glyph unicode="&#xa9;" horiz-adv-x="1589" d="M84 707q0 316 190 521q191 206 521 206q329 0 520 -206q190 -205 190 -521q0 -317 -190 -522t-520 -205q-331 0 -521 205t-190 522zM197 707q0 -277 159 -449t439 -172q279 0 438 172q160 174 160 449t-160 449q-159 173 -438 173q-280 0 -439 -173q-159 -172 -159 -449z M817 1016q-123 0 -190 -81q-68 -82 -68 -224q0 -143 64 -222q62 -77 188 -77q95 0 178 53q41 27 68 -6q12 -15 9 -37q-3 -21 -22 -39q-84 -78 -239 -78q-181 0 -273 108q-92 109 -92 298t105 300t274 111q130 0 207 -53q46 -33 23 -74q-20 -36 -74 -12q-68 33 -158 33z" />
<glyph unicode="&#xaa;" horiz-adv-x="782" d="M221 1305q-57 -18 -71 14q-18 41 30 63q109 52 234 52q278 0 278 -256v-441q0 -21 -14 -34t-35 -13t-36 12t-15 35v88q-33 -61 -104 -105t-160 -44q-115 0 -176 61q-62 62 -62 162q0 120 86 188t219 68q91 0 197 -18v34q0 90 -41 129t-141 39q-86 0 -189 -34zM340 770 q119 0 185 78q67 79 67 162v30q-92 21 -186 21q-203 0 -203 -162q0 -57 36 -93t101 -36z" />
<glyph unicode="&#xab;" horiz-adv-x="993" d="M121 569l317 320q53 53 86 18q31 -35 -18 -90l-311 -309l319 -324q46 -50 12 -84q-35 -35 -82 15l-327 323q-33 40 -32 68t36 63zM471 569l317 320q53 53 87 18q30 -35 -19 -90l-311 -309l319 -324q47 -50 13 -84q-33 -34 -82 15l-328 323q-33 40 -32 68t36 63z" />
<glyph unicode="&#xac;" horiz-adv-x="1017" d="M823 418v207h-684q-55 0 -55 53q0 23 15 38t40 15h729q66 0 66 -67v-246q0 -66 -55 -66q-56 0 -56 66z" />
<glyph unicode="&#xad;" horiz-adv-x="692" d="M614 500h-536q-55 0 -55 53q0 23 15 38t40 15h536q25 0 40 -15q16 -16 16 -38q0 -53 -56 -53z" />
<glyph unicode="&#xae;" horiz-adv-x="1363" d="M166 911q0 224 140 373q141 150 376 150q238 0 377 -150q139 -149 139 -373q0 -223 -139 -372q-139 -150 -377 -150q-235 0 -376 150q-140 149 -140 372zM268 911q0 -183 108 -304q108 -122 306 -122q200 0 307 122t107 304q0 184 -107 306q-105 120 -307 120 q-199 0 -306 -120q-108 -121 -108 -306zM811 657l-123 197q-21 -4 -49 -4q-42 0 -66 4v-178q0 -51 -43 -51t-43 51v479q0 47 45 57q66 15 134 15q98 0 160 -43q63 -44 63 -137q0 -128 -113 -173l115 -165q14 -21 11 -44q-3 -22 -19 -32q-42 -23 -72 24zM649 1147 q-36 0 -76 -8v-207q29 -4 58 -4q95 0 131 26q37 27 37 90q0 58 -37 80q-38 23 -113 23z" />
<glyph unicode="&#xaf;" d="M801 1212h-516q-54 0 -54 50q0 20 15 35q16 16 39 16h516q23 0 39 -16q14 -14 14 -35q0 -50 -53 -50z" />
<glyph unicode="&#xb0;" horiz-adv-x="1130" d="M250 1124q0 145 88 227q89 83 227 83q139 0 228 -83q88 -82 88 -227q0 -144 -88 -226q-89 -83 -228 -83q-138 0 -227 83q-88 82 -88 226zM360 1124q0 -104 57 -159q58 -56 148 -56q91 0 149 56q56 55 56 159q0 105 -56 160t-149 55q-92 0 -148 -55q-57 -56 -57 -160z" />
<glyph unicode="&#xb1;" horiz-adv-x="1017" d="M455 559v127h-316q-55 0 -55 53q0 23 15 38q16 16 40 16h316v270q0 65 55 65t55 -65v-270h314q24 0 40 -16q15 -15 15 -38q0 -53 -55 -53h-314v-127q0 -65 -55 -65t-55 65zM879 317h-740q-55 0 -55 54q0 23 15 38t40 15h740q25 0 40 -15t15 -38q0 -54 -55 -54z" />
<glyph unicode="&#xb2;" horiz-adv-x="598" d="M528 696h-411q-43 0 -43 45q0 103 57 179q55 74 125 113q66 37 125 91q57 52 57 113q0 102 -129 102q-69 0 -153 -45q-56 -30 -76 -4q-28 37 24 76q86 68 213 68q107 0 170 -51q62 -50 62 -138q0 -82 -57 -148q-58 -67 -126 -104q-69 -37 -126 -90q-58 -53 -58 -112h346 q50 0 50 -48q0 -47 -50 -47z" />
<glyph unicode="&#xb3;" horiz-adv-x="628" d="M231 1044q-51 0 -51 46q0 22 29 51l194 178h-249q-45 0 -45 45q0 22 12 36q12 13 33 13h364q19 0 31 -12t12 -31q0 -27 -29 -51l-210 -189q268 -6 268 -217q0 -112 -77 -175q-75 -62 -208 -62q-113 0 -192 45q-62 35 -37 82q5 9 12 13t14 6q5 1 18 -2q4 -1 16 -5 q1 0 7 -2.5t10 -4.5l13 -5q72 -33 137 -33q176 0 176 139q0 135 -248 135z" />
<glyph unicode="&#xb4;" d="M752 1356l-297 -207q-62 -45 -90 -2q-30 43 32 86l297 207q57 43 86 2q35 -46 -28 -86z" />
<glyph unicode="&#xb5;" horiz-adv-x="1107" d="M250 938v-512q0 -340 260 -340q186 0 267 156t81 403v293q0 66 57 66q58 0 58 -66v-872q0 -66 -58 -66q-57 0 -57 66v165q-49 -126 -143 -189q-93 -62 -207 -62q-180 0 -258 133v-457q0 -66 -57 -66q-58 0 -58 66v1282q0 66 58 66q57 0 57 -66z" />
<glyph unicode="&#xb6;" horiz-adv-x="829" d="M324 -160v774q-130 0 -215 117q-86 118 -86 285q0 169 98 282q100 115 246 115q67 0 67 -70v-1503q0 -65 -55 -65t-55 65zM553 -160v1508q0 65 55 65q56 0 56 -65v-1508q0 -65 -56 -65q-55 0 -55 65z" />
<glyph unicode="&#xb7;" horiz-adv-x="411" d="M115 664q0 39 23 65q24 27 67 27t67 -27q25 -28 25 -65q0 -38 -25 -65q-24 -26 -67 -26t-67 26q-23 24 -23 65z" />
<glyph unicode="&#xb8;" horiz-adv-x="618" d="M217 -365q47 -20 107 -20q106 0 106 92q0 87 -154 98q-58 5 -47 52l41 159q15 60 60 52q43 -7 32 -62l-28 -112q105 -10 154 -62t49 -121q0 -92 -57 -143t-161 -51q-90 0 -155 34q-56 27 -33 74q18 39 86 10z" />
<glyph unicode="&#xb9;" horiz-adv-x="501" d="M301 752v522l-158 -158q-44 -44 -77 -14q-31 31 8 76l219 221q35 35 65 35q50 0 50 -52v-630q0 -56 -54 -56q-53 0 -53 56z" />
<glyph unicode="&#xba;" horiz-adv-x="751" d="M63 1053q0 172 79 276q79 105 235 105q155 0 233 -105t78 -276t-78 -274t-233 -103q-156 0 -235 103t-79 274zM174 1053q0 -283 203 -283q201 0 201 283q0 130 -50 209q-49 77 -151 77q-203 0 -203 -286z" />
<glyph unicode="&#xbb;" horiz-adv-x="993" d="M553 440l-317 -319q-53 -53 -86 -19q-31 36 18 91l311 309l-319 323q-47 50 -13 84q35 33 82 -14l328 -324q33 -40 32 -67q-2 -30 -36 -64zM903 440l-317 -319q-53 -53 -86 -19q-31 36 18 91l311 309l-319 323q-46 49 -12 84q32 33 82 -14l327 -324q33 -40 32 -67 q-2 -30 -36 -64z" />
<glyph unicode="&#xbc;" horiz-adv-x="1388" d="M926 299h233v287zM1257 205v-154q0 -51 -49 -51t-49 51v154h-297q-47 0 -56 38q-9 39 17 62l320 393q33 39 67 39q47 0 47 -51v-387h54q45 0 45 -47t-45 -47h-54zM301 752v522l-158 -158q-44 -44 -77 -14q-31 31 8 76l219 221q35 35 65 35q50 0 50 -52v-630 q0 -56 -54 -56q-53 0 -53 56zM414 18l516 1438q24 74 76 57q46 -16 18 -92l-518 -1441q-28 -76 -78 -60q-44 15 -14 98z" />
<glyph unicode="&#xbd;" horiz-adv-x="1478" d="M1417 0h-411q-43 0 -43 45q0 101 57 178q57 76 125 114q66 37 125 91q57 52 57 113q0 102 -129 102q-70 0 -154 -45q-55 -30 -75 -4q-28 37 24 76q85 67 213 67q108 0 170 -50t62 -138q0 -82 -58 -149q-56 -65 -126 -103q-69 -37 -126 -90t-57 -113h346q49 0 49 -47 t-49 -47zM301 752v522l-158 -158q-44 -44 -77 -14q-31 31 8 76l219 221q35 35 65 35q50 0 50 -52v-630q0 -56 -54 -56q-53 0 -53 56zM414 18l516 1438q24 74 76 57q46 -16 18 -92l-518 -1441q-28 -76 -78 -60q-44 15 -14 98z" />
<glyph unicode="&#xbe;" horiz-adv-x="1474" d="M231 1044q-51 0 -51 46q0 22 29 51l194 178h-249q-45 0 -45 45q0 22 12 36q12 13 33 13h364q19 0 31 -12t12 -31q0 -27 -29 -51l-210 -189q268 -6 268 -217q0 -112 -77 -175q-75 -62 -208 -62q-113 0 -192 45q-62 35 -37 82q5 9 12 13t14 6q5 1 18 -2q4 -1 16 -5 q1 0 7 -2.5t10 -4.5l13 -5q72 -33 137 -33q176 0 176 139q0 135 -248 135zM1006 299h233v287zM1337 205v-154q0 -51 -49 -51t-49 51v154h-297q-47 0 -56 38q-9 39 17 62l320 393q33 39 67 39q47 0 47 -51v-387h54q45 0 45 -47t-45 -47h-54zM489 18l517 1438q24 74 75 57 q47 -17 19 -92l-518 -1441q-28 -76 -78 -60q-45 15 -15 98z" />
<glyph unicode="&#xbf;" horiz-adv-x="825" d="M426 -20q-189 0 -278 92t-89 231q0 69 15 125q16 58 54 108t58 71q9 10 76 75q55 50 83 82q24 27 52 86q27 57 27 121q0 73 57 73q58 0 58 -73q0 -79 -32 -151q-31 -69 -66 -109q-41 -46 -95 -99q-55 -51 -85 -85q-28 -33 -56 -94q-27 -60 -27 -128q0 -92 65 -155 q66 -64 185 -64q99 0 227 57q73 35 95 -2q28 -49 -45 -90q-123 -71 -279 -71zM571 1323q0 -40 -23 -66t-67 -26t-67 26q-25 28 -25 66t25 65q24 25 67 25t67 -25q23 -24 23 -65z" />
<glyph unicode="&#xc0;" horiz-adv-x="1230" d="M707 1384l514 -1288q24 -66 -23 -90q-61 -28 -90 41l-158 404h-620l-146 -390q-27 -78 -86 -57q-54 20 -24 94l499 1278q23 58 70 58q43 0 64 -50zM637 1249l-264 -688h536zM651 1536l-368 188q-73 37 -45 86q23 44 94 7l368 -191q68 -35 41 -82q-23 -41 -90 -8z" />
<glyph unicode="&#xc1;" horiz-adv-x="1230" d="M707 1384l514 -1288q24 -66 -23 -90q-61 -28 -90 41l-158 404h-620l-146 -390q-27 -78 -86 -57q-54 20 -24 94l499 1278q23 58 70 58q43 0 64 -50zM637 1249l-264 -688h536zM983 1724l-369 -188q-69 -35 -90 8q-25 48 41 82l371 191q69 34 92 -7q28 -49 -45 -86z" />
<glyph unicode="&#xc2;" horiz-adv-x="1230" d="M707 1384l514 -1288q24 -66 -23 -90q-61 -28 -90 41l-158 404h-620l-146 -390q-27 -78 -86 -57q-54 20 -24 94l499 1278q23 58 70 58q43 0 64 -50zM637 1249l-264 -688h536zM907 1534l-264 160l-260 -160q-66 -39 -88 4q-21 40 39 78l258 160q56 34 117 0l252 -154 q65 -38 34 -86q-24 -40 -88 -2z" />
<glyph unicode="&#xc3;" horiz-adv-x="1230" d="M707 1384l514 -1288q24 -66 -23 -90q-61 -28 -90 41l-158 404h-620l-146 -390q-27 -78 -86 -57q-54 20 -24 94l499 1278q23 58 70 58q43 0 64 -50zM637 1249l-264 -688h536zM793 1536q-71 0 -160 55q-91 56 -123 56q-41 0 -111 -64q-49 -45 -80 -22q-41 33 9 86 q84 100 186 100q63 0 155 -55q94 -56 128 -56q48 0 110 62q47 47 82 20q37 -30 -10 -86q-85 -96 -186 -96z" />
<glyph unicode="&#xc4;" horiz-adv-x="1230" d="M707 1384l514 -1288q24 -66 -23 -90q-61 -28 -90 41l-158 404h-620l-146 -390q-27 -78 -86 -57q-54 20 -24 94l499 1278q23 58 70 58q43 0 64 -50zM637 1249l-264 -688h536zM358 1655q0 42 26 68t69 26t71 -26q27 -25 27 -68q0 -90 -98 -90q-95 0 -95 90zM739 1655 q0 42 26 68t71 26q42 0 69 -27t27 -67q0 -43 -26 -67q-24 -23 -70 -23q-97 0 -97 90z" />
<glyph unicode="&#xc5;" horiz-adv-x="1230" d="M559 1401q-74 15 -113 62q-40 47 -40 116q0 80 58 132t154 52q97 0 155 -52t58 -132q0 -71 -43 -118t-116 -62q2 -3 10 -19l512 -1284q24 -66 -23 -90q-61 -28 -90 41l-157 404h-621l-147 -394q-29 -80 -93 -51q-19 7 -24 37q-4 27 8 55l500 1278q7 20 12 25zM610 1249 l-264 -688h537zM618 1681q-51 0 -82 -28q-32 -29 -32 -72q0 -44 31 -75q29 -29 83 -29q52 0 85 29q34 30 34 73t-34 73q-33 29 -85 29z" />
<glyph unicode="&#xc6;" horiz-adv-x="1800" d="M1733 0h-740q-31 0 -51 20t-20 50v381h-486l-260 -392q-57 -90 -113 -49q-41 30 5 103l847 1247q35 53 86 53h709q25 0 40 -16q15 -17 15 -39q0 -25 -15 -40t-40 -15h-666v-510h543q25 0 40 -17q15 -16 15 -39q0 -25 -15 -40t-40 -15h-543v-571h689q25 0 40 -17 q15 -16 15 -39q0 -25 -15 -40t-40 -15zM922 1180l-412 -619h412v619z" />
<glyph unicode="&#xc7;" horiz-adv-x="1298" d="M614 -365q47 -20 107 -20q106 0 106 92q0 87 -153 98q-58 5 -47 52l32 127q-281 27 -417 219q-138 194 -138 502q0 325 181 527t487 202q224 0 377 -105q66 -45 35 -92q-29 -45 -101 0q-140 86 -315 86q-252 0 -394 -175q-143 -176 -143 -446q0 -284 146 -448t383 -164 q182 0 346 107q66 43 96 4q33 -43 -37 -99q-70 -52 -180 -86q-111 -35 -233 -36l-21 -86q107 -11 155 -62t48 -121q0 -93 -56 -143q-57 -51 -161 -51q-91 0 -156 34q-56 27 -33 74q18 39 86 10z" />
<glyph unicode="&#xc8;" horiz-adv-x="1110" d="M1001 0h-763q-34 0 -53 20t-19 50v1276q0 30 17 48q18 19 48 19h748q25 0 40 -16q15 -17 15 -39q0 -25 -15 -40t-40 -15h-690v-510h567q25 0 40 -17q15 -16 15 -39q0 -25 -15 -40t-40 -15h-567v-571h712q25 0 40 -17q16 -18 16 -39q0 -24 -16 -40q-15 -15 -40 -15z M623 1536l-369 188q-73 37 -45 86q23 44 94 7l369 -191q68 -35 41 -82q-23 -41 -90 -8z" />
<glyph unicode="&#xc9;" horiz-adv-x="1110" d="M1001 0h-763q-34 0 -53 20t-19 50v1276q0 30 17 48q18 19 48 19h748q25 0 40 -16q15 -17 15 -39q0 -25 -15 -40t-40 -15h-690v-510h567q25 0 40 -17q15 -16 15 -39q0 -25 -15 -40t-40 -15h-567v-571h712q25 0 40 -17q16 -18 16 -39q0 -24 -16 -40q-15 -15 -40 -15z M954 1724l-368 -188q-69 -35 -90 8q-25 48 41 82l370 191q69 34 92 -7q28 -49 -45 -86z" />
<glyph unicode="&#xca;" horiz-adv-x="1110" d="M1001 0h-763q-34 0 -53 20t-19 50v1276q0 30 17 48q18 19 48 19h748q25 0 40 -16q15 -17 15 -39q0 -25 -15 -40t-40 -15h-690v-510h567q25 0 40 -17q15 -16 15 -39q0 -25 -15 -40t-40 -15h-567v-571h712q25 0 40 -17q16 -18 16 -39q0 -24 -16 -40q-15 -15 -40 -15z M860 1534l-264 160l-260 -160q-66 -39 -88 4q-21 40 39 78l258 160q55 34 117 0l251 -154q66 -39 35 -86q-24 -40 -88 -2z" />
<glyph unicode="&#xcb;" horiz-adv-x="1110" d="M1001 0h-763q-34 0 -53 20t-19 50v1276q0 30 17 48q18 19 48 19h748q25 0 40 -16q15 -17 15 -39q0 -25 -15 -40t-40 -15h-690v-510h567q25 0 40 -17q15 -16 15 -39q0 -25 -15 -40t-40 -15h-567v-571h712q25 0 40 -17q16 -18 16 -39q0 -24 -16 -40q-15 -15 -40 -15z M303 1655q0 42 26 68t68 26q44 0 72 -26q27 -25 27 -68q0 -90 -99 -90q-94 0 -94 90zM684 1655q0 42 26 68t70 26q43 0 70 -27t27 -67q0 -43 -26 -67q-24 -23 -71 -23q-96 0 -96 90z" />
<glyph unicode="&#xcc;" horiz-adv-x="454" d="M227 1536l-368 188q-73 37 -45 86q23 44 94 7l368 -191q68 -35 41 -82q-23 -41 -90 -8zM195 66v1282q0 30 16 47q17 18 45 18t45 -18q16 -17 16 -47v-1282q0 -31 -16 -48q-17 -18 -45 -18t-45 18q-16 17 -16 48z" />
<glyph unicode="&#xcd;" horiz-adv-x="454" d="M649 1724l-368 -188q-70 -35 -91 8q-25 48 41 82l371 191q69 34 92 -7q28 -49 -45 -86zM188 66v1282q0 28 17 47q17 18 45 18t45 -18q16 -17 16 -47v-1282q0 -31 -16 -48q-17 -18 -45 -18t-45 18q-17 19 -17 48z" />
<glyph unicode="&#xce;" horiz-adv-x="454" d="M514 1534l-264 160l-260 -160q-66 -39 -88 4q-21 40 39 78l258 160q55 34 116 0l252 -154q66 -39 35 -86q-24 -40 -88 -2zM186 66v1282q0 28 17 47q17 18 45 18t45 -18q16 -17 16 -47v-1282q0 -31 -16 -48q-17 -18 -45 -18t-45 18q-17 19 -17 48z" />
<glyph unicode="&#xcf;" horiz-adv-x="454" d="M-8 1651q0 37 22 62q23 26 64 26q40 0 64 -26q24 -25 24 -62q0 -39 -24 -63q-23 -23 -64 -23q-42 0 -64 23t-22 63zM289 1651q0 37 22 62q23 26 64 26q40 0 64 -26q24 -25 24 -62q0 -39 -24 -63q-23 -23 -64 -23q-42 0 -64 23t-22 63zM166 66v1282q0 30 16 47 q16 18 45 18t45 -18q17 -19 17 -47v-1282q0 -29 -17 -48q-16 -18 -45 -18t-45 18q-16 17 -16 48z" />
<glyph unicode="&#xd0;" horiz-adv-x="1472" d="M227 82v602h-129q-25 0 -40 15t-15 40q0 23 15 39q15 17 40 17h129v520q0 68 62 80q141 28 354 28q725 0 725 -710q0 -346 -184 -534q-184 -189 -539 -189q-224 0 -356 22q-62 8 -62 70zM635 1313q-130 0 -285 -19v-499h322q25 0 40 -17q15 -16 15 -39q0 -25 -15 -40 t-40 -15h-322v-567q150 -17 283 -17q308 0 458 158t150 455q0 600 -606 600z" />
<glyph unicode="&#xd1;" horiz-adv-x="1427" d="M1147 223v1125q0 65 57 65q58 0 58 -65v-1282q0 -29 -17 -48q-17 -18 -43 -18q-32 0 -61 33l-860 1155v-1122q0 -66 -58 -66q-57 0 -57 66v1277q0 29 15 50q14 20 46 20q39 0 68 -39zM870 1536q-70 0 -159 55q-91 56 -123 56q-41 0 -111 -64q-49 -45 -80 -22q-41 33 9 86 q84 100 186 100q62 0 154 -55q94 -56 128 -56q49 0 111 62q47 47 82 20q37 -30 -10 -86q-85 -96 -187 -96z" />
<glyph unicode="&#xd2;" horiz-adv-x="1531" d="M104 707q0 317 174 523q173 204 488 204q316 0 488 -204q173 -205 173 -523q0 -319 -173 -524q-172 -203 -488 -203t-488 203q-174 206 -174 524zM231 707q0 -271 143 -444t392 -173t392 173q142 172 142 444q0 271 -142 443q-143 173 -392 173t-392 -173t-143 -443z M807 1536l-369 188q-73 37 -45 86q23 44 94 7l369 -191q68 -35 41 -82q-23 -41 -90 -8z" />
<glyph unicode="&#xd3;" horiz-adv-x="1531" d="M104 707q0 317 174 523q173 204 488 204q316 0 488 -204q173 -205 173 -523q0 -319 -173 -524q-172 -203 -488 -203t-488 203q-174 206 -174 524zM231 707q0 -271 143 -444t392 -173t392 173q142 172 142 444q0 271 -142 443q-143 173 -392 173t-392 -173t-143 -443z M1118 1724l-368 -188q-70 -35 -91 8q-25 48 41 82l371 191q69 34 92 -7q28 -49 -45 -86z" />
<glyph unicode="&#xd4;" horiz-adv-x="1531" d="M1032 1534l-264 160l-260 -160q-66 -39 -88 4q-21 40 39 78l258 160q55 34 117 0l251 -154q66 -39 35 -86q-24 -40 -88 -2zM104 707q0 317 174 523q173 204 488 204q316 0 488 -204q173 -205 173 -523q0 -319 -173 -524q-172 -203 -488 -203t-488 203q-174 206 -174 524z M231 707q0 -271 143 -444t392 -173t392 173q142 172 142 444q0 271 -142 443q-143 173 -392 173t-392 -173t-143 -443z" />
<glyph unicode="&#xd5;" horiz-adv-x="1531" d="M104 707q0 317 174 523q173 204 488 204q316 0 488 -204q173 -205 173 -523q0 -319 -173 -524q-172 -203 -488 -203t-488 203q-174 206 -174 524zM231 707q0 -271 143 -444t392 -173t392 173q142 172 142 444q0 271 -142 443q-143 173 -392 173t-392 -173t-143 -443z M911 1536q-70 0 -159 55q-91 56 -123 56q-41 0 -111 -64q-49 -45 -80 -22q-41 34 8 86q84 100 187 100q62 0 154 -55q94 -56 128 -56q49 0 111 62q47 47 82 20q37 -30 -10 -86q-85 -96 -187 -96z" />
<glyph unicode="&#xd6;" horiz-adv-x="1531" d="M104 707q0 317 174 523q173 204 488 204q316 0 488 -204q173 -205 173 -523q0 -319 -173 -524q-172 -203 -488 -203t-488 203q-174 206 -174 524zM231 707q0 -271 143 -444t392 -173t392 173q142 172 142 444q0 271 -142 443q-143 173 -392 173t-392 -173t-143 -443z M481 1655q0 42 26 68t68 26q44 0 72 -26q27 -25 27 -68q0 -90 -99 -90q-94 0 -94 90zM862 1655q0 42 26 68t70 26q45 0 71 -27q26 -28 26 -67q0 -43 -26 -67q-24 -23 -71 -23q-96 0 -96 90z" />
<glyph unicode="&#xd7;" horiz-adv-x="1017" d="M231 461l220 217l-220 217q-19 19 -24 45q-5 24 16 45q39 35 86 -12l221 -217l222 217q19 19 42 23q24 5 46 -13q16 -20 13 -44q-3 -23 -24 -44l-221 -217l221 -217q49 -49 11 -88q-39 -39 -88 10l-222 217l-221 -217q-21 -21 -46 -24t-46 18q-30 40 14 84z" />
<glyph unicode="&#xd8;" horiz-adv-x="1531" d="M104 707q0 317 174 523q173 204 488 204q99 0 199 -27l39 109q24 74 75 57q45 -15 21 -90l-41 -109q179 -82 273 -258q95 -176 95 -409q0 -319 -173 -524q-172 -203 -488 -203q-97 0 -199 24l-37 -100q-27 -74 -75 -60q-45 15 -17 99l35 96q-179 83 -273 258 q-96 178 -96 410zM231 707q0 -188 73 -337q71 -146 208 -220l414 1150q-80 23 -160 23q-249 0 -392 -173t-143 -443zM1300 707q0 189 -72 335t-208 220l-414 -1151q69 -21 160 -21q249 0 392 173q142 172 142 444z" />
<glyph unicode="&#xd9;" horiz-adv-x="1374" d="M688 90q397 0 397 481v777q0 28 17 47q16 18 45 18t45 -18q16 -17 16 -47v-783q0 -126 -26 -224q-27 -102 -85 -185t-164 -130q-104 -46 -249 -46q-276 0 -397 161t-121 424v783q0 30 16 47q16 18 45 18t45 -18q17 -19 17 -47v-777q0 -481 399 -481zM766 1536l-369 188 q-73 37 -45 86q23 44 94 7l369 -191q68 -35 41 -82q-23 -41 -90 -8z" />
<glyph unicode="&#xda;" horiz-adv-x="1374" d="M688 90q397 0 397 481v777q0 28 17 47q16 18 45 18t45 -18q16 -17 16 -47v-783q0 -126 -26 -224q-27 -102 -85 -185t-164 -130q-104 -46 -249 -46q-276 0 -397 161t-121 424v783q0 30 16 47q16 18 45 18t45 -18q17 -19 17 -47v-777q0 -481 399 -481zM1055 1724l-369 -188 q-69 -35 -90 8q-25 48 41 82l371 191q69 34 92 -7q28 -49 -45 -86z" />
<glyph unicode="&#xdb;" horiz-adv-x="1374" d="M977 1534l-264 160l-260 -160q-66 -39 -88 4q-21 41 38 78l259 160q55 34 116 0l252 -154q66 -39 35 -86q-24 -40 -88 -2zM688 90q397 0 397 481v777q0 28 17 47q16 18 45 18t45 -18q16 -17 16 -47v-783q0 -126 -26 -224q-27 -102 -85 -185t-164 -130q-104 -46 -249 -46 q-276 0 -397 161t-121 424v783q0 30 16 47q16 18 45 18t45 -18q17 -19 17 -47v-777q0 -481 399 -481z" />
<glyph unicode="&#xdc;" horiz-adv-x="1374" d="M688 90q397 0 397 481v777q0 28 17 47q16 18 45 18t45 -18q16 -17 16 -47v-783q0 -126 -26 -224q-27 -102 -85 -185t-164 -130q-104 -46 -249 -46q-276 0 -397 161t-121 424v783q0 30 16 47q16 18 45 18t45 -18q17 -19 17 -47v-777q0 -481 399 -481zM426 1655q0 42 26 68 t68 26q44 0 72 -26q27 -25 27 -68q0 -90 -99 -90q-94 0 -94 90zM807 1655q0 42 26 68t70 26q43 0 70 -27q26 -26 26 -67q0 -43 -25 -67q-24 -23 -71 -23q-96 0 -96 90z" />
<glyph unicode="&#xdd;" horiz-adv-x="1136" d="M553 66v555l-463 686q-39 61 6 94q52 35 99 -33l423 -625l412 631q16 27 41 36t51 -7q43 -30 2 -90l-448 -682v-565q0 -29 -17 -48q-17 -18 -45 -18t-45 18q-16 17 -16 48zM950 1724l-368 -188q-69 -35 -90 8q-25 48 40 82l371 191q69 34 92 -7q28 -49 -45 -86z" />
<glyph unicode="&#xde;" horiz-adv-x="1128" d="M1055 846q0 -226 -155 -337q-156 -112 -386 -112q-140 0 -225 15v-346q0 -29 -17 -48q-16 -18 -45 -18t-45 18q-16 17 -16 48v1282q0 30 16 47q16 18 45 18t45 -18q17 -19 17 -47v-93q139 17 246 17q242 0 381 -103t139 -323zM535 1161q-127 0 -246 -14v-625 q78 -14 213 -14q426 4 426 338q0 156 -103 236q-101 79 -290 79z" />
<glyph unicode="&#xdf;" horiz-adv-x="1021" d="M498 1327q-142 0 -195 -78q-53 -79 -53 -262v-1331q0 -66 -57 -66q-58 0 -58 66v1321q0 238 79 347q80 110 286 110q183 0 267 -73q83 -72 83 -187q0 -78 -39 -144q-38 -65 -87 -103q-48 -37 -87 -84t-39 -89q0 -41 56 -87t124 -88q66 -41 124 -122q56 -78 56 -181 q0 -124 -84 -210t-241 -86q-129 0 -230 45t-63 104q4 5 11 12q3 3 15 5q6 1 14 1q5 0 17 -3t18 -5q1 0 3 -1l4 -2t5.5 -2.5t6.5 -2.5t6.5 -2.5t5.5 -2.5l4 -2t3 -1q84 -37 186 -37q201 0 201 190q0 64 -37 116q-39 54 -89 90l-105 74q-50 35 -89 84q-37 47 -37 105 q0 65 39 122t85 91q45 33 85 92q39 57 39 119q0 158 -233 158z" />
<glyph unicode="&#xe0;" horiz-adv-x="1015" d="M233 860q-74 -30 -92 12q-21 49 35 78q145 74 326 74q379 0 379 -362v-596q0 -66 -58 -66q-57 0 -57 66v153q-44 -103 -141 -170q-99 -69 -250 -69q-153 0 -242 76q-90 76 -90 223q0 94 40 162q41 69 107 106q65 36 144 53q74 16 164 16q128 0 268 -20v57q0 265 -274 265 q-109 0 -259 -58zM389 86q177 0 277 117q100 116 100 252v39q-133 20 -252 20q-352 0 -352 -231q0 -92 59 -144q61 -53 168 -53zM512 1145l-307 215q-52 38 -25 78q27 41 84 4l307 -215q57 -39 23 -84q-19 -19 -41 -16q-23 3 -41 18z" />
<glyph unicode="&#xe1;" horiz-adv-x="1015" d="M233 860q-74 -30 -92 12q-21 49 35 78q145 74 326 74q379 0 379 -362v-596q0 -66 -58 -66q-57 0 -57 66v153q-44 -103 -141 -170q-99 -69 -250 -69q-153 0 -242 76q-90 76 -90 223q0 94 40 162q41 69 107 106q65 36 144 53q74 16 164 16q128 0 268 -20v57q0 265 -274 265 q-109 0 -259 -58zM389 86q177 0 277 117q100 116 100 252v39q-133 20 -252 20q-352 0 -352 -231q0 -92 59 -144q61 -53 168 -53zM768 1356l-297 -207q-62 -45 -90 -2q-30 43 33 86l297 207q57 43 86 2q35 -45 -29 -86z" />
<glyph unicode="&#xe2;" horiz-adv-x="1015" d="M233 860q-74 -30 -92 12q-21 49 35 78q145 74 326 74q379 0 379 -362v-596q0 -66 -58 -66q-57 0 -57 66v153q-44 -103 -141 -170q-99 -69 -250 -69q-153 0 -242 76q-90 76 -90 223q0 94 40 162q41 69 107 106q65 36 144 53q74 16 164 16q128 0 268 -20v57q0 265 -274 265 q-109 0 -259 -58zM389 86q177 0 277 117q100 116 100 252v39q-133 20 -252 20q-352 0 -352 -231q0 -92 59 -144q61 -53 168 -53zM721 1151l-227 184l-215 -178q-66 -51 -93 -14q-28 37 31 86l227 186q28 23 56 23q26 0 55 -23l225 -182q60 -49 27 -90q-30 -39 -86 8z" />
<glyph unicode="&#xe3;" horiz-adv-x="1015" d="M233 860q-74 -30 -92 12q-21 49 35 78q145 74 326 74q379 0 379 -362v-596q0 -66 -58 -66q-57 0 -57 66v153q-44 -103 -141 -170q-99 -69 -250 -69q-153 0 -242 76q-90 76 -90 223q0 94 40 162q41 69 107 106q65 36 144 53q74 16 164 16q128 0 268 -20v57q0 265 -274 265 q-109 0 -259 -58zM389 86q177 0 277 117q100 116 100 252v39q-133 20 -252 20q-352 0 -352 -231q0 -92 59 -144q61 -53 168 -53zM621 1151q-71 0 -144 55q-74 56 -100 56q-16 0 -36 -10q-18 -9 -24 -15l-34 -35q-40 -40 -78 -16q-35 29 0 76q69 100 178 100q62 0 138 -55 q77 -56 106 -56q39 0 94 60q40 40 78 16q33 -27 0 -76q-26 -42 -76 -71t-102 -29z" />
<glyph unicode="&#xe4;" horiz-adv-x="1015" d="M233 860q-74 -30 -92 12q-21 49 35 78q145 74 326 74q379 0 379 -362v-596q0 -66 -58 -66q-57 0 -57 66v153q-44 -103 -141 -170q-99 -69 -250 -69q-153 0 -242 76q-90 76 -90 223q0 94 40 162q41 69 107 106q65 36 144 53q74 16 164 16q128 0 268 -20v57q0 265 -274 265 q-109 0 -259 -58zM389 86q177 0 277 117q100 116 100 252v39q-133 20 -252 20q-352 0 -352 -231q0 -92 59 -144q61 -53 168 -53zM240 1262q0 35 22 60q23 26 62 26q38 0 62 -26t24 -60q0 -36 -24 -60t-62 -24q-40 0 -62 24q-22 23 -22 60zM578 1262q0 35 22 60q23 26 62 26 q38 0 62 -26t24 -60q0 -36 -24 -60t-62 -24q-40 0 -62 24q-22 23 -22 60z" />
<glyph unicode="&#xe5;" horiz-adv-x="1015" d="M233 860q-74 -30 -92 12q-21 49 35 78q145 74 326 74q379 0 379 -362v-596q0 -66 -58 -66q-57 0 -57 66v153q-44 -103 -141 -170q-99 -69 -250 -69q-153 0 -242 76q-90 76 -90 223q0 94 40 162q41 69 107 106q65 36 144 53q74 16 164 16q128 0 268 -20v57q0 265 -274 265 q-109 0 -259 -58zM389 86q177 0 277 117q100 116 100 252v39q-133 20 -252 20q-352 0 -352 -231q0 -92 59 -144q61 -53 168 -53zM494 1497q95 0 147 -56q53 -58 53 -141q0 -82 -53 -140q-52 -56 -147 -56q-96 0 -148 56q-53 58 -53 140q0 83 53 141q52 56 148 56zM494 1415 q-50 0 -80 -32q-31 -33 -31 -80t31 -83q30 -34 80 -34q49 0 79 33q31 34 31 81q0 46 -32 81q-31 34 -78 34z" />
<glyph unicode="&#xe6;" horiz-adv-x="1708" d="M1239 86q128 0 254 61q60 28 82 -10q24 -44 -25 -78q-121 -79 -311 -79q-167 0 -275 74q-110 75 -149 222q-118 -296 -438 -296q-154 0 -244 72t-90 216q0 96 36 162t103 100q69 35 147 50q74 14 185 14h254v59q0 265 -276 265q-121 0 -256 -56q-77 -30 -95 10 q-21 47 35 78q134 74 326 74q314 0 348 -250q112 250 389 250q185 0 285 -108q100 -107 100 -259q0 -53 -10 -96q-16 -69 -101 -69h-636q1 -195 97 -301q94 -105 265 -105zM389 86q179 0 279 114q100 113 100 249v43h-260q-170 0 -259 -46q-87 -45 -87 -174q0 -87 62 -136 q64 -50 165 -50zM1231 918q-143 0 -237 -85t-111 -239h633q12 147 -57 235q-69 89 -228 89z" />
<glyph unicode="&#xe7;" horiz-adv-x="952" d="M420 -365q47 -20 106 -20q107 0 107 92q0 87 -154 98q-58 5 -47 52l33 129q-187 23 -284 154t-97 356q0 239 140 383q141 145 360 145q150 0 258 -63q61 -34 32 -84q-24 -39 -83 -13q-125 54 -220 54q-158 0 -263 -117t-105 -307q0 -195 91 -301q92 -107 257 -107 q133 0 252 70q71 43 98 6q30 -45 -31 -88q-130 -93 -313 -94l-20 -86q105 -10 154 -62q48 -51 48 -121q0 -93 -56 -143q-57 -51 -161 -51q-90 0 -155 34q-56 27 -33 74q18 39 86 10z" />
<glyph unicode="&#xe8;" horiz-adv-x="1026" d="M557 86q128 0 254 61q60 28 82 -10q24 -44 -25 -78q-121 -79 -311 -79q-235 0 -354 135q-119 136 -119 381q0 231 125 380q124 148 342 148q191 0 291 -114q100 -113 100 -275q0 -49 -6 -88q-15 -101 -109 -101h-626q12 -173 104 -267q91 -93 252 -93zM543 918 q-149 0 -240 -97q-90 -96 -102 -272h628q5 30 5 78q-4 132 -77 212q-72 79 -214 79zM575 1145l-307 215q-51 38 -24 78q27 41 84 4l307 -215q57 -39 22 -84q-19 -19 -41 -16q-23 3 -41 18z" />
<glyph unicode="&#xe9;" horiz-adv-x="1026" d="M557 86q128 0 254 61q60 28 82 -10q24 -44 -25 -78q-121 -79 -311 -79q-235 0 -354 135q-119 136 -119 381q0 231 125 380q124 148 342 148q191 0 291 -114q100 -113 100 -275q0 -49 -6 -88q-15 -101 -109 -101h-626q12 -173 104 -267q91 -93 252 -93zM543 918 q-149 0 -240 -97q-90 -96 -102 -272h628q5 30 5 78q-4 132 -77 212q-72 79 -214 79zM831 1356l-296 -207q-62 -46 -91 -2q-30 43 33 86l297 207q57 43 86 2q35 -45 -29 -86z" />
<glyph unicode="&#xea;" horiz-adv-x="1026" d="M557 86q128 0 254 61q60 28 82 -10q24 -44 -25 -78q-121 -79 -311 -79q-235 0 -354 135q-119 136 -119 381q0 231 125 380q124 148 342 148q191 0 291 -114q100 -113 100 -275q0 -49 -6 -88q-15 -101 -109 -101h-626q12 -173 104 -267q91 -93 252 -93zM543 918 q-149 0 -240 -97q-90 -96 -102 -272h628q5 30 5 78q-4 132 -77 212q-72 79 -214 79zM780 1151l-227 184l-215 -178q-66 -51 -92 -14q-29 38 30 86l228 186q28 23 55 23q26 0 55 -23l226 -182q59 -49 26 -90q-30 -39 -86 8z" />
<glyph unicode="&#xeb;" horiz-adv-x="1026" d="M557 86q128 0 254 61q60 28 82 -10q24 -44 -25 -78q-121 -79 -311 -79q-235 0 -354 135q-119 136 -119 381q0 231 125 380q124 148 342 148q191 0 291 -114q100 -113 100 -275q0 -49 -6 -88q-15 -101 -109 -101h-626q12 -173 104 -267q91 -93 252 -93zM543 918 q-149 0 -240 -97q-90 -96 -102 -272h628q5 30 5 78q-4 132 -77 212q-72 79 -214 79zM295 1262q0 35 22 60q23 26 62 26q38 0 62 -26t24 -60q0 -36 -24 -60t-62 -24q-39 0 -62 24q-22 23 -22 60zM633 1262q0 35 22 60q23 26 62 26q38 0 62 -26t24 -60q0 -36 -24 -60t-62 -24 q-39 0 -62 24q-22 23 -22 60z" />
<glyph unicode="&#xec;" horiz-adv-x="385" d="M223 1145l-307 215q-52 38 -25 78q27 41 84 4l308 -215q57 -39 22 -84q-19 -19 -41 -16q-23 3 -41 18zM162 66v872q0 66 57 66t57 -66v-872q0 -66 -57 -66t-57 66z" />
<glyph unicode="&#xed;" horiz-adv-x="385" d="M530 1356l-297 -207q-62 -45 -90 -2q-30 43 33 86l297 207q57 43 86 2q35 -45 -29 -86zM166 66v872q0 66 57 66q58 0 58 -66v-872q0 -66 -58 -66q-57 0 -57 66z" />
<glyph unicode="&#xee;" horiz-adv-x="385" d="M444 1151l-227 184l-215 -178q-66 -51 -92 -14q-28 37 31 86l227 186q28 23 55 23t56 -23l225 -182q59 -49 26 -90q-30 -39 -86 8zM164 66v872q0 66 57 66q58 0 58 -66v-872q0 -66 -58 -66q-57 0 -57 66z" />
<glyph unicode="&#xef;" horiz-adv-x="385" d="M-33 1264q0 34 23 60t61 26q39 0 63 -26q23 -24 23 -60q0 -37 -23 -60q-24 -24 -63 -24t-61 24q-23 25 -23 60zM248 1264q0 35 22 60q23 26 62 26q38 0 62 -26t24 -60q0 -36 -24 -60t-62 -24q-40 0 -62 24q-22 23 -22 60zM135 66v872q0 66 58 66q57 0 57 -66v-872 q0 -66 -57 -66q-58 0 -58 66z" />
<glyph unicode="&#xf0;" horiz-adv-x="1120" d="M324 1329q-70 11 -70 55q0 50 57 50q183 -4 357 -93l112 80q49 34 76 -4q24 -37 -20 -69l-80 -58q280 -196 280 -643q0 -303 -117 -484q-119 -183 -356 -183q-225 0 -352 146t-127 376q0 221 122 372q122 150 343 150q246 0 377 -199q-23 142 -99 244q-79 105 -165 154 l-158 -113q-49 -34 -76 4q-29 41 25 76l112 80q-109 41 -241 59zM924 657q-106 261 -361 261q-176 0 -268 -110t-92 -306q0 -188 97 -301q98 -115 263 -115q361 0 361 571z" />
<glyph unicode="&#xf1;" horiz-adv-x="1107" d="M858 66v520q0 160 -58 245q-60 87 -200 87q-186 0 -268 -156q-82 -155 -82 -404v-292q0 -66 -57 -66q-58 0 -58 66v872q0 66 58 66q57 0 57 -66v-166q49 127 148 190q97 62 212 62q198 0 280 -111q83 -112 83 -323v-524q0 -66 -58 -66q-57 0 -57 66zM692 1151 q-70 0 -143 55q-74 56 -100 56q-16 0 -36 -10q-18 -9 -24 -15l-35 -35q-40 -40 -78 -16q-35 29 0 76q69 100 179 100q62 0 138 -55q77 -56 105 -56q40 0 95 60q40 40 77 16q33 -27 0 -76q-27 -43 -75 -71q-50 -29 -103 -29z" />
<glyph unicode="&#xf2;" horiz-adv-x="1142" d="M84 502q0 226 129 374t358 148q230 0 359 -148t129 -374t-129 -374t-359 -148q-229 0 -358 148t-129 374zM203 502q0 -192 98 -303q99 -113 270 -113q172 0 271 113q98 111 98 303t-98 303q-99 113 -271 113q-171 0 -270 -113q-98 -111 -98 -303zM594 1145l-307 215 q-52 38 -25 78q27 41 84 4l307 -215q57 -39 23 -84q-19 -19 -41 -16q-23 3 -41 18z" />
<glyph unicode="&#xf3;" horiz-adv-x="1142" d="M84 502q0 226 129 374t358 148q230 0 359 -148t129 -374t-129 -374t-359 -148q-229 0 -358 148t-129 374zM203 502q0 -192 98 -303q99 -113 270 -113q172 0 271 113q98 111 98 303t-98 303q-99 113 -271 113q-171 0 -270 -113q-98 -111 -98 -303zM852 1356l-297 -207 q-62 -45 -90 -2q-30 43 33 86l297 207q57 43 86 2q35 -45 -29 -86z" />
<glyph unicode="&#xf4;" horiz-adv-x="1142" d="M795 1151l-228 184l-215 -178q-66 -51 -92 -14q-28 37 31 86l227 186q28 23 55 23t56 -23l225 -182q60 -49 27 -90q-30 -39 -86 8zM84 502q0 226 129 374t358 148q230 0 359 -148t129 -374t-129 -374t-359 -148q-229 0 -358 148t-129 374zM203 502q0 -192 98 -303 q99 -113 270 -113q172 0 271 113q98 111 98 303t-98 303q-99 113 -271 113q-171 0 -270 -113q-98 -111 -98 -303z" />
<glyph unicode="&#xf5;" horiz-adv-x="1142" d="M84 502q0 226 129 374t358 148q230 0 359 -148t129 -374t-129 -374t-359 -148q-229 0 -358 148t-129 374zM203 502q0 -192 98 -303q99 -113 270 -113q172 0 271 113q98 111 98 303t-98 303q-99 113 -271 113q-171 0 -270 -113q-98 -111 -98 -303zM690 1151q-70 0 -143 55 q-74 56 -101 56q-15 0 -35 -10q-18 -9 -24 -15l-35 -35q-40 -40 -78 -16q-35 29 0 76q69 100 179 100q62 0 138 -55q77 -56 105 -56q40 0 95 60q40 40 77 16q33 -27 0 -76q-27 -43 -75 -71q-50 -29 -103 -29z" />
<glyph unicode="&#xf6;" horiz-adv-x="1142" d="M84 502q0 226 129 374t358 148q230 0 359 -148t129 -374t-129 -374t-359 -148q-229 0 -358 148t-129 374zM203 502q0 -192 98 -303q99 -113 270 -113q172 0 271 113q98 111 98 303t-98 303q-99 113 -271 113q-171 0 -270 -113q-98 -111 -98 -303zM317 1262q0 34 23 60 t61 26q39 0 63 -26q23 -24 23 -60q0 -37 -23 -60q-24 -24 -63 -24t-61 24q-23 25 -23 60zM655 1262q0 34 23 60t61 26q39 0 63 -26q23 -24 23 -60q0 -37 -23 -60q-24 -24 -63 -24t-61 24q-23 25 -23 60z" />
<glyph unicode="&#xf7;" horiz-adv-x="1017" d="M420 975q0 39 23 65q24 27 67 27q44 0 68 -27t24 -65q0 -39 -24 -65q-24 -25 -68 -25q-43 0 -67 25q-23 24 -23 65zM420 379q0 39 23 65q24 27 67 27q44 0 68 -27t24 -65q0 -39 -24 -65q-24 -25 -68 -25q-43 0 -67 25q-23 24 -23 65zM879 625h-740q-55 0 -55 53 q0 23 15 38t40 15h740q25 0 40 -15t15 -38q0 -53 -55 -53z" />
<glyph unicode="&#xf8;" horiz-adv-x="1142" d="M84 502q0 226 129 374t358 148q67 0 131 -16l41 112q24 73 76 58q45 -15 21 -91l-41 -112q124 -61 192 -188t68 -285q0 -226 -129 -374t-359 -148q-67 0 -131 16l-39 -111q-27 -74 -75 -59q-45 15 -17 98l37 103q-127 61 -194 187q-68 127 -68 288zM203 502 q0 -273 182 -371l281 776q-49 11 -95 11q-171 0 -270 -113q-98 -111 -98 -303zM940 502q0 266 -180 368l-283 -776q42 -8 94 -8q172 0 271 113q98 111 98 303z" />
<glyph unicode="&#xf9;" horiz-adv-x="1107" d="M250 938v-520q0 -161 58 -246q59 -86 200 -86q186 0 268 156q82 155 82 403v293q0 66 57 66q58 0 58 -66v-872q0 -66 -58 -66q-57 0 -57 66v165q-49 -126 -148 -189q-97 -62 -212 -62q-198 0 -280 110q-83 112 -83 324v524q0 66 58 66q57 0 57 -66zM596 1145l-307 215 q-52 38 -25 78q27 41 84 4l307 -215q57 -39 23 -84q-19 -19 -41 -16q-23 3 -41 18z" />
<glyph unicode="&#xfa;" horiz-adv-x="1107" d="M250 938v-520q0 -161 58 -246q59 -86 200 -86q186 0 268 156q82 155 82 403v293q0 66 57 66q58 0 58 -66v-872q0 -66 -58 -66q-57 0 -57 66v165q-49 -126 -148 -189q-97 -62 -212 -62q-198 0 -280 110q-83 112 -83 324v524q0 66 58 66q57 0 57 -66zM862 1356l-297 -207 q-62 -45 -90 -2q-30 43 33 86l297 207q57 43 86 2q35 -45 -29 -86z" />
<glyph unicode="&#xfb;" horiz-adv-x="1107" d="M776 1151l-227 184l-215 -178q-66 -51 -92 -14q-29 38 30 86l228 186q28 23 55 23q26 0 55 -23l226 -182q59 -49 26 -90q-30 -39 -86 8zM250 938v-520q0 -161 58 -246q59 -86 200 -86q186 0 268 156q82 155 82 403v293q0 66 57 66q58 0 58 -66v-872q0 -66 -58 -66 q-57 0 -57 66v165q-49 -126 -148 -189q-97 -62 -212 -62q-198 0 -280 110q-83 112 -83 324v524q0 66 58 66q57 0 57 -66z" />
<glyph unicode="&#xfc;" horiz-adv-x="1107" d="M250 938v-520q0 -161 58 -246q59 -86 200 -86q186 0 268 156q82 155 82 403v293q0 66 57 66q58 0 58 -66v-872q0 -66 -58 -66q-57 0 -57 66v165q-49 -126 -148 -189q-97 -62 -212 -62q-198 0 -280 110q-83 112 -83 324v524q0 66 58 66q57 0 57 -66zM299 1262q0 34 23 60 t61 26t62 -26t24 -60q0 -36 -24 -60t-62 -24q-39 0 -61 24q-23 25 -23 60zM637 1262q0 35 22 60q23 26 62 26q38 0 62 -26t24 -60q0 -36 -24 -60t-62 -24q-39 0 -62 24q-22 23 -22 60z" />
<glyph unicode="&#xfd;" horiz-adv-x="903" d="M12 -393q-65 37 -47 86q18 47 103 8q53 -25 106 -25q38 0 71 19q31 18 54 42q24 26 47 76q30 66 38 86l40 105l-371 897q-30 74 25 96q56 23 86 -51l321 -805l297 803q29 74 86 53q48 -18 19 -92l-355 -917q-92 -242 -165 -330t-201 -88q-87 0 -154 37zM770 1356 l-297 -207q-62 -45 -90 -2q-30 43 33 86l297 207q57 43 86 2q35 -45 -29 -86z" />
<glyph unicode="&#xfe;" horiz-adv-x="1099" d="M623 1024q191 0 292 -134t101 -358q0 -241 -121 -396q-121 -156 -360 -156q-171 0 -285 63v-387q0 -66 -57 -66q-58 0 -58 66v1692q0 65 58 65q57 0 57 -65v-576q100 252 373 252zM606 918q-356 0 -356 -560v-200q123 -72 287 -72q190 0 275 124t85 322q0 176 -72 281 t-219 105z" />
<glyph unicode="&#xff;" horiz-adv-x="903" d="M12 -393q-65 37 -47 86q18 47 103 8q53 -25 106 -25q38 0 71 19q31 18 54 42q24 26 47 76q30 66 38 86l40 105l-371 897q-30 74 25 96q56 23 86 -51l321 -805l297 803q29 74 86 53q48 -18 19 -92l-355 -917q-92 -242 -165 -330t-201 -88q-87 0 -154 37zM221 1262 q0 34 23 60t61 26q39 0 63 -26q23 -24 23 -60q0 -37 -23 -60q-24 -24 -63 -24t-61 24q-23 25 -23 60zM559 1262q0 34 23 60t61 26q39 0 63 -26q23 -24 23 -60q0 -37 -23 -60q-24 -24 -63 -24t-61 24q-23 25 -23 60z" />
<glyph unicode="&#x100;" horiz-adv-x="1230" d="M707 1384l514 -1288q24 -66 -23 -90q-61 -28 -90 41l-158 404h-620l-146 -390q-27 -78 -86 -57q-54 20 -24 94l499 1278q23 58 70 58q43 0 64 -50zM637 1249l-264 -688h536zM930 1591h-574q-53 0 -53 49q0 22 14 36q16 16 39 16h574q23 0 39 -16q14 -14 14 -36 q0 -49 -53 -49z" />
<glyph unicode="&#x101;" horiz-adv-x="1015" d="M233 860q-74 -30 -92 12q-21 49 35 78q145 74 326 74q379 0 379 -362v-596q0 -66 -58 -66q-57 0 -57 66v153q-44 -103 -141 -170q-99 -69 -250 -69q-153 0 -242 76q-90 76 -90 223q0 94 40 162q41 69 107 106q65 36 144 53q74 16 164 16q128 0 268 -20v57q0 265 -274 265 q-109 0 -259 -58zM389 86q177 0 277 117q100 116 100 252v39q-133 20 -252 20q-352 0 -352 -231q0 -92 59 -144q61 -53 168 -53zM756 1212h-516q-54 0 -54 50q0 20 15 35q16 16 39 16h516q23 0 39 -16q14 -14 14 -35q0 -50 -53 -50z" />
<glyph unicode="&#x102;" horiz-adv-x="1230" d="M707 1384l514 -1288q24 -66 -23 -90q-61 -28 -90 41l-158 404h-620l-146 -390q-27 -78 -86 -57q-54 20 -24 94l499 1278q23 58 70 58q43 0 64 -50zM637 1249l-264 -688h536zM641 1536q-107 0 -189 45q-84 46 -118 102q-38 58 0 89q39 30 84 -23q96 -111 223 -111 q135 0 225 111q44 53 84 23q38 -31 0 -89q-34 -57 -119 -102q-84 -45 -190 -45z" />
<glyph unicode="&#x103;" horiz-adv-x="1015" d="M233 860q-74 -30 -92 12q-21 49 35 78q145 74 326 74q379 0 379 -362v-596q0 -66 -58 -66q-57 0 -57 66v153q-44 -103 -141 -170q-99 -69 -250 -69q-153 0 -242 76q-90 76 -90 223q0 94 40 162q41 69 107 106q65 36 144 53q74 16 164 16q128 0 268 -20v57q0 265 -274 265 q-109 0 -259 -58zM389 86q177 0 277 117q100 116 100 252v39q-133 20 -252 20q-352 0 -352 -231q0 -92 59 -144q61 -53 168 -53zM489 1149q-109 0 -180 52q-70 51 -98 116q-23 58 16 80q45 24 78 -33q67 -115 184 -115q118 0 185 115q33 56 78 33q40 -21 16 -80 q-28 -65 -98 -116q-71 -52 -181 -52z" />
<glyph unicode="&#x104;" horiz-adv-x="1230" d="M1178 -31q-138 -138 -138 -254q0 -100 88 -100q24 0 68 20q39 18 59 -4q30 -37 -20 -77q-44 -37 -117 -37q-86 0 -136 45t-50 137q0 91 53 185q52 91 127 153l-162 414h-620l-146 -390q-27 -78 -86 -57q-54 20 -24 94l499 1278q23 58 70 58q43 0 64 -50l514 -1288 q12 -37 3 -62q-10 -27 -46 -65zM637 1249l-264 -688h536z" />
<glyph unicode="&#x105;" horiz-adv-x="1015" d="M834 -25q-142 -142 -142 -260q0 -100 88 -100q25 0 68 20q39 18 59 -4q30 -37 -20 -77q-44 -37 -117 -37q-86 0 -136 45t-50 137t53 187t129 161v172q-44 -103 -141 -170q-99 -69 -250 -69q-153 0 -242 76q-90 76 -90 223q0 94 40 162q41 69 107 106q65 36 144 53 q74 16 164 16q128 0 268 -20v57q0 265 -274 265q-109 0 -259 -58q-74 -30 -92 12q-21 47 35 78q145 74 326 74q379 0 379 -362v-596q0 -44 -47 -91zM389 86q177 0 277 117q100 116 100 252v39q-133 20 -252 20q-352 0 -352 -231q0 -92 59 -144q61 -53 168 -53z" />
<glyph unicode="&#x106;" horiz-adv-x="1298" d="M768 1323q-252 0 -394 -175q-143 -176 -143 -446q0 -284 146 -448t383 -164q182 0 346 107q66 43 96 4q33 -43 -37 -99q-69 -51 -182 -87q-109 -35 -233 -35q-327 0 -486 195q-160 196 -160 530q0 325 181 527t487 202q224 0 377 -105q66 -45 35 -92q-29 -45 -101 0 q-140 86 -315 86zM1098 1724l-369 -188q-69 -35 -90 8q-25 48 41 82l371 191q69 34 92 -7q28 -49 -45 -86z" />
<glyph unicode="&#x107;" horiz-adv-x="952" d="M870 74q-133 -94 -319 -94q-227 0 -347 134t-120 382q0 239 140 383q141 145 360 145q150 0 258 -63q61 -34 32 -84q-24 -39 -83 -13q-125 54 -220 54q-158 0 -263 -117t-105 -307q0 -195 91 -301q92 -107 257 -107q133 0 252 70q71 43 98 6q30 -45 -31 -88zM850 1356 l-297 -207q-62 -45 -90 -2q-30 43 33 86l297 207q57 43 86 2q35 -45 -29 -86z" />
<glyph unicode="&#x108;" horiz-adv-x="1298" d="M1022 1534l-264 160l-260 -160q-66 -39 -88 4q-21 40 39 78l258 160q55 34 116 0l252 -154q66 -39 35 -86q-24 -40 -88 -2zM768 1323q-252 0 -394 -175q-143 -176 -143 -446q0 -284 146 -448t383 -164q182 0 346 107q66 43 96 4q33 -43 -37 -99q-69 -51 -182 -87 q-109 -35 -233 -35q-327 0 -486 195q-160 196 -160 530q0 325 181 527t487 202q224 0 377 -105q66 -45 35 -92q-29 -45 -101 0q-140 86 -315 86z" />
<glyph unicode="&#x109;" horiz-adv-x="952" d="M786 1151l-227 184l-215 -178q-66 -51 -92 -14q-28 37 31 86l227 186q28 23 55 23t56 -23l225 -182q59 -49 26 -90q-30 -39 -86 8zM870 74q-133 -94 -319 -94q-227 0 -347 134t-120 382q0 239 140 383q141 145 360 145q150 0 258 -63q61 -34 32 -84q-24 -39 -83 -13 q-125 54 -220 54q-158 0 -263 -117t-105 -307q0 -195 91 -301q92 -107 257 -107q133 0 252 70q71 43 98 6q30 -45 -31 -88z" />
<glyph unicode="&#x10a;" horiz-adv-x="1298" d="M768 1323q-252 0 -394 -175q-143 -176 -143 -446q0 -284 146 -448t383 -164q182 0 346 107q66 43 96 4q33 -43 -37 -99q-69 -51 -182 -87q-109 -35 -233 -35q-327 0 -486 195q-160 196 -160 530q0 325 181 527t487 202q224 0 377 -105q66 -45 35 -92q-29 -45 -101 0 q-140 86 -315 86zM649 1663q0 52 30 76t77 24q48 0 78 -24t30 -76q0 -98 -108 -98q-107 0 -107 98z" />
<glyph unicode="&#x10b;" horiz-adv-x="952" d="M870 74q-133 -94 -319 -94q-227 0 -347 134t-120 382q0 239 140 383q141 145 360 145q150 0 258 -63q61 -34 32 -84q-24 -39 -83 -13q-125 54 -220 54q-158 0 -263 -117t-105 -307q0 -195 91 -301q92 -107 257 -107q133 0 252 70q71 43 98 6q30 -45 -31 -88zM477 1266 q0 40 24 64t62 24q40 0 64 -24t24 -64t-23 -63t-65 -23q-39 0 -62 22q-24 22 -24 64z" />
<glyph unicode="&#x10c;" horiz-adv-x="1298" d="M485 1772l265 -160l260 160q64 39 88 -5q24 -43 -39 -77l-258 -160q-60 -38 -117 0l-252 153q-31 17 -40 41q-9 25 5 45q25 41 88 3zM768 1323q-252 0 -394 -175q-143 -176 -143 -446q0 -284 146 -448t383 -164q182 0 346 107q66 43 96 4q33 -43 -37 -99 q-69 -51 -182 -87q-109 -35 -233 -35q-327 0 -486 195q-160 196 -160 530q0 325 181 527t487 202q224 0 377 -105q66 -45 35 -92q-29 -45 -101 0q-140 86 -315 86z" />
<glyph unicode="&#x10d;" horiz-adv-x="952" d="M340 1417l227 -182l215 178q62 47 90 12q30 -37 -26 -86l-232 -188q-31 -23 -55 -23q-26 0 -55 23l-228 184q-57 51 -24 90q33 35 88 -8zM870 74q-133 -94 -319 -94q-227 0 -347 134t-120 382q0 239 140 383q141 145 360 145q150 0 258 -63q61 -34 32 -84 q-24 -39 -83 -13q-125 54 -220 54q-158 0 -263 -117t-105 -307q0 -195 91 -301q92 -107 257 -107q133 0 252 70q71 43 98 6q30 -45 -31 -88z" />
<glyph unicode="&#x10e;" horiz-adv-x="1411" d="M377 1772l264 -160l260 160q64 39 88 -5q24 -43 -39 -77l-258 -160q-60 -38 -117 0l-251 153q-31 17 -40 41q-9 25 5 45q25 41 88 3zM166 82v1233q0 68 61 80q141 28 355 28q725 0 725 -710q0 -344 -185 -534q-184 -189 -538 -189q-225 0 -357 22q-61 7 -61 70zM573 1313 q-129 0 -284 -19v-1177q150 -17 282 -17q308 0 458 158q151 159 151 455q0 600 -607 600z" />
<glyph unicode="&#x10f;" horiz-adv-x="1288" d="M1114 1130q70 64 70 132q0 55 -70 73q-55 16 -43 62q10 42 76 35q63 -7 102 -52q37 -43 37 -104q0 -125 -100 -207q-64 -51 -94 -12q-24 33 22 73zM477 -20q-192 0 -293 134q-100 133 -100 357q0 241 121 396q122 157 360 157q171 0 285 -63v387q0 65 57 65q58 0 58 -65 v-1282q0 -66 -58 -66q-57 0 -57 66v165q-100 -251 -373 -251zM494 86q356 0 356 559v201q-123 72 -287 72q-190 0 -275 -124t-85 -323q0 -177 71 -281t220 -104z" />
<glyph unicode="&#x110;" horiz-adv-x="1472" d="M227 82v602h-129q-25 0 -40 15t-15 40q0 23 15 39q15 17 40 17h129v520q0 68 62 80q141 28 354 28q725 0 725 -710q0 -346 -184 -534q-184 -189 -539 -189q-224 0 -356 22q-62 8 -62 70zM635 1313q-130 0 -285 -19v-499h322q25 0 40 -17q15 -16 15 -39q0 -25 -15 -40 t-40 -15h-322v-567q150 -17 283 -17q308 0 458 158t150 455q0 600 -606 600z" />
<glyph unicode="&#x111;" horiz-adv-x="1159" d="M477 -20q-192 0 -293 134q-100 133 -100 357q0 241 121 396q122 157 360 157q171 0 285 -63v204h-336q-53 0 -53 49q0 21 14 35q15 15 39 15h336v84q0 65 57 65q58 0 58 -65v-84h139q24 0 39 -15q14 -14 14 -35q0 -49 -53 -49h-139v-1099q0 -66 -58 -66q-57 0 -57 66v165 q-100 -251 -373 -251zM494 86q356 0 356 559v201q-123 72 -287 72q-190 0 -275 -124t-85 -323q0 -177 71 -281t220 -104z" />
<glyph unicode="&#x112;" horiz-adv-x="1110" d="M1001 0h-763q-34 0 -53 20t-19 50v1276q0 30 17 48q18 19 48 19h748q25 0 40 -16q15 -17 15 -39q0 -25 -15 -40t-40 -15h-690v-510h567q25 0 40 -17q15 -16 15 -39q0 -25 -15 -40t-40 -15h-567v-571h712q25 0 40 -17q16 -18 16 -39q0 -24 -16 -40q-15 -15 -40 -15z M870 1591h-573q-53 0 -53 49q0 22 14 36q16 16 39 16h573q23 0 39 -16q15 -15 15 -36q0 -49 -54 -49z" />
<glyph unicode="&#x113;" horiz-adv-x="1026" d="M557 86q128 0 254 61q60 28 82 -10q24 -44 -25 -78q-121 -79 -311 -79q-235 0 -354 135q-119 136 -119 381q0 231 125 380q124 148 342 148q191 0 291 -114q100 -113 100 -275q0 -49 -6 -88q-15 -101 -109 -101h-626q12 -173 104 -267q91 -93 252 -93zM543 918 q-149 0 -240 -97q-90 -96 -102 -272h628q5 30 5 78q-4 132 -77 212q-72 79 -214 79zM811 1212h-516q-53 0 -53 50q0 21 14 35q16 16 39 16h516q23 0 39 -16q14 -14 14 -35q0 -50 -53 -50z" />
<glyph unicode="&#x116;" horiz-adv-x="1110" d="M1001 0h-763q-34 0 -53 20t-19 50v1276q0 30 17 48q18 19 48 19h748q25 0 40 -16q15 -17 15 -39q0 -25 -15 -40t-40 -15h-690v-510h567q25 0 40 -17q15 -16 15 -39q0 -25 -15 -40t-40 -15h-567v-571h712q25 0 40 -17q16 -18 16 -39q0 -24 -16 -40q-15 -15 -40 -15z M465 1663q0 52 30 76t76 24q48 0 78 -24q31 -25 31 -76q0 -98 -109 -98q-106 0 -106 98z" />
<glyph unicode="&#x117;" horiz-adv-x="1026" d="M557 86q128 0 254 61q60 28 82 -10q24 -44 -25 -78q-121 -79 -311 -79q-235 0 -354 135q-119 136 -119 381q0 231 125 380q124 148 342 148q191 0 291 -114q100 -113 100 -275q0 -49 -6 -88q-15 -101 -109 -101h-626q12 -173 104 -267q91 -93 252 -93zM543 918 q-149 0 -240 -97q-90 -96 -102 -272h628q5 30 5 78q-4 132 -77 212q-72 79 -214 79zM459 1266q0 41 23 64q24 24 63 24q40 0 64 -24t24 -64q0 -39 -24 -63q-23 -23 -64 -23q-42 0 -64 22t-22 64z" />
<glyph unicode="&#x118;" horiz-adv-x="1110" d="M1001 0h-98q-67 -53 -116 -132q-50 -80 -50 -153q0 -100 88 -100q25 0 68 20q39 18 59 -4q30 -37 -20 -77q-44 -37 -117 -37q-87 0 -136 45q-50 45 -50 137q0 155 143 301h-534q-34 0 -53 20t-19 50v1276q0 30 17 48q18 19 48 19h748q25 0 40 -16q15 -17 15 -39 q0 -25 -15 -40t-40 -15h-690v-510h567q25 0 40 -17q15 -16 15 -39q0 -25 -15 -40t-40 -15h-567v-571h712q25 0 40 -17q16 -18 16 -39q0 -24 -16 -40q-15 -15 -40 -15z" />
<glyph unicode="&#x119;" horiz-adv-x="1026" d="M557 86q128 0 254 61q60 28 82 -10q24 -44 -25 -78q-10 -6 -59 -32q-158 -152 -158 -312q0 -100 88 -100q25 0 68 20q39 18 59 -4q30 -37 -20 -77q-44 -37 -117 -37q-87 0 -136 45q-50 45 -50 137q0 155 125 289q-78 -8 -111 -8q-235 0 -354 135q-119 136 -119 381 q0 231 125 380q124 148 342 148q191 0 291 -114q100 -113 100 -275q0 -49 -6 -88q-15 -101 -109 -101h-626q12 -173 104 -267q91 -93 252 -93zM543 918q-149 0 -240 -97q-90 -96 -102 -272h628q5 30 5 78q-4 132 -77 212q-72 79 -214 79z" />
<glyph unicode="&#x11a;" horiz-adv-x="1110" d="M1001 0h-763q-34 0 -53 20t-19 50v1276q0 30 17 48q18 19 48 19h748q25 0 40 -16q15 -17 15 -39q0 -25 -15 -40t-40 -15h-690v-510h567q25 0 40 -17q15 -16 15 -39q0 -25 -15 -40t-40 -15h-567v-571h712q25 0 40 -17q16 -18 16 -39q0 -24 -16 -40q-15 -15 -40 -15z M324 1772l264 -160l260 160q64 39 88 -5q24 -43 -39 -77l-258 -160q-60 -38 -117 0l-252 153q-31 17 -40 41t6 45q25 41 88 3z" />
<glyph unicode="&#x11b;" horiz-adv-x="1026" d="M557 86q128 0 254 61q60 28 82 -10q24 -44 -25 -78q-121 -79 -311 -79q-235 0 -354 135q-119 136 -119 381q0 231 125 380q124 148 342 148q191 0 291 -114q100 -113 100 -275q0 -49 -6 -88q-15 -101 -109 -101h-626q12 -173 104 -267q91 -93 252 -93zM543 918 q-149 0 -240 -97q-90 -96 -102 -272h628q5 30 5 78q-4 132 -77 212q-72 79 -214 79zM319 1417l228 -182l215 178q62 47 90 12q30 -37 -27 -86l-231 -188q-31 -23 -55 -23q-27 0 -56 23l-227 184q-58 52 -25 90q33 35 88 -8z" />
<glyph unicode="&#x11c;" horiz-adv-x="1366" d="M768 1323q-252 0 -394 -175q-143 -176 -143 -446q0 -285 140 -449q139 -163 405 -163q226 0 373 105v395h-334q-25 0 -40 15t-15 40q0 23 15 39t40 16h385q62 0 62 -65v-445q0 -42 -33 -69q-72 -57 -197 -99q-124 -42 -262 -42q-339 0 -502 193q-164 194 -164 532 q0 325 181 527t487 202q236 -6 381 -107q64 -46 31 -92q-28 -39 -101 2q-157 86 -315 86zM1022 1534l-264 160l-260 -160q-66 -39 -88 4q-21 40 39 78l258 160q55 34 116 0l252 -154q66 -39 35 -86q-24 -40 -88 -2z" />
<glyph unicode="&#x11d;" horiz-adv-x="1050" d="M983 913h-162q86 -92 86 -229q0 -149 -101 -243q-103 -95 -290 -95q-132 0 -223 47q-82 -55 -82 -123q0 -123 346 -133q114 -5 175 -14q67 -10 136 -35q66 -24 98 -73q31 -47 31 -121q0 -146 -131 -235t-379 -89q-444 0 -444 283q0 147 164 237q-107 60 -107 162 q0 113 115 199q-90 88 -90 233q0 152 101 246t290 94q79 0 152 -20h315q55 0 55 -43q0 -48 -55 -48zM522 29q-112 1 -211 24q-157 -67 -157 -198q0 -79 76 -131q79 -54 255 -54q200 0 301 62t101 147q0 76 -81 109q-82 34 -284 41zM240 684q0 -106 69 -172t207 -66t207 66 q70 67 70 172q0 106 -70 173t-207 67t-207 -67q-69 -66 -69 -173zM750 1151l-228 184l-215 -178q-66 -51 -92 -14q-28 37 31 86l227 186q28 23 55 23t56 -23l225 -182q60 -49 27 -90q-30 -39 -86 8z" />
<glyph unicode="&#x11e;" horiz-adv-x="1366" d="M768 1323q-252 0 -394 -175q-143 -176 -143 -446q0 -285 140 -449q139 -163 405 -163q226 0 373 105v395h-334q-25 0 -40 15t-15 40q0 23 15 39t40 16h385q62 0 62 -65v-445q0 -42 -33 -69q-72 -57 -197 -99q-124 -42 -262 -42q-339 0 -502 193q-164 194 -164 532 q0 325 181 527t487 202q236 -6 381 -107q64 -46 31 -92q-28 -39 -101 2q-157 86 -315 86zM756 1536q-108 0 -190 45t-117 102q-38 58 0 89q38 29 83 -23q96 -111 224 -111q135 0 225 111q44 53 84 23q38 -31 0 -89q-34 -57 -119 -102q-84 -45 -190 -45z" />
<glyph unicode="&#x11f;" horiz-adv-x="1050" d="M983 913h-162q86 -92 86 -229q0 -149 -101 -243q-103 -95 -290 -95q-132 0 -223 47q-82 -55 -82 -123q0 -123 346 -133q114 -5 175 -14q67 -10 136 -35q66 -24 98 -73q31 -47 31 -121q0 -146 -131 -235t-379 -89q-444 0 -444 283q0 147 164 237q-107 60 -107 162 q0 113 115 199q-90 88 -90 233q0 152 101 246t290 94q79 0 152 -20h315q55 0 55 -43q0 -48 -55 -48zM522 29q-112 1 -211 24q-157 -67 -157 -198q0 -79 76 -131q79 -54 255 -54q200 0 301 62t101 147q0 76 -81 109q-82 34 -284 41zM240 684q0 -106 69 -172t207 -66t207 66 q70 67 70 172q0 106 -70 173t-207 67t-207 -67q-69 -66 -69 -173zM526 1149q-109 0 -180 52q-70 51 -98 116q-23 58 16 80q45 24 78 -33q67 -115 184 -115q118 0 185 115q33 55 77 33q41 -21 17 -80q-28 -65 -98 -116q-71 -52 -181 -52z" />
<glyph unicode="&#x120;" horiz-adv-x="1366" d="M768 1323q-252 0 -394 -175q-143 -176 -143 -446q0 -285 140 -449q139 -163 405 -163q226 0 373 105v395h-334q-25 0 -40 15t-15 40q0 23 15 39t40 16h385q62 0 62 -65v-445q0 -42 -33 -69q-72 -57 -197 -99q-124 -42 -262 -42q-339 0 -502 193q-164 194 -164 532 q0 325 181 527t487 202q236 -6 381 -107q64 -46 31 -92q-28 -39 -101 2q-157 86 -315 86zM627 1663q0 53 29 76q30 24 77 24q48 0 78 -24q31 -25 31 -76q0 -98 -109 -98q-106 0 -106 98z" />
<glyph unicode="&#x121;" horiz-adv-x="1050" d="M983 913h-162q86 -92 86 -229q0 -149 -101 -243q-103 -95 -290 -95q-132 0 -223 47q-82 -55 -82 -123q0 -123 346 -133q114 -5 175 -14q67 -10 136 -35q66 -24 98 -73q31 -47 31 -121q0 -146 -131 -235t-379 -89q-444 0 -444 283q0 147 164 237q-107 60 -107 162 q0 113 115 199q-90 88 -90 233q0 152 101 246t290 94q79 0 152 -20h315q55 0 55 -43q0 -48 -55 -48zM522 29q-112 1 -211 24q-157 -67 -157 -198q0 -79 76 -131q79 -54 255 -54q200 0 301 62t101 147q0 76 -81 109q-82 34 -284 41zM240 684q0 -106 69 -172t207 -66t207 66 q70 67 70 172q0 106 -70 173t-207 67t-207 -67q-69 -66 -69 -173zM438 1266q0 40 24 64t62 24q41 0 65 -24q23 -23 23 -64q0 -40 -23 -63t-65 -23q-41 0 -63 22q-23 23 -23 64z" />
<glyph unicode="&#x122;" horiz-adv-x="1366" d="M721 -469q100 91 100 176q0 67 -80 90q-59 16 -51 66q7 49 72 43q73 -6 123 -59q49 -52 49 -132q0 -70 -41 -143q-40 -72 -94 -113q-74 -56 -107 -18q-30 35 29 90zM768 1323q-252 0 -394 -175q-143 -176 -143 -446q0 -285 140 -449q139 -163 405 -163q226 0 373 105v395 h-334q-25 0 -40 15t-15 40q0 23 15 39t40 16h385q62 0 62 -65v-445q0 -42 -33 -69q-72 -57 -197 -99q-124 -42 -262 -42q-339 0 -502 193q-164 194 -164 532q0 325 181 527t487 202q236 -6 381 -107q64 -46 31 -92q-28 -39 -101 2q-157 86 -315 86z" />
<glyph unicode="&#x123;" horiz-adv-x="1050" d="M580 1489q-107 -90 -107 -176q0 -68 86 -86q55 -12 49 -58q-8 -47 -76 -41q-67 6 -114 53t-47 124q0 70 41 140q39 67 96 105q72 51 98 13q21 -33 -26 -74zM983 913h-162q86 -92 86 -229q0 -149 -101 -243q-103 -95 -290 -95q-132 0 -223 47q-82 -55 -82 -123 q0 -123 346 -133q114 -5 175 -14q67 -10 136 -35q66 -24 98 -73q31 -47 31 -121q0 -146 -131 -235t-379 -89q-444 0 -444 283q0 147 164 237q-107 60 -107 162q0 113 115 199q-90 88 -90 233q0 152 101 246t290 94q79 0 152 -20h315q55 0 55 -43q0 -48 -55 -48zM522 29 q-112 1 -211 24q-157 -67 -157 -198q0 -79 76 -131q79 -54 255 -54q200 0 301 62t101 147q0 76 -81 109q-82 34 -284 41zM240 684q0 -106 69 -172t207 -66t207 66q70 67 70 172q0 106 -70 173t-207 67t-207 -67q-69 -66 -69 -173z" />
<glyph unicode="&#x124;" horiz-adv-x="1427" d="M1139 1348v-570h-850v570q0 28 -17 47q-16 18 -45 18t-45 -18q-16 -17 -16 -47v-1282q0 -31 16 -48q16 -18 45 -18t45 18q17 19 17 48v602h850v-602q0 -31 16 -48q17 -18 45 -18t45 18q17 19 17 48v1282q0 28 -17 47q-17 18 -45 18t-45 -18q-16 -17 -16 -47zM981 1534 l-264 160l-260 -160q-66 -39 -88 4q-21 40 39 78l258 160q55 34 116 0l252 -154q66 -39 35 -86q-24 -40 -88 -2z" />
<glyph unicode="&#x125;" horiz-adv-x="1107" d="M479 1534l-264 160l-260 -160q-66 -39 -88 4q-21 40 39 78l258 160q56 34 117 0l251 -154q66 -39 35 -86q-24 -40 -88 -2zM879 66v520q0 159 -59 245q-60 87 -199 87q-187 0 -269 -156q-82 -155 -82 -404v-292q0 -66 -57 -66t-57 66v1282q0 65 57 65t57 -65v-576 q49 126 149 190q97 62 212 62q197 0 279 -111q83 -112 83 -323v-524q0 -66 -57 -66t-57 66z" />
<glyph unicode="&#x126;" horiz-adv-x="1460" d="M1155 1167v181q0 30 16 47q17 18 46 18t45 -18q16 -17 16 -47v-181h106q24 0 39 -15t15 -36q0 -49 -54 -49h-106v-1001q0 -31 -16 -48q-16 -18 -45 -18t-46 18q-16 17 -16 48v602h-850v-602q0 -31 -16 -48q-17 -18 -45 -18t-45 18q-17 19 -17 48v1001h-106q-53 0 -53 49 q0 22 14 36q15 15 39 15h106v181q0 28 17 47q17 18 45 18t45 -18q16 -17 16 -47v-181h850zM305 778h850v289h-850v-289z" />
<glyph unicode="&#x127;" horiz-adv-x="1189" d="M940 66v520q0 160 -58 245q-60 87 -200 87q-186 0 -268 -156q-82 -155 -82 -404v-292q0 -66 -58 -66q-57 0 -57 66v1062h-160q-55 0 -55 50q0 49 55 49h160v121q0 65 57 65q58 0 58 -65v-121h338q55 0 55 -49q0 -50 -55 -50h-338v-356q49 127 148 190q97 62 212 62 q198 0 280 -111q83 -112 83 -323v-524q0 -66 -58 -66q-57 0 -57 66z" />
<glyph unicode="&#x12a;" horiz-adv-x="454" d="M166 66v1282q0 30 16 47q16 18 45 18t45 -18q17 -19 17 -47v-1282q0 -29 -17 -48q-16 -18 -45 -18t-45 18q-16 17 -16 48zM514 1591h-573q-54 0 -54 49q0 21 15 36q16 16 39 16h573q23 0 39 -16q14 -14 14 -36q0 -49 -53 -49z" />
<glyph unicode="&#x12b;" horiz-adv-x="385" d="M451 1212h-517q-53 0 -53 50q0 20 15 35q16 16 38 16h517q22 0 38 -16q15 -15 15 -35q0 -50 -53 -50zM135 66v872q0 66 58 66q57 0 57 -66v-872q0 -66 -57 -66q-58 0 -58 66z" />
<glyph unicode="&#x12e;" horiz-adv-x="454" d="M238 -25q-142 -142 -142 -260q0 -100 88 -100q24 0 68 20q39 18 59 -4q30 -37 -20 -77q-44 -37 -117 -37q-86 0 -136 45t-50 137q0 95 51 189q53 98 127 159v1301q0 27 16 46t45 19t45 -19q17 -20 17 -46v-1282q0 -40 -51 -91z" />
<glyph unicode="&#x12f;" horiz-adv-x="385" d="M203 -25q-142 -142 -142 -260q0 -100 89 -100q24 0 67 20q39 18 59 -4q30 -37 -20 -77q-44 -37 -117 -37q-87 0 -136 45q-50 45 -50 137t53 187t129 161v891q0 66 58 66q57 0 57 -66v-872q0 -44 -47 -91zM106 1266q0 40 24 64t63 24q40 0 64 -24t24 -64q0 -39 -24 -63 q-23 -23 -64 -23q-42 0 -64 22q-23 23 -23 64z" />
<glyph unicode="&#x130;" horiz-adv-x="454" d="M166 66v1282q0 30 16 47q16 18 45 18t45 -18q17 -19 17 -47v-1282q0 -29 -17 -48q-16 -18 -45 -18t-45 18q-16 17 -16 48zM115 1663q0 53 29 76q30 24 77 24q48 0 78 -24q31 -25 31 -76q0 -98 -109 -98q-106 0 -106 98z" />
<glyph unicode="&#x131;" horiz-adv-x="385" d="M135 66v872q0 66 58 66q57 0 57 -66v-872q0 -66 -57 -66q-58 0 -58 66z" />
<glyph unicode="&#x134;" horiz-adv-x="704" d="M-4 113q-27 -49 33 -84q85 -49 231 -49q305 0 305 339v1029q0 27 -16 46t-45 19t-45 -19q-17 -20 -17 -46v-1018q0 -240 -192 -240q-74 0 -164 35q-69 27 -90 -12zM768 1534l-264 160l-260 -160q-66 -39 -88 4q-21 40 39 78l258 160q55 34 116 0l252 -154q66 -39 35 -86 q-24 -40 -88 -2z" />
<glyph unicode="&#x135;" horiz-adv-x="385" d="M-205 -393q-49 27 -33 71q15 43 76 25q91 -27 139 -27q109 0 142 62q33 61 33 205v995q0 66 57 66t57 -66v-1010q0 -179 -64 -268q-64 -90 -218 -90q-121 0 -189 37zM432 1151l-227 184l-215 -178q-66 -51 -92 -14q-29 38 30 86l228 186q28 23 55 23q26 0 55 -23 l226 -182q59 -49 26 -90q-30 -39 -86 8z" />
<glyph unicode="&#x136;" horiz-adv-x="1087" d="M514 -469q100 91 100 176q0 68 -79 90q-60 16 -52 66q7 49 72 43q73 -6 123 -59q49 -52 49 -132q0 -70 -41 -143q-40 -72 -94 -113q-74 -56 -107 -18q-30 35 29 90zM166 66v1282q0 30 16 47q16 18 45 18t45 -18q17 -19 17 -47v-598l626 628q62 58 103 17q40 -44 -17 -101 l-583 -571l614 -600q56 -56 19 -100q-41 -47 -109 16l-653 633v-606q0 -29 -17 -48q-16 -18 -45 -18t-45 18q-16 17 -16 48z" />
<glyph unicode="&#x137;" horiz-adv-x="868" d="M399 -457q107 89 107 176q0 68 -86 86q-55 12 -49 58q8 47 75 41q69 -6 115 -52q47 -47 47 -124q0 -71 -41 -141q-39 -67 -96 -105q-71 -51 -98 -12q-24 33 26 73zM135 66v1282q0 65 58 65q57 0 57 -65v-807l444 436q49 49 88 10q37 -37 -10 -84l-412 -389l459 -408 q23 -18 26 -45q3 -26 -14 -43q-38 -38 -94 9l-487 438v-399q0 -66 -57 -66q-58 0 -58 66z" />
<glyph unicode="&#x139;" horiz-adv-x="1048" d="M647 1724l-368 -188q-70 -35 -91 8q-25 48 41 82l371 191q69 34 92 -7q28 -49 -45 -86zM995 0h-745q-60 0 -60 66v1282q0 28 17 47q17 18 45 18t45 -18q16 -17 16 -47v-1237h682q25 0 40 -17q16 -18 16 -39q0 -24 -16 -40q-15 -15 -40 -15z" />
<glyph unicode="&#x13a;" horiz-adv-x="620" d="M610 1724l-368 -188q-69 -35 -90 8q-25 48 41 82l370 191q69 34 92 -7q28 -49 -45 -86zM160 311v1037q0 65 57 65t57 -65v-1006q0 -140 37 -198t138 -58q41 0 110 27q70 27 88 -11q20 -40 -35 -77q-69 -45 -184 -45q-144 0 -206 77t-62 254z" />
<glyph unicode="&#x13b;" horiz-adv-x="1048" d="M496 -469q100 91 100 176q0 67 -80 90q-59 16 -51 66q7 49 72 43q72 -6 122 -59t50 -132q0 -70 -41 -143q-39 -70 -95 -113q-73 -55 -106 -18q-30 35 29 90zM971 0h-746q-59 0 -59 66v1282q0 30 16 47q16 18 45 18t45 -18q17 -19 17 -47v-1237h682q25 0 40 -17 q15 -16 15 -39q0 -25 -15 -40t-40 -15z" />
<glyph unicode="&#x13c;" horiz-adv-x="620" d="M317 -457q107 89 107 176q0 68 -86 86q-55 12 -49 58q8 47 76 41t114 -52q47 -47 47 -124q0 -71 -41 -141q-39 -67 -96 -105q-71 -51 -98 -12q-24 33 26 73zM135 311v1037q0 65 58 65q57 0 57 -65v-1006q0 -140 37 -198t137 -58q42 0 111 27q70 27 88 -11q20 -40 -35 -77 q-69 -45 -185 -45q-143 0 -205 77q-63 78 -63 254z" />
<glyph unicode="&#x13d;" horiz-adv-x="1048" d="M586 1051q96 89 96 168q0 68 -78 86q-55 16 -49 63q8 47 70 41q68 -6 117 -56q49 -51 49 -126q0 -69 -40 -137q-41 -70 -92 -109q-69 -51 -102 -18q-29 35 29 88zM971 0h-746q-59 0 -59 66v1282q0 30 16 47q16 18 45 18t45 -18q17 -19 17 -47v-1237h682q25 0 40 -17 q15 -16 15 -39q0 -25 -15 -40t-40 -15z" />
<glyph unicode="&#x13e;" horiz-adv-x="620" d="M401 1130q70 64 70 132q0 55 -70 73q-55 16 -43 62q10 42 76 35q64 -7 103 -52q36 -42 36 -104q0 -125 -100 -207q-64 -51 -94 -12q-24 33 22 73zM135 311v1037q0 65 58 65q57 0 57 -65v-1006q0 -140 37 -198t137 -58q42 0 111 27q70 27 88 -11q20 -40 -35 -77 q-69 -45 -185 -45q-143 0 -205 77q-63 78 -63 254z" />
<glyph unicode="&#x13f;" horiz-adv-x="1048" d="M971 0h-746q-59 0 -59 66v1282q0 30 16 47q16 18 45 18t45 -18q17 -19 17 -47v-1237h682q25 0 40 -17q15 -16 15 -39q0 -25 -15 -40t-40 -15zM616 766q0 38 24 65t67 27t67 -27q25 -28 25 -65q0 -38 -25 -65q-24 -25 -67 -25t-67 25t-24 65z" />
<glyph unicode="&#x140;" horiz-adv-x="620" d="M135 311v1037q0 65 58 65q57 0 57 -65v-1006q0 -140 37 -198t137 -58q42 0 111 27q70 27 88 -11q20 -40 -35 -77q-69 -45 -185 -45q-143 0 -205 77q-63 78 -63 254zM389 725q0 41 24 65q23 23 62 23q42 0 65 -23t23 -65q0 -39 -23 -62q-24 -24 -65 -24q-40 0 -63 23 t-23 63z" />
<glyph unicode="&#x141;" d="M1036 0h-745q-60 0 -60 66v563l-100 -70q-62 -45 -90 -2q-29 41 33 86l157 111v594q0 28 17 47q16 18 45 18t45 -18q16 -17 16 -47v-508l166 116q57 43 86 2q35 -46 -28 -86l-224 -157v-604h682q25 0 40 -17q16 -18 16 -39q0 -24 -16 -40q-15 -15 -40 -15z" />
<glyph unicode="&#x142;" horiz-adv-x="630" d="M174 311v293l-63 -45q-62 -46 -91 -2q-29 41 33 86l121 84v621q0 65 57 65q58 0 58 -65v-539l151 106q57 44 86 3q35 -46 -28 -87l-209 -147v-342q0 -140 37 -198t137 -58q41 0 110 27q70 28 89 -11q20 -40 -35 -77q-69 -45 -185 -45q-143 0 -205 77q-63 78 -63 254z" />
<glyph unicode="&#x143;" horiz-adv-x="1427" d="M1147 223v1125q0 65 57 65q58 0 58 -65v-1282q0 -29 -17 -48q-17 -18 -43 -18q-32 0 -61 33l-860 1155v-1122q0 -66 -58 -66q-57 0 -57 66v1277q0 29 15 50q14 20 46 20q39 0 68 -39zM1020 1724l-369 -188q-69 -35 -90 8q-25 48 41 82l371 191q69 34 92 -7 q28 -49 -45 -86z" />
<glyph unicode="&#x144;" horiz-adv-x="1107" d="M858 66v520q0 160 -58 245q-60 87 -200 87q-186 0 -268 -156q-82 -155 -82 -404v-292q0 -66 -57 -66q-58 0 -58 66v872q0 66 58 66q57 0 57 -66v-166q49 127 148 190q97 62 212 62q198 0 280 -111q83 -112 83 -323v-524q0 -66 -58 -66q-57 0 -57 66zM854 1356l-297 -207 q-62 -45 -90 -2q-30 43 33 86l297 207q57 43 86 2q35 -45 -29 -86z" />
<glyph unicode="&#x145;" horiz-adv-x="1427" d="M596 -469q100 91 100 176q0 67 -80 90q-59 16 -51 66q7 49 72 43q73 -6 123 -59q49 -52 49 -132q0 -70 -41 -143q-40 -72 -94 -113q-74 -56 -107 -18q-30 35 29 90zM1147 223v1125q0 65 57 65q58 0 58 -65v-1282q0 -29 -17 -48q-17 -18 -43 -18q-32 0 -61 33l-860 1155 v-1122q0 -66 -58 -66q-57 0 -57 66v1277q0 29 15 50q14 20 46 20q39 0 68 -39z" />
<glyph unicode="&#x146;" horiz-adv-x="1107" d="M442 -457q107 89 107 176q0 68 -86 86q-55 12 -49 58q8 47 75 41q69 -6 115 -52q47 -47 47 -124q0 -71 -41 -141q-39 -67 -96 -105q-71 -51 -98 -12q-24 33 26 73zM858 66v520q0 160 -58 245q-60 87 -200 87q-186 0 -268 -156q-82 -155 -82 -404v-292q0 -66 -57 -66 q-58 0 -58 66v872q0 66 58 66q57 0 57 -66v-166q49 127 148 190q97 62 212 62q198 0 280 -111q83 -112 83 -323v-524q0 -66 -58 -66q-57 0 -57 66z" />
<glyph unicode="&#x147;" horiz-adv-x="1427" d="M1147 223v1125q0 65 57 65q58 0 58 -65v-1282q0 -29 -17 -48q-17 -18 -43 -18q-32 0 -61 33l-860 1155v-1122q0 -66 -58 -66q-57 0 -57 66v1277q0 29 15 50q14 20 46 20q39 0 68 -39zM459 1772l264 -160l260 160q64 39 88 -5q24 -43 -39 -77l-258 -160q-60 -38 -117 0 l-251 153q-31 17 -40 41q-9 25 5 45q25 41 88 3z" />
<glyph unicode="&#x148;" horiz-adv-x="1107" d="M352 1417l228 -182l215 178q61 47 90 12q30 -37 -27 -86l-231 -188q-31 -23 -56 -23q-26 0 -55 23l-227 184q-58 52 -25 90q33 35 88 -8zM858 66v520q0 160 -58 245q-60 87 -200 87q-186 0 -268 -156q-82 -155 -82 -404v-292q0 -66 -57 -66q-58 0 -58 66v872q0 66 58 66 q57 0 57 -66v-166q49 127 148 190q97 62 212 62q198 0 280 -111q83 -112 83 -323v-524q0 -66 -58 -66q-57 0 -57 66z" />
<glyph unicode="&#x14c;" horiz-adv-x="1531" d="M104 707q0 317 174 523q173 204 488 204q316 0 488 -204q173 -205 173 -523q0 -319 -173 -524q-172 -203 -488 -203t-488 203q-174 206 -174 524zM231 707q0 -271 143 -444t392 -173t392 173q142 172 142 444q0 271 -142 443q-143 173 -392 173t-392 -173t-143 -443z M1053 1591h-574q-53 0 -53 49q0 22 14 36q16 16 39 16h574q23 0 39 -16q14 -14 14 -36q0 -49 -53 -49z" />
<glyph unicode="&#x14d;" horiz-adv-x="1142" d="M84 502q0 226 129 374t358 148q230 0 359 -148t129 -374t-129 -374t-359 -148q-229 0 -358 148t-129 374zM203 502q0 -192 98 -303q99 -113 270 -113q172 0 271 113q98 111 98 303t-98 303q-99 113 -271 113q-171 0 -270 -113q-98 -111 -98 -303zM829 1212h-516 q-53 0 -53 50q0 21 14 35q16 16 39 16h516q23 0 39 -16q15 -15 15 -35q0 -50 -54 -50z" />
<glyph unicode="&#x14e;" horiz-adv-x="1531" d="M104 707q0 317 174 523q173 204 488 204q316 0 488 -204q173 -205 173 -523q0 -319 -173 -524q-172 -203 -488 -203t-488 203q-174 206 -174 524zM231 707q0 -271 143 -444t392 -173t392 173q142 172 142 444q0 271 -142 443q-143 173 -392 173t-392 -173t-143 -443z M768 1536q-106 0 -189 45q-84 46 -118 102q-38 58 0 89q39 30 84 -23q96 -111 223 -111q135 0 225 111q44 53 84 23q38 -31 0 -89q-34 -57 -119 -102q-84 -45 -190 -45z" />
<glyph unicode="&#x14f;" horiz-adv-x="1142" d="M84 502q0 226 129 374t358 148q230 0 359 -148t129 -374t-129 -374t-359 -148q-229 0 -358 148t-129 374zM203 502q0 -192 98 -303q99 -113 270 -113q172 0 271 113q98 111 98 303t-98 303q-99 113 -271 113q-171 0 -270 -113q-98 -111 -98 -303zM571 1149 q-109 0 -180 52q-70 51 -98 116q-23 58 16 80q45 24 78 -33q64 -115 184 -115q121 0 185 115q33 56 78 33q40 -21 16 -80q-28 -65 -98 -116q-71 -52 -181 -52z" />
<glyph unicode="&#x150;" horiz-adv-x="1531" d="M104 707q0 317 174 523q173 204 488 204q316 0 488 -204q173 -205 173 -523q0 -319 -173 -524q-172 -203 -488 -203t-488 203q-174 206 -174 524zM231 707q0 -271 143 -444t392 -173t392 173q142 172 142 444q0 271 -142 443q-143 173 -392 173t-392 -173t-143 -443z M909 1724l-368 -188q-69 -35 -90 8q-25 48 41 82l370 191q69 34 92 -7q28 -49 -45 -86zM1327 1724l-369 -188q-69 -35 -90 8q-25 48 41 82l371 191q69 34 92 -7q28 -49 -45 -86z" />
<glyph unicode="&#x151;" horiz-adv-x="1142" d="M84 502q0 226 129 374t358 148q230 0 359 -148t129 -374t-129 -374t-359 -148q-229 0 -358 148t-129 374zM203 502q0 -192 98 -303q99 -113 270 -113q172 0 271 113q98 111 98 303t-98 303q-99 113 -271 113q-171 0 -270 -113q-98 -111 -98 -303zM723 1356l-297 -207 q-62 -45 -90 -2q-30 43 33 86l297 207q57 43 86 2q35 -45 -29 -86zM1032 1356l-297 -207q-62 -45 -90 -2q-30 43 33 86l297 207q57 43 86 2q35 -45 -29 -86z" />
<glyph unicode="&#x152;" horiz-adv-x="1986" d="M1878 0h-764q-44 0 -65 37q-131 -57 -293 -57q-314 0 -483 203t-169 524q0 320 169 523q169 204 483 204q160 0 293 -58q15 37 59 37h747q25 0 40 -16q16 -18 16 -39q0 -24 -16 -40q-15 -15 -40 -15h-690v-510h568q25 0 40 -17q15 -16 15 -39q0 -25 -15 -40t-40 -15h-568 v-571h713q25 0 40 -17q15 -16 15 -39q0 -25 -15 -40t-40 -15zM756 90q169 0 286 66v1099q-125 68 -286 68q-251 0 -387 -172q-138 -174 -138 -444q0 -271 138 -445q136 -172 387 -172z" />
<glyph unicode="&#x153;" horiz-adv-x="1673" d="M1204 86q128 0 254 61q60 28 82 -10q24 -44 -24 -78q-121 -79 -312 -79q-207 0 -323 106q-128 -106 -310 -106q-229 0 -358 148t-129 374t129 374t358 148q190 0 320 -113q124 113 307 113q190 0 291 -114q100 -113 100 -275q0 -49 -6 -88q-15 -101 -108 -101h-627 q12 -173 104 -267q92 -93 252 -93zM571 86q146 0 240 82q-80 128 -80 328q0 195 88 329q-101 93 -248 93q-171 0 -270 -113q-98 -111 -98 -303t98 -303q99 -113 270 -113zM1190 918q-149 0 -240 -97q-90 -96 -102 -272h629q4 24 4 78q-4 132 -77 212q-72 79 -214 79z" />
<glyph unicode="&#x154;" horiz-adv-x="1202" d="M166 66v1265q0 65 59 72q119 20 291 20q510 0 510 -395q0 -154 -78 -254t-213 -147l328 -518q41 -64 -6 -97q-30 -19 -57 -8q-29 11 -46 43l-348 549q-54 -8 -125 -8q-108 0 -192 12v-534q0 -29 -17 -48q-16 -18 -45 -18t-45 18q-16 17 -16 48zM504 1313q-59 0 -215 -13 v-593q107 -13 184 -13q221 0 324 80q102 80 102 252q0 158 -103 222q-104 65 -292 65zM852 1724l-369 -188q-69 -35 -90 8q-25 48 41 82l371 191q69 34 92 -7q28 -49 -45 -86z" />
<glyph unicode="&#x155;" horiz-adv-x="690" d="M250 66v319q0 321 90 440q69 93 170 93q44 0 92 -19q66 -29 84 14q18 45 -33 78q-53 33 -129 33q-95 0 -169 -56q-75 -57 -105 -155v127q0 64 -57 64q-58 0 -58 -64v-874q0 -66 58 -66q57 0 57 66zM688 1356l-297 -207q-62 -45 -90 -2q-30 43 33 86l297 207q57 43 86 2 q35 -45 -29 -86z" />
<glyph unicode="&#x156;" horiz-adv-x="1202" d="M575 -469q101 92 101 176q0 67 -80 90q-59 16 -51 66q7 49 71 43q73 -6 123 -59q49 -52 49 -132q0 -72 -40 -143q-39 -70 -95 -113q-73 -55 -106 -18q-31 36 28 90zM166 66v1265q0 65 59 72q119 20 291 20q510 0 510 -395q0 -154 -78 -254t-213 -147l328 -518 q41 -64 -6 -97q-30 -19 -57 -8q-29 11 -46 43l-348 549q-54 -8 -125 -8q-108 0 -192 12v-534q0 -29 -17 -48q-16 -18 -45 -18t-45 18q-16 17 -16 48zM504 1313q-59 0 -215 -13v-593q107 -13 184 -13q221 0 324 80q102 80 102 252q0 158 -103 222q-104 65 -292 65z" />
<glyph unicode="&#x157;" horiz-adv-x="690" d="M178 -457q107 89 107 176q0 68 -86 86q-55 12 -49 58q8 47 75 41q69 -6 115 -52q47 -47 47 -124q0 -71 -41 -141q-39 -67 -96 -105q-71 -51 -98 -12q-24 33 26 73zM272 385v-319q0 -66 -57 -66t-57 66v874q0 64 57 64t57 -64v-127q29 97 106 155q74 56 169 56 q77 0 129 -33q51 -33 33 -78q-18 -43 -84 -14q-47 19 -93 19q-101 0 -170 -93q-90 -119 -90 -440z" />
<glyph unicode="&#x158;" horiz-adv-x="1202" d="M172 66v1265q0 65 59 72q119 20 291 20q510 0 510 -395q0 -154 -78 -254t-213 -147l328 -518q41 -64 -6 -97q-29 -18 -56 -8q-29 11 -46 43l-349 549q-54 -8 -125 -8q-108 0 -192 12v-534q0 -31 -16 -48q-17 -18 -46 -18t-45 18q-16 17 -16 48zM510 1313q-59 0 -215 -13 v-593q107 -13 184 -13q221 0 324 80q102 80 102 252q0 158 -103 222q-104 65 -292 65zM268 1772l264 -160l261 160q64 39 88 -5q24 -43 -39 -77l-258 -160q-60 -38 -117 0l-252 153q-31 17 -40 41q-9 25 5 45q25 41 88 3z" />
<glyph unicode="&#x159;" horiz-adv-x="690" d="M283 66v319q0 321 90 440q69 93 170 93q45 0 92 -19q66 -29 84 14q18 45 -33 78q-52 33 -129 33q-95 0 -169 -56q-75 -57 -105 -155v127q0 64 -58 64q-57 0 -57 -64v-874q0 -66 57 -66q58 0 58 66zM205 1417l227 -182l215 178q61 47 90 12q30 -37 -26 -86l-232 -188 q-31 -23 -55 -23q-26 0 -55 23l-228 184q-57 51 -24 90q33 35 88 -8z" />
<glyph unicode="&#x15a;" horiz-adv-x="1105" d="M590 1323q-151 0 -229 -67q-76 -66 -76 -171q0 -106 80 -172q77 -64 193 -102q117 -39 227 -79q115 -43 194 -130q80 -89 80 -227q0 -180 -127 -288q-126 -107 -359 -107q-213 0 -366 81q-123 68 -86 127q7 12 10 14q6 5 13 6q2 0 7 0.5t7 1.5q4 1 15 -1q8 -1 15 -5 l17 -8q4 -2 9.5 -5t7.5 -4q5 -2 19 -9q11 -5 17 -10q144 -78 322 -78q164 0 258 69t94 197q0 93 -58 159q-57 64 -143 96l-186 71q-112 43 -187 79q-87 41 -143 122q-57 83 -57 198q0 154 111 253q112 100 325 100q197 0 344 -91q95 -59 61 -110q-24 -37 -120 14q-7 2 -9 4 q-136 72 -280 72zM889 1724l-369 -188q-69 -35 -90 8q-25 48 41 82l371 191q69 34 92 -7q28 -49 -45 -86z" />
<glyph unicode="&#x15b;" horiz-adv-x="868" d="M467 1024q165 0 283 -68q65 -37 41 -86q-18 -41 -80 -14q-141 62 -246 62q-110 0 -163 -40q-54 -40 -54 -112t60 -115q59 -43 146 -64q71 -17 171 -49q84 -27 146 -93q60 -65 60 -169q0 -133 -103 -215q-102 -81 -288 -81q-198 0 -311 77q-58 39 -31 84q22 39 88 9 q136 -64 271 -64q113 0 184 49q72 49 72 131q0 74 -61 118q-62 45 -145 67q-95 25 -171 49q-89 28 -147 89q-60 63 -60 165q0 129 91 199q92 71 247 71zM768 1356l-297 -207q-62 -45 -90 -2q-30 43 33 86l297 207q57 43 86 2q35 -45 -29 -86z" />
<glyph unicode="&#x15c;" horiz-adv-x="1105" d="M590 1323q-151 0 -229 -67q-76 -66 -76 -171q0 -106 80 -172q77 -64 193 -102q117 -39 227 -79q115 -43 194 -130q80 -89 80 -227q0 -180 -127 -288q-126 -107 -359 -107q-213 0 -366 81q-123 68 -86 127q7 12 10 14q6 5 13 6q2 0 7 0.5t7 1.5q4 1 15 -1q8 -1 15 -5 l17 -8q4 -2 9.5 -5t7.5 -4q5 -2 19 -9q11 -5 17 -10q144 -78 322 -78q164 0 258 69t94 197q0 93 -58 159q-57 64 -143 96l-186 71q-112 43 -187 79q-87 41 -143 122q-57 83 -57 198q0 154 111 253q112 100 325 100q197 0 344 -91q95 -59 61 -110q-24 -37 -120 14q-7 2 -9 4 q-136 72 -280 72zM875 1534l-265 160l-260 -160q-66 -39 -88 4q-21 40 39 78l258 160q55 34 117 0l252 -154q66 -39 35 -86q-24 -40 -88 -2z" />
<glyph unicode="&#x15d;" horiz-adv-x="868" d="M467 1024q165 0 283 -68q65 -37 41 -86q-18 -41 -80 -14q-141 62 -246 62q-110 0 -163 -40q-54 -40 -54 -112t60 -115q59 -43 146 -64q71 -17 171 -49q84 -27 146 -93q60 -65 60 -169q0 -133 -103 -215q-102 -81 -288 -81q-198 0 -311 77q-58 39 -31 84q22 39 88 9 q136 -64 271 -64q113 0 184 49q72 49 72 131q0 74 -61 118q-62 45 -145 67q-95 25 -171 49q-89 28 -147 89q-60 63 -60 165q0 129 91 199q92 71 247 71zM690 1151l-227 184l-215 -178q-66 -51 -92 -14q-29 38 30 86l228 186q28 23 55 23q26 0 55 -23l226 -182q59 -49 26 -90 q-30 -39 -86 8z" />
<glyph unicode="&#x15e;" horiz-adv-x="1105" d="M465 -365q47 -20 106 -20q107 0 107 92q0 87 -154 98q-58 5 -47 52l31 125q-182 15 -299 79q-125 68 -86 127q6 10 10 13q6 5 13 6q10 2 14 3q5 1 15 -2l15 -5q2 0 4.5 -1.5t6.5 -3t7 -2.5q5 -2 11 -6l6 -3q10 -5 18 -10q13 -8 17 -9q144 -78 322 -78q164 0 258 69 t94 197q0 94 -57 159q-56 64 -144 96l-186 71q-112 43 -187 79q-87 41 -143 122q-57 83 -57 198q0 154 111 253q112 100 325 100q199 0 346 -91q93 -59 59 -110q-13 -19 -37 -18q-26 2 -41 9q-37 19 -51 27q-125 72 -280 72q-150 0 -228 -67q-77 -66 -77 -171 q0 -106 80 -172q77 -64 193 -102q117 -39 227 -79q115 -43 194 -130q80 -89 80 -227q0 -175 -120 -281t-339 -114l-20 -86q105 -10 154 -62q48 -51 48 -121q0 -93 -56 -143q-57 -51 -161 -51q-90 0 -155 34q-56 27 -33 74q18 39 86 10z" />
<glyph unicode="&#x15f;" horiz-adv-x="868" d="M352 -365q47 -20 107 -20q106 0 106 92q0 87 -153 98q-58 5 -47 52l30 125q-174 11 -266 75q-58 39 -31 84q22 39 88 9q136 -64 271 -64q113 0 184 49q72 49 72 131q0 74 -61 118q-62 45 -145 67q-95 25 -171 49q-89 28 -147 89q-60 63 -60 165q0 129 91 199 q92 71 247 71q165 0 283 -68q65 -37 41 -86q-18 -41 -80 -14q-141 62 -246 62q-110 0 -163 -40q-54 -40 -54 -112t60 -115q59 -43 146 -64q71 -17 171 -49q84 -27 146 -93q60 -65 60 -169q0 -122 -90 -202q-91 -80 -249 -92l-23 -88q107 -11 155 -62t48 -121q0 -92 -57 -143 t-160 -51q-91 0 -156 34q-56 27 -33 74q18 39 86 10z" />
<glyph unicode="&#x160;" horiz-adv-x="1105" d="M590 1323q-151 0 -229 -67q-76 -66 -76 -171q0 -106 80 -172q77 -64 193 -102q117 -39 227 -79q115 -43 194 -130q80 -89 80 -227q0 -180 -127 -288q-126 -107 -359 -107q-213 0 -366 81q-123 68 -86 127q7 12 10 14q6 5 13 6q2 0 7 0.5t7 1.5q4 1 15 -1q8 -1 15 -5 l17 -8q4 -2 9.5 -5t7.5 -4q5 -2 19 -9q11 -5 17 -10q144 -78 322 -78q164 0 258 69t94 197q0 93 -58 159q-57 64 -143 96l-186 71q-112 43 -187 79q-87 41 -143 122q-57 83 -57 198q0 154 111 253q112 100 325 100q197 0 344 -91q95 -59 61 -110q-24 -37 -120 14q-7 2 -9 4 q-136 72 -280 72zM348 1772l264 -160l260 160q64 40 89 -5q24 -43 -39 -77l-258 -160q-60 -38 -117 0l-252 153q-31 17 -40 41q-9 25 5 45q25 41 88 3z" />
<glyph unicode="&#x161;" horiz-adv-x="868" d="M467 1024q165 0 283 -68q65 -37 41 -86q-18 -41 -80 -14q-141 62 -246 62q-110 0 -163 -40q-54 -40 -54 -112t60 -115q59 -43 146 -64q71 -17 171 -49q84 -27 146 -93q60 -65 60 -169q0 -133 -103 -215q-102 -81 -288 -81q-198 0 -311 77q-58 39 -31 84q22 39 88 9 q136 -64 271 -64q113 0 184 49q72 49 72 131q0 74 -61 118q-62 45 -145 67q-95 25 -171 49q-89 28 -147 89q-60 63 -60 165q0 129 91 199q92 71 247 71zM246 1417l227 -182l215 178q62 47 90 12q30 -37 -26 -86l-232 -188q-31 -23 -55 -23q-26 0 -55 23l-228 184 q-57 51 -24 90q33 35 88 -8z" />
<glyph unicode="&#x162;" horiz-adv-x="1200" d="M535 -469q100 91 100 176q0 67 -80 90q-59 16 -51 66q7 49 71 43q73 -6 123 -59t50 -132q0 -70 -41 -143q-39 -70 -95 -113q-73 -55 -106 -18q-30 35 29 90zM1122 1303h-461v-1237q0 -31 -16 -48q-17 -18 -45 -18t-45 18q-16 17 -16 48v1237h-461q-25 0 -40 15t-15 40 q0 22 15 39q15 16 40 16h1044q25 0 40 -16q16 -18 16 -39q0 -24 -16 -40q-15 -15 -40 -15z" />
<glyph unicode="&#x163;" horiz-adv-x="618" d="M319 -457q107 89 107 176q0 68 -86 86q-55 12 -49 58q8 47 76 41t114 -52q47 -47 47 -124q0 -71 -41 -141q-39 -67 -96 -105q-71 -51 -98 -12q-24 33 26 73zM512 897h-262v-555q0 -140 37 -198t137 -58q38 0 104 25q75 31 93 -2q27 -47 -33 -84q-76 -45 -189 -45 q-145 0 -204 77q-60 78 -60 258v869q0 65 58 65q57 0 57 -65v-180h262q24 0 40 -16q15 -15 15 -38q0 -53 -55 -53z" />
<glyph unicode="&#x164;" horiz-adv-x="1200" d="M342 1772l264 -160l260 160q64 39 88 -5q24 -43 -39 -77l-258 -160q-59 -37 -116 0l-252 153q-31 17 -40 41q-9 25 5 45q25 41 88 3zM1122 1303h-460v-1237q0 -29 -17 -48q-17 -18 -45 -18t-45 18q-16 17 -16 48v1237h-461q-25 0 -40 15t-15 40q0 22 15 39q15 16 40 16 h1044q25 0 40 -16q16 -18 16 -39q0 -24 -16 -40q-15 -15 -40 -15z" />
<glyph unicode="&#x165;" horiz-adv-x="647" d="M463 1130q69 63 69 132q0 55 -69 73q-55 16 -43 62q10 42 76 35q63 -7 102 -52q37 -43 37 -104q0 -125 -100 -207q-64 -52 -95 -12q-24 32 23 73zM512 897h-262v-555q0 -140 37 -198t137 -58q38 0 104 25q75 31 93 -2q27 -47 -33 -84q-76 -45 -189 -45q-145 0 -204 77 q-60 78 -60 258v869q0 65 58 65q57 0 57 -65v-180h262q24 0 40 -16q15 -15 15 -38q0 -53 -55 -53z" />
<glyph unicode="&#x16a;" horiz-adv-x="1374" d="M688 90q397 0 397 481v777q0 28 17 47q16 18 45 18t45 -18q16 -17 16 -47v-783q0 -126 -26 -224q-27 -102 -85 -185t-164 -130q-104 -46 -249 -46q-276 0 -397 161t-121 424v783q0 30 16 47q16 18 45 18t45 -18q17 -19 17 -47v-777q0 -481 399 -481zM997 1591h-573 q-53 0 -53 49q0 22 14 36q16 16 39 16h573q23 0 39 -16q15 -15 15 -36q0 -49 -54 -49z" />
<glyph unicode="&#x16b;" horiz-adv-x="1107" d="M250 938v-520q0 -161 58 -246q59 -86 200 -86q186 0 268 156q82 155 82 403v293q0 66 57 66q58 0 58 -66v-872q0 -66 -58 -66q-57 0 -57 66v165q-49 -126 -148 -189q-97 -62 -212 -62q-198 0 -280 110q-83 112 -83 324v524q0 66 58 66q57 0 57 -66zM811 1212h-516 q-53 0 -53 50q0 21 14 35q16 16 39 16h516q23 0 39 -16q14 -14 14 -35q0 -50 -53 -50z" />
<glyph unicode="&#x16c;" horiz-adv-x="1374" d="M688 90q397 0 397 481v777q0 28 17 47q16 18 45 18t45 -18q16 -17 16 -47v-783q0 -126 -26 -224q-27 -102 -85 -185t-164 -130q-104 -46 -249 -46q-276 0 -397 161t-121 424v783q0 30 16 47q16 18 45 18t45 -18q17 -19 17 -47v-777q0 -481 399 -481zM713 1536 q-107 0 -190 45t-117 102q-38 58 0 89q38 29 83 -23q94 -111 224 -111q135 0 225 111q44 53 84 23q38 -31 0 -89q-34 -57 -119 -102q-84 -45 -190 -45z" />
<glyph unicode="&#x16d;" horiz-adv-x="1107" d="M250 938v-520q0 -161 58 -246q59 -86 200 -86q186 0 268 156q82 155 82 403v293q0 66 57 66q58 0 58 -66v-872q0 -66 -58 -66q-57 0 -57 66v165q-49 -126 -148 -189q-97 -62 -212 -62q-198 0 -280 110q-83 112 -83 324v524q0 66 58 66q57 0 57 -66zM553 1149 q-109 0 -180 52q-72 52 -99 116q-23 57 17 80q45 24 78 -33q67 -115 184 -115t184 115q33 56 78 33q40 -21 16 -80q-28 -65 -98 -116q-71 -52 -180 -52z" />
<glyph unicode="&#x16e;" horiz-adv-x="1374" d="M688 90q397 0 397 481v777q0 28 17 47q16 18 45 18t45 -18q16 -17 16 -47v-783q0 -126 -26 -224q-27 -102 -85 -185t-164 -130q-104 -46 -249 -46q-276 0 -397 161t-121 424v783q0 30 16 47q16 18 45 18t45 -18q17 -19 17 -47v-777q0 -481 399 -481zM711 1802 q96 0 154 -52q59 -53 59 -132t-59 -132q-58 -52 -154 -52q-97 0 -155 52t-58 132t58 132t155 52zM711 1720q-52 0 -83 -28q-32 -29 -32 -72q0 -44 31 -75q29 -29 84 -29q52 0 85 29t33 73t-33 73t-85 29z" />
<glyph unicode="&#x16f;" horiz-adv-x="1107" d="M250 938v-520q0 -161 58 -246q59 -86 200 -86q186 0 268 156q82 155 82 403v293q0 66 57 66q58 0 58 -66v-872q0 -66 -58 -66q-57 0 -57 66v165q-49 -126 -148 -189q-97 -62 -212 -62q-198 0 -280 110q-83 112 -83 324v524q0 66 58 66q57 0 57 -66zM553 1497 q95 0 147 -56q54 -59 54 -141q0 -81 -54 -140q-52 -56 -147 -56t-147 56q-54 59 -54 140q0 82 54 141q52 56 147 56zM553 1415q-50 0 -80 -32q-31 -33 -31 -80t31 -83q30 -34 80 -34t80 33q31 34 31 81q0 46 -32 81q-31 34 -79 34z" />
<glyph unicode="&#x170;" horiz-adv-x="1374" d="M688 90q397 0 397 481v777q0 28 17 47q16 18 45 18t45 -18q16 -17 16 -47v-783q0 -126 -26 -224q-27 -102 -85 -185t-164 -130q-104 -46 -249 -46q-276 0 -397 161t-121 424v783q0 30 16 47q16 18 45 18t45 -18q17 -19 17 -47v-777q0 -481 399 -481zM868 1724l-368 -188 q-69 -35 -90 8q-25 48 41 82l370 191q69 34 92 -7q28 -49 -45 -86zM1286 1724l-368 -188q-70 -35 -91 8q-25 48 41 82l371 191q69 34 92 -7q28 -49 -45 -86z" />
<glyph unicode="&#x171;" horiz-adv-x="1107" d="M250 938v-520q0 -161 58 -246q59 -86 200 -86q186 0 268 156q82 155 82 403v293q0 66 57 66q58 0 58 -66v-872q0 -66 -58 -66q-57 0 -57 66v165q-49 -126 -148 -189q-97 -62 -212 -62q-198 0 -280 110q-83 112 -83 324v524q0 66 58 66q57 0 57 -66zM713 1356l-297 -207 q-62 -45 -90 -2q-30 43 32 86l297 207q57 43 86 2q35 -46 -28 -86zM1022 1356l-297 -207q-62 -45 -90 -2q-30 43 33 86l297 207q57 43 86 2q35 -45 -29 -86z" />
<glyph unicode="&#x172;" horiz-adv-x="1374" d="M709 -109q-70 -87 -70 -176q0 -100 88 -100q25 0 68 20q39 18 59 -4q30 -37 -20 -77q-44 -37 -117 -37q-87 0 -136 45q-51 46 -51 137q0 159 144 281q-508 16 -508 593v775q0 30 16 47q16 18 45 18t45 -18q17 -19 17 -47v-768q0 -218 93 -354t306 -136q214 0 305 136 q92 137 92 354v768q0 28 17 47q16 18 45 18t45 -18q16 -17 16 -47v-775q0 -443 -307 -561q-140 -56 -192 -121z" />
<glyph unicode="&#x173;" horiz-adv-x="1107" d="M926 -25q-142 -142 -142 -260q0 -100 88 -100q24 0 68 20q39 18 59 -4q30 -37 -20 -77q-44 -37 -117 -37q-86 0 -136 45t-50 137t53 187t129 161v184q-49 -126 -148 -189q-97 -62 -212 -62q-198 0 -280 110q-83 112 -83 324v524q0 66 58 66q57 0 57 -66v-520 q0 -161 58 -246q59 -86 200 -86q186 0 268 156q82 155 82 403v293q0 66 57 66q58 0 58 -66v-872q0 -44 -47 -91z" />
<glyph unicode="&#x178;" horiz-adv-x="1136" d="M553 66v555l-463 686q-39 61 6 94q52 35 99 -33l423 -625l412 631q16 27 41 36t51 -7q43 -30 2 -90l-448 -682v-565q0 -29 -17 -48q-17 -18 -45 -18t-45 18q-16 17 -16 48zM319 1655q0 42 26 68t69 26t71 -26q27 -25 27 -68q0 -90 -98 -90q-95 0 -95 90zM700 1655 q0 42 26 68t71 26t70 -27q26 -28 26 -67q0 -43 -26 -67q-24 -23 -70 -23q-97 0 -97 90z" />
<glyph unicode="&#x179;" horiz-adv-x="1169" d="M1061 0h-926q-46 0 -58 36q-12 35 13 66l854 1201h-776q-25 0 -40 15t-15 40q0 22 15 39q15 16 40 16h874q47 0 59 -37q11 -36 -16 -71l-849 -1194h825q25 0 40 -17q15 -16 15 -39q0 -25 -15 -40t-40 -15zM954 1724l-368 -188q-69 -35 -90 8q-25 48 41 82l370 191 q69 34 92 -7q28 -49 -45 -86z" />
<glyph unicode="&#x17a;" horiz-adv-x="886" d="M797 0h-691q-43 0 -52 35q-9 34 18 67l614 795h-543q-55 0 -55 53q0 23 15 38q16 16 40 16h641q47 0 58 -35q10 -34 -17 -68l-618 -795h590q25 0 40 -15t15 -38q0 -53 -55 -53zM733 1356l-297 -207q-62 -45 -90 -2q-30 43 33 86l297 207q57 43 86 2q35 -45 -29 -86z" />
<glyph unicode="&#x17b;" horiz-adv-x="1169" d="M1061 0h-926q-46 0 -58 36q-12 35 13 66l854 1201h-776q-25 0 -40 15t-15 40q0 22 15 39q15 16 40 16h874q47 0 59 -37q11 -36 -16 -71l-849 -1194h825q25 0 40 -17q15 -16 15 -39q0 -25 -15 -40t-40 -15zM465 1663q0 52 30 76t76 24q48 0 78 -24q31 -25 31 -76 q0 -98 -109 -98q-106 0 -106 98z" />
<glyph unicode="&#x17c;" horiz-adv-x="886" d="M797 0h-691q-43 0 -52 35q-9 34 18 67l614 795h-543q-55 0 -55 53q0 23 15 38q16 16 40 16h641q47 0 58 -35q10 -34 -17 -68l-618 -795h590q25 0 40 -15t15 -38q0 -53 -55 -53zM365 1266q0 41 23 64q24 24 63 24q40 0 64 -24t24 -64q0 -39 -24 -63q-23 -23 -64 -23 q-42 0 -64 22t-22 64z" />
<glyph unicode="&#x17d;" horiz-adv-x="1169" d="M324 1772l264 -160l260 160q64 39 88 -5q24 -43 -39 -77l-258 -160q-60 -38 -117 0l-252 153q-31 17 -40 41t6 45q25 41 88 3zM1061 0h-926q-46 0 -58 36q-12 35 13 66l854 1201h-776q-25 0 -40 15t-15 40q0 22 15 39q15 16 40 16h874q47 0 59 -37q11 -36 -16 -71 l-849 -1194h825q25 0 40 -17q15 -16 15 -39q0 -25 -15 -40t-40 -15z" />
<glyph unicode="&#x17e;" horiz-adv-x="886" d="M229 1417l228 -182l215 178q62 47 90 12q30 -37 -27 -86l-231 -188q-31 -23 -55 -23q-27 0 -56 23l-227 184q-58 52 -25 90q33 35 88 -8zM797 0h-691q-43 0 -52 35q-9 34 18 67l614 795h-543q-55 0 -55 53q0 23 15 38q16 16 40 16h641q47 0 58 -35q10 -34 -17 -68 l-618 -795h590q25 0 40 -15t15 -38q0 -53 -55 -53z" />
<glyph unicode="&#x18f;" horiz-adv-x="1341" d="M635 1323q-169 0 -340 -80q-64 -29 -88 4q-14 19 -6 44q7 23 30 38q162 105 410 105q322 0 459 -190t137 -529q0 -111 -15 -210q-14 -93 -57 -198q-40 -97 -104 -169q-63 -70 -167 -114q-105 -44 -239 -44q-279 0 -414 165q-137 167 -137 426q0 138 24 189t87 51h893 q-18 247 -130 380q-111 132 -343 132zM653 90q241 0 349 159q109 160 110 451h-883q-8 -61 -8 -118q1 -235 114 -364q111 -128 318 -128z" />
<glyph unicode="&#x192;" horiz-adv-x="1130" d="M831 897h-274l-129 -928q-16 -101 -38 -172q-21 -67 -60 -123t-104 -80t-158 -24q-121 0 -193 45q-43 28 -25 74q18 44 80 20q99 -33 156 -33q180 0 219 263l156 1095q29 208 110 303q83 97 265 97q113 0 192 -48q43 -28 21 -73q-21 -39 -80 -17q-95 31 -156 31 q-193 0 -231 -260l-11 -63h260q24 0 40 -16t16 -38q0 -53 -56 -53z" />
<glyph unicode="&#x1cf;" horiz-adv-x="454" d="M-23 1772l265 -160l260 160q64 39 88 -5q24 -43 -39 -77l-258 -160q-60 -38 -117 0l-252 153q-31 17 -40 41q-9 25 5 45q25 41 88 3zM176 66v1282q0 28 17 47q17 18 45 18t45 -18q16 -17 16 -47v-1282q0 -31 -16 -48q-17 -18 -45 -18t-45 18q-17 19 -17 48z" />
<glyph unicode="&#x1d0;" horiz-adv-x="385" d="M2 1417l227 -182l215 178q62 47 91 12q30 -37 -27 -86l-232 -188q-31 -23 -55 -23q-26 0 -55 23l-227 184q-58 52 -25 90q33 35 88 -8zM168 66v872q0 66 57 66q58 0 58 -66v-872q0 -66 -58 -66q-57 0 -57 66z" />
<glyph unicode="&#x1dd;" horiz-adv-x="997" d="M84 399q0 103 21 145t98 42h594q-30 332 -320 332q-112 0 -237 -52q-79 -30 -97 8q-21 45 31 74q134 76 303 76q233 0 335 -142q101 -141 101 -378q0 -149 -40 -260q-41 -114 -140 -189t-252 -75q-197 0 -297 108q-100 107 -100 311zM485 82q306 0 316 397h-606 q-7 -51 -7 -84q-4 -151 72 -232t225 -81z" />
<glyph unicode="&#x1e6;" horiz-adv-x="1366" d="M768 1323q-252 0 -394 -175q-143 -176 -143 -446q0 -285 140 -449q139 -163 405 -163q226 0 373 105v395h-334q-25 0 -40 15t-15 40q0 23 15 39t40 16h385q62 0 62 -65v-445q0 -42 -33 -69q-72 -57 -197 -99q-124 -42 -262 -42q-339 0 -502 193q-164 194 -164 532 q0 325 181 527t487 202q236 -6 381 -107q64 -46 31 -92q-28 -39 -101 2q-157 86 -315 86zM508 1772l264 -160l260 160q64 39 88 -5q24 -43 -39 -77l-258 -160q-59 -37 -116 0l-252 153q-31 17 -40 41q-9 25 5 45q25 41 88 3z" />
<glyph unicode="&#x1e7;" horiz-adv-x="1050" d="M983 913h-162q86 -92 86 -229q0 -149 -101 -243q-103 -95 -290 -95q-132 0 -223 47q-82 -55 -82 -123q0 -123 346 -133q114 -5 175 -14q67 -10 136 -35q66 -24 98 -73q31 -47 31 -121q0 -146 -131 -235t-379 -89q-444 0 -444 283q0 147 164 237q-107 60 -107 162 q0 113 115 199q-90 88 -90 233q0 152 101 246t290 94q79 0 152 -20h315q55 0 55 -43q0 -48 -55 -48zM522 29q-112 1 -211 24q-157 -67 -157 -198q0 -79 76 -131q79 -54 255 -54q200 0 301 62t101 147q0 76 -81 109q-82 34 -284 41zM240 684q0 -106 69 -172t207 -66t207 66 q70 67 70 172q0 106 -70 173t-207 67t-207 -67q-69 -66 -69 -173zM303 1417l227 -182l215 178q62 47 91 12q30 -37 -27 -86l-231 -188q-31 -23 -56 -23q-26 0 -55 23l-227 184q-58 52 -25 90q33 35 88 -8z" />
<glyph unicode="&#x218;" horiz-adv-x="1105" d="M530 -469q101 92 101 176q0 67 -80 90q-59 16 -51 66q7 49 71 43q73 -6 123 -59q49 -52 49 -132q0 -70 -41 -143q-40 -72 -94 -113q-73 -55 -106 -18q-31 36 28 90zM590 1323q-151 0 -229 -67q-76 -66 -76 -171q0 -106 80 -172q77 -64 193 -102q117 -39 227 -79 q115 -43 194 -130q80 -89 80 -227q0 -180 -127 -288q-126 -107 -359 -107q-213 0 -366 81q-123 68 -86 127q7 12 10 14q6 5 13 6q2 0 7 0.5t7 1.5q4 1 15 -1q8 -1 15 -5l17 -8q4 -2 9.5 -5t7.5 -4q5 -2 19 -9q11 -5 17 -10q144 -78 322 -78q164 0 258 69t94 197 q0 93 -58 159q-57 64 -143 96l-186 71q-112 43 -187 79q-87 41 -143 122q-57 83 -57 198q0 154 111 253q112 100 325 100q197 0 344 -91q95 -59 61 -110q-24 -37 -120 14q-7 2 -9 4q-136 72 -280 72z" />
<glyph unicode="&#x219;" horiz-adv-x="868" d="M399 -457q107 89 107 176q0 68 -86 86q-55 12 -49 58q8 47 75 41q69 -6 115 -52q47 -47 47 -124q0 -71 -41 -141q-39 -67 -96 -105q-71 -51 -98 -12q-24 33 26 73zM467 1024q165 0 283 -68q65 -37 41 -86q-18 -41 -80 -14q-141 62 -246 62q-110 0 -163 -40 q-54 -40 -54 -112t60 -115q59 -43 146 -64q71 -17 171 -49q84 -27 146 -93q60 -65 60 -169q0 -133 -103 -215q-102 -81 -288 -81q-198 0 -311 77q-58 39 -31 84q22 39 88 9q136 -64 271 -64q113 0 184 49q72 49 72 131q0 74 -61 118q-62 45 -145 67q-95 25 -171 49 q-89 28 -147 89q-60 63 -60 165q0 129 91 199q92 71 247 71z" />
<glyph unicode="&#x21a;" horiz-adv-x="1200" d="M526 -469q101 92 101 176q0 67 -80 90q-59 16 -51 66q7 49 71 43q73 -6 123 -59q49 -52 49 -132q0 -70 -41 -143q-40 -72 -94 -113q-73 -55 -106 -18q-31 36 28 90zM1122 1303h-461v-1237q0 -31 -16 -48q-17 -18 -45 -18t-45 18q-16 17 -16 48v1237h-461q-25 0 -40 15 t-15 40q0 22 15 39q15 16 40 16h1044q25 0 40 -16q16 -18 16 -39q0 -24 -16 -40q-15 -15 -40 -15z" />
<glyph unicode="&#x21b;" horiz-adv-x="618" d="M319 -457q107 89 107 176q0 68 -86 86q-55 12 -49 58q8 47 76 41t114 -52q47 -47 47 -124q0 -71 -41 -141q-39 -67 -96 -105q-71 -51 -98 -12q-24 33 26 73zM512 897h-262v-555q0 -140 37 -198t137 -58q38 0 104 25q75 31 93 -2q27 -47 -33 -84q-76 -45 -189 -45 q-145 0 -204 77q-60 78 -60 258v869q0 65 58 65q57 0 57 -65v-180h262q24 0 40 -16q15 -15 15 -38q0 -53 -55 -53z" />
<glyph unicode="&#x259;" horiz-adv-x="997" d="M84 399q0 103 21 145t98 42h594q-30 332 -320 332q-112 0 -237 -52q-79 -30 -97 8q-21 45 31 74q134 76 303 76q233 0 335 -142q101 -141 101 -378q0 -149 -40 -260q-41 -114 -140 -189t-252 -75q-197 0 -297 108q-100 107 -100 311zM485 82q306 0 316 397h-606 q-7 -51 -7 -84q-4 -151 72 -232t225 -81z" />
<glyph unicode="&#x2c6;" d="M795 1151l-228 184l-215 -178q-66 -51 -92 -14q-28 37 31 86l227 186q28 23 55 23t56 -23l225 -182q60 -49 27 -90q-30 -39 -86 8z" />
<glyph unicode="&#x2c7;" d="M352 1417l228 -182l215 178q61 47 90 12q30 -37 -27 -86l-231 -188q-31 -23 -56 -23q-26 0 -55 23l-227 184q-58 52 -25 90q33 35 88 -8z" />
<glyph unicode="&#x2d8;" d="M565 1149q-109 0 -180 52q-70 51 -98 116q-23 58 16 80q45 24 78 -33q64 -115 184 -115q121 0 185 115q33 55 77 33q41 -21 17 -80q-27 -64 -99 -116q-71 -52 -180 -52z" />
<glyph unicode="&#x2d9;" d="M455 1266q0 41 23 64q24 24 63 24q40 0 64 -24t24 -64q0 -39 -24 -63q-23 -23 -64 -23q-42 0 -64 22t-22 64z" />
<glyph unicode="&#x2da;" d="M543 1497q95 0 147 -56q53 -58 53 -141q0 -82 -53 -140q-52 -56 -147 -56q-96 0 -148 56q-53 58 -53 140q0 83 53 141q52 56 148 56zM543 1415q-50 0 -80 -32q-31 -33 -31 -80t31 -83q30 -34 80 -34t80 33t30 81q0 47 -31 81t-79 34z" />
<glyph unicode="&#x2db;" horiz-adv-x="542" d="M350 -31q-45 -40 -91 -112q-46 -71 -46 -142q0 -100 88 -100q25 0 68 20q39 18 59 -4q30 -37 -20 -77q-44 -37 -117 -37q-87 0 -136 45q-51 46 -51 137q0 94 57 190q58 98 132 156q57 44 88 10q29 -31 -31 -86z" />
<glyph unicode="&#x2dc;" d="M696 1151q-70 0 -143 55q-74 56 -100 56q-16 0 -36 -10q-18 -9 -24 -15l-35 -35q-40 -40 -77 -16q-35 29 0 76q69 100 178 100q62 0 138 -55q77 -56 105 -56q40 0 95 60q40 40 77 16q33 -27 0 -76q-27 -43 -75 -71q-50 -29 -103 -29z" />
<glyph unicode="&#x2dd;" d="M598 1356l-297 -207q-62 -45 -90 -2q-30 43 33 86l297 207q57 43 86 2q35 -45 -29 -86zM907 1356l-297 -207q-62 -45 -90 -2q-30 43 33 86l297 207q57 43 86 2q35 -45 -29 -86z" />
<glyph unicode="&#x3c0;" horiz-adv-x="1128" d="M172 66v831h-74q-55 0 -55 53q0 23 15 38q16 16 40 16h932q24 0 40 -16q15 -15 15 -38q0 -53 -55 -53h-74v-831q0 -66 -57 -66t-57 66v831h-555v-831q0 -66 -58 -66q-57 0 -57 66z" />
<glyph unicode="&#x401;" horiz-adv-x="1110" d="M1001 0h-763q-34 0 -53 20t-19 50v1276q0 30 17 48q18 19 48 19h748q25 0 40 -16q15 -17 15 -39q0 -25 -15 -40t-40 -15h-690v-510h567q25 0 40 -17q15 -16 15 -39q0 -25 -15 -40t-40 -15h-567v-571h712q25 0 40 -17q16 -18 16 -39q0 -24 -16 -40q-15 -15 -40 -15z M315 1655q0 42 26 68t69 26t71 -26q27 -25 27 -68q0 -90 -98 -90q-95 0 -95 90zM696 1655q0 42 26 68t71 26q42 0 69 -27t27 -67q0 -43 -26 -67q-24 -23 -70 -23q-97 0 -97 90z" />
<glyph unicode="&#x402;" horiz-adv-x="1531" d="M1010 -20q-148 0 -240 38q-61 27 -49 76q12 56 82 33q120 -37 217 -37q165 0 233 89t68 249q0 326 -391 326q-147 0 -268 -31v-657q0 -29 -17 -48q-17 -18 -45 -18t-45 18q-16 17 -16 48v1237h-461q-25 0 -40 15t-15 40q0 22 15 39q15 16 40 16h1044q25 0 40 -16 q16 -18 16 -39q0 -24 -16 -40q-15 -15 -40 -15h-460v-472q144 33 284 33q107 0 187 -20q84 -21 157 -67q75 -47 116 -134q42 -88 42 -211q0 -206 -107 -330q-106 -122 -331 -122z" />
<glyph unicode="&#x403;" horiz-adv-x="960" d="M289 1303h594q25 0 40 15t15 40q0 22 -15 39q-15 16 -40 16h-656q-61 0 -61 -67v-1280q0 -31 16 -48q16 -18 45 -18t45 18q17 19 17 48v1237zM872 1724l-368 -188q-69 -35 -90 8q-25 48 41 82l370 191q70 35 93 -7q28 -48 -46 -86z" />
<glyph unicode="&#x404;" horiz-adv-x="1298" d="M768 1323q-233 0 -374 -153q-140 -152 -161 -394h797q25 0 40 -16t15 -39q0 -25 -15 -40t-40 -15h-799q10 -268 155 -422t374 -154q182 0 346 107q66 43 96 4q33 -43 -37 -99q-69 -51 -182 -87q-109 -35 -233 -35q-327 0 -486 195q-160 196 -160 530q0 325 181 527 t487 202q224 0 377 -105q66 -45 35 -92q-29 -45 -101 0q-140 86 -315 86z" />
<glyph unicode="&#x405;" horiz-adv-x="1105" d="M590 1323q-151 0 -229 -67q-76 -66 -76 -171q0 -106 80 -172q77 -64 193 -102q117 -39 227 -79q115 -43 194 -130q80 -89 80 -227q0 -180 -127 -288q-126 -107 -359 -107q-213 0 -366 81q-123 68 -86 127q7 12 10 14q6 5 13 6q2 0 7 0.5t7 1.5q4 1 15 -1q8 -1 15 -5 l17 -8q4 -2 9.5 -5t7.5 -4q5 -2 19 -9q11 -5 17 -10q144 -78 322 -78q164 0 258 69t94 197q0 93 -58 159q-57 64 -143 96l-186 71q-112 43 -187 79q-87 41 -143 122q-57 83 -57 198q0 154 111 253q112 100 325 100q197 0 344 -91q95 -59 61 -110q-24 -37 -120 14q-7 2 -9 4 q-136 72 -280 72z" />
<glyph unicode="&#x406;" horiz-adv-x="454" d="M166 66v1282q0 30 16 47q16 18 45 18t45 -18q17 -19 17 -47v-1282q0 -29 -17 -48q-16 -18 -45 -18t-45 18q-16 17 -16 48z" />
<glyph unicode="&#x407;" horiz-adv-x="454" d="M-8 1651q0 37 22 62q23 26 64 26q40 0 64 -26q24 -25 24 -62q0 -39 -24 -63q-23 -23 -64 -23q-42 0 -64 23t-22 63zM289 1651q0 37 22 62q23 26 64 26q40 0 64 -26q24 -25 24 -62q0 -39 -24 -63q-23 -23 -64 -23q-42 0 -64 23t-22 63zM166 66v1282q0 30 16 47 q16 18 45 18t45 -18q17 -19 17 -47v-1282q0 -29 -17 -48q-16 -18 -45 -18t-45 18q-16 17 -16 48z" />
<glyph unicode="&#x408;" horiz-adv-x="704" d="M-4 113q21 39 90 12q87 -35 164 -35q192 0 192 240v1018q0 26 17 46q16 19 45 19t45 -19t16 -46v-1029q0 -339 -305 -339q-146 0 -231 49q-60 35 -33 84z" />
<glyph unicode="&#x409;" horiz-adv-x="1935" d="M45 119q97 0 154 117q127 255 127 1122q0 22 15 39q15 16 40 16h649q28 0 45 -18q17 -19 17 -47v-504q133 20 249 20q517 0 517 -424q0 -206 -133 -328t-408 -122q-184 0 -287 16q-61 10 -61 78v1219h-520q-6 -384 -35 -667q-28 -277 -107 -452q-88 -194 -248 -194 q-52 0 -82 18t-24 58q1 4 2.5 9.5t1.5 7.5q1 7 6 13q3 4 7 10t11 7t10 3l13 2q7 1 13 1h15h13zM1317 100q224 0 319 89t95 247q0 318 -400 318q-109 0 -239 -21v-622q110 -11 225 -11z" />
<glyph unicode="&#x40a;" horiz-adv-x="2111" d="M1487 -10q-184 0 -287 16q-61 10 -61 78v584h-850v-602q0 -29 -17 -48q-16 -18 -45 -18t-45 18q-16 17 -16 48v1282q0 30 16 47q16 18 45 18t45 -18q17 -19 17 -47v-570h850v570q0 30 16 47q17 18 45 18t45 -18q17 -19 17 -47v-504q133 20 249 20q517 0 517 -424 q0 -206 -133 -328t-408 -122zM1487 100q224 0 319 89t95 247q0 318 -400 318q-109 0 -239 -21v-622q110 -11 225 -11z" />
<glyph unicode="&#x40b;" horiz-adv-x="1562" d="M1122 1303h-461v-535q191 133 381 133q227 0 331 -107q106 -109 106 -376v-352q0 -29 -17 -48q-16 -18 -45 -18t-45 18q-16 17 -16 48v329q0 219 -72 307q-72 89 -246 89q-196 0 -376 -148v-577q0 -29 -17 -48q-17 -18 -45 -18t-45 18q-16 17 -16 48v1237h-461 q-25 0 -40 15t-15 40q0 22 15 39q15 16 40 16h1044q25 0 40 -16q16 -18 16 -39q0 -24 -16 -40q-15 -15 -40 -15z" />
<glyph unicode="&#x40c;" horiz-adv-x="1087" d="M166 66v1282q0 30 16 47q16 18 45 18t45 -18q17 -19 17 -47v-598l626 628q62 58 103 17q40 -44 -17 -101l-583 -571l614 -600q56 -56 19 -100q-41 -47 -109 16l-653 633v-606q0 -29 -17 -48q-16 -18 -45 -18t-45 18q-16 17 -16 48zM934 1724l-369 -188q-69 -35 -90 8 q-25 48 41 82l371 191q69 34 92 -7q28 -49 -45 -86z" />
<glyph unicode="&#x40e;" horiz-adv-x="1189" d="M643 334l-539 966q-40 76 7 105q58 35 98 -43l496 -905l376 897q30 76 88 53q47 -18 19 -90l-389 -911q-52 -123 -83 -184q-30 -60 -75 -126q-44 -65 -96 -91q-50 -25 -121 -25q-104 0 -182 45q-64 35 -37 88q21 40 92 12q84 -35 131 -35q73 0 120 61q44 57 95 183z M678 1536q-108 0 -190 45t-117 102q-38 58 0 89q39 30 84 -23q94 -111 223 -111q135 0 225 111q44 53 84 23q38 -31 0 -89q-34 -57 -119 -102q-84 -45 -190 -45z" />
<glyph unicode="&#x40f;" horiz-adv-x="1376" d="M1087 111v1237q0 28 17 47q16 18 45 18t45 -18q16 -17 16 -47v-1282q0 -28 -15 -47t-46 -19h-408v-254q0 -65 -55 -65t-55 65v254h-406q-29 0 -44 19q-15 20 -15 47v1282q0 30 16 47q16 18 45 18t45 -18q17 -19 17 -47v-1237h798z" />
<glyph unicode="&#x410;" horiz-adv-x="1230" d="M707 1384l514 -1288q24 -66 -23 -90q-61 -28 -90 41l-158 404h-620l-146 -390q-27 -78 -86 -57q-54 20 -24 94l499 1278q23 58 70 58q43 0 64 -50zM637 1249l-264 -688h536z" />
<glyph unicode="&#x411;" horiz-adv-x="1148" d="M514 -10q-144 0 -287 16q-61 6 -61 72v1272q0 28 17 45q18 18 46 18h658q25 0 40 -16q15 -17 15 -39q0 -25 -15 -40t-40 -15h-598v-476q139 21 250 21q217 0 356 -93t139 -315q0 -450 -520 -450zM528 737q-134 0 -239 -18v-604q90 -15 225 -15q222 0 308 87q85 86 85 249 q0 301 -379 301z" />
<glyph unicode="&#x412;" horiz-adv-x="1224" d="M551 1423q234 0 364 -80q129 -79 129 -274q0 -109 -54 -195t-156 -126q138 -27 212 -118q74 -90 74 -231q0 -409 -547 -409q-226 0 -346 22q-61 12 -61 74v1233q0 70 61 82q128 22 324 22zM575 678h-286v-563q141 -15 284 -15q203 0 313 67q107 65 107 228 q0 154 -103 218q-104 65 -315 65zM516 1313q-110 0 -227 -10v-523h256q373 0 373 287q0 137 -104 191q-105 55 -298 55z" />
<glyph unicode="&#x413;" horiz-adv-x="960" d="M883 1303h-594v-1237q0 -29 -17 -48q-16 -18 -45 -18t-45 18q-16 17 -16 48v1280q0 67 61 67h656q25 0 40 -16q15 -17 15 -39q0 -25 -15 -40t-40 -15z" />
<glyph unicode="&#x414;" horiz-adv-x="1456" d="M43 -233v278q0 28 17 46q18 20 40 20h88q113 185 158 492q46 314 53 755q0 21 16 39q15 16 40 16h665q62 0 62 -65v-1237h131q59 0 59 -56v-288q0 -66 -55 -66t-55 66v233h-1108v-233q0 -66 -56 -66q-55 0 -55 66zM328 111h731v1192h-539q-22 -839 -192 -1192z" />
<glyph unicode="&#x415;" horiz-adv-x="1110" d="M1001 0h-763q-34 0 -53 20t-19 50v1276q0 30 17 48q18 19 48 19h748q25 0 40 -16q15 -17 15 -39q0 -25 -15 -40t-40 -15h-690v-510h567q25 0 40 -17q15 -16 15 -39q0 -25 -15 -40t-40 -15h-567v-571h712q25 0 40 -17q16 -18 16 -39q0 -24 -16 -40q-15 -15 -40 -15z" />
<glyph unicode="&#x416;" horiz-adv-x="1671" d="M776 66v612l-624 -639q-66 -66 -111 -19q-16 16 -11 46q4 28 29 53l598 596l-540 573q-56 64 -17 109q47 50 115 -29l561 -623v603q0 28 17 47q17 18 45 18t45 -18q16 -17 16 -47v-603l569 625q66 72 107 31q41 -40 -19 -103l-534 -577l598 -596q60 -57 16 -105 q-46 -49 -108 17l-629 639v-610q0 -31 -16 -48q-17 -18 -45 -18t-45 18q-17 19 -17 48z" />
<glyph unicode="&#x417;" horiz-adv-x="1136" d="M166 53q-66 33 -43 86q18 46 100 13q151 -62 320 -62q177 0 281 81t104 222q0 272 -412 277h-125q-55 0 -55 55q0 25 15 40t40 15h101q179 0 282 74t103 219q0 109 -78 179q-79 71 -232 71q-163 0 -299 -68q-83 -41 -106 -4q-38 53 61 103q158 80 352 80q198 0 313 -88 q116 -89 116 -263q0 -258 -256 -346q145 -24 226 -114t81 -222q0 -202 -140 -312q-139 -109 -366 -109q-233 0 -383 73z" />
<glyph unicode="&#x418;" horiz-adv-x="1425" d="M289 1348v-1125l848 1151q30 39 65 39q58 0 58 -65v-1282q0 -29 -17 -48q-17 -18 -45 -18t-45 18q-16 17 -16 48v1126l-852 -1153q-30 -39 -64 -39q-25 0 -40 18t-15 48v1282q0 30 16 47q16 18 45 18t45 -18q17 -19 17 -47z" />
<glyph unicode="&#x419;" horiz-adv-x="1425" d="M289 1348v-1125l848 1151q30 39 65 39q58 0 58 -65v-1282q0 -29 -17 -48q-17 -18 -45 -18t-45 18q-16 17 -16 48v1126l-852 -1153q-30 -39 -64 -39q-25 0 -40 18t-15 48v1282q0 30 16 47q16 18 45 18t45 -18q17 -19 17 -47zM715 1536q-107 0 -190 45t-117 102 q-38 58 0 89q39 30 84 -23q94 -111 223 -111q135 0 225 111q44 53 84 23q38 -31 0 -89q-34 -57 -119 -102q-84 -45 -190 -45z" />
<glyph unicode="&#x41a;" horiz-adv-x="1087" d="M166 66v1282q0 30 16 47q16 18 45 18t45 -18q17 -19 17 -47v-598l626 628q62 58 103 17q40 -44 -17 -101l-583 -571l614 -600q56 -56 19 -100q-41 -47 -109 16l-653 633v-606q0 -29 -17 -48q-16 -18 -45 -18t-45 18q-16 17 -16 48z" />
<glyph unicode="&#x41b;" horiz-adv-x="1251" d="M45 119q97 0 154 117q127 255 127 1122q0 22 15 39q15 16 40 16h649q28 0 45 -18q17 -19 17 -47v-1282q0 -29 -17 -48q-17 -18 -45 -18t-45 18q-16 17 -16 48v1237h-520q-6 -384 -35 -667q-28 -277 -107 -452q-88 -194 -248 -194q-52 0 -82 18t-24 58q1 4 2.5 9.5 t1.5 7.5q1 7 6 13q3 4 7 10t11 7t10 3l13 2q7 1 13 1h15h13z" />
<glyph unicode="&#x41c;" horiz-adv-x="1591" d="M801 573l497 793q30 47 70 47q57 0 57 -65v-1282q0 -31 -16 -48q-17 -18 -45 -18t-45 18q-16 17 -16 48v1105l-447 -710q-24 -39 -62 -39t-65 39l-448 706v-1101q0 -66 -58 -66q-57 0 -57 66v1282q0 65 57 65q41 0 74 -51z" />
<glyph unicode="&#x41d;" horiz-adv-x="1427" d="M1139 778v570q0 30 16 47q17 18 45 18t45 -18q17 -19 17 -47v-1282q0 -29 -17 -48q-17 -18 -45 -18t-45 18q-16 17 -16 48v602h-850v-602q0 -29 -17 -48q-16 -18 -45 -18t-45 18q-16 17 -16 48v1282q0 30 16 47q16 18 45 18t45 -18q17 -19 17 -47v-570h850z" />
<glyph unicode="&#x41e;" horiz-adv-x="1531" d="M104 707q0 317 174 523q173 204 488 204q316 0 488 -204q173 -205 173 -523q0 -319 -173 -524q-172 -203 -488 -203t-488 203q-174 206 -174 524zM231 707q0 -271 143 -444t392 -173t392 173q142 172 142 444q0 271 -142 443q-143 173 -392 173t-392 -173t-143 -443z" />
<glyph unicode="&#x41f;" horiz-adv-x="1376" d="M1087 66v1237h-798v-1237q0 -29 -17 -48q-16 -18 -45 -18t-45 18q-16 17 -16 48v1282q0 26 15 46q15 19 44 19h924q31 0 46 -19q15 -20 15 -46v-1282q0 -31 -16 -48q-16 -18 -45 -18t-45 18q-17 19 -17 48z" />
<glyph unicode="&#x420;" horiz-adv-x="1128" d="M1055 1004q0 -229 -155 -342t-396 -113q-124 0 -215 18v-501q0 -29 -17 -48q-16 -18 -45 -18t-45 18q-16 17 -16 48v1259q0 71 61 78q134 20 308 20q520 0 520 -419zM535 1313q-123 0 -246 -15v-620q112 -19 223 -19q181 0 299 80q117 79 117 265q0 309 -393 309z" />
<glyph unicode="&#x421;" horiz-adv-x="1298" d="M768 1323q-252 0 -394 -175q-143 -176 -143 -446q0 -284 146 -448t383 -164q182 0 346 107q66 43 96 4q33 -43 -37 -99q-69 -51 -182 -87q-109 -35 -233 -35q-327 0 -486 195q-160 196 -160 530q0 325 181 527t487 202q224 0 377 -105q66 -45 35 -92q-29 -45 -101 0 q-140 86 -315 86z" />
<glyph unicode="&#x422;" horiz-adv-x="1200" d="M1122 1303h-460v-1237q0 -29 -17 -48q-17 -18 -45 -18t-45 18q-16 17 -16 48v1237h-461q-25 0 -40 15t-15 40q0 22 15 39q15 16 40 16h1044q25 0 40 -16q16 -18 16 -39q0 -24 -16 -40q-15 -15 -40 -15z" />
<glyph unicode="&#x423;" horiz-adv-x="1189" d="M643 334l-539 966q-40 76 7 105q58 35 98 -43l496 -905l376 897q30 76 88 53q47 -18 19 -90l-389 -911q-52 -123 -83 -184q-30 -60 -75 -126q-44 -65 -96 -91q-50 -25 -121 -25q-104 0 -182 45q-64 35 -37 88q21 40 92 12q84 -35 131 -35q73 0 120 61q44 57 95 183z" />
<glyph unicode="&#x424;" horiz-adv-x="1613" d="M104 754q0 274 169 416q170 143 472 143v121q0 28 17 47q16 18 45 18t45 -18q16 -17 16 -47v-121q302 0 471 -144q170 -144 170 -415q0 -272 -170 -416q-168 -143 -471 -143v-160q0 -30 -16 -47q-17 -19 -45 -19t-45 19t-17 47v160q-303 0 -472 142t-169 417zM1382 754 q0 229 -138 343q-137 113 -382 113v-913q244 0 382 114t138 343zM231 754q0 -228 139 -343q138 -114 382 -114v913q-245 0 -382 -113q-139 -115 -139 -343z" />
<glyph unicode="&#x425;" horiz-adv-x="1226" d="M260 1370l397 -543l398 543q51 66 96 31q40 -33 -4 -92l-418 -568l465 -626q45 -66 -2 -101q-23 -16 -51 -10q-27 6 -45 33l-449 612l-434 -604q-50 -70 -100 -33q-41 31 2 92l463 631l-422 563q-47 64 0 103q51 43 104 -31z" />
<glyph unicode="&#x426;" horiz-adv-x="1470" d="M1073 111v1237q0 28 17 47q16 18 45 18t45 -18q16 -17 16 -47v-1237h131q59 0 59 -58v-286q0 -66 -55 -66t-55 66v233h-1051q-27 0 -43 16t-16 43v1289q0 30 16 47q16 18 45 18t45 -18q17 -19 17 -47v-1237h784z" />
<glyph unicode="&#x427;" horiz-adv-x="1189" d="M901 66v579q-191 -133 -381 -133q-226 0 -331 108t-105 375v353q0 30 16 47q16 18 45 18t45 -18q17 -19 17 -47v-330q0 -218 72 -307q72 -88 245 -88q198 0 377 147v578q0 28 17 47q16 18 45 18t45 -18q16 -17 16 -47v-1282q0 -31 -16 -48q-16 -18 -45 -18t-45 18 q-17 19 -17 48z" />
<glyph unicode="&#x428;" horiz-adv-x="1875" d="M877 111v1237q0 30 16 47q17 18 45 18t45 -18q16 -17 16 -47v-1237h588v1237q0 28 17 47q16 18 45 18t45 -18q16 -17 16 -47v-1278q0 -70 -72 -70h-1413q-27 0 -43 17t-16 49v1282q0 30 16 47q16 18 45 18t45 -18q17 -19 17 -47v-1237h588z" />
<glyph unicode="&#x429;" horiz-adv-x="1984" d="M1587 111v1237q0 28 17 47q16 18 45 18t45 -18q16 -17 16 -47v-1237h131q60 0 60 -58v-286q0 -66 -56 -66q-55 0 -55 66v233h-1565q-27 0 -43 16t-16 43v1289q0 30 16 47q16 18 45 18t45 -18q17 -19 17 -47v-1237h588v1237q0 30 16 47q17 18 45 18t45 -18q16 -17 16 -47 v-1237h588z" />
<glyph unicode="&#x42a;" horiz-adv-x="1337" d="M713 -10q-184 0 -287 16q-61 10 -61 78v1214h-308q-25 0 -40 17t-15 41t15 41q15 16 40 16h369q28 0 45 -18q16 -17 16 -47v-504q133 20 250 20q516 0 516 -424q0 -206 -132 -328q-133 -122 -408 -122zM713 100q224 0 319 89q94 88 94 247q0 318 -399 318 q-109 0 -240 -21v-622q110 -11 226 -11z" />
<glyph unicode="&#x42b;" horiz-adv-x="1550" d="M1262 66v1282q0 30 16 47q16 18 45 18t45 -18q16 -17 16 -47v-1282q0 -31 -16 -48q-16 -18 -45 -18t-45 18q-16 17 -16 48zM514 -10q267 0 394 122q126 121 126 328q0 120 -41 207q-40 85 -113 132q-71 46 -156 66q-80 19 -185 19q-117 0 -250 -20v504q0 28 -17 47 q-16 18 -45 18t-45 -18q-16 -17 -16 -47v-1264q0 -68 61 -78q103 -16 287 -16zM514 100q-115 0 -225 11v622q130 21 239 21q379 0 379 -318q0 -158 -89 -247t-304 -89z" />
<glyph unicode="&#x42c;" horiz-adv-x="1138" d="M514 -10q-184 0 -287 16q-61 10 -61 78v1264q0 30 16 47q16 18 45 18t45 -18q17 -19 17 -47v-504q133 20 250 20q516 0 516 -424q0 -206 -132 -328q-133 -122 -409 -122zM514 100q225 0 320 89q94 88 94 247q0 318 -400 318q-108 0 -239 -21v-622q110 -11 225 -11z" />
<glyph unicode="&#x42d;" horiz-adv-x="1308" d="M588 1323q-174 0 -332 -76q-73 -34 -94 -2q-27 45 41 92q60 43 171 70q110 27 222 27q317 0 475 -191t158 -514q0 -335 -170 -543q-169 -206 -490 -206q-224 0 -368 67q-90 41 -66 98q21 45 98 13q151 -68 324 -68q269 0 400 159q131 160 143 421h-723q-25 0 -40 15 t-15 40q0 23 15 39t40 16h723q-12 251 -147 398q-133 145 -365 145z" />
<glyph unicode="&#x42e;" horiz-adv-x="1961" d="M166 66v1282q0 30 16 47q16 18 45 18t45 -18q17 -19 17 -47v-582h268q16 296 183 482q166 186 466 186q314 0 483 -204q169 -203 169 -523q0 -321 -169 -524t-483 -203q-301 0 -469 187q-167 186 -182 488h-266v-589q0 -29 -17 -48q-16 -18 -45 -18t-45 18q-16 17 -16 48 zM682 707q0 -272 137 -445q136 -172 387 -172t387 172q138 174 138 445q0 270 -138 444q-136 172 -387 172t-387 -172q-137 -173 -137 -444z" />
<glyph unicode="&#x42f;" horiz-adv-x="1202" d="M1036 1329v-1259q0 -30 -16 -50t-45 -20t-45 18q-17 19 -17 48v503q-87 -10 -176 -10q-83 0 -157 10l-310 -518q-43 -72 -96 -43q-27 15 -27 44q0 31 21 61l293 483q-277 89 -277 397q0 226 148 329q146 101 387 101q143 0 256 -18q61 -10 61 -76zM711 1313 q-400 0 -400 -320q0 -323 426 -323q112 0 176 8v622q-99 13 -202 13z" />
<glyph unicode="&#x430;" horiz-adv-x="1015" d="M233 860q-74 -30 -92 12q-21 49 35 78q145 74 326 74q379 0 379 -362v-596q0 -66 -58 -66q-57 0 -57 66v153q-44 -103 -141 -170q-99 -69 -250 -69q-153 0 -242 76q-90 76 -90 223q0 94 40 162q41 69 107 106q65 36 144 53q74 16 164 16q128 0 268 -20v57q0 265 -274 265 q-109 0 -259 -58zM389 86q177 0 277 117q100 116 100 252v39q-133 20 -252 20q-352 0 -352 -231q0 -92 59 -144q61 -53 168 -53z" />
<glyph unicode="&#x431;" horiz-adv-x="1120" d="M217 459q0 -169 92 -272q91 -101 254 -101q165 0 260 105q95 106 95 278q0 174 -92 280q-91 105 -259 105q-155 0 -253 -110q-97 -109 -97 -285zM899 1323q-31 -15 -142 -57q-118 -45 -163 -64l-31 -12q-68 -26 -124 -55q-39 -20 -111 -79q-65 -53 -102 -144 q-36 -88 -42 -212q62 135 171 198t239 63q215 0 329 -140q113 -138 113 -350q0 -213 -130 -352t-343 -139q-479 0 -479 602q0 217 48 352t153 222t295 159q3 1 16.5 6t41.5 15.5t58 21.5q120 45 152 59q76 34 96 -8q24 -49 -45 -86z" />
<glyph unicode="&#x432;" horiz-adv-x="978" d="M135 82v836q0 63 58 75q97 19 262 19q198 0 290 -71q93 -72 93 -185q0 -83 -46 -148q-47 -66 -130 -90q109 -15 171 -74t62 -161q0 -293 -430 -293q-182 0 -272 18q-58 12 -58 74zM485 451h-235v-342q104 -13 219 -13q169 0 238 45t69 140q0 89 -66 129q-67 41 -225 41z M446 905q-98 0 -196 -8v-348h196q150 0 211 48q62 48 62 140q0 90 -66 129t-207 39z" />
<glyph unicode="&#x433;" horiz-adv-x="747" d="M690 897h-440v-831q0 -66 -57 -66q-58 0 -58 66v872q0 66 58 66h497q24 0 40 -16q15 -15 15 -38q0 -53 -55 -53z" />
<glyph unicode="&#x434;" horiz-adv-x="1107" d="M23 -180v237q0 23 13 36t32 13h69q150 219 150 840q0 24 15 41t40 17h496q34 0 52 -20q17 -18 17 -46v-832h84q53 0 53 -53v-233q0 -66 -53 -66t-53 66v180h-809v-180q0 -66 -53 -66t-53 66zM399 897q-15 -530 -133 -791h527v791h-394z" />
<glyph unicode="&#x435;" horiz-adv-x="1026" d="M557 86q128 0 254 61q60 28 82 -10q24 -44 -25 -78q-121 -79 -311 -79q-235 0 -354 135q-119 136 -119 381q0 231 125 380q124 148 342 148q191 0 291 -114q100 -113 100 -275q0 -49 -6 -88q-15 -101 -109 -101h-626q12 -173 104 -267q91 -93 252 -93zM543 918 q-149 0 -240 -97q-90 -96 -102 -272h628q5 30 5 78q-4 132 -77 212q-72 79 -214 79z" />
<glyph unicode="&#x436;" horiz-adv-x="1263" d="M610 66v407l-444 -442q-55 -55 -92 -17q-37 37 14 86l422 404l-391 401q-45 45 -8 82q39 39 88 -12l411 -436v399q0 66 58 66q57 0 57 -66v-397l416 432q51 51 88 16q33 -35 -12 -80l-394 -397l428 -408q50 -50 13 -88q-41 -43 -95 11l-444 446v-407q0 -66 -57 -66 q-58 0 -58 66z" />
<glyph unicode="&#x437;" horiz-adv-x="899" d="M481 1024q159 0 243 -73q83 -72 83 -187q0 -84 -53 -152q-52 -67 -150 -88q105 -11 165 -79q60 -69 60 -175q0 -129 -96 -210q-95 -80 -268 -80q-215 0 -340 75q-53 33 -29 78q23 41 86 12q134 -59 269 -59q133 0 196 54q64 55 64 136q0 100 -74 147q-73 46 -223 46h-82 q-58 0 -58 51t58 51h76q280 0 280 183q0 164 -221 164q-107 0 -242 -62q-62 -30 -84 4q-29 47 31 82q134 82 309 82z" />
<glyph unicode="&#x438;" horiz-adv-x="1116" d="M866 66v745l-614 -782q-24 -29 -59 -29q-58 0 -58 66v872q0 66 58 66q57 0 57 -66v-752l616 789q24 29 58 29q57 0 57 -66v-872q0 -66 -57 -66q-58 0 -58 66z" />
<glyph unicode="&#x439;" horiz-adv-x="1116" d="M866 66v745l-614 -782q-24 -29 -59 -29q-58 0 -58 66v872q0 66 58 66q57 0 57 -66v-752l616 789q24 29 58 29q57 0 57 -66v-872q0 -66 -57 -66q-58 0 -58 66zM565 1149q-109 0 -180 52q-70 51 -98 116q-23 58 16 80q45 24 78 -33q67 -115 184 -115q118 0 185 115 q33 55 77 33q41 -21 17 -80q-27 -64 -99 -116q-71 -52 -180 -52z" />
<glyph unicode="&#x43a;" horiz-adv-x="868" d="M135 66v872q0 66 58 66q57 0 57 -66v-397l444 436q49 49 88 10q37 -37 -10 -84l-414 -389l461 -408q49 -45 12 -88q-34 -42 -94 9l-487 438v-399q0 -66 -57 -66q-58 0 -58 66z" />
<glyph unicode="&#x43b;" horiz-adv-x="999" d="M45 100q75 0 119 107q74 190 92 745q0 22 15 37t40 15h496q61 0 61 -64v-874q0 -66 -57 -66t-57 66v831h-392q-7 -170 -15 -266q-7 -87 -32 -247q-24 -151 -59 -237q-67 -157 -203 -157q-38 0 -61 16q-25 17 -21 49q1 22 16 33q12 9 23 11q7 1 35 1z" />
<glyph unicode="&#x43c;" horiz-adv-x="1236" d="M135 66v872q0 66 55 66q41 0 72 -48l350 -493l359 489q38 52 78 52q53 0 53 -66v-872q0 -66 -58 -66q-57 0 -57 66v741l-325 -449q-24 -35 -58 -33t-55 33l-307 433v-725q0 -66 -54 -66q-53 0 -53 66z" />
<glyph unicode="&#x43d;" horiz-adv-x="1101" d="M852 571v367q0 66 57 66q58 0 58 -66v-872q0 -66 -58 -66q-57 0 -57 66v399h-602v-399q0 -66 -57 -66q-58 0 -58 66v872q0 66 58 66q57 0 57 -66v-367h602z" />
<glyph unicode="&#x43e;" horiz-adv-x="1142" d="M84 502q0 226 129 374t358 148q230 0 359 -148t129 -374t-129 -374t-359 -148q-229 0 -358 148t-129 374zM203 502q0 -192 98 -303q99 -113 270 -113q172 0 271 113q98 111 98 303t-98 303q-99 113 -271 113q-171 0 -270 -113q-98 -111 -98 -303z" />
<glyph unicode="&#x43f;" horiz-adv-x="1073" d="M823 66v831h-573v-831q0 -66 -57 -66q-58 0 -58 66v872q0 25 16 46q15 20 39 20h689q29 0 44 -20t15 -46v-872q0 -66 -57 -66q-58 0 -58 66z" />
<glyph unicode="&#x440;" horiz-adv-x="1099" d="M623 1024q191 0 292 -134t101 -358q0 -241 -121 -396q-121 -156 -360 -156q-171 0 -285 63v-387q0 -66 -57 -66q-58 0 -58 66v1282q0 66 58 66q57 0 57 -66v-166q100 252 373 252zM606 918q-356 0 -356 -560v-200q123 -72 287 -72q190 0 275 124t85 322q0 176 -72 281 t-219 105z" />
<glyph unicode="&#x441;" horiz-adv-x="952" d="M870 74q-133 -94 -319 -94q-227 0 -347 134t-120 382q0 239 140 383q141 145 360 145q150 0 258 -63q61 -34 32 -84q-24 -39 -83 -13q-125 54 -220 54q-158 0 -263 -117t-105 -307q0 -195 91 -301q92 -107 257 -107q133 0 252 70q71 43 98 6q30 -45 -31 -88z" />
<glyph unicode="&#x442;" horiz-adv-x="884" d="M827 897h-327v-831q0 -66 -58 -66q-57 0 -57 66v831h-328q-55 0 -55 53q0 23 15 38q16 16 40 16h770q24 0 40 -16t16 -38q0 -53 -56 -53z" />
<glyph unicode="&#x443;" horiz-adv-x="903" d="M12 -393q-65 37 -47 86q18 47 103 8q53 -25 106 -25q38 0 71 19q31 18 54 42q24 26 47 76q30 66 38 86l40 105l-371 897q-30 74 25 96q56 23 86 -51l321 -805l297 803q29 74 86 53q48 -18 19 -92l-355 -917q-92 -242 -165 -330t-201 -88q-87 0 -154 37z" />
<glyph unicode="&#x444;" horiz-adv-x="1398" d="M639 1024v324q0 65 57 65q58 0 58 -65v-324h12q273 0 411 -141t138 -381q0 -241 -138 -382q-137 -140 -411 -140h-12v-324q0 -66 -58 -66q-57 0 -57 66v324h-12q-271 0 -407 141q-136 140 -136 381t136 381q136 141 407 141h12zM750 80h16q209 0 316 107q108 108 108 315 q0 206 -108 314t-316 108h-16v-844zM643 924h-16q-209 0 -317 -108q-107 -107 -107 -314q0 -208 107 -315t317 -107h16v844z" />
<glyph unicode="&#x445;" horiz-adv-x="931" d="M223 969l279 -369l284 373q41 56 88 18q19 -19 16 -45t-22 -45l-295 -375l334 -426q17 -22 17 -45q0 -24 -19 -43q-45 -39 -92 19l-315 403l-310 -401q-51 -60 -92 -21q-37 33 8 90l324 414l-293 379q-45 59 -2 96q45 39 90 -22z" />
<glyph unicode="&#x446;" horiz-adv-x="1134" d="M965 -180v180h-770q-60 0 -60 66v872q0 66 58 66q57 0 57 -66v-832h569v832q0 66 58 66q57 0 57 -66v-832h74q63 0 63 -61v-225q0 -66 -53 -66t-53 66z" />
<glyph unicode="&#x447;" horiz-adv-x="929" d="M178 938v-223q0 -143 54 -206t184 -63q145 0 264 93v399q0 66 57 66q58 0 58 -66v-872q0 -66 -58 -66q-57 0 -57 66v356q-128 -82 -277 -82q-171 0 -256 80q-84 79 -84 278v240q0 66 58 66q57 0 57 -66z" />
<glyph unicode="&#x448;" horiz-adv-x="1495" d="M135 68v870q0 66 58 66q57 0 57 -66v-832h440v832q0 66 58 66q57 0 57 -66v-832h440v832q0 66 58 66q57 0 57 -66v-870q0 -29 -17 -49q-16 -19 -49 -19h-1099q-60 0 -60 68z" />
<glyph unicode="&#x449;" horiz-adv-x="1560" d="M1391 -180v180h-1196q-60 0 -60 66v872q0 66 58 66q57 0 57 -66v-832h440v832q0 66 58 66q57 0 57 -66v-832h440v832q0 66 58 66q57 0 57 -66v-832h74q63 0 63 -63v-223q0 -66 -53 -66t-53 66z" />
<glyph unicode="&#x44a;" horiz-adv-x="1064" d="M283 897h-226q-55 0 -55 53q0 23 15 38q16 16 40 16h283q57 0 57 -66v-293q102 17 185 17q409 0 409 -332q0 -59 -17 -107q-18 -50 -61 -107t-134 -91q-93 -35 -220 -35q-147 0 -219 18q-57 15 -57 74v815zM547 96q155 0 240 52t85 182q0 120 -74 172q-76 53 -225 53 q-69 0 -176 -12v-439q96 -8 150 -8z" />
<glyph unicode="&#x44b;" horiz-adv-x="1226" d="M977 66v872q0 66 57 66q58 0 58 -66v-872q0 -66 -58 -66q-57 0 -57 66zM135 938v-856q0 -56 58 -74q57 -18 219 -18q120 0 208 35t128 90q40 54 58 108q17 50 17 107q0 332 -389 332q-82 0 -184 -17v293q0 66 -57 66q-58 0 -58 -66zM399 96q-81 0 -149 6v441 q106 12 176 12q279 0 279 -225q0 -234 -306 -234z" />
<glyph unicode="&#x44c;" horiz-adv-x="917" d="M135 82v856q0 66 58 66q57 0 57 -66v-293q102 17 184 17q410 0 410 -332q0 -56 -18 -107q-19 -53 -60 -107q-43 -57 -134 -91q-93 -35 -220 -35q-146 0 -219 18q-58 15 -58 74zM399 96q156 0 241 52t85 182q0 120 -75 172q-76 53 -224 53q-70 0 -176 -12v-441 q67 -6 149 -6z" />
<glyph unicode="&#x44d;" horiz-adv-x="976" d="M449 -20q-192 0 -314 73q-53 35 -29 80q23 41 93 8q126 -55 241 -55q333 0 357 379h-467q-56 0 -56 51q0 21 16 37q14 14 40 14h467q-23 351 -336 351q-117 0 -244 -60q-66 -33 -88 6q-24 41 33 80q130 80 313 80q232 0 337 -137q106 -138 106 -369q0 -232 -116 -386 q-115 -152 -353 -152z" />
<glyph unicode="&#x44e;" horiz-adv-x="1466" d="M135 66v872q0 66 58 66q57 0 57 -66v-373h213q16 204 132 332q115 127 325 127q226 0 344 -146t118 -376t-118 -376t-344 -146q-216 0 -331 133q-116 134 -128 346h-211v-393q0 -66 -57 -66q-58 0 -58 66zM575 502q0 -193 89 -305q88 -111 256 -111t256 111 q88 110 88 305t-88 305q-89 111 -256 111q-168 0 -256 -111q-89 -112 -89 -305z" />
<glyph unicode="&#x44f;" horiz-adv-x="954" d="M854 932v-866q0 -66 -57 -66q-58 0 -58 66v313q-74 -14 -184 -14q-42 0 -72 2l-219 -324q-47 -70 -96 -31q-39 33 0 90l203 287q-207 69 -207 303q0 320 426 320q128 0 207 -15q57 -8 57 -65zM588 905q-148 0 -227 -49q-78 -49 -78 -168q0 -221 280 -221q115 0 176 12 v418q-64 8 -151 8z" />
<glyph unicode="&#x451;" horiz-adv-x="1026" d="M557 86q128 0 254 61q60 28 82 -10q24 -44 -25 -78q-121 -79 -311 -79q-235 0 -354 135q-119 136 -119 381q0 231 125 380q124 148 342 148q191 0 291 -114q100 -113 100 -275q0 -49 -6 -88q-15 -101 -109 -101h-626q12 -173 104 -267q91 -93 252 -93zM543 918 q-149 0 -240 -97q-90 -96 -102 -272h628q5 30 5 78q-4 132 -77 212q-72 79 -214 79zM295 1262q0 35 22 60q23 26 62 26q38 0 62 -26t24 -60q0 -36 -24 -60t-62 -24q-39 0 -62 24q-22 23 -22 60zM633 1262q0 35 22 60q23 26 62 26q38 0 62 -26t24 -60q0 -36 -24 -60t-62 -24 q-39 0 -62 24q-22 23 -22 60z" />
<glyph unicode="&#x452;" horiz-adv-x="1189" d="M670 905h-338v-393q49 126 148 189t212 63q198 0 280 -111q83 -112 83 -323v-402q0 -177 -65 -268q-64 -90 -218 -90q-117 0 -188 37q-49 27 -33 71q15 43 76 25q91 -27 139 -27q108 0 141 62t33 205v383q0 160 -58 245q-59 86 -200 86q-186 0 -268 -155t-82 -404v-32 q0 -66 -58 -66q-57 0 -57 66v839h-160q-55 0 -55 49q0 50 55 50h160v344q0 65 57 65q58 0 58 -65v-344h338q55 0 55 -50q0 -49 -55 -49z" />
<glyph unicode="&#x453;" horiz-adv-x="747" d="M250 897h440q55 0 55 53q0 23 -15 38q-16 16 -40 16h-497q-58 0 -58 -66v-872q0 -66 58 -66q57 0 57 66v831zM717 1356l-297 -207q-62 -45 -90 -2q-30 43 32 86l297 207q57 43 86 2q35 -46 -28 -86z" />
<glyph unicode="&#x454;" horiz-adv-x="952" d="M870 74q-133 -94 -319 -94q-227 0 -347 134t-120 382q0 239 140 383q141 145 360 145q150 0 258 -63q61 -34 32 -84q-24 -39 -83 -13q-125 54 -220 54q-144 0 -245 -98t-119 -261h510q26 0 40 -14q15 -15 15 -37q0 -51 -55 -51h-514q11 -177 100 -274q90 -97 248 -97 q133 0 252 70q71 43 98 6q30 -45 -31 -88z" />
<glyph unicode="&#x455;" horiz-adv-x="868" d="M467 1024q165 0 283 -68q65 -37 41 -86q-18 -41 -80 -14q-141 62 -246 62q-110 0 -163 -40q-54 -40 -54 -112t60 -115q59 -43 146 -64q71 -17 171 -49q84 -27 146 -93q60 -65 60 -169q0 -133 -103 -215q-102 -81 -288 -81q-198 0 -311 77q-58 39 -31 84q22 39 88 9 q136 -64 271 -64q113 0 184 49q72 49 72 131q0 74 -61 118q-62 45 -145 67q-95 25 -171 49q-89 28 -147 89q-60 63 -60 165q0 129 91 199q92 71 247 71z" />
<glyph unicode="&#x456;" horiz-adv-x="385" d="M135 66v872q0 66 58 66q57 0 57 -66v-872q0 -66 -57 -66q-58 0 -58 66zM106 1266q0 40 24 64t63 24q40 0 64 -24t24 -64q0 -39 -24 -63q-23 -23 -64 -23q-42 0 -64 22q-23 23 -23 64z" />
<glyph unicode="&#x457;" horiz-adv-x="385" d="M-33 1264q0 34 23 60t61 26q39 0 63 -26q23 -24 23 -60q0 -37 -23 -60q-24 -24 -63 -24t-61 24q-23 25 -23 60zM248 1264q0 35 22 60q23 26 62 26q38 0 62 -26t24 -60q0 -36 -24 -60t-62 -24q-40 0 -62 24q-22 23 -22 60zM135 66v872q0 66 58 66q57 0 57 -66v-872 q0 -66 -57 -66q-58 0 -58 66z" />
<glyph unicode="&#x458;" horiz-adv-x="385" d="M-205 -393q-49 22 -33 71q15 43 76 25q91 -27 139 -27q109 0 142 62q33 61 33 205v995q0 66 57 66t57 -66v-1010q0 -179 -64 -268q-64 -90 -218 -90q-112 0 -189 37zM123 1266q0 41 23 64q24 24 63 24q40 0 64 -24t24 -64q0 -39 -24 -63q-23 -23 -64 -23q-42 0 -64 22 t-22 64z" />
<glyph unicode="&#x459;" horiz-adv-x="1542" d="M45 100q75 0 119 107q74 190 92 745q0 22 15 37t40 15h496q61 0 61 -64v-295q102 17 185 17q409 0 409 -332q0 -59 -17 -107q-18 -50 -61 -107t-134 -91q-93 -35 -220 -35q-147 0 -219 18q-57 15 -57 74v815h-392q-7 -170 -15 -266q-7 -87 -32 -247q-24 -151 -59 -237 q-67 -157 -203 -157q-37 0 -61 15q-25 16 -21 50q1 22 16 33q12 9 21 11q5 1 37 1zM1018 96q155 0 240 52t85 182q0 120 -74 172q-76 53 -225 53q-69 0 -176 -12v-439q96 -8 150 -8z" />
<glyph unicode="&#x45a;" horiz-adv-x="1644" d="M852 571v367q0 66 57 66q58 0 58 -66v-293q102 17 184 17q410 0 410 -332q0 -56 -18 -107q-19 -53 -60 -107q-43 -57 -134 -91q-93 -35 -221 -35q-146 0 -219 18q-57 15 -57 74v383h-602v-399q0 -66 -57 -66q-58 0 -58 66v872q0 66 58 66q57 0 57 -66v-367h602zM1116 96 q156 0 241 52t85 182q0 120 -75 172q-76 53 -224 53q-69 0 -176 -12v-441q68 -6 149 -6z" />
<glyph unicode="&#x45b;" horiz-adv-x="1189" d="M940 66v260q0 160 -58 245q-59 86 -200 86q-186 0 -268 -155t-82 -404v-32q0 -66 -58 -66q-57 0 -57 66v839h-160q-55 0 -55 49q0 50 55 50h160v344q0 65 57 65q58 0 58 -65v-344h338q55 0 55 -50q0 -49 -55 -49h-338v-393q49 126 148 189t212 63q198 0 280 -111 q83 -112 83 -323v-264q0 -66 -58 -66q-57 0 -57 66z" />
<glyph unicode="&#x45c;" horiz-adv-x="868" d="M135 66v872q0 66 58 66q57 0 57 -66v-397l444 436q49 49 88 10q37 -37 -10 -84l-414 -389l461 -408q49 -45 12 -88q-34 -42 -94 9l-487 438v-399q0 -66 -57 -66q-58 0 -58 66zM760 1356l-297 -207q-62 -45 -90 -2q-30 43 33 86l296 207q57 43 86 2q35 -46 -28 -86z" />
<glyph unicode="&#x45e;" horiz-adv-x="903" d="M12 -393q-65 37 -47 86q18 47 103 8q53 -25 106 -25q38 0 71 19q31 18 54 42q24 26 47 76q30 66 38 86l40 105l-371 897q-30 74 25 96q56 23 86 -51l321 -805l297 803q29 74 86 53q48 -18 19 -92l-355 -917q-92 -242 -165 -330t-201 -88q-87 0 -154 37zM469 1149 q-109 0 -180 52q-72 52 -99 116q-23 57 17 80q45 24 78 -33q67 -115 184 -115t184 115q33 56 78 33q41 -21 17 -80q-27 -64 -99 -116q-71 -52 -180 -52z" />
<glyph unicode="&#x45f;" horiz-adv-x="1079" d="M823 106v832q0 66 58 66q57 0 57 -66v-872q0 -28 -15 -47t-44 -19h-281v-160q0 -65 -53 -65t-53 65v160h-302q-24 0 -39 19q-16 21 -16 47v872q0 66 58 66q57 0 57 -66v-832h573z" />
<glyph unicode="&#x462;" horiz-adv-x="1343" d="M719 -10q-184 0 -287 16q-61 10 -61 78v987h-314q-25 0 -40 16q-15 17 -15 39q0 25 15 40q16 16 40 16h314v166q0 30 16 47q17 18 45 18t45 -18q17 -19 17 -47v-166h366q24 0 40 -16q15 -15 15 -40q0 -22 -15 -39q-15 -16 -40 -16h-366v-227q133 20 249 20 q517 0 517 -424q0 -206 -133 -328t-408 -122zM719 100q224 0 319 89t95 247q0 318 -400 318q-109 0 -239 -21v-622q110 -11 225 -11z" />
<glyph unicode="&#x463;" horiz-adv-x="1069" d="M287 1004v344q0 65 57 65t57 -65v-344h289q55 0 55 -50q0 -49 -55 -49h-289v-260q102 17 185 17q409 0 409 -332q0 -59 -17 -107q-19 -53 -60 -107q-43 -56 -135 -91q-93 -35 -220 -35q-145 0 -219 18q-57 15 -57 74v823h-230q-55 0 -55 49q0 50 55 50h230zM551 96 q156 0 241 52t85 182q0 120 -75 172q-76 53 -224 53q-70 0 -177 -12v-441q67 -6 150 -6z" />
<glyph unicode="&#x472;" horiz-adv-x="1531" d="M104 707q0 317 174 523q173 204 488 204q316 0 488 -204q173 -205 173 -523q0 -319 -173 -524q-172 -203 -488 -203t-488 203q-174 206 -174 524zM766 90q238 0 383 160q143 158 154 412h-1076q11 -254 154 -412q145 -160 385 -160zM766 1323q-234 0 -379 -154 q-143 -152 -158 -397h1074q-17 244 -159 397q-143 154 -378 154z" />
<glyph unicode="&#x473;" horiz-adv-x="1142" d="M84 502q0 226 129 374t358 148q230 0 359 -148t129 -374t-129 -374t-359 -148q-229 0 -358 148t-129 374zM571 86q161 0 259 99q97 99 108 272h-735q12 -175 109 -273t259 -98zM571 918q-156 0 -254 -96q-95 -94 -112 -259h731q-17 164 -113 259q-98 96 -252 96z" />
<glyph unicode="&#x474;" horiz-adv-x="1331" d="M1108 1053l-391 -1018q-21 -55 -66 -55t-63 49l-518 1282q-29 74 26 96q60 22 88 -45l475 -1182l353 932q76 201 143 266q67 66 164 66q103 0 164 -49q33 -28 10 -66q-18 -35 -59 -18q-64 26 -119 26q-67 0 -105 -59q-40 -62 -102 -225z" />
<glyph unicode="&#x475;" horiz-adv-x="1034" d="M827 696l-280 -663q-23 -53 -66 -53q-41 0 -59 45l-387 882q-12 21 -6 49q6 29 30 41q27 12 51 0q22 -11 33 -36l349 -801l221 534q85 197 141 256q61 64 145 64q80 0 125 -45q31 -31 6 -66q-18 -28 -61 -12q-53 20 -76 20q-45 0 -78 -43q-32 -43 -88 -172z" />
<glyph unicode="&#x490;" horiz-adv-x="937" d="M856 1303h-567v-1237q0 -29 -17 -48q-16 -18 -45 -18t-45 18q-16 17 -16 48v1280q0 67 61 67h586v197q0 63 51 63t51 -63v-250q0 -57 -59 -57z" />
<glyph unicode="&#x491;" horiz-adv-x="727" d="M135 938q0 66 58 66h430v170q0 61 51 61t51 -61v-218q0 -63 -63 -63h-412v-827q0 -66 -57 -66q-58 0 -58 66v872z" />
<glyph unicode="&#x492;" horiz-adv-x="997" d="M920 1303h-594v-484h475q24 0 39 -15q14 -14 14 -36q0 -49 -53 -49h-475v-653q0 -29 -17 -48q-17 -18 -45 -18t-45 18q-16 17 -16 48v653h-137q-54 0 -54 49q0 21 15 36t39 15h137v527q0 67 61 67h656q24 0 39 -16q16 -18 16 -39q0 -24 -16 -40q-15 -15 -39 -15z" />
<glyph unicode="&#x493;" horiz-adv-x="788" d="M731 897h-440v-340h358q56 0 56 -49t-56 -49h-358v-393q0 -66 -58 -66q-57 0 -57 66v393h-119q-55 0 -55 49t55 49h119v381q0 66 57 66h498q24 0 40 -16q15 -15 15 -38q0 -53 -55 -53z" />
<glyph unicode="&#x494;" horiz-adv-x="1159" d="M633 -219q-145 0 -240 39q-61 27 -49 76q12 55 82 32q120 -37 217 -37q161 0 233 107q72 106 72 281q0 181 -108 266q-109 86 -295 86q-129 0 -256 -31v-534q0 -29 -17 -48q-16 -18 -45 -18t-45 18q-16 17 -16 48v1280q0 67 61 67h656q25 0 40 -16q15 -17 15 -39 q0 -25 -15 -40t-40 -15h-594v-594q127 32 264 32q245 0 383 -110q139 -111 139 -350q0 -220 -106 -360t-336 -140z" />
<glyph unicode="&#x495;" horiz-adv-x="1011" d="M555 -430q-126 0 -203 37q-52 27 -45 71q12 51 74 33q107 -35 184 -35q133 0 188 94q54 93 54 269q0 185 -78 267q-78 83 -244 83q-121 0 -235 -35v-288q0 -66 -57 -66q-58 0 -58 66v872q0 66 58 66h497q24 0 40 -16q15 -15 15 -38q0 -53 -55 -53h-440v-436 q120 35 239 35q439 0 439 -455q0 -471 -373 -471z" />
<glyph unicode="&#x496;" horiz-adv-x="1779" d="M1632 111h111q59 0 59 -58v-286q0 -66 -55 -66t-55 66v233h-93q-34 0 -71 37l-629 639v-610q0 -31 -16 -48q-17 -18 -45 -18t-45 18q-17 19 -17 48v612l-624 -639q-66 -66 -111 -19q-16 16 -11 46q4 28 29 53l598 596l-540 573q-60 66 -15 111q46 45 113 -31l561 -623 v603q0 28 17 47q17 18 45 18t45 -18q16 -17 16 -47v-603l569 625q62 68 107 31q44 -37 -19 -103l-534 -577z" />
<glyph unicode="&#x497;" horiz-adv-x="1318" d="M1167 29l-442 444v-407q0 -66 -57 -66q-58 0 -58 66v407l-444 -442q-55 -55 -92 -17q-37 37 14 86l422 404l-391 401q-45 45 -8 82q39 39 88 -12l411 -436v399q0 66 58 66q57 0 57 -66v-397l416 432q51 51 88 16q33 -35 -12 -80l-394 -397l426 -406h82q64 0 64 -61v-225 q0 -66 -54 -66q-53 0 -53 66v180h-59q-33 0 -62 29z" />
<glyph unicode="&#x498;" horiz-adv-x="1136" d="M166 53q-66 33 -43 86q18 46 100 13q151 -62 320 -62q177 0 281 81t104 222q0 272 -412 277h-125q-55 0 -55 55q0 25 15 40t40 15h101q179 0 282 74t103 219q0 109 -78 179q-79 71 -232 71q-163 0 -299 -68q-83 -41 -106 -4q-38 53 61 103q158 80 352 80q198 0 313 -88 q116 -89 116 -263q0 -258 -256 -346q145 -24 226 -114t81 -222q0 -193 -125 -301q-124 -107 -330 -118v-215q0 -66 -55 -66q-56 0 -56 66v215q-202 11 -323 71z" />
<glyph unicode="&#x499;" horiz-adv-x="899" d="M481 1024q159 0 243 -73q83 -72 83 -187q0 -84 -53 -152q-52 -67 -150 -88q105 -11 165 -79q60 -69 60 -175q0 -120 -84 -199q-83 -78 -237 -89v-162q0 -66 -53 -66q-54 0 -54 66v162q-169 11 -276 73q-53 33 -29 78q23 41 86 12q134 -59 269 -59q133 0 196 54 q64 55 64 136q0 100 -74 147q-73 46 -223 46h-82q-58 0 -58 51t58 51h76q280 0 280 183q0 164 -221 164q-107 0 -242 -62q-62 -30 -84 4q-29 47 31 82q134 82 309 82z" />
<glyph unicode="&#x49a;" horiz-adv-x="1187" d="M1044 111h103q59 0 59 -58v-286q0 -66 -55 -66t-55 66v233h-80q-28 0 -68 35l-659 637v-606q0 -29 -17 -48q-16 -18 -45 -18t-45 18q-16 17 -16 48v1282q0 30 16 47q16 18 45 18t45 -18q17 -19 17 -47v-598l626 628q58 62 103 17q40 -44 -17 -101l-583 -571z" />
<glyph unicode="&#x49b;" horiz-adv-x="925" d="M819 106h82q64 0 64 -61v-225q0 -66 -54 -66q-53 0 -53 66v180h-63q-25 0 -58 27l-487 438v-399q0 -66 -57 -66q-58 0 -58 66v872q0 66 58 66q57 0 57 -66v-397l444 436q49 49 88 10q37 -37 -10 -84l-414 -389z" />
<glyph unicode="&#x49c;" horiz-adv-x="1157" d="M391 432v232h-102v-598q0 -29 -17 -48q-16 -18 -45 -18t-45 18q-16 17 -16 48v1282q0 30 16 47q16 18 45 18t45 -18q17 -19 17 -47v-590h102v186q0 62 49 62t49 -62v-186h95l383 604q43 71 92 43q47 -29 2 -96l-377 -588l424 -600q52 -72 6 -109q-51 -39 -100 33 l-432 619h-93v-232q0 -61 -49 -61t-49 61z" />
<glyph unicode="&#x49d;" horiz-adv-x="911" d="M336 256v203h-86v-393q0 -66 -57 -66q-58 0 -58 66v872q0 66 58 66q57 0 57 -66v-393h86v182q0 55 43 55q41 0 41 -55v-182h67l252 416q37 62 80 34q37 -24 2 -84l-243 -401l294 -414q17 -24 16 -48q-2 -26 -20 -38q-49 -32 -88 25l-293 424h-67v-203q0 -55 -41 -55 q-43 0 -43 55z" />
<glyph unicode="&#x4a0;" horiz-adv-x="1284" d="M362 66v1232h-305q-25 0 -40 17t-15 41t15 41q15 16 40 16h369q59 0 59 -65v-596l627 626q62 57 102 17q41 -44 -16 -101l-582 -571l613 -600q55 -55 18 -100q-41 -47 -108 16l-654 633v-606q0 -31 -16 -48q-17 -18 -45 -18t-45 18q-17 19 -17 48z" />
<glyph unicode="&#x4a1;" horiz-adv-x="1019" d="M287 66v831h-230q-55 0 -55 53q0 23 15 38q16 16 40 16h285q59 0 59 -66v-395l445 434q49 49 88 10q37 -37 -10 -84l-410 -391l457 -406q49 -45 12 -88q-37 -40 -94 9l-488 438v-399q0 -66 -57 -66t-57 66z" />
<glyph unicode="&#x4a2;" horiz-adv-x="1536" d="M1139 778v570q0 30 16 47q17 18 45 18t45 -18q17 -19 17 -47v-1237h131q59 0 59 -58v-286q0 -66 -55 -66q-56 0 -56 66v233h-141q-28 0 -45 18q-16 17 -16 48v602h-850v-602q0 -29 -17 -48q-16 -18 -45 -18t-45 18q-16 17 -16 48v1282q0 30 16 47q16 18 45 18t45 -18 q17 -19 17 -47v-570h850z" />
<glyph unicode="&#x4a3;" horiz-adv-x="1167" d="M852 571v367q0 66 57 66q58 0 58 -66v-832h73q64 0 64 -61v-225q0 -66 -53 -66q-54 0 -54 66v180h-88q-57 0 -57 66v399h-602v-399q0 -66 -57 -66q-58 0 -58 66v872q0 66 58 66q57 0 57 -66v-367h602z" />
<glyph unicode="&#x4a4;" horiz-adv-x="1933" d="M1855 1303h-593v-1237q0 -29 -17 -48q-17 -18 -45 -18t-45 18q-16 17 -16 48v602h-850v-602q0 -29 -17 -48q-16 -18 -45 -18t-45 18q-16 17 -16 48v1282q0 30 16 47q16 18 45 18t45 -18q17 -19 17 -47v-570h850v568q0 67 61 67h655q25 0 40 -16q16 -18 16 -39 q0 -24 -16 -40q-15 -15 -40 -15z" />
<glyph unicode="&#x4a5;" horiz-adv-x="1464" d="M1407 897h-440v-831q0 -66 -58 -66q-57 0 -57 66v399h-602v-399q0 -66 -57 -66q-58 0 -58 66v872q0 66 58 66q57 0 57 -66v-367h602v367q0 66 57 66h498q24 0 40 -16q15 -15 15 -38q0 -53 -55 -53z" />
<glyph unicode="&#x4aa;" horiz-adv-x="1298" d="M768 1323q-252 0 -394 -175q-143 -176 -143 -446q0 -284 146 -448t383 -164q182 0 346 107q66 43 96 4q33 -43 -37 -99q-128 -95 -342 -118v-217q0 -66 -55 -66t-55 66v215q-308 12 -458 205q-151 195 -151 518q0 325 181 527t487 202q224 0 377 -105q66 -45 35 -92 q-29 -45 -101 0q-140 86 -315 86z" />
<glyph unicode="&#x4ab;" horiz-adv-x="952" d="M870 74q-108 -78 -268 -90v-164q0 -66 -53 -66t-53 66v162q-203 15 -307 147q-105 133 -105 367q0 239 140 383q141 145 360 145q150 0 258 -63q61 -34 32 -84q-24 -39 -83 -13q-125 54 -220 54q-158 0 -263 -117t-105 -307q0 -195 91 -301q92 -107 257 -107 q133 0 252 70q71 43 98 6q30 -45 -31 -88z" />
<glyph unicode="&#x4ae;" horiz-adv-x="1136" d="M553 66v555l-463 686q-39 61 6 94q52 35 99 -33l423 -625l412 631q16 27 41 36t51 -7q43 -30 2 -90l-448 -682v-565q0 -29 -17 -48q-17 -18 -45 -18t-45 18q-16 17 -16 48z" />
<glyph unicode="&#x4af;" horiz-adv-x="950" d="M948 911l-385 -888v-367q0 -66 -57 -66t-57 66v364l-386 879q-30 75 23 98q56 24 84 -43l344 -796l330 790q30 72 84 49q47 -18 20 -86z" />
<glyph unicode="&#x4b0;" horiz-adv-x="1136" d="M555 66v458h-266q-25 0 -40 15q-16 16 -16 36q0 52 56 52h262l-459 680q-41 64 6 94q52 35 99 -33l421 -639l414 645q16 27 41 36t51 -7q43 -30 2 -90l-448 -686h266q55 0 55 -52q0 -21 -15 -36t-40 -15h-266v-458q0 -31 -16 -48q-16 -18 -46 -18q-28 0 -45 18 q-16 17 -16 48z" />
<glyph unicode="&#x4b1;" horiz-adv-x="950" d="M784 -98h-221v-246q0 -66 -57 -66t-57 66v246h-222q-55 0 -55 49t55 49h222l-386 899q-30 75 23 98q56 24 84 -43l344 -827l330 821q30 72 84 49q47 -18 20 -86l-385 -911h221q56 0 56 -49t-56 -49z" />
<glyph unicode="&#x4b2;" horiz-adv-x="1298" d="M260 1370l397 -543l398 543q51 66 96 31q40 -33 -4 -92l-418 -568l469 -630h100q60 0 60 -58v-286q0 -66 -55 -66q-56 0 -56 66v233h-98q-25 0 -53 37l-449 612l-434 -604q-50 -70 -100 -33q-41 31 2 92l463 631l-422 563q-47 64 0 103q51 43 104 -31z" />
<glyph unicode="&#x4b3;" horiz-adv-x="972" d="M223 969l279 -369l284 373q41 56 88 18q40 -31 -4 -88l-297 -377l328 -420h84q64 0 64 -61v-225q0 -66 -54 -66q-53 0 -53 66v180h-65q-37 0 -64 33l-315 401l-310 -399q-19 -26 -43 -33q-25 -8 -49 10q-37 33 8 90l324 414l-293 379q-45 59 -2 96q45 39 90 -22z" />
<glyph unicode="&#x4b6;" horiz-adv-x="1298" d="M901 66v579q-191 -133 -381 -133q-226 0 -331 108t-105 375v353q0 30 16 47q16 18 45 18t45 -18q17 -19 17 -47v-330q0 -218 72 -307q72 -88 245 -88q198 0 377 147v578q0 28 17 47q16 18 45 18t45 -18q16 -17 16 -47v-1237h131q59 0 59 -58v-286q0 -66 -55 -66t-55 66 v233h-141q-29 0 -45 18q-17 19 -17 48z" />
<glyph unicode="&#x4b7;" horiz-adv-x="995" d="M178 938v-223q0 -143 54 -206t184 -63q145 0 264 93v399q0 66 57 66q58 0 58 -66v-832h73q64 0 64 -61v-225q0 -66 -53 -66q-54 0 -54 66v180h-88q-57 0 -57 66v356q-128 -82 -277 -82q-171 0 -256 80q-84 79 -84 278v240q0 66 58 66q57 0 57 -66z" />
<glyph unicode="&#x4b8;" horiz-adv-x="1189" d="M494 328v184q-212 5 -311 113t-99 370v353q0 30 16 47q16 18 45 18t45 -18q17 -19 17 -47v-330q0 -210 64 -298q65 -89 223 -97v217q0 61 53 61t53 -61v-211q156 24 301 143v576q0 28 17 47q16 18 45 18t45 -18q16 -17 16 -47v-1282q0 -31 -16 -48q-16 -18 -45 -18 t-45 18q-17 19 -17 48v579q-146 -104 -301 -127v-190q0 -62 -53 -62t-53 62z" />
<glyph unicode="&#x4b9;" horiz-adv-x="929" d="M379 184v156q-161 5 -238 86q-78 83 -78 272v240q0 66 58 66q57 0 57 -66v-223q0 -135 46 -197q48 -65 155 -72v160q0 60 49 60t49 -60v-155q109 15 203 88v399q0 66 57 66q58 0 58 -66v-872q0 -66 -58 -66q-57 0 -57 66v356q-98 -61 -203 -76v-162q0 -59 -49 -59t-49 59 z" />
<glyph unicode="&#x4ba;" horiz-adv-x="1189" d="M285 1348v-580q191 133 381 133q226 0 330 -107q106 -109 106 -376v-352q0 -29 -17 -48q-17 -18 -45 -18t-45 18q-16 17 -16 48v329q0 219 -72 307q-72 89 -245 89q-197 0 -377 -148v-577q0 -29 -17 -48q-16 -18 -45 -18t-45 18q-16 17 -16 48v1282q0 30 16 47 q16 18 45 18t45 -18q17 -19 17 -47z" />
<glyph unicode="&#x4bb;" horiz-adv-x="1107" d="M858 66v520q0 160 -58 245q-60 87 -200 87q-186 0 -268 -156q-82 -155 -82 -404v-292q0 -66 -57 -66q-58 0 -58 66v1282q0 65 58 65q57 0 57 -65v-576q49 127 148 190q97 62 212 62q198 0 280 -111q83 -112 83 -323v-524q0 -66 -58 -66q-57 0 -57 66z" />
<glyph unicode="&#x4c0;" horiz-adv-x="454" d="M166 66v1282q0 30 16 47q16 18 45 18t45 -18q17 -19 17 -47v-1282q0 -29 -17 -48q-16 -18 -45 -18t-45 18q-16 17 -16 48z" />
<glyph unicode="&#x4c3;" horiz-adv-x="1159" d="M166 66v1282q0 30 16 47q16 18 45 18t45 -18q17 -19 17 -47v-584h186l473 604q56 68 101 33q41 -33 -9 -96l-444 -564q222 -56 350 -229q129 -174 129 -414q0 -528 -413 -528q-118 0 -197 39q-61 28 -49 76q15 56 82 32q98 -36 182 -36q268 0 268 401q0 234 -143 402 q-144 169 -391 169h-125v-587q0 -29 -17 -48q-16 -18 -45 -18t-45 18q-16 17 -16 48z" />
<glyph unicode="&#x4c4;" horiz-adv-x="991" d="M557 -430q-134 0 -205 37q-59 28 -47 74q15 48 76 30q107 -35 184 -35q119 0 170 80q51 79 51 230q0 178 -106 317q-107 140 -268 141h-162v-378q0 -66 -57 -66q-58 0 -58 66v872q0 66 58 66q57 0 57 -66v-387h164l311 420q43 55 88 20q37 -27 -4 -84l-279 -375 q168 -50 272 -196q105 -147 105 -338q0 -196 -84 -312t-266 -116z" />
<glyph unicode="&#x4c7;" horiz-adv-x="1427" d="M1139 778v570q0 30 16 47q17 18 45 18t45 -18q17 -19 17 -47v-1420q0 -178 -66 -268t-221 -90q-121 0 -189 37q-49 27 -32 74q16 44 75 26q88 -26 140 -26q109 0 139 61q31 64 31 205v721h-850v-602q0 -29 -17 -48q-16 -18 -45 -18t-45 18q-16 17 -16 48v1282q0 30 16 47 q16 18 45 18t45 -18q17 -19 17 -47v-570h850z" />
<glyph unicode="&#x4c8;" horiz-adv-x="1101" d="M852 571v367q0 66 57 66q58 0 58 -66v-1010q0 -177 -65 -268q-64 -90 -218 -90q-120 0 -188 37q-49 27 -33 71q15 43 76 25q91 -27 139 -27q108 0 141 62q33 61 33 205v522h-602v-399q0 -66 -57 -66q-58 0 -58 66v872q0 66 58 66q57 0 57 -66v-367h602z" />
<glyph unicode="&#x4d0;" horiz-adv-x="1230" d="M707 1384l514 -1288q24 -66 -23 -90q-61 -28 -90 41l-158 404h-620l-146 -390q-27 -78 -86 -57q-54 20 -24 94l499 1278q23 58 70 58q43 0 64 -50zM637 1249l-264 -688h536zM641 1536q-107 0 -189 45q-84 46 -118 102q-38 58 0 89q39 30 84 -23q96 -111 223 -111 q135 0 225 111q44 53 84 23q38 -31 0 -89q-34 -57 -119 -102q-84 -45 -190 -45z" />
<glyph unicode="&#x4d1;" horiz-adv-x="1015" d="M233 860q-74 -30 -92 12q-21 49 35 78q145 74 326 74q379 0 379 -362v-596q0 -66 -58 -66q-57 0 -57 66v153q-44 -103 -141 -170q-99 -69 -250 -69q-153 0 -242 76q-90 76 -90 223q0 94 40 162q41 69 107 106q65 36 144 53q74 16 164 16q128 0 268 -20v57q0 265 -274 265 q-109 0 -259 -58zM389 86q177 0 277 117q100 116 100 252v39q-133 20 -252 20q-352 0 -352 -231q0 -92 59 -144q61 -53 168 -53zM489 1149q-109 0 -180 52q-70 51 -98 116q-23 58 16 80q45 24 78 -33q67 -115 184 -115q118 0 185 115q33 56 78 33q40 -21 16 -80 q-28 -65 -98 -116q-71 -52 -181 -52z" />
<glyph unicode="&#x4d2;" horiz-adv-x="1230" d="M707 1384l514 -1288q24 -66 -23 -90q-61 -28 -90 41l-158 404h-620l-146 -390q-27 -78 -86 -57q-54 20 -24 94l499 1278q23 58 70 58q43 0 64 -50zM637 1249l-264 -688h536zM358 1655q0 42 26 68t69 26t71 -26q27 -25 27 -68q0 -90 -98 -90q-95 0 -95 90zM739 1655 q0 42 26 68t71 26q42 0 69 -27t27 -67q0 -43 -26 -67q-24 -23 -70 -23q-97 0 -97 90z" />
<glyph unicode="&#x4d3;" horiz-adv-x="1015" d="M233 860q-74 -30 -92 12q-21 49 35 78q145 74 326 74q379 0 379 -362v-596q0 -66 -58 -66q-57 0 -57 66v153q-44 -103 -141 -170q-99 -69 -250 -69q-153 0 -242 76q-90 76 -90 223q0 94 40 162q41 69 107 106q65 36 144 53q74 16 164 16q128 0 268 -20v57q0 265 -274 265 q-109 0 -259 -58zM389 86q177 0 277 117q100 116 100 252v39q-133 20 -252 20q-352 0 -352 -231q0 -92 59 -144q61 -53 168 -53zM240 1262q0 35 22 60q23 26 62 26q38 0 62 -26t24 -60q0 -36 -24 -60t-62 -24q-40 0 -62 24q-22 23 -22 60zM578 1262q0 35 22 60q23 26 62 26 q38 0 62 -26t24 -60q0 -36 -24 -60t-62 -24q-40 0 -62 24q-22 23 -22 60z" />
<glyph unicode="&#x4d4;" horiz-adv-x="1800" d="M1733 0h-740q-31 0 -51 20t-20 50v381h-486l-260 -392q-57 -90 -113 -49q-41 30 5 103l847 1247q35 53 86 53h709q25 0 40 -16q15 -17 15 -39q0 -25 -15 -40t-40 -15h-666v-510h543q25 0 40 -17q15 -16 15 -39q0 -25 -15 -40t-40 -15h-543v-571h689q25 0 40 -17 q15 -16 15 -39q0 -25 -15 -40t-40 -15zM922 1180l-412 -619h412v619z" />
<glyph unicode="&#x4d5;" horiz-adv-x="1708" d="M1239 86q128 0 254 61q60 28 82 -10q24 -44 -25 -78q-121 -79 -311 -79q-167 0 -275 74q-110 75 -149 222q-118 -296 -438 -296q-154 0 -244 72t-90 216q0 96 36 162t103 100q69 35 147 50q74 14 185 14h254v59q0 265 -276 265q-121 0 -256 -56q-77 -30 -95 10 q-21 47 35 78q134 74 326 74q314 0 348 -250q112 250 389 250q185 0 285 -108q100 -107 100 -259q0 -53 -10 -96q-16 -69 -101 -69h-636q1 -195 97 -301q94 -105 265 -105zM389 86q179 0 279 114q100 113 100 249v43h-260q-170 0 -259 -46q-87 -45 -87 -174q0 -87 62 -136 q64 -50 165 -50zM1231 918q-143 0 -237 -85t-111 -239h633q12 147 -57 235q-69 89 -228 89z" />
<glyph unicode="&#x4d6;" horiz-adv-x="1110" d="M1001 0h-763q-34 0 -53 20t-19 50v1276q0 30 17 48q18 19 48 19h748q25 0 40 -16q15 -17 15 -39q0 -25 -15 -40t-40 -15h-690v-510h567q25 0 40 -17q15 -16 15 -39q0 -25 -15 -40t-40 -15h-567v-571h712q25 0 40 -17q16 -18 16 -39q0 -24 -16 -40q-15 -15 -40 -15z M592 1536q-108 0 -190 45t-117 102q-38 58 0 89q39 30 84 -23q95 -111 223 -111q135 0 225 111q44 53 84 23q38 -31 0 -89q-34 -57 -119 -102q-84 -45 -190 -45z" />
<glyph unicode="&#x4d7;" horiz-adv-x="1026" d="M557 86q128 0 254 61q60 28 82 -10q24 -44 -25 -78q-121 -79 -311 -79q-235 0 -354 135q-119 136 -119 381q0 231 125 380q124 148 342 148q191 0 291 -114q100 -113 100 -275q0 -49 -6 -88q-15 -101 -109 -101h-626q12 -173 104 -267q91 -93 252 -93zM543 918 q-149 0 -240 -97q-90 -96 -102 -272h628q5 30 5 78q-4 132 -77 212q-72 79 -214 79zM551 1149q-109 0 -180 52q-72 52 -99 116q-23 57 17 80q45 24 78 -33q64 -115 184 -115t184 115q33 56 78 33q40 -21 16 -80q-28 -65 -98 -116q-71 -52 -180 -52z" />
<glyph unicode="&#x4d8;" horiz-adv-x="1341" d="M635 1323q-169 0 -340 -80q-64 -29 -88 4q-14 19 -6 44q7 23 30 38q162 105 410 105q322 0 459 -190t137 -529q0 -111 -15 -210q-14 -93 -57 -198q-40 -97 -104 -169q-63 -70 -167 -114q-105 -44 -239 -44q-279 0 -414 165q-137 167 -137 426q0 138 24 189t87 51h893 q-18 247 -130 380q-111 132 -343 132zM653 90q241 0 349 159q109 160 110 451h-883q-8 -61 -8 -118q1 -235 114 -364q111 -128 318 -128z" />
<glyph unicode="&#x4d9;" horiz-adv-x="997" d="M84 399q0 103 21 145t98 42h594q-30 332 -320 332q-112 0 -237 -52q-79 -30 -97 8q-21 45 31 74q134 76 303 76q233 0 335 -142q101 -141 101 -378q0 -149 -40 -260q-41 -114 -140 -189t-252 -75q-197 0 -297 108q-100 107 -100 311zM485 82q306 0 316 397h-606 q-7 -51 -7 -84q-4 -151 72 -232t225 -81z" />
<glyph unicode="&#x4da;" horiz-adv-x="1341" d="M635 1323q-169 0 -340 -80q-64 -29 -88 4q-14 19 -6 44q7 23 30 38q162 105 410 105q322 0 459 -190t137 -529q0 -111 -15 -210q-14 -93 -57 -198q-40 -97 -104 -169q-63 -70 -167 -114q-105 -44 -239 -44q-279 0 -414 165q-137 167 -137 426q0 138 24 189t87 51h893 q-18 247 -130 380q-111 132 -343 132zM653 90q241 0 349 159q109 160 110 451h-883q-8 -61 -8 -118q1 -235 114 -364q111 -128 318 -128zM360 1655q0 42 26 68t69 26t71 -26q27 -25 27 -68q0 -90 -98 -90q-95 0 -95 90zM741 1655q0 42 26 68t71 26q42 0 69 -27t27 -67 q0 -43 -26 -67q-24 -23 -70 -23q-97 0 -97 90z" />
<glyph unicode="&#x4db;" horiz-adv-x="997" d="M84 399q0 103 21 145t98 42h594q-30 332 -320 332q-112 0 -237 -52q-79 -30 -97 8q-21 45 31 74q134 76 303 76q233 0 335 -142q101 -141 101 -378q0 -149 -40 -260q-41 -114 -140 -189t-252 -75q-197 0 -297 108q-100 107 -100 311zM485 82q306 0 316 397h-606 q-7 -51 -7 -84q-4 -151 72 -232t225 -81zM236 1262q0 35 22 60q23 26 61 26q39 0 63 -26t24 -60q0 -36 -24 -60t-63 -24t-61 24q-22 23 -22 60zM573 1262q0 34 23 60t61 26q39 0 63 -26q23 -24 23 -60q0 -37 -23 -60q-24 -24 -63 -24t-61 24q-23 25 -23 60z" />
<glyph unicode="&#x4dc;" horiz-adv-x="1671" d="M776 66v612l-624 -639q-66 -66 -111 -19q-16 16 -11 46q4 28 29 53l598 596l-540 573q-56 64 -17 109q47 50 115 -29l561 -623v603q0 28 17 47q17 18 45 18t45 -18q16 -17 16 -47v-603l569 625q66 72 107 31q41 -40 -19 -103l-534 -577l598 -596q60 -57 16 -105 q-46 -49 -108 17l-629 639v-610q0 -31 -16 -48q-17 -18 -45 -18t-45 18q-17 19 -17 48zM553 1655q0 42 26 68t68 26q44 0 72 -26q26 -25 26 -68q0 -90 -98 -90q-94 0 -94 90zM934 1655q0 43 25 68q26 26 71 26q43 0 70 -27q26 -26 26 -67q0 -43 -25 -67q-24 -23 -71 -23 q-96 0 -96 90z" />
<glyph unicode="&#x4dd;" horiz-adv-x="1263" d="M610 66v407l-444 -442q-55 -55 -92 -17q-37 37 14 86l422 404l-391 401q-45 45 -8 82q39 39 88 -12l411 -436v399q0 66 58 66q57 0 57 -66v-397l416 432q51 51 88 16q33 -35 -12 -80l-394 -397l428 -408q50 -50 13 -88q-41 -43 -95 11l-444 446v-407q0 -66 -57 -66 q-58 0 -58 66zM414 1262q0 35 22 60q23 26 62 26q38 0 62 -26t24 -60q0 -36 -24 -60t-62 -24q-40 0 -62 24q-22 23 -22 60zM752 1262q0 35 22 60q23 26 62 26q38 0 62 -26t24 -60q0 -36 -24 -60t-62 -24q-40 0 -62 24q-22 23 -22 60z" />
<glyph unicode="&#x4de;" horiz-adv-x="1136" d="M166 53q-66 33 -43 86q18 46 100 13q151 -62 320 -62q177 0 281 81t104 222q0 272 -412 277h-125q-55 0 -55 55q0 25 15 40t40 15h101q179 0 282 74t103 219q0 109 -78 179q-79 71 -232 71q-163 0 -299 -68q-83 -41 -106 -4q-38 53 61 103q158 80 352 80q198 0 313 -88 q116 -89 116 -263q0 -258 -256 -346q145 -24 226 -114t81 -222q0 -202 -140 -312q-139 -109 -366 -109q-233 0 -383 73zM293 1655q0 43 25 68q26 26 69 26q44 0 72 -26q26 -25 26 -68q0 -90 -98 -90q-94 0 -94 90zM674 1655q0 43 25 68q26 26 71 26q43 0 70 -27 q26 -26 26 -67q0 -43 -25 -67q-24 -23 -71 -23q-96 0 -96 90z" />
<glyph unicode="&#x4df;" horiz-adv-x="899" d="M481 1024q159 0 243 -73q83 -72 83 -187q0 -84 -53 -152q-52 -67 -150 -88q105 -11 165 -79q60 -69 60 -175q0 -129 -96 -210q-95 -80 -268 -80q-215 0 -340 75q-53 33 -29 78q23 41 86 12q134 -59 269 -59q133 0 196 54q64 55 64 136q0 100 -74 147q-73 46 -223 46h-82 q-58 0 -58 51t58 51h76q280 0 280 183q0 164 -221 164q-107 0 -242 -62q-62 -30 -84 4q-29 47 31 82q134 82 309 82zM195 1262q0 35 22 60q23 26 62 26q38 0 62 -26t24 -60q0 -36 -24 -60t-62 -24q-39 0 -62 24q-22 23 -22 60zM532 1262q0 34 23 60t61 26q39 0 63 -26 q23 -24 23 -60q0 -37 -23 -60q-24 -24 -63 -24q-38 0 -61 24q-23 25 -23 60z" />
<glyph unicode="&#x4e2;" horiz-adv-x="1425" d="M289 1348v-1125l848 1151q30 39 65 39q58 0 58 -65v-1282q0 -29 -17 -48q-17 -18 -45 -18t-45 18q-16 17 -16 48v1126l-852 -1153q-30 -39 -64 -39q-25 0 -40 18t-15 48v1282q0 30 16 47q16 18 45 18t45 -18q17 -19 17 -47zM999 1591h-573q-53 0 -53 49q0 22 14 36 q16 16 39 16h573q23 0 39 -16q15 -15 15 -36q0 -49 -54 -49z" />
<glyph unicode="&#x4e3;" horiz-adv-x="1116" d="M866 66v745l-614 -782q-24 -29 -59 -29q-58 0 -58 66v872q0 66 58 66q57 0 57 -66v-752l616 789q24 29 58 29q57 0 57 -66v-872q0 -66 -57 -66q-58 0 -58 66zM823 1212h-516q-53 0 -53 50q0 21 14 35q16 16 39 16h516q23 0 39 -16q15 -15 15 -35q0 -50 -54 -50z" />
<glyph unicode="&#x4e4;" horiz-adv-x="1425" d="M289 1348v-1125l848 1151q30 39 65 39q58 0 58 -65v-1282q0 -29 -17 -48q-17 -18 -45 -18t-45 18q-16 17 -16 48v1126l-852 -1153q-30 -39 -64 -39q-25 0 -40 18t-15 48v1282q0 30 16 47q16 18 45 18t45 -18q17 -19 17 -47zM428 1655q0 42 26 68t68 26q44 0 72 -26 q27 -25 27 -68q0 -90 -99 -90q-94 0 -94 90zM809 1655q0 42 26 68t70 26q46 0 71 -27q25 -26 25 -67q0 -43 -25 -67q-24 -23 -71 -23q-96 0 -96 90z" />
<glyph unicode="&#x4e5;" horiz-adv-x="1116" d="M866 66v745l-614 -782q-24 -29 -59 -29q-58 0 -58 66v872q0 66 58 66q57 0 57 -66v-752l616 789q24 29 58 29q57 0 57 -66v-872q0 -66 -57 -66q-58 0 -58 66zM311 1262q0 34 23 60t61 26q39 0 63 -26q23 -24 23 -60q0 -37 -23 -60q-24 -24 -63 -24t-61 24q-23 25 -23 60z M649 1262q0 34 23 60t61 26q39 0 63 -26q23 -24 23 -60q0 -37 -23 -60q-24 -24 -63 -24t-61 24q-23 25 -23 60z" />
<glyph unicode="&#x4e6;" horiz-adv-x="1531" d="M104 707q0 317 174 523q173 204 488 204q316 0 488 -204q173 -205 173 -523q0 -319 -173 -524q-172 -203 -488 -203t-488 203q-174 206 -174 524zM231 707q0 -271 143 -444t392 -173t392 173q142 172 142 444q0 271 -142 443q-143 173 -392 173t-392 -173t-143 -443z M481 1655q0 42 26 68t68 26q44 0 72 -26q27 -25 27 -68q0 -90 -99 -90q-94 0 -94 90zM862 1655q0 42 26 68t70 26q45 0 71 -27q26 -28 26 -67q0 -43 -26 -67q-24 -23 -71 -23q-96 0 -96 90z" />
<glyph unicode="&#x4e7;" horiz-adv-x="1142" d="M84 502q0 226 129 374t358 148q230 0 359 -148t129 -374t-129 -374t-359 -148q-229 0 -358 148t-129 374zM203 502q0 -192 98 -303q99 -113 270 -113q172 0 271 113q98 111 98 303t-98 303q-99 113 -271 113q-171 0 -270 -113q-98 -111 -98 -303zM317 1262q0 34 23 60 t61 26q39 0 63 -26q23 -24 23 -60q0 -37 -23 -60q-24 -24 -63 -24t-61 24q-23 25 -23 60zM655 1262q0 34 23 60t61 26q39 0 63 -26q23 -24 23 -60q0 -37 -23 -60q-24 -24 -63 -24t-61 24q-23 25 -23 60z" />
<glyph unicode="&#x4e8;" horiz-adv-x="1531" d="M104 707q0 317 174 523q173 204 488 204q316 0 488 -204q173 -205 173 -523q0 -319 -173 -524q-172 -203 -488 -203t-488 203q-174 206 -174 524zM766 90q238 0 383 160q143 158 154 412h-1076q11 -254 154 -412q145 -160 385 -160zM766 1323q-234 0 -379 -154 q-143 -152 -158 -397h1074q-17 244 -159 397q-143 154 -378 154z" />
<glyph unicode="&#x4e9;" horiz-adv-x="1142" d="M84 502q0 226 129 374t358 148q230 0 359 -148t129 -374t-129 -374t-359 -148q-229 0 -358 148t-129 374zM571 86q161 0 259 99q97 99 108 272h-735q12 -175 109 -273t259 -98zM571 918q-156 0 -254 -96q-95 -94 -112 -259h731q-17 164 -113 259q-98 96 -252 96z" />
<glyph unicode="&#x4ea;" horiz-adv-x="1531" d="M104 707q0 317 174 523q173 204 488 204q316 0 488 -204q173 -205 173 -523q0 -319 -173 -524q-172 -203 -488 -203t-488 203q-174 206 -174 524zM766 90q238 0 383 160q143 158 154 412h-1076q11 -254 154 -412q145 -160 385 -160zM766 1323q-234 0 -379 -154 q-143 -152 -158 -397h1074q-17 244 -159 397q-143 154 -378 154zM481 1655q0 42 26 68t68 26q44 0 72 -26q27 -25 27 -68q0 -90 -99 -90q-94 0 -94 90zM862 1655q0 42 26 68t70 26q45 0 71 -27q26 -28 26 -67q0 -43 -26 -67q-24 -23 -71 -23q-96 0 -96 90z" />
<glyph unicode="&#x4eb;" horiz-adv-x="1142" d="M84 502q0 226 129 374t358 148q230 0 359 -148t129 -374t-129 -374t-359 -148q-229 0 -358 148t-129 374zM571 86q161 0 259 99q97 99 108 272h-735q12 -175 109 -273t259 -98zM571 918q-156 0 -254 -96q-95 -94 -112 -259h731q-17 164 -113 259q-98 96 -252 96z M317 1262q0 34 23 60t61 26q39 0 63 -26q23 -24 23 -60q0 -37 -23 -60q-24 -24 -63 -24t-61 24q-23 25 -23 60zM655 1262q0 34 23 60t61 26q39 0 63 -26q23 -24 23 -60q0 -37 -23 -60q-24 -24 -63 -24t-61 24q-23 25 -23 60z" />
<glyph unicode="&#x4ee;" horiz-adv-x="1189" d="M643 334l-539 966q-40 76 7 105q58 35 98 -43l496 -905l376 897q30 76 88 53q47 -18 19 -90l-389 -911q-52 -123 -83 -184q-30 -60 -75 -126q-44 -65 -96 -91q-50 -25 -121 -25q-104 0 -182 45q-64 35 -37 88q21 40 92 12q84 -35 131 -35q73 0 120 61q44 57 95 183z M950 1591h-573q-53 0 -53 49q0 22 14 36q16 16 39 16h573q23 0 39 -16q15 -15 15 -36q0 -49 -54 -49z" />
<glyph unicode="&#x4ef;" horiz-adv-x="903" d="M12 -393q-65 37 -47 86q18 47 103 8q53 -25 106 -25q38 0 71 19q31 18 54 42q24 26 47 76q30 66 38 86l40 105l-371 897q-30 74 25 96q56 23 86 -51l321 -805l297 803q29 74 86 53q48 -18 19 -92l-355 -917q-92 -242 -165 -330t-201 -88q-87 0 -154 37zM727 1212h-516 q-53 0 -53 50q0 21 14 35q16 16 39 16h516q23 0 39 -16q14 -14 14 -35q0 -50 -53 -50z" />
<glyph unicode="&#x4f0;" horiz-adv-x="1189" d="M643 334l-539 966q-40 76 7 105q58 35 98 -43l496 -905l376 897q30 76 88 53q47 -18 19 -90l-389 -911q-52 -123 -83 -184q-30 -60 -75 -126q-44 -65 -96 -91q-50 -25 -121 -25q-104 0 -182 45q-64 35 -37 88q21 40 92 12q84 -35 131 -35q73 0 120 61q44 57 95 183z M375 1655q0 43 25 68q26 26 69 26q44 0 72 -26q26 -25 26 -68q0 -90 -98 -90q-94 0 -94 90zM756 1655q0 43 25 68q26 26 71 26q46 0 71 -27q25 -26 25 -67q0 -43 -25 -67q-24 -23 -71 -23q-96 0 -96 90z" />
<glyph unicode="&#x4f1;" horiz-adv-x="903" d="M12 -393q-65 37 -47 86q18 47 103 8q53 -25 106 -25q38 0 71 19q31 18 54 42q24 26 47 76q30 66 38 86l40 105l-371 897q-30 74 25 96q56 23 86 -51l321 -805l297 803q29 74 86 53q48 -18 19 -92l-355 -917q-92 -242 -165 -330t-201 -88q-87 0 -154 37zM221 1262 q0 34 23 60t61 26q39 0 63 -26q23 -24 23 -60q0 -37 -23 -60q-24 -24 -63 -24t-61 24q-23 25 -23 60zM559 1262q0 34 23 60t61 26q39 0 63 -26q23 -24 23 -60q0 -37 -23 -60q-24 -24 -63 -24t-61 24q-23 25 -23 60z" />
<glyph unicode="&#x4f2;" horiz-adv-x="1189" d="M643 334l-539 966q-40 76 7 105q58 35 98 -43l496 -905l376 897q30 76 88 53q47 -18 19 -90l-389 -911q-52 -123 -83 -184q-30 -60 -75 -126q-44 -65 -96 -91q-50 -25 -121 -25q-104 0 -182 45q-64 35 -37 88q21 40 92 12q84 -35 131 -35q73 0 120 61q44 57 95 183z M788 1724l-368 -188q-69 -35 -90 8q-25 48 41 82l370 191q70 35 93 -7q28 -48 -46 -86zM1206 1724l-368 -188q-69 -35 -90 8q-25 48 40 82l371 191q69 34 92 -7q28 -49 -45 -86z" />
<glyph unicode="&#x4f3;" horiz-adv-x="903" d="M12 -393q-65 37 -47 86q18 47 103 8q53 -25 106 -25q38 0 71 19q31 18 54 42q24 26 47 76q30 66 38 86l40 105l-371 897q-30 74 25 96q56 23 86 -51l321 -805l297 803q29 74 86 53q48 -18 19 -92l-355 -917q-92 -242 -165 -330t-201 -88q-87 0 -154 37zM643 1356 l-297 -207q-62 -45 -90 -2q-30 43 33 86l297 207q57 43 86 2q35 -45 -29 -86zM952 1356l-297 -207q-62 -45 -90 -2q-30 43 33 86l297 207q57 43 86 2q35 -45 -29 -86z" />
<glyph unicode="&#x4f4;" horiz-adv-x="1189" d="M901 66v579q-191 -133 -381 -133q-226 0 -331 108t-105 375v353q0 30 16 47q16 18 45 18t45 -18q17 -19 17 -47v-330q0 -218 72 -307q72 -88 245 -88q198 0 377 147v578q0 28 17 47q16 18 45 18t45 -18q16 -17 16 -47v-1282q0 -31 -16 -48q-16 -18 -45 -18t-45 18 q-17 19 -17 48zM289 1655q0 43 25 68q26 26 69 26q44 0 72 -26q26 -25 26 -68q0 -90 -98 -90q-94 0 -94 90zM670 1655q0 43 25 68q26 26 71 26q46 0 71 -27q25 -26 25 -67q0 -43 -25 -67q-24 -23 -71 -23q-96 0 -96 90z" />
<glyph unicode="&#x4f5;" horiz-adv-x="929" d="M178 938v-223q0 -143 54 -206t184 -63q145 0 264 93v399q0 66 57 66q58 0 58 -66v-872q0 -66 -58 -66q-57 0 -57 66v356q-128 -82 -277 -82q-171 0 -256 80q-84 79 -84 278v240q0 66 58 66q57 0 57 -66zM170 1262q0 34 23 60t61 26t62 -26t24 -60q0 -36 -24 -60t-62 -24 t-61 24q-23 25 -23 60zM508 1262q0 35 22 60q23 26 62 26q38 0 62 -26t24 -60q0 -36 -24 -60t-62 -24q-40 0 -62 24q-22 23 -22 60z" />
<glyph unicode="&#x4f8;" horiz-adv-x="1550" d="M1262 66v1282q0 30 16 47q16 18 45 18t45 -18q16 -17 16 -47v-1282q0 -31 -16 -48q-16 -18 -45 -18t-45 18q-16 17 -16 48zM514 -10q267 0 394 122q126 121 126 328q0 120 -41 207q-40 85 -113 132q-71 46 -156 66q-80 19 -185 19q-117 0 -250 -20v504q0 28 -17 47 q-16 18 -45 18t-45 -18q-16 -17 -16 -47v-1264q0 -68 61 -78q103 -16 287 -16zM514 100q-115 0 -225 11v622q130 21 239 21q379 0 379 -318q0 -158 -89 -247t-304 -89zM489 1655q0 42 26 68t69 26t71 -26q27 -25 27 -68q0 -90 -98 -90q-95 0 -95 90zM870 1655q0 42 26 68 t71 26q44 0 70 -27q26 -28 26 -67q0 -43 -26 -67q-24 -23 -70 -23q-97 0 -97 90z" />
<glyph unicode="&#x4f9;" horiz-adv-x="1226" d="M977 66v872q0 66 57 66q58 0 58 -66v-872q0 -66 -58 -66q-57 0 -57 66zM135 938v-856q0 -56 58 -74q57 -18 219 -18q120 0 208 35t128 90q40 54 58 108q17 50 17 107q0 332 -389 332q-82 0 -184 -17v293q0 66 -57 66q-58 0 -58 -66zM399 96q-81 0 -149 6v441 q106 12 176 12q279 0 279 -225q0 -234 -306 -234zM360 1262q0 34 23 60t61 26q39 0 63 -26q23 -24 23 -60q0 -37 -23 -60q-24 -24 -63 -24q-38 0 -61 24q-23 25 -23 60zM698 1262q0 34 23 60t61 26q39 0 63 -26q23 -24 23 -60q0 -37 -23 -60q-24 -24 -63 -24q-38 0 -61 24 q-23 25 -23 60z" />
<glyph unicode="&#x2013;" horiz-adv-x="692" d="M614 500h-536q-55 0 -55 53q0 23 15 38t40 15h536q25 0 40 -15q16 -16 16 -38q0 -53 -56 -53z" />
<glyph unicode="&#x2014;" horiz-adv-x="1191" d="M1114 500h-1036q-55 0 -55 53q0 23 15 38t40 15h1036q25 0 40 -15t15 -38q0 -53 -55 -53z" />
<glyph unicode="&#x2018;" horiz-adv-x="432" d="M340 995l-184 342q-33 59 14 88q22 15 48 6q25 -9 40 -36l184 -342q38 -69 -10 -97q-57 -30 -92 39z" />
<glyph unicode="&#x2019;" horiz-adv-x="432" d="M342 1337l-184 -342q-35 -69 -92 -39q-48 28 -11 97l185 342q15 27 40 36q26 9 48 -6q47 -29 14 -88z" />
<glyph unicode="&#x201a;" horiz-adv-x="432" d="M342 86l-184 -342q-35 -69 -92 -39q-48 28 -11 96l185 342q15 27 40 36q26 9 48 -5q47 -29 14 -88z" />
<glyph unicode="&#x201c;" horiz-adv-x="657" d="M340 995l-184 342q-33 59 14 88q22 15 48 6q25 -9 40 -36l184 -342q38 -69 -10 -97q-57 -30 -92 39zM565 995l-184 342q-33 59 14 88q23 15 48 6t40 -36l185 -342q37 -69 -11 -97q-57 -30 -92 39z" />
<glyph unicode="&#x201d;" horiz-adv-x="657" d="M342 1337l-184 -342q-35 -69 -92 -39q-48 28 -11 97l185 342q15 27 40 36q26 9 48 -6q47 -29 14 -88zM567 1337l-184 -342q-35 -69 -92 -39q-48 28 -10 97l184 342q15 27 40 36t48 -6q47 -29 14 -88z" />
<glyph unicode="&#x201e;" horiz-adv-x="657" d="M342 86l-184 -342q-35 -69 -92 -39q-48 28 -11 96l185 342q15 27 40 36q26 9 48 -5q47 -29 14 -88zM567 86l-184 -342q-35 -69 -92 -39q-47 27 -10 96l184 342q15 27 40 36q26 9 48 -5q47 -29 14 -88z" />
<glyph unicode="&#x2020;" horiz-adv-x="757" d="M680 901h-246v-1245q0 -66 -55 -66t-55 66v1245h-246q-55 0 -55 51q0 22 15 37t40 15h246v364q0 66 57 66q53 0 53 -66v-364h246q25 0 40 -15t15 -37q0 -51 -55 -51z" />
<glyph unicode="&#x2021;" horiz-adv-x="757" d="M680 39h-246v-383q0 -66 -55 -66t-55 66v383h-246q-55 0 -55 51q0 22 15 37q14 14 40 14h246v760h-246q-55 0 -55 51q0 22 15 37t40 15h246v364q0 66 57 66q53 0 53 -66v-364h246q25 0 40 -15t15 -37q0 -51 -55 -51h-246v-760h246q26 0 40 -14q15 -15 15 -37 q0 -51 -55 -51z" />
<glyph unicode="&#x2022;" horiz-adv-x="829" d="M186 649q0 99 59 166q59 66 167 66q110 0 171 -67q60 -66 60 -165q0 -100 -60 -163q-59 -62 -171 -62q-109 0 -167 62q-59 64 -59 163z" />
<glyph unicode="&#x2026;" horiz-adv-x="1167" d="M117 88q0 40 22 65t66 25q42 0 66 -25t24 -65q0 -39 -24 -63q-25 -25 -66 -25q-43 0 -66 25q-22 23 -22 63zM494 88q0 40 22 65t66 25q42 0 66 -25t24 -65q0 -39 -24 -63q-25 -25 -66 -25q-43 0 -66 25q-22 23 -22 63zM872 88q0 39 23 65q22 25 66 25q42 0 66 -25t24 -65 q0 -39 -24 -63q-25 -25 -66 -25q-43 0 -66 25t-23 63z" />
<glyph unicode="&#x2030;" horiz-adv-x="2299" d="M63 1053q0 172 79 276q79 105 235 105q155 0 233 -105t78 -276t-78 -274t-233 -103q-156 0 -235 103t-79 274zM174 1053q0 -283 203 -283q201 0 201 283q0 130 -50 209q-49 77 -151 77q-203 0 -203 -286zM895 356q0 173 79 277t234 104q157 0 234 -104q78 -105 78 -277 q0 -170 -78 -273t-234 -103q-155 0 -234 103t-79 273zM1006 356q0 -282 202 -282q201 0 201 282q0 132 -49 209q-50 78 -152 78q-202 0 -202 -287zM1632 356q0 173 79 277t235 104t233 -104q78 -105 78 -277q0 -170 -78 -273t-233 -103q-156 0 -235 103t-79 273zM1743 356 q0 -282 203 -282q200 0 200 282q0 132 -49 209q-49 78 -151 78q-203 0 -203 -287zM492 18l516 1438q24 74 75 57q47 -17 19 -92l-518 -1441q-28 -76 -78 -60q-44 15 -14 98z" />
<glyph unicode="&#x2039;" horiz-adv-x="643" d="M121 569l317 320q53 53 86 18q31 -35 -18 -90l-311 -309l319 -324q46 -50 12 -84q-35 -35 -82 15l-327 323q-33 40 -32 68t36 63z" />
<glyph unicode="&#x203a;" horiz-adv-x="643" d="M553 440l-317 -319q-53 -53 -86 -19q-31 36 18 91l311 309l-319 323q-47 50 -13 84q35 33 82 -14l328 -324q33 -40 32 -67q-2 -30 -36 -64z" />
<glyph unicode="&#x2044;" horiz-adv-x="225" d="M-162 18l516 1438q24 74 76 57q47 -17 19 -92l-519 -1441q-28 -76 -77 -60q-45 15 -15 98z" />
<glyph unicode="&#x2070;" horiz-adv-x="751" d="M63 1053q0 172 79 276q79 105 235 105q155 0 233 -105t78 -276t-78 -274t-233 -103q-156 0 -235 103t-79 274zM174 1053q0 -283 203 -283q201 0 201 283q0 130 -50 209q-49 77 -151 77q-203 0 -203 -286z" />
<glyph unicode="&#x2074;" horiz-adv-x="618" d="M133 995h234v287zM465 901v-153q0 -52 -49 -52t-49 52v153h-297q-48 0 -57 38t18 62l319 394q33 39 68 39q47 0 47 -52v-387h53q45 0 45 -47t-45 -47h-53z" />
<glyph unicode="&#x2075;" horiz-adv-x="641" d="M233 1319l-14 -170q63 10 117 10q108 0 173 -63q64 -63 64 -172q0 -115 -78 -181q-79 -67 -208 -67q-113 0 -183 41q-63 37 -36 82q6 10 14 15t20 3q14 -2 18 -3q9 -3 19 -8q14 -7 17 -7q64 -29 131 -29q176 0 176 152q0 61 -38 102t-120 41q-28 0 -80 -5t-59 -5 q-47 0 -41 59l27 250q4 49 63 49h281q47 0 47 -47q0 -20 -15 -34q-14 -13 -32 -13h-263z" />
<glyph unicode="&#x2076;" horiz-adv-x="657" d="M164 954q0 -86 46 -135t118 -49q71 0 115 41t44 113q0 71 -46 111t-113 40q-63 0 -113 -37q-51 -38 -51 -84zM473 1319q-64 20 -108 20q-90 0 -142 -65q-55 -67 -61 -182q79 79 194 79t176 -68q62 -70 62 -173q0 -104 -69 -179t-193 -75t-196 80q-73 81 -73 229 q0 221 78 328q85 121 228 121q86 0 137 -31q34 -23 24 -60q-12 -39 -57 -24z" />
<glyph unicode="&#x2077;" horiz-adv-x="493" d="M481 1317l-262 -567q-31 -71 -78 -50q-44 21 -14 88l246 531h-324q-21 0 -34 12t-13 35t13 35q14 12 34 12h385q41 0 53 -29q12 -28 -6 -67z" />
<glyph unicode="&#x2078;" horiz-adv-x="708" d="M121 1253q0 82 62 131q64 50 171 50q102 0 169 -48q65 -47 65 -131q0 -114 -113 -180q81 -41 115 -83q35 -43 35 -115q0 -93 -77 -147q-76 -54 -194 -54q-120 0 -195 48t-75 144q0 128 154 213q-117 67 -117 172zM193 879q0 -50 44 -85q43 -34 113 -34q78 0 122 32t44 87 t-48 89q-41 30 -151 70q-124 -66 -124 -159zM225 1253q0 -80 168 -143q92 60 92 139q0 47 -33 73q-36 28 -98 28q-63 0 -96 -27t-33 -70z" />
<glyph unicode="&#x2079;" horiz-adv-x="657" d="M489 1155q0 86 -46 135t-117 49q-72 0 -116 -41t-44 -112q0 -72 46 -112t114 -40q62 0 112 37q51 37 51 84zM180 791q67 -21 109 -21q89 0 141 66q56 68 62 182q-80 -80 -195 -80t-176 69q-62 70 -62 173q0 104 69 179t194 75q123 0 195 -80q73 -81 73 -230 q0 -220 -78 -327q-85 -121 -227 -121q-87 0 -138 31q-34 22 -24 59q12 40 57 25z" />
<glyph unicode="&#x2080;" horiz-adv-x="751" d="M63 356q0 173 79 277t235 104t233 -104q78 -105 78 -277q0 -170 -78 -273t-233 -103q-156 0 -235 103t-79 273zM174 356q0 -282 203 -282q201 0 201 282q0 130 -50 209q-50 78 -151 78q-203 0 -203 -287z" />
<glyph unicode="&#x2081;" horiz-adv-x="501" d="M301 55v523l-158 -158q-44 -44 -77 -14q-31 31 8 75l219 221q35 35 65 35q50 0 50 -51v-631q0 -55 -54 -55q-53 0 -53 55z" />
<glyph unicode="&#x2082;" horiz-adv-x="598" d="M528 0h-411q-43 0 -43 45q0 101 57 178q57 76 125 114q66 37 125 91q57 52 57 113q0 102 -129 102q-69 0 -153 -45q-56 -30 -76 -4q-28 37 24 76q85 67 213 67q108 0 170 -50t62 -138q0 -83 -57 -149q-56 -65 -126 -103q-69 -37 -126 -90q-58 -53 -58 -113h346 q50 0 50 -47t-50 -47z" />
<glyph unicode="&#x2083;" horiz-adv-x="628" d="M231 348q-51 0 -51 45q0 22 29 51l194 179h-249q-45 0 -45 45q0 22 12 35q12 14 33 14h364q19 0 31 -12t12 -31q0 -27 -29 -51l-210 -189q268 -6 268 -217q0 -112 -77 -175q-75 -62 -208 -62q-113 0 -192 45q-61 34 -37 81q6 11 12 14q7 4 14 6q5 1 18 -2q4 -1 16 -5 q1 0 7 -2.5t10 -4.5q5 -2 10 -5l3 -1q70 -32 137 -32q176 0 176 139q0 135 -248 135z" />
<glyph unicode="&#x2084;" horiz-adv-x="618" d="M133 299h234v287zM465 205v-154q0 -51 -49 -51t-49 51v154h-297q-48 0 -57 38t18 62l319 393q33 39 68 39q47 0 47 -51v-387h53q45 0 45 -47t-45 -47h-53z" />
<glyph unicode="&#x2085;" horiz-adv-x="641" d="M233 623l-14 -170q63 10 117 10q107 0 173 -64q64 -63 64 -172q0 -114 -78 -180q-79 -67 -208 -67q-115 0 -183 40q-63 37 -36 82q7 12 14 16q8 5 20 3q14 -2 18 -3q9 -3 19 -8q16 -8 17 -8q62 -28 131 -28q176 0 176 151q0 62 -38 103t-120 41q-28 0 -80 -5 q-12 -1 -26 -2.5t-22 -2.5t-11 -1q-47 0 -41 60l27 250q4 49 63 49h281q47 0 47 -47q0 -20 -15 -34q-14 -13 -32 -13h-263z" />
<glyph unicode="&#x2086;" horiz-adv-x="657" d="M164 258q0 -86 46 -135t118 -49q71 0 115 41t44 112q0 72 -46 112t-113 40q-63 0 -113 -37q-51 -38 -51 -84zM473 623q-64 20 -108 20q-90 0 -142 -65q-55 -67 -61 -183q80 80 194 80q115 0 176 -68q62 -70 62 -174t-69 -179q-68 -74 -193 -74q-124 0 -196 79 q-73 81 -73 230q0 221 78 327q85 121 228 121q88 0 137 -30q34 -23 24 -60q-12 -39 -57 -24z" />
<glyph unicode="&#x2087;" horiz-adv-x="493" d="M481 621l-262 -568q-31 -70 -78 -49q-44 21 -14 88l246 531h-324q-21 0 -34 12t-13 35t13 35t34 12h385q41 0 53 -29q12 -28 -6 -67z" />
<glyph unicode="&#x2088;" horiz-adv-x="708" d="M121 557q0 82 62 131t171 49q104 0 169 -47t65 -131q0 -114 -113 -180q81 -41 115 -83q35 -43 35 -116q0 -92 -77 -146q-76 -54 -194 -54q-120 0 -195 48t-75 144q0 128 154 213q-117 67 -117 172zM193 182q0 -50 44 -85q43 -34 113 -34q78 0 122 32t44 87q0 54 -48 89 q-44 32 -151 71q-124 -66 -124 -160zM225 557q0 -80 168 -143q92 60 92 139q0 47 -33 73q-34 27 -98 27t-96 -26q-33 -27 -33 -70z" />
<glyph unicode="&#x2089;" horiz-adv-x="657" d="M489 459q0 86 -46 135t-117 49q-72 0 -116 -41t-44 -113q0 -71 46 -111t114 -40q62 0 112 37q51 37 51 84zM180 94q64 -20 109 -20q89 0 141 65q56 68 62 183q-80 -80 -195 -80t-176 68q-62 70 -62 173q0 105 69 180q68 74 194 74q123 0 195 -80q73 -81 73 -229 q0 -221 -78 -328q-84 -120 -227 -120q-89 0 -138 30q-35 22 -24 60q12 39 57 24z" />
<glyph unicode="&#x20ac;" horiz-adv-x="1130" d="M846 522h-527q38 -207 161 -319q125 -113 319 -113q122 0 256 55q73 33 96 -12q24 -49 -45 -86q-134 -67 -311 -67q-531 0 -607 542h-122q-56 0 -56 53q0 22 16 38t40 16h114q-2 32 -2 76q0 59 6 114h-118q-56 0 -56 53q0 22 16 38t40 16h135q51 233 211 371 q160 137 409 137q164 0 273 -52q72 -35 51 -86q-18 -45 -88 -18q-122 45 -248 45q-194 0 -315 -106q-120 -105 -164 -291h516q24 0 40 -16q15 -15 15 -38q0 -53 -55 -53h-535q-6 -57 -6 -117q0 -43 2 -73h539q24 0 40 -16q15 -15 15 -38q0 -53 -55 -53z" />
<glyph unicode="&#x20b4;" horiz-adv-x="1130" d="M961 762h-793q-55 0 -55 53q0 23 15 38t40 15h532q166 117 166 262q0 88 -63 140q-64 53 -201 53q-136 0 -293 -78q-67 -33 -90 8q-27 49 41 88q162 93 350 93q195 0 289 -82t94 -209q0 -147 -141 -275h109q24 0 39 -15q16 -16 16 -38q0 -53 -55 -53zM961 506h-570 q-76 -79 -76 -191q0 -104 73 -165q72 -60 214 -60q124 0 250 70q90 51 119 16q44 -51 -58 -115q-128 -81 -313 -81q-412 0 -412 313q0 121 68 213h-88q-55 0 -55 53q0 23 15 38t40 15h793q24 0 39 -15q16 -16 16 -38q0 -53 -55 -53z" />
<glyph unicode="&#x20b6;" horiz-adv-x="1130" d="M686 332h-350v-266q0 -29 -17 -48q-17 -18 -45 -18t-45 18q-16 17 -16 48v266h-125q-55 0 -55 53q0 23 15 38t40 15h125v135h-125q-55 0 -55 54q0 23 15 38t40 15h125v647q0 62 61 74q119 22 281 22q239 0 367 -101q129 -102 129 -308q0 -218 -140 -329 q-141 -112 -383 -112h-192v-135h350q25 0 40 -15t15 -38q0 -53 -55 -53zM555 1313q-92 0 -219 -13v-620h184q197 0 300 76q104 77 104 258q0 156 -93 228q-92 71 -276 71z" />
<glyph unicode="&#x20b8;" horiz-adv-x="1130" d="M1042 1057h-415v-991q0 -29 -17 -48q-16 -18 -45 -18t-45 18q-16 17 -16 48v991h-416q-25 0 -40 15t-15 40q0 22 15 39q15 16 40 16h954q25 0 40 -16q16 -18 16 -39q0 -24 -16 -40q-15 -15 -40 -15zM1042 1303h-954q-25 0 -40 15t-15 40q0 22 15 39q15 16 40 16h954 q25 0 40 -16q16 -18 16 -39q0 -24 -16 -40q-15 -15 -40 -15z" />
<glyph unicode="&#x2116;" horiz-adv-x="2195" d="M1993 514h-496q-55 0 -55 53q0 23 15 38q16 16 40 16h496q24 0 40 -16q15 -15 15 -38q0 -53 -55 -53zM1434 1053q0 173 78 276q80 105 235 105t233 -105t78 -276t-78 -274t-233 -103q-156 0 -235 103q-78 102 -78 274zM1544 1053q0 -283 203 -283q201 0 201 283 q0 130 -50 209q-49 77 -151 77q-203 0 -203 -286zM1147 223v1125q0 65 57 65q58 0 58 -65v-1282q0 -29 -17 -48q-17 -18 -43 -18q-32 0 -61 33l-860 1155v-1122q0 -66 -58 -66q-57 0 -57 66v1277q0 29 15 50q14 20 46 20q39 0 68 -39z" />
<glyph unicode="&#x2122;" horiz-adv-x="1685" d="M680 1319h-250v-619q0 -25 -14 -42t-39 -17q-53 0 -53 59v619h-250q-51 0 -51 47t51 47h606q23 0 37 -14t14 -35q0 -45 -51 -45zM803 1352v-652q0 -59 47 -59t47 59v514l238 -340q17 -27 48 -29q30 -1 54 29l258 355v-529q0 -59 53 -59q25 0 39 17q15 18 15 42v652 q0 61 -50 61q-35 0 -73 -47l-285 -403l-279 407q-30 43 -63 43q-49 0 -49 -61z" />
<glyph unicode="&#x2126;" horiz-adv-x="1531" d="M766 1323q-255 0 -408 -144t-153 -403q0 -210 96 -329q94 -116 236 -160q51 -17 51 -76v-145q0 -26 -16 -47q-15 -19 -42 -19h-387q-25 0 -40 15t-15 40q0 23 15 39q15 17 40 17h332v88q-71 18 -135 56t-126 103q-61 64 -99 173q-37 107 -37 245q0 292 185 474 q187 184 503 184t503 -184q185 -182 185 -474q0 -110 -26 -203t-65 -151q-42 -62 -95 -108q-54 -47 -106 -72q-56 -27 -105 -43v-88h332q24 0 39 -17q16 -18 16 -39q0 -24 -16 -40q-15 -15 -39 -15h-388q-27 0 -42 19t-15 47v145q0 59 51 76q142 44 236 160q96 119 96 329 q0 259 -153 403t-408 144z" />
<glyph unicode="&#x2202;" horiz-adv-x="1120" d="M940 657q-33 122 -116 191q-84 70 -214 70q-194 0 -309 -142t-115 -360q0 -152 80 -241t228 -89q109 0 192 52q84 53 134 143q53 96 78 181q27 93 42 195zM428 1329q-72 11 -66 60q6 51 68 45q234 -18 375 -103q254 -156 254 -493q0 -145 -31 -292q-30 -142 -95 -275 t-181 -212t-273 -79q-201 0 -307 116t-104 312q0 251 149 433q150 183 395 183t346 -197q-5 143 -68 252q-65 112 -147 158q-112 65 -315 92z" />
<glyph unicode="&#x2206;" horiz-adv-x="1232" d="M106 0q-40 0 -54 31q-14 30 3 63l504 1282q23 58 70 58q42 0 63 -50l514 -1290q12 -35 -4 -64q-16 -30 -55 -30h-1041zM623 1249l-441 -1138h885z" />
<glyph unicode="&#x220f;" horiz-adv-x="1376" d="M1087 -344v1647h-798v-1647q0 -28 -17 -47t-45 -19t-45 19q-16 17 -16 47v1698q0 59 55 59h930q59 0 59 -59v-1698q0 -30 -16 -47q-17 -19 -45 -19t-45 19t-17 47z" />
<glyph unicode="&#x2211;" horiz-adv-x="1132" d="M659 494l-583 800q-29 34 -16 76q13 43 63 43h913q66 0 66 -55t-66 -55h-817l543 -736q53 -68 0 -137l-547 -729h821q66 0 66 -55q0 -56 -66 -56h-907q-53 0 -67 39q-13 38 18 78z" />
<glyph unicode="&#x2212;" horiz-adv-x="1017" d="M879 625h-740q-55 0 -55 53q0 23 15 38t40 15h740q25 0 40 -15t15 -38q0 -53 -55 -53z" />
<glyph unicode="&#x2215;" horiz-adv-x="655" d="M6 -113l598 1682q30 83 88 65q53 -17 23 -104l-600 -1688q-27 -82 -84 -65q-58 17 -25 110z" />
<glyph unicode="&#x221a;" horiz-adv-x="1216" d="M1323 1307h-293q-319 -1255 -332 -1274q-17 -53 -61 -53q-41 0 -62 49l-358 868h-160q-55 0 -55 53q0 23 15 38q16 16 40 16h189q57 0 80 -58l307 -766l289 1161q21 72 86 72h315q25 0 40 -15t15 -38q0 -53 -55 -53z" />
<glyph unicode="&#x221e;" horiz-adv-x="1515" d="M1135 387q-194 0 -379 234q-168 -234 -359 -234q-122 0 -217 82q-96 83 -96 229q0 136 90 226t229 90q173 0 353 -234q164 234 377 234q137 0 218 -86q81 -85 81 -236q0 -128 -81 -216q-81 -89 -216 -89zM1116 907q-153 0 -297 -202q163 -211 309 -211q93 0 144 58 t51 140q0 95 -53 156q-52 59 -154 59zM403 494q155 0 289 200q-73 100 -142 157q-68 56 -142 56q-99 0 -157 -58t-58 -151q0 -100 62 -152t148 -52z" />
<glyph unicode="&#x222b;" horiz-adv-x="659" d="M-82 -303q15 44 76 22q66 -22 123 -22q95 0 132 61q38 62 38 183v1128q0 181 66 273t227 92q97 0 163 -39q42 -25 27 -68q-15 -44 -76 -22q-66 22 -123 22q-95 0 -132 -61q-38 -62 -38 -183v-1128q0 -181 -66 -273t-226 -92q-98 0 -164 39q-42 25 -27 68z" />
<glyph unicode="&#x2248;" horiz-adv-x="1017" d="M719 657q-65 0 -189 49q-122 48 -170 48q-60 0 -133 -52q-64 -47 -92 -20q-37 37 19 88q96 90 217 90q76 0 201 -48t157 -48q65 0 133 51q67 49 96 19q15 -21 8 -43t-30 -43q-97 -91 -217 -91zM719 401q-65 0 -189 49q-122 48 -170 48q-60 0 -133 -52q-64 -47 -92 -20 q-37 37 19 88q96 90 217 90q76 0 201 -48q124 -48 157 -48q65 0 133 51q67 49 96 19q15 -21 8 -43t-30 -43q-97 -91 -217 -91z" />
<glyph unicode="&#x2260;" horiz-adv-x="1017" d="M879 420h-387l-103 -297q-30 -83 -80 -66q-45 17 -18 95l92 268h-244q-55 0 -55 53q0 23 15 38t40 15h281l61 181h-342q-55 0 -55 53q0 23 15 38t40 15h379l105 299q29 80 79 64q48 -15 21 -95l-94 -268h250q25 0 40 -15t15 -38q0 -53 -55 -53h-287l-64 -181h351 q25 0 40 -15t15 -38q0 -53 -55 -53z" />
<glyph unicode="&#x2264;" horiz-adv-x="1017" d="M324 582l442 -349q60 -46 31 -90q-27 -41 -84 -2l-461 357q-24 18 -31 40q-8 26 6 48q35 46 97 -4zM260 874l445 347q66 46 94 6q29 -41 -37 -90l-416 -324l418 -330q66 -53 31 -94q-33 -40 -86 4l-453 350q-40 29 -38 65t42 66z" />
<glyph unicode="&#x2265;" horiz-adv-x="1017" d="M287 233l440 349q61 49 96 4q33 -45 -28 -90l-455 -355q-20 -16 -45 -16q-24 0 -39 18q-29 41 31 90zM793 743l-445 -346q-66 -46 -94 -6q-29 41 37 90l416 324l-418 330q-66 53 -31 94q33 40 86 -4l453 -351q39 -29 38 -64q-2 -37 -42 -67z" />
<glyph unicode="&#x22c5;" horiz-adv-x="411" d="M115 664q0 39 23 65q24 27 67 27t67 -27q25 -28 25 -65q0 -38 -25 -65q-24 -26 -67 -26t-67 26q-23 24 -23 65z" />
<glyph unicode="&#x25ca;" horiz-adv-x="1148" d="M535 102l-379 547q-39 55 -4 107l378 559q30 49 74 49q42 0 76 -49l389 -559q27 -38 -2 -88l-383 -566q-34 -49 -74 -49q-41 0 -75 49zM602 1235l-356 -522l366 -531l353 523z" />
<glyph unicode="&#x25fc;" horiz-adv-x="1003" d="M0 1004h1004v-1004h-1004v1004z" />
<glyph unicode="&#xf639;" horiz-adv-x="1122" d="M55 707q0 331 126 529t380 198t380 -198t126 -529q0 -332 -126 -530q-125 -197 -380 -197t-380 197q-126 198 -126 530zM174 707q0 -291 102 -456t285 -165t285 165t102 456q0 290 -102 455t-285 165q-195 0 -291 -162t-96 -458z" />
<glyph unicode="&#xf63a;" horiz-adv-x="952" d="M184 1235q-2 -3 -10 -7l-11 -7l-11 -8q-6 -4 -13 -6q-6 -2 -11 -4q-8 -3 -11 -3q-7 0 -11 -1q-5 -1 -11 1q-5 2 -10 5q-6 4 -9 7q-40 43 37 103q160 119 360 119q198 0 296 -89q97 -88 97 -239q0 -93 -38 -175q-38 -81 -99 -141t-135 -117l-149 -115q-75 -58 -136 -121 q-63 -64 -99 -147q-38 -87 -38 -184h688q26 0 41 -14q17 -15 17 -39q0 -23 -17 -38t-41 -15h-735q-70 0 -70 74q0 118 38 221q37 101 100 173q60 69 135 133q69 59 147 118q80 61 135 110q63 57 100 126q38 71 38 151q0 90 -68 156q-66 65 -211 65q-143 0 -285 -92z" />
<glyph unicode="&#xf63b;" horiz-adv-x="1046" d="M393 739q-55 0 -68 37q-14 38 23 78l404 453h-521q-26 0 -41 14q-16 15 -16 39q0 23 16 38q17 15 41 15h603q59 0 68 -40t-25 -77l-406 -450q227 -4 354 -115t127 -317q0 -198 -129 -317q-127 -117 -336 -117t-354 102q-60 40 -29 88q27 41 99 -2q133 -82 289 -82 q174 0 258 93t84 239q0 152 -109 237q-108 84 -332 84z" />
<glyph unicode="&#xf63c;" horiz-adv-x="1040" d="M903 481h-96v-415q0 -66 -57 -66q-58 0 -58 66v415h-598q-49 0 -59 34q-11 35 16 63l641 817q28 39 62 39q53 0 53 -66v-780h96q64 0 64 -53q0 -54 -64 -54zM184 588h508v645z" />
<glyph unicode="&#xf63d;" horiz-adv-x="1001" d="M492 -20q-216 0 -353 102q-64 47 -26 94q27 35 100 -10q130 -80 283 -80q185 0 267 104q83 106 83 261q0 138 -80 229q-80 90 -244 90q-64 0 -155 -27q-88 -26 -107 -26q-58 0 -53 63l41 568q0 65 55 65h545q25 0 40 -15t15 -38q0 -53 -55 -53h-496l-33 -471 q109 41 216 41q119 0 208 -39t135 -105q44 -63 66 -134q21 -69 21 -144q0 -226 -134 -351q-133 -124 -339 -124z" />
<glyph unicode="&#xf63e;" horiz-adv-x="1060" d="M197 481q0 -44 8 -95q7 -45 32 -103q26 -60 60 -98q37 -42 100 -70q64 -29 146 -29q163 0 244 114t81 271q0 147 -88 241q-89 95 -235 95q-136 0 -242 -85t-106 -241zM821 1298q-92 29 -182 29q-196 0 -307 -137q-130 -158 -146 -473q124 196 379 196q195 0 308 -122 q114 -123 114 -318q0 -202 -116 -348q-115 -145 -336 -145t-341 151t-120 459q0 441 164 655q146 189 399 189q158 0 237 -43q51 -27 33 -74q-17 -42 -86 -19z" />
<glyph unicode="&#xf63f;" horiz-adv-x="925" d="M901 1305l-563 -1250q-33 -73 -88 -51q-25 11 -28 40q-3 31 11 54q12 25 545 1209h-698q-26 0 -41 14q-16 15 -16 39q0 23 16 38q17 15 41 15h772q102 0 49 -108z" />
<glyph unicode="&#xf640;" horiz-adv-x="1159" d="M168 1108q0 150 120 238q119 88 292 88q176 0 294 -86q117 -86 117 -246q0 -117 -61 -205q-62 -89 -180 -168q161 -78 232 -160q73 -85 73 -217q0 -160 -136 -266t-339 -106q-133 0 -234 34q-102 35 -172 121q-70 87 -70 215q0 247 308 414q-134 74 -189 150t-55 194z M223 350q0 -130 103 -197q104 -67 254 -67q155 0 256 74q100 73 100 188q0 66 -34 122q-35 58 -96 100q-65 45 -132 77q-68 32 -164 66q-166 -79 -227 -170q-60 -90 -60 -193zM283 1098q0 -106 102 -183q99 -74 277 -137q215 134 215 318q0 231 -297 231q-132 0 -214 -60 q-83 -60 -83 -169z" />
<glyph unicode="&#xf641;" horiz-adv-x="1060" d="M860 932q0 44 -8 95q-7 45 -32 103q-26 60 -60 98q-36 41 -101 70q-64 29 -145 29q-164 0 -245 -114t-81 -271q0 -147 88 -241q89 -95 236 -95q136 0 242 85t106 241zM236 115q92 -29 182 -29q196 0 307 137q128 157 145 473q-124 -196 -378 -196q-195 0 -309 123 q-113 122 -113 317q0 203 115 348q116 146 337 146t341 -152t120 -459q0 -441 -164 -655q-145 -188 -399 -188q-161 0 -238 43q-50 26 -32 73q17 42 86 19z" />
<glyph unicode="&#xf6ba;" horiz-adv-x="0" />
<glyph unicode="&#xf6bb;" horiz-adv-x="0" />
<glyph unicode="&#xf6bc;" horiz-adv-x="0" />
<glyph unicode="&#xf6c9;" d="M774 1724l-368 -188q-70 -35 -91 8q-25 48 41 82l371 191q69 34 92 -7q28 -49 -45 -86z" />
<glyph unicode="&#xf6ca;" d="M291 1772l264 -160l260 160q64 39 88 -5q24 -43 -39 -77l-258 -160q-60 -38 -117 0l-251 153q-31 17 -40 41q-9 25 5 45q25 41 88 3z" />
<glyph unicode="&#xf6cb;" d="M276 1655q0 42 26 68t69 26t71 -26q27 -25 27 -68q0 -90 -98 -90q-95 0 -95 90zM657 1655q0 42 26 68t71 26q44 0 70 -27q26 -28 26 -67q0 -43 -26 -67q-24 -23 -70 -23q-97 0 -97 90z" />
<glyph unicode="&#xf6ce;" d="M733 1536l-368 188q-74 38 -46 86q23 44 95 7l368 -191q68 -35 41 -82q-23 -41 -90 -8z" />
<glyph unicode="&#xf6cf;" d="M565 1724l-368 -188q-70 -35 -91 8q-25 48 41 82l371 191q69 34 92 -7q28 -49 -45 -86zM983 1724l-369 -188q-69 -35 -90 8q-25 48 41 82l371 191q69 34 92 -7q28 -49 -45 -86z" />
<glyph unicode="&#xf6d0;" d="M829 1591h-573q-53 0 -53 49q0 22 14 36q16 16 39 16h573q23 0 39 -16q15 -15 15 -36q0 -49 -54 -49z" />
<glyph unicode="&#xf6d1;" d="M580 1536q-107 0 -190 45q-84 46 -118 102q-38 58 0 89q39 30 84 -23q96 -111 224 -111q135 0 225 111q44 53 84 23q38 -31 0 -89q-34 -57 -119 -102q-84 -45 -190 -45z" />
<glyph unicode="&#xf6d4;" d="M565 1149q-109 0 -180 52q-70 51 -98 116q-23 58 16 80q45 24 78 -33q64 -115 184 -115q121 0 185 115q33 55 77 33q41 -21 17 -80q-27 -64 -99 -116q-71 -52 -180 -52z" />
<glyph unicode="&#xf6dc;" horiz-adv-x="710" d="M436 66v1185l-268 -268q-53 -53 -90 -20q-39 37 12 88l344 346q37 37 66 37q51 0 51 -66v-1302q0 -66 -57 -66q-58 0 -58 66z" />
<glyph unicode="&#xf730;" horiz-adv-x="1130" d="M74 502q0 218 132 370t359 152q228 0 360 -152t132 -370q0 -220 -132 -371t-360 -151q-227 0 -359 151t-132 371zM193 502q0 -188 99 -302t273 -114q175 0 274 114t99 302t-99 302t-274 114q-174 0 -273 -114t-99 -302z" />
<glyph unicode="&#xf731;" horiz-adv-x="755" d="M473 66v772l-246 -240q-53 -53 -90 -20q-38 37 17 92l317 317q37 37 66 37q51 0 51 -66v-892q0 -66 -58 -66q-57 0 -57 66z" />
</font>
</defs>
</svg>
