<?xml version="1.0" encoding="utf-8"?>
<!-- Generator: Adobe Illustrator 15.0.0, SVG Export Plug-In . SVG Version: 6.00 Build 0)  -->
<!DOCTYPE svg PUBLIC "-//W3C//DTD SVG 1.1//EN" "http://www.w3.org/Graphics/SVG/1.1/DTD/svg11.dtd">
<svg version="1.1" id="Layer_1" xmlns="http://www.w3.org/2000/svg" xmlns:xlink="http://www.w3.org/1999/xlink" x="0px" y="0px"
	 width="595px" height="500px" viewBox="0 0 595 500" enable-background="new 0 0 595 500" xml:space="preserve">
<line fill="none" stroke="#6A8FC9" stroke-width="0.5669" stroke-miterlimit="22.9256" x1="320.735" y1="41.255" x2="189.596" y2="90.11"/>
<line fill="none" stroke="#6A8FC9" stroke-width="0.5669" stroke-miterlimit="22.9256" x1="387.591" y1="54.111" x2="576.586" y2="91.396"/>
<line fill="none" stroke="#6A8FC9" stroke-width="0.5669" stroke-miterlimit="22.9256" x1="561.157" y1="65.683" x2="475.017" y2="95.253"/>
<polyline fill="none" stroke="#6A8FC9" stroke-width="0.5669" stroke-miterlimit="22.9256" points="196.024,171.108 
	381.162,150.538 310.449,189.108 442.874,190.394 "/>
<polyline fill="none" stroke="#6A8FC9" stroke-width="0.5669" stroke-miterlimit="22.9256" points="547.015,195.537 
	514.873,336.961 581.729,267.535 458.303,318.961 "/>
<line fill="none" stroke="#6A8FC9" stroke-width="0.5669" stroke-miterlimit="22.9256" x1="581.729" y1="267.535" x2="590.728" y2="282.963"/>
<polyline fill="none" stroke="#6A8FC9" stroke-width="0.5669" stroke-miterlimit="22.9256" points="406.876,367.818 
	374.733,419.245 566.3,381.96 "/>
<line fill="none" stroke="#6A8FC9" stroke-width="0.5669" stroke-miterlimit="22.9256" x1="547.015" y1="367.818" x2="550.37" y2="385.061"/>
<line fill="none" stroke="#6A8FC9" stroke-width="0.5669" stroke-miterlimit="22.9256" x1="342.591" y1="393.531" x2="352.877" y2="460.387"/>
<line fill="none" stroke="#6A8FC9" stroke-width="0.5669" stroke-miterlimit="22.9256" x1="406.876" y1="397.388" x2="298.879" y2="417.959"/>
<polyline fill="none" stroke="#6A8FC9" stroke-width="0.5669" stroke-miterlimit="22.9256" points="273.165,363.961 30.171,457.815 
	129.168,352.39 "/>
<line fill="none" stroke="#6A8FC9" stroke-width="0.5669" stroke-miterlimit="22.9256" x1="107.312" y1="398.674" x2="23.742" y2="429.53"/>
<polyline fill="none" stroke="#6A8FC9" stroke-width="0.5669" stroke-miterlimit="22.9256" points="183.167,230.25 94.455,336.961 
	152.311,315.104 28.885,230.25 "/>
<polyline fill="none" stroke="#6A8FC9" stroke-width="0.5669" stroke-miterlimit="22.9256" points="36.6,205.822 140.74,55.397 
	12.171,145.395 "/>
<line fill="none" stroke="#6A8FC9" stroke-width="0.5669" stroke-miterlimit="22.9256" x1="22.457" y1="111.967" x2="151.025" y2="74.683"/>
<line fill="none" stroke="#6A8FC9" stroke-width="0.5669" stroke-miterlimit="22.9256" x1="233.309" y1="317.676" x2="374.733" y2="261.106"/>
<path fill-rule="evenodd" clip-rule="evenodd" fill="none" stroke="#6A8FC9" stroke-width="0.5669" stroke-miterlimit="22.9256" d="
	M563.964,80.5c9.56,0,17.357-7.797,17.357-17.356c0-9.56-7.798-17.357-17.357-17.357s-17.356,7.797-17.356,17.357
	C546.607,72.704,554.404,80.5,563.964,80.5z"/>
<path fill-rule="evenodd" clip-rule="evenodd" fill="none" stroke="#6A8FC9" stroke-width="0.5669" stroke-miterlimit="22.9256" d="
	M524.998,296.896c2.744,0,4.981-2.238,4.981-4.982s-2.237-4.982-4.981-4.982s-4.982,2.238-4.982,4.982
	S522.254,296.896,524.998,296.896z"/>
<path fill-rule="evenodd" clip-rule="evenodd" fill="none" stroke="#6A8FC9" stroke-width="0.5669" stroke-miterlimit="22.9256" d="
	M451.553,192.644c1.771,0,3.215-1.444,3.215-3.214c0-1.771-1.444-3.214-3.215-3.214c-1.77,0-3.214,1.444-3.214,3.214
	C448.339,191.2,449.783,192.644,451.553,192.644z"/>
<path fill-rule="evenodd" clip-rule="evenodd" fill="none" stroke="#6A8FC9" stroke-width="0.5669" stroke-miterlimit="22.9256" d="
	M461.515,192.644c1.771,0,3.214-1.444,3.214-3.214c0-1.771-1.443-3.214-3.214-3.214s-3.214,1.444-3.214,3.214
	C458.301,191.2,459.744,192.644,461.515,192.644z"/>
<path fill-rule="evenodd" clip-rule="evenodd" fill="none" stroke="#6A8FC9" stroke-width="0.5669" stroke-miterlimit="22.9256" d="
	M470.747,192.644c1.771,0,3.215-1.444,3.215-3.214c0-1.771-1.444-3.214-3.215-3.214c-1.77,0-3.214,1.444-3.214,3.214
	C467.533,191.2,468.978,192.644,470.747,192.644z"/>
<path fill-rule="evenodd" clip-rule="evenodd" fill="none" stroke="#6A8FC9" stroke-width="0.5669" stroke-miterlimit="22.9256" d="
	M378.791,297.882c16.286,0,29.57-13.283,29.57-29.57s-13.284-29.571-29.57-29.571c-16.287,0-29.571,13.284-29.571,29.571
	S362.504,297.882,378.791,297.882z"/>
<path fill-rule="evenodd" clip-rule="evenodd" fill="none" stroke="#6A8FC9" stroke-width="0.5669" stroke-miterlimit="22.9256" d="
	M358.326,305.111c6.507,0,11.814-5.307,11.814-11.814s-5.308-11.814-11.814-11.814s-11.814,5.307-11.814,11.814
	S351.819,305.111,358.326,305.111z"/>
<path fill-rule="evenodd" clip-rule="evenodd" fill="none" stroke="#6A8FC9" stroke-width="0.5669" stroke-miterlimit="22.9256" d="
	M167.096,256.927c2.655,0,4.821-2.021,4.821-4.5s-2.166-4.5-4.821-4.5c-2.656,0-4.822,2.021-4.822,4.5
	S164.44,256.927,167.096,256.927z"/>
<path fill-rule="evenodd" clip-rule="evenodd" fill="none" stroke="#6A8FC9" stroke-width="0.5669" stroke-miterlimit="22.9256" d="
	M45.487,249.459c4.087,0,7.421-3.333,7.421-7.42s-3.333-7.421-7.421-7.421c-4.087,0-7.421,3.333-7.421,7.421
	S41.4,249.459,45.487,249.459z"/>
<path fill-rule="evenodd" clip-rule="evenodd" fill="none" stroke="#6A8FC9" stroke-width="0.5669" stroke-miterlimit="22.9256" d="
	M61.584,174.001c2.301,0,4.178-1.877,4.178-4.179s-1.877-4.179-4.178-4.179c-2.302,0-4.179,1.877-4.179,4.179
	S59.283,174.001,61.584,174.001z"/>
<path fill-rule="evenodd" clip-rule="evenodd" fill="none" stroke="#6A8FC9" stroke-width="0.5669" stroke-miterlimit="22.9256" d="
	M216.24,84.579c2.546,0,4.623-2.077,4.623-4.623s-2.077-4.624-4.623-4.624s-4.624,2.077-4.624,4.624S213.694,84.579,216.24,84.579z"
	/>
<path fill-rule="evenodd" clip-rule="evenodd" fill="none" stroke="#6A8FC9" stroke-width="0.5669" stroke-miterlimit="22.9256" d="
	M231.182,79c2.546,0,4.623-2.077,4.623-4.624c0-2.546-2.077-4.623-4.623-4.623c-2.546,0-4.623,2.077-4.623,4.623
	C226.559,76.923,228.636,79,231.182,79z"/>
<path fill-rule="evenodd" clip-rule="evenodd" fill="none" stroke="#6A8FC9" stroke-width="0.5669" stroke-miterlimit="22.9256" d="
	M245.326,73.972c2.546,0,4.623-2.077,4.623-4.623s-2.077-4.623-4.623-4.623s-4.624,2.077-4.624,4.623S242.78,73.972,245.326,73.972z
	"/>
<path fill-rule="evenodd" clip-rule="evenodd" fill="none" stroke="#6A8FC9" stroke-width="0.5669" stroke-miterlimit="22.9256" d="
	M397.422,387.604c2.611,0,4.741-2.094,4.741-4.661s-2.13-4.661-4.741-4.661s-4.74,2.094-4.74,4.661S394.811,387.604,397.422,387.604
	z"/>
<path fill-rule="evenodd" clip-rule="evenodd" fill="none" stroke="#6A8FC9" stroke-width="0.5669" stroke-miterlimit="22.9256" d="
	M406.876,372.799c2.699,0,4.901-2.238,4.901-4.982c0-2.744-2.202-4.982-4.901-4.982c-2.7,0-4.902,2.238-4.902,4.982
	C401.974,370.562,404.176,372.799,406.876,372.799z"/>
<path fill-rule="evenodd" clip-rule="evenodd" fill="none" stroke="#6A8FC9" stroke-width="0.5669" stroke-miterlimit="22.9256" d="
	M91.24,398.192c2.921,0,5.304-2.382,5.304-5.303c0-2.921-2.382-5.304-5.304-5.304c-2.921,0-5.303,2.383-5.303,5.304
	C85.937,395.811,88.319,398.192,91.24,398.192z"/>
<path fill-rule="evenodd" clip-rule="evenodd" fill="none" stroke="#6A8FC9" stroke-width="0.5669" stroke-miterlimit="22.9256" d="
	M99.599,394.166c5.665,0,10.285-4.621,10.285-10.286s-4.621-10.286-10.285-10.286c-5.666,0-10.286,4.621-10.286,10.286
	S93.933,394.166,99.599,394.166z"/>
<path fill-rule="evenodd" clip-rule="evenodd" fill="none" stroke="#6A8FC9" stroke-width="0.5669" stroke-miterlimit="22.9256" d="
	M45.659,456.972c5.963,0,10.828-4.864,10.828-10.827c0-5.964-4.864-10.828-10.828-10.828s-10.828,4.864-10.828,10.828
	C34.831,452.107,39.695,456.972,45.659,456.972z"/>
<line fill-rule="evenodd" clip-rule="evenodd" fill="none" stroke="#6A8FC9" stroke-width="0.5669" stroke-miterlimit="22.9256" x1="144.356" y1="405.504" x2="149.177" y2="418.04"/>
<line fill-rule="evenodd" clip-rule="evenodd" fill="none" stroke="#6A8FC9" stroke-width="0.5669" stroke-miterlimit="22.9256" x1="138.59" y1="413.969" x2="139.915" y2="417.398"/>
<line fill-rule="evenodd" clip-rule="evenodd" fill="none" stroke="#6A8FC9" stroke-width="0.5669" stroke-miterlimit="22.9256" x1="140.059" y1="413.401" x2="141.384" y2="416.831"/>
<line fill-rule="evenodd" clip-rule="evenodd" fill="none" stroke="#6A8FC9" stroke-width="0.5669" stroke-miterlimit="22.9256" x1="141.596" y1="412.808" x2="142.92" y2="416.237"/>
<line fill-rule="evenodd" clip-rule="evenodd" fill="none" stroke="#6A8FC9" stroke-width="0.5669" stroke-miterlimit="22.9256" x1="242.991" y1="170.625" x2="241.866" y2="159.697"/>
</svg>
